G75*
%MOIN*%
%OFA0B0*%
%FSLAX25Y25*%
%IPPOS*%
%LPD*%
%AMOC8*
5,1,8,0,0,1.08239X$1,22.5*
%
%ADD10C,0.01600*%
%ADD11OC8,0.08000*%
%ADD12OC8,0.07200*%
%ADD13C,0.07543*%
%ADD14C,0.07200*%
%ADD15R,0.07543X0.07543*%
%ADD16C,0.08000*%
%ADD17C,0.00000*%
%ADD18C,0.09500*%
%ADD19C,0.08000*%
%ADD20R,0.08000X0.08000*%
%ADD21C,0.02000*%
%ADD22C,0.07600*%
%ADD23C,0.06600*%
%ADD24C,0.03000*%
D10*
X0083669Y0064144D02*
X0087349Y0060464D01*
X0090133Y0057680D02*
X0093813Y0054000D01*
X0097898Y0054000D01*
X0101835Y0054000D02*
X0105920Y0054000D01*
X0109857Y0054000D02*
X0113941Y0054000D01*
X0117878Y0054000D02*
X0121963Y0054000D01*
X0125900Y0054000D02*
X0129985Y0054000D01*
X0133922Y0054000D02*
X0138007Y0054000D01*
X0141944Y0054000D02*
X0146029Y0054000D01*
X0149966Y0054000D02*
X0154050Y0054000D01*
X0157987Y0054000D02*
X0162072Y0054000D01*
X0166009Y0054000D02*
X0170094Y0054000D01*
X0174031Y0054000D02*
X0178116Y0054000D01*
X0182053Y0054000D02*
X0186137Y0054000D01*
X0190074Y0054000D02*
X0194159Y0054000D01*
X0198096Y0054000D02*
X0202181Y0054000D01*
X0206118Y0054000D02*
X0210203Y0054000D01*
X0214140Y0054000D02*
X0218225Y0054000D01*
X0222162Y0054000D02*
X0226246Y0054000D01*
X0230183Y0054000D02*
X0234268Y0054000D01*
X0238205Y0054000D02*
X0242290Y0054000D01*
X0246227Y0054000D02*
X0250312Y0054000D01*
X0254249Y0054000D02*
X0258334Y0054000D01*
X0262271Y0054000D02*
X0266355Y0054000D01*
X0270292Y0054000D02*
X0274377Y0054000D01*
X0278314Y0054000D02*
X0282399Y0054000D01*
X0286336Y0054000D02*
X0290421Y0054000D01*
X0294358Y0054000D02*
X0298443Y0054000D01*
X0302380Y0054000D02*
X0306464Y0054000D01*
X0310401Y0054000D02*
X0314486Y0054000D01*
X0318423Y0054000D02*
X0322508Y0054000D01*
X0326445Y0054000D02*
X0330530Y0054000D01*
X0334467Y0054000D02*
X0338552Y0054000D01*
X0342489Y0054000D02*
X0346573Y0054000D01*
X0350510Y0054000D02*
X0354595Y0054000D01*
X0358532Y0054000D02*
X0362617Y0054000D01*
X0366554Y0054000D02*
X0370639Y0054000D01*
X0374576Y0054000D02*
X0378660Y0054000D01*
X0382597Y0054000D02*
X0386682Y0054000D01*
X0390619Y0054000D02*
X0394704Y0054000D01*
X0398641Y0054000D02*
X0402726Y0054000D01*
X0406663Y0054000D02*
X0410748Y0054000D01*
X0414685Y0054000D02*
X0418769Y0054000D01*
X0422706Y0054000D02*
X0426791Y0054000D01*
X0430728Y0054000D02*
X0434813Y0054000D01*
X0438290Y0057477D01*
X0441074Y0060261D02*
X0444552Y0063739D01*
X0447336Y0066523D02*
X0450813Y0070000D01*
X0450813Y0074144D01*
X0450813Y0078081D02*
X0450813Y0082224D01*
X0450813Y0086161D02*
X0450813Y0090305D01*
X0450813Y0094242D02*
X0450813Y0098386D01*
X0450813Y0102323D02*
X0450813Y0106467D01*
X0450813Y0110404D02*
X0450813Y0114547D01*
X0450813Y0118484D02*
X0450813Y0122628D01*
X0450813Y0126565D02*
X0450813Y0130709D01*
X0450813Y0134646D02*
X0450813Y0138789D01*
X0450813Y0142726D02*
X0450813Y0146870D01*
X0450813Y0150807D02*
X0450813Y0154951D01*
X0450813Y0158888D02*
X0450813Y0163031D01*
X0450813Y0166969D02*
X0450813Y0171112D01*
X0450813Y0175049D02*
X0450813Y0179193D01*
X0450813Y0183130D02*
X0450813Y0187274D01*
X0450813Y0191211D02*
X0450813Y0195354D01*
X0450813Y0199291D02*
X0450813Y0203435D01*
X0450813Y0207372D02*
X0450813Y0211516D01*
X0450813Y0215453D02*
X0450813Y0219596D01*
X0450813Y0223533D02*
X0450813Y0227677D01*
X0450813Y0231614D02*
X0450813Y0235758D01*
X0450813Y0239695D02*
X0450813Y0243839D01*
X0450813Y0247776D02*
X0450813Y0251919D01*
X0450813Y0255856D02*
X0450813Y0260000D01*
X0446651Y0264162D01*
X0443867Y0266946D02*
X0439705Y0271108D01*
X0436921Y0273892D02*
X0432759Y0278054D01*
X0429975Y0280838D02*
X0425813Y0285000D01*
X0421758Y0285000D01*
X0417821Y0285000D02*
X0413766Y0285000D01*
X0409829Y0285000D02*
X0405774Y0285000D01*
X0401837Y0285000D02*
X0397782Y0285000D01*
X0393845Y0285000D02*
X0389789Y0285000D01*
X0385852Y0285000D02*
X0381797Y0285000D01*
X0377860Y0285000D02*
X0373805Y0285000D01*
X0369868Y0285000D02*
X0365813Y0285000D01*
X0362669Y0288144D01*
X0359885Y0290928D02*
X0356741Y0294072D01*
X0353957Y0296856D02*
X0350813Y0300000D01*
X0346210Y0300000D01*
X0342273Y0300000D02*
X0337671Y0300000D01*
X0333734Y0300000D02*
X0329131Y0300000D01*
X0325194Y0300000D02*
X0320591Y0300000D01*
X0316654Y0300000D02*
X0312051Y0300000D01*
X0308114Y0300000D02*
X0303512Y0300000D01*
X0299575Y0300000D02*
X0294972Y0300000D01*
X0291035Y0300000D02*
X0286432Y0300000D01*
X0282495Y0300000D02*
X0277892Y0300000D01*
X0273955Y0300000D02*
X0269353Y0300000D01*
X0265416Y0300000D02*
X0260813Y0300000D01*
X0256205Y0295392D01*
X0253421Y0292608D02*
X0248813Y0288000D01*
X0244803Y0288000D01*
X0240866Y0288000D02*
X0236856Y0288000D01*
X0232919Y0288000D02*
X0228909Y0288000D01*
X0224972Y0288000D02*
X0220963Y0288000D01*
X0217026Y0288000D02*
X0213016Y0288000D01*
X0209079Y0288000D02*
X0205069Y0288000D01*
X0201132Y0288000D02*
X0197122Y0288000D01*
X0193185Y0288000D02*
X0189175Y0288000D01*
X0185238Y0288000D02*
X0181228Y0288000D01*
X0177291Y0288000D02*
X0173282Y0288000D01*
X0169345Y0288000D02*
X0165335Y0288000D01*
X0161398Y0288000D02*
X0157388Y0288000D01*
X0153451Y0288000D02*
X0149441Y0288000D01*
X0145504Y0288000D02*
X0141494Y0288000D01*
X0137557Y0288000D02*
X0133547Y0288000D01*
X0129610Y0288000D02*
X0125600Y0288000D01*
X0121663Y0288000D02*
X0117654Y0288000D01*
X0113717Y0288000D02*
X0109707Y0288000D01*
X0105770Y0288000D02*
X0101760Y0288000D01*
X0097823Y0288000D02*
X0093813Y0288000D01*
X0090133Y0284320D01*
X0087349Y0281536D02*
X0083669Y0277856D01*
X0080885Y0275072D02*
X0077205Y0271392D01*
X0074421Y0268608D02*
X0070741Y0264928D01*
X0067957Y0262144D02*
X0064277Y0258464D01*
X0061493Y0255680D02*
X0057813Y0252000D01*
X0057813Y0248035D01*
X0057813Y0244098D02*
X0057813Y0240133D01*
X0057813Y0236196D02*
X0057813Y0232232D01*
X0057813Y0228295D02*
X0057813Y0224330D01*
X0057813Y0220393D02*
X0057813Y0216428D01*
X0057813Y0212491D02*
X0057813Y0208526D01*
X0057813Y0204589D02*
X0057813Y0200625D01*
X0057813Y0196688D02*
X0057813Y0192723D01*
X0057813Y0188786D02*
X0057813Y0184821D01*
X0057813Y0180884D02*
X0057813Y0176919D01*
X0057813Y0172982D02*
X0057813Y0169018D01*
X0057813Y0165081D02*
X0057813Y0161116D01*
X0057813Y0157179D02*
X0057813Y0153214D01*
X0057813Y0149277D02*
X0057813Y0145312D01*
X0057813Y0141375D02*
X0057813Y0137411D01*
X0057813Y0133474D02*
X0057813Y0129509D01*
X0057813Y0125572D02*
X0057813Y0121607D01*
X0057813Y0117670D02*
X0057813Y0113705D01*
X0057813Y0109768D02*
X0057813Y0105804D01*
X0057813Y0101867D02*
X0057813Y0097902D01*
X0057813Y0093965D02*
X0057813Y0090000D01*
X0061493Y0086320D01*
X0064277Y0083536D02*
X0067957Y0079856D01*
X0070741Y0077072D02*
X0074421Y0073392D01*
X0077205Y0070608D02*
X0080885Y0066928D01*
D11*
X0117313Y0104000D03*
X0127313Y0104000D03*
X0137313Y0104000D03*
X0147313Y0104000D03*
X0157313Y0104000D03*
X0167313Y0104000D03*
X0167313Y0123500D03*
X0157313Y0123500D03*
X0147313Y0123500D03*
X0137313Y0123500D03*
X0127313Y0123500D03*
X0117313Y0123500D03*
X0374313Y0121000D03*
X0384313Y0121000D03*
X0384313Y0111000D03*
X0374313Y0111000D03*
X0374313Y0101000D03*
X0384313Y0101000D03*
X0416813Y0101000D03*
X0426813Y0101000D03*
X0437313Y0101000D03*
X0437313Y0091000D03*
X0437313Y0111000D03*
X0426813Y0111000D03*
X0416813Y0111000D03*
X0416813Y0121000D03*
X0426813Y0121000D03*
X0437313Y0121000D03*
X0437313Y0131000D03*
X0426813Y0131000D03*
X0416813Y0131000D03*
X0416813Y0141000D03*
X0426813Y0141000D03*
X0437313Y0141000D03*
X0426813Y0151000D03*
X0416813Y0151000D03*
X0416813Y0161000D03*
X0426813Y0161000D03*
X0426813Y0171000D03*
X0416813Y0171000D03*
X0416813Y0181000D03*
X0426813Y0181000D03*
X0426813Y0191000D03*
X0416813Y0191000D03*
X0416813Y0201000D03*
X0426813Y0201000D03*
X0426813Y0211000D03*
X0416813Y0211000D03*
X0416813Y0221000D03*
X0426813Y0221000D03*
X0426813Y0231000D03*
X0416813Y0231000D03*
X0416813Y0241000D03*
X0426813Y0241000D03*
X0426813Y0251000D03*
X0416813Y0251000D03*
X0384313Y0141000D03*
X0374313Y0141000D03*
X0374313Y0131000D03*
X0384313Y0131000D03*
D12*
X0396813Y0111000D03*
X0406813Y0111000D03*
X0406813Y0101000D03*
X0396813Y0101000D03*
X0354313Y0123500D03*
X0344313Y0123500D03*
X0344313Y0138500D03*
X0354313Y0138500D03*
X0324313Y0126000D03*
X0304313Y0126000D03*
X0279313Y0123500D03*
X0269313Y0123500D03*
X0239313Y0108500D03*
X0228813Y0110500D03*
X0218813Y0110500D03*
X0208813Y0110500D03*
X0198813Y0110500D03*
X0201813Y0099500D03*
X0191813Y0099500D03*
X0208063Y0090000D03*
X0218063Y0090000D03*
X0239313Y0088500D03*
X0228813Y0140500D03*
X0218813Y0140500D03*
X0208813Y0140500D03*
X0198813Y0140500D03*
X0274313Y0163500D03*
X0274313Y0173500D03*
X0331813Y0098500D03*
X0351813Y0098500D03*
D13*
X0354313Y0111000D03*
X0324313Y0111000D03*
X0329313Y0138500D03*
X0299313Y0138500D03*
X0376813Y0166000D03*
X0386813Y0166000D03*
X0396813Y0166000D03*
X0396813Y0186000D03*
X0386813Y0186000D03*
X0376813Y0186000D03*
X0376813Y0206000D03*
X0386813Y0206000D03*
X0396813Y0206000D03*
X0396813Y0226000D03*
X0386813Y0226000D03*
X0376813Y0226000D03*
X0351813Y0226000D03*
X0341813Y0226000D03*
X0331813Y0226000D03*
X0331813Y0206000D03*
X0341813Y0206000D03*
X0351813Y0206000D03*
D14*
X0287813Y0208600D02*
X0287813Y0201400D01*
X0277813Y0201400D02*
X0277813Y0208600D01*
X0267813Y0208600D02*
X0267813Y0201400D01*
X0257813Y0201400D02*
X0257813Y0208600D01*
X0247813Y0208600D02*
X0247813Y0201400D01*
X0237813Y0201400D02*
X0237813Y0208600D01*
X0227813Y0208600D02*
X0227813Y0201400D01*
X0227813Y0231400D02*
X0227813Y0238600D01*
X0237813Y0238600D02*
X0237813Y0231400D01*
X0247813Y0231400D02*
X0247813Y0238600D01*
X0257813Y0238600D02*
X0257813Y0231400D01*
X0267813Y0231400D02*
X0267813Y0238600D01*
X0277813Y0238600D02*
X0277813Y0231400D01*
X0287813Y0231400D02*
X0287813Y0238600D01*
X0284313Y0149600D02*
X0284313Y0142400D01*
X0274313Y0142400D02*
X0274313Y0149600D01*
X0264313Y0149600D02*
X0264313Y0142400D01*
X0269313Y0112100D02*
X0269313Y0104900D01*
X0279313Y0104900D02*
X0279313Y0112100D01*
X0289313Y0112100D02*
X0289313Y0104900D01*
D15*
X0366813Y0166000D03*
X0366813Y0186000D03*
X0366813Y0206000D03*
X0366813Y0226000D03*
X0321813Y0226000D03*
X0321813Y0206000D03*
D16*
X0316813Y0261000D03*
X0326813Y0261000D03*
X0336813Y0261000D03*
X0346813Y0261000D03*
X0356813Y0261000D03*
X0366813Y0261000D03*
X0376813Y0261000D03*
X0386813Y0261000D03*
X0416813Y0261000D03*
X0426813Y0261000D03*
X0346813Y0271000D03*
X0336813Y0271000D03*
X0326813Y0271000D03*
X0326813Y0281000D03*
X0316813Y0281000D03*
X0306813Y0281000D03*
X0296813Y0281000D03*
X0286813Y0281000D03*
X0276813Y0281000D03*
X0276813Y0261000D03*
X0266813Y0261000D03*
X0256813Y0261000D03*
X0246813Y0261000D03*
X0236813Y0261000D03*
X0226813Y0261000D03*
X0210813Y0261000D03*
X0200813Y0261000D03*
X0190813Y0261000D03*
X0180813Y0261000D03*
X0170813Y0261000D03*
X0160813Y0261000D03*
X0150813Y0261000D03*
X0140813Y0261000D03*
X0130813Y0261000D03*
X0120813Y0261000D03*
X0286813Y0261000D03*
X0296813Y0261000D03*
X0336813Y0281000D03*
X0416813Y0091000D03*
X0426813Y0091000D03*
X0406813Y0071000D03*
X0396813Y0071000D03*
X0386813Y0071000D03*
X0376813Y0071000D03*
X0366813Y0071000D03*
X0356813Y0071000D03*
X0346813Y0071000D03*
X0336813Y0071000D03*
X0316813Y0071000D03*
X0306813Y0071000D03*
X0296813Y0071000D03*
X0286813Y0071000D03*
X0276813Y0071000D03*
X0266813Y0071000D03*
X0256813Y0071000D03*
X0246813Y0071000D03*
X0226813Y0071000D03*
X0216813Y0071000D03*
X0206813Y0071000D03*
X0196813Y0071000D03*
X0186813Y0071000D03*
X0176813Y0071000D03*
X0166813Y0071000D03*
X0156813Y0071000D03*
D17*
X0300514Y0091000D02*
X0300516Y0091158D01*
X0300522Y0091316D01*
X0300532Y0091474D01*
X0300546Y0091632D01*
X0300564Y0091789D01*
X0300585Y0091946D01*
X0300611Y0092102D01*
X0300641Y0092258D01*
X0300674Y0092413D01*
X0300712Y0092566D01*
X0300753Y0092719D01*
X0300798Y0092871D01*
X0300847Y0093022D01*
X0300900Y0093171D01*
X0300956Y0093319D01*
X0301016Y0093465D01*
X0301080Y0093610D01*
X0301148Y0093753D01*
X0301219Y0093895D01*
X0301293Y0094035D01*
X0301371Y0094172D01*
X0301453Y0094308D01*
X0301537Y0094442D01*
X0301626Y0094573D01*
X0301717Y0094702D01*
X0301812Y0094829D01*
X0301909Y0094954D01*
X0302010Y0095076D01*
X0302114Y0095195D01*
X0302221Y0095312D01*
X0302331Y0095426D01*
X0302444Y0095537D01*
X0302559Y0095646D01*
X0302677Y0095751D01*
X0302798Y0095853D01*
X0302921Y0095953D01*
X0303047Y0096049D01*
X0303175Y0096142D01*
X0303305Y0096232D01*
X0303438Y0096318D01*
X0303573Y0096402D01*
X0303709Y0096481D01*
X0303848Y0096558D01*
X0303989Y0096630D01*
X0304131Y0096700D01*
X0304275Y0096765D01*
X0304421Y0096827D01*
X0304568Y0096885D01*
X0304717Y0096940D01*
X0304867Y0096991D01*
X0305018Y0097038D01*
X0305170Y0097081D01*
X0305323Y0097120D01*
X0305478Y0097156D01*
X0305633Y0097187D01*
X0305789Y0097215D01*
X0305945Y0097239D01*
X0306102Y0097259D01*
X0306260Y0097275D01*
X0306417Y0097287D01*
X0306576Y0097295D01*
X0306734Y0097299D01*
X0306892Y0097299D01*
X0307050Y0097295D01*
X0307209Y0097287D01*
X0307366Y0097275D01*
X0307524Y0097259D01*
X0307681Y0097239D01*
X0307837Y0097215D01*
X0307993Y0097187D01*
X0308148Y0097156D01*
X0308303Y0097120D01*
X0308456Y0097081D01*
X0308608Y0097038D01*
X0308759Y0096991D01*
X0308909Y0096940D01*
X0309058Y0096885D01*
X0309205Y0096827D01*
X0309351Y0096765D01*
X0309495Y0096700D01*
X0309637Y0096630D01*
X0309778Y0096558D01*
X0309917Y0096481D01*
X0310053Y0096402D01*
X0310188Y0096318D01*
X0310321Y0096232D01*
X0310451Y0096142D01*
X0310579Y0096049D01*
X0310705Y0095953D01*
X0310828Y0095853D01*
X0310949Y0095751D01*
X0311067Y0095646D01*
X0311182Y0095537D01*
X0311295Y0095426D01*
X0311405Y0095312D01*
X0311512Y0095195D01*
X0311616Y0095076D01*
X0311717Y0094954D01*
X0311814Y0094829D01*
X0311909Y0094702D01*
X0312000Y0094573D01*
X0312089Y0094442D01*
X0312173Y0094308D01*
X0312255Y0094172D01*
X0312333Y0094035D01*
X0312407Y0093895D01*
X0312478Y0093753D01*
X0312546Y0093610D01*
X0312610Y0093465D01*
X0312670Y0093319D01*
X0312726Y0093171D01*
X0312779Y0093022D01*
X0312828Y0092871D01*
X0312873Y0092719D01*
X0312914Y0092566D01*
X0312952Y0092413D01*
X0312985Y0092258D01*
X0313015Y0092102D01*
X0313041Y0091946D01*
X0313062Y0091789D01*
X0313080Y0091632D01*
X0313094Y0091474D01*
X0313104Y0091316D01*
X0313110Y0091158D01*
X0313112Y0091000D01*
X0313110Y0090842D01*
X0313104Y0090684D01*
X0313094Y0090526D01*
X0313080Y0090368D01*
X0313062Y0090211D01*
X0313041Y0090054D01*
X0313015Y0089898D01*
X0312985Y0089742D01*
X0312952Y0089587D01*
X0312914Y0089434D01*
X0312873Y0089281D01*
X0312828Y0089129D01*
X0312779Y0088978D01*
X0312726Y0088829D01*
X0312670Y0088681D01*
X0312610Y0088535D01*
X0312546Y0088390D01*
X0312478Y0088247D01*
X0312407Y0088105D01*
X0312333Y0087965D01*
X0312255Y0087828D01*
X0312173Y0087692D01*
X0312089Y0087558D01*
X0312000Y0087427D01*
X0311909Y0087298D01*
X0311814Y0087171D01*
X0311717Y0087046D01*
X0311616Y0086924D01*
X0311512Y0086805D01*
X0311405Y0086688D01*
X0311295Y0086574D01*
X0311182Y0086463D01*
X0311067Y0086354D01*
X0310949Y0086249D01*
X0310828Y0086147D01*
X0310705Y0086047D01*
X0310579Y0085951D01*
X0310451Y0085858D01*
X0310321Y0085768D01*
X0310188Y0085682D01*
X0310053Y0085598D01*
X0309917Y0085519D01*
X0309778Y0085442D01*
X0309637Y0085370D01*
X0309495Y0085300D01*
X0309351Y0085235D01*
X0309205Y0085173D01*
X0309058Y0085115D01*
X0308909Y0085060D01*
X0308759Y0085009D01*
X0308608Y0084962D01*
X0308456Y0084919D01*
X0308303Y0084880D01*
X0308148Y0084844D01*
X0307993Y0084813D01*
X0307837Y0084785D01*
X0307681Y0084761D01*
X0307524Y0084741D01*
X0307366Y0084725D01*
X0307209Y0084713D01*
X0307050Y0084705D01*
X0306892Y0084701D01*
X0306734Y0084701D01*
X0306576Y0084705D01*
X0306417Y0084713D01*
X0306260Y0084725D01*
X0306102Y0084741D01*
X0305945Y0084761D01*
X0305789Y0084785D01*
X0305633Y0084813D01*
X0305478Y0084844D01*
X0305323Y0084880D01*
X0305170Y0084919D01*
X0305018Y0084962D01*
X0304867Y0085009D01*
X0304717Y0085060D01*
X0304568Y0085115D01*
X0304421Y0085173D01*
X0304275Y0085235D01*
X0304131Y0085300D01*
X0303989Y0085370D01*
X0303848Y0085442D01*
X0303709Y0085519D01*
X0303573Y0085598D01*
X0303438Y0085682D01*
X0303305Y0085768D01*
X0303175Y0085858D01*
X0303047Y0085951D01*
X0302921Y0086047D01*
X0302798Y0086147D01*
X0302677Y0086249D01*
X0302559Y0086354D01*
X0302444Y0086463D01*
X0302331Y0086574D01*
X0302221Y0086688D01*
X0302114Y0086805D01*
X0302010Y0086924D01*
X0301909Y0087046D01*
X0301812Y0087171D01*
X0301717Y0087298D01*
X0301626Y0087427D01*
X0301537Y0087558D01*
X0301453Y0087692D01*
X0301371Y0087828D01*
X0301293Y0087965D01*
X0301219Y0088105D01*
X0301148Y0088247D01*
X0301080Y0088390D01*
X0301016Y0088535D01*
X0300956Y0088681D01*
X0300900Y0088829D01*
X0300847Y0088978D01*
X0300798Y0089129D01*
X0300753Y0089281D01*
X0300712Y0089434D01*
X0300674Y0089587D01*
X0300641Y0089742D01*
X0300611Y0089898D01*
X0300585Y0090054D01*
X0300564Y0090211D01*
X0300546Y0090368D01*
X0300532Y0090526D01*
X0300522Y0090684D01*
X0300516Y0090842D01*
X0300514Y0091000D01*
X0420514Y0071000D02*
X0420516Y0071158D01*
X0420522Y0071316D01*
X0420532Y0071474D01*
X0420546Y0071632D01*
X0420564Y0071789D01*
X0420585Y0071946D01*
X0420611Y0072102D01*
X0420641Y0072258D01*
X0420674Y0072413D01*
X0420712Y0072566D01*
X0420753Y0072719D01*
X0420798Y0072871D01*
X0420847Y0073022D01*
X0420900Y0073171D01*
X0420956Y0073319D01*
X0421016Y0073465D01*
X0421080Y0073610D01*
X0421148Y0073753D01*
X0421219Y0073895D01*
X0421293Y0074035D01*
X0421371Y0074172D01*
X0421453Y0074308D01*
X0421537Y0074442D01*
X0421626Y0074573D01*
X0421717Y0074702D01*
X0421812Y0074829D01*
X0421909Y0074954D01*
X0422010Y0075076D01*
X0422114Y0075195D01*
X0422221Y0075312D01*
X0422331Y0075426D01*
X0422444Y0075537D01*
X0422559Y0075646D01*
X0422677Y0075751D01*
X0422798Y0075853D01*
X0422921Y0075953D01*
X0423047Y0076049D01*
X0423175Y0076142D01*
X0423305Y0076232D01*
X0423438Y0076318D01*
X0423573Y0076402D01*
X0423709Y0076481D01*
X0423848Y0076558D01*
X0423989Y0076630D01*
X0424131Y0076700D01*
X0424275Y0076765D01*
X0424421Y0076827D01*
X0424568Y0076885D01*
X0424717Y0076940D01*
X0424867Y0076991D01*
X0425018Y0077038D01*
X0425170Y0077081D01*
X0425323Y0077120D01*
X0425478Y0077156D01*
X0425633Y0077187D01*
X0425789Y0077215D01*
X0425945Y0077239D01*
X0426102Y0077259D01*
X0426260Y0077275D01*
X0426417Y0077287D01*
X0426576Y0077295D01*
X0426734Y0077299D01*
X0426892Y0077299D01*
X0427050Y0077295D01*
X0427209Y0077287D01*
X0427366Y0077275D01*
X0427524Y0077259D01*
X0427681Y0077239D01*
X0427837Y0077215D01*
X0427993Y0077187D01*
X0428148Y0077156D01*
X0428303Y0077120D01*
X0428456Y0077081D01*
X0428608Y0077038D01*
X0428759Y0076991D01*
X0428909Y0076940D01*
X0429058Y0076885D01*
X0429205Y0076827D01*
X0429351Y0076765D01*
X0429495Y0076700D01*
X0429637Y0076630D01*
X0429778Y0076558D01*
X0429917Y0076481D01*
X0430053Y0076402D01*
X0430188Y0076318D01*
X0430321Y0076232D01*
X0430451Y0076142D01*
X0430579Y0076049D01*
X0430705Y0075953D01*
X0430828Y0075853D01*
X0430949Y0075751D01*
X0431067Y0075646D01*
X0431182Y0075537D01*
X0431295Y0075426D01*
X0431405Y0075312D01*
X0431512Y0075195D01*
X0431616Y0075076D01*
X0431717Y0074954D01*
X0431814Y0074829D01*
X0431909Y0074702D01*
X0432000Y0074573D01*
X0432089Y0074442D01*
X0432173Y0074308D01*
X0432255Y0074172D01*
X0432333Y0074035D01*
X0432407Y0073895D01*
X0432478Y0073753D01*
X0432546Y0073610D01*
X0432610Y0073465D01*
X0432670Y0073319D01*
X0432726Y0073171D01*
X0432779Y0073022D01*
X0432828Y0072871D01*
X0432873Y0072719D01*
X0432914Y0072566D01*
X0432952Y0072413D01*
X0432985Y0072258D01*
X0433015Y0072102D01*
X0433041Y0071946D01*
X0433062Y0071789D01*
X0433080Y0071632D01*
X0433094Y0071474D01*
X0433104Y0071316D01*
X0433110Y0071158D01*
X0433112Y0071000D01*
X0433110Y0070842D01*
X0433104Y0070684D01*
X0433094Y0070526D01*
X0433080Y0070368D01*
X0433062Y0070211D01*
X0433041Y0070054D01*
X0433015Y0069898D01*
X0432985Y0069742D01*
X0432952Y0069587D01*
X0432914Y0069434D01*
X0432873Y0069281D01*
X0432828Y0069129D01*
X0432779Y0068978D01*
X0432726Y0068829D01*
X0432670Y0068681D01*
X0432610Y0068535D01*
X0432546Y0068390D01*
X0432478Y0068247D01*
X0432407Y0068105D01*
X0432333Y0067965D01*
X0432255Y0067828D01*
X0432173Y0067692D01*
X0432089Y0067558D01*
X0432000Y0067427D01*
X0431909Y0067298D01*
X0431814Y0067171D01*
X0431717Y0067046D01*
X0431616Y0066924D01*
X0431512Y0066805D01*
X0431405Y0066688D01*
X0431295Y0066574D01*
X0431182Y0066463D01*
X0431067Y0066354D01*
X0430949Y0066249D01*
X0430828Y0066147D01*
X0430705Y0066047D01*
X0430579Y0065951D01*
X0430451Y0065858D01*
X0430321Y0065768D01*
X0430188Y0065682D01*
X0430053Y0065598D01*
X0429917Y0065519D01*
X0429778Y0065442D01*
X0429637Y0065370D01*
X0429495Y0065300D01*
X0429351Y0065235D01*
X0429205Y0065173D01*
X0429058Y0065115D01*
X0428909Y0065060D01*
X0428759Y0065009D01*
X0428608Y0064962D01*
X0428456Y0064919D01*
X0428303Y0064880D01*
X0428148Y0064844D01*
X0427993Y0064813D01*
X0427837Y0064785D01*
X0427681Y0064761D01*
X0427524Y0064741D01*
X0427366Y0064725D01*
X0427209Y0064713D01*
X0427050Y0064705D01*
X0426892Y0064701D01*
X0426734Y0064701D01*
X0426576Y0064705D01*
X0426417Y0064713D01*
X0426260Y0064725D01*
X0426102Y0064741D01*
X0425945Y0064761D01*
X0425789Y0064785D01*
X0425633Y0064813D01*
X0425478Y0064844D01*
X0425323Y0064880D01*
X0425170Y0064919D01*
X0425018Y0064962D01*
X0424867Y0065009D01*
X0424717Y0065060D01*
X0424568Y0065115D01*
X0424421Y0065173D01*
X0424275Y0065235D01*
X0424131Y0065300D01*
X0423989Y0065370D01*
X0423848Y0065442D01*
X0423709Y0065519D01*
X0423573Y0065598D01*
X0423438Y0065682D01*
X0423305Y0065768D01*
X0423175Y0065858D01*
X0423047Y0065951D01*
X0422921Y0066047D01*
X0422798Y0066147D01*
X0422677Y0066249D01*
X0422559Y0066354D01*
X0422444Y0066463D01*
X0422331Y0066574D01*
X0422221Y0066688D01*
X0422114Y0066805D01*
X0422010Y0066924D01*
X0421909Y0067046D01*
X0421812Y0067171D01*
X0421717Y0067298D01*
X0421626Y0067427D01*
X0421537Y0067558D01*
X0421453Y0067692D01*
X0421371Y0067828D01*
X0421293Y0067965D01*
X0421219Y0068105D01*
X0421148Y0068247D01*
X0421080Y0068390D01*
X0421016Y0068535D01*
X0420956Y0068681D01*
X0420900Y0068829D01*
X0420847Y0068978D01*
X0420798Y0069129D01*
X0420753Y0069281D01*
X0420712Y0069434D01*
X0420674Y0069587D01*
X0420641Y0069742D01*
X0420611Y0069898D01*
X0420585Y0070054D01*
X0420564Y0070211D01*
X0420546Y0070368D01*
X0420532Y0070526D01*
X0420522Y0070684D01*
X0420516Y0070842D01*
X0420514Y0071000D01*
X0300514Y0201000D02*
X0300516Y0201158D01*
X0300522Y0201316D01*
X0300532Y0201474D01*
X0300546Y0201632D01*
X0300564Y0201789D01*
X0300585Y0201946D01*
X0300611Y0202102D01*
X0300641Y0202258D01*
X0300674Y0202413D01*
X0300712Y0202566D01*
X0300753Y0202719D01*
X0300798Y0202871D01*
X0300847Y0203022D01*
X0300900Y0203171D01*
X0300956Y0203319D01*
X0301016Y0203465D01*
X0301080Y0203610D01*
X0301148Y0203753D01*
X0301219Y0203895D01*
X0301293Y0204035D01*
X0301371Y0204172D01*
X0301453Y0204308D01*
X0301537Y0204442D01*
X0301626Y0204573D01*
X0301717Y0204702D01*
X0301812Y0204829D01*
X0301909Y0204954D01*
X0302010Y0205076D01*
X0302114Y0205195D01*
X0302221Y0205312D01*
X0302331Y0205426D01*
X0302444Y0205537D01*
X0302559Y0205646D01*
X0302677Y0205751D01*
X0302798Y0205853D01*
X0302921Y0205953D01*
X0303047Y0206049D01*
X0303175Y0206142D01*
X0303305Y0206232D01*
X0303438Y0206318D01*
X0303573Y0206402D01*
X0303709Y0206481D01*
X0303848Y0206558D01*
X0303989Y0206630D01*
X0304131Y0206700D01*
X0304275Y0206765D01*
X0304421Y0206827D01*
X0304568Y0206885D01*
X0304717Y0206940D01*
X0304867Y0206991D01*
X0305018Y0207038D01*
X0305170Y0207081D01*
X0305323Y0207120D01*
X0305478Y0207156D01*
X0305633Y0207187D01*
X0305789Y0207215D01*
X0305945Y0207239D01*
X0306102Y0207259D01*
X0306260Y0207275D01*
X0306417Y0207287D01*
X0306576Y0207295D01*
X0306734Y0207299D01*
X0306892Y0207299D01*
X0307050Y0207295D01*
X0307209Y0207287D01*
X0307366Y0207275D01*
X0307524Y0207259D01*
X0307681Y0207239D01*
X0307837Y0207215D01*
X0307993Y0207187D01*
X0308148Y0207156D01*
X0308303Y0207120D01*
X0308456Y0207081D01*
X0308608Y0207038D01*
X0308759Y0206991D01*
X0308909Y0206940D01*
X0309058Y0206885D01*
X0309205Y0206827D01*
X0309351Y0206765D01*
X0309495Y0206700D01*
X0309637Y0206630D01*
X0309778Y0206558D01*
X0309917Y0206481D01*
X0310053Y0206402D01*
X0310188Y0206318D01*
X0310321Y0206232D01*
X0310451Y0206142D01*
X0310579Y0206049D01*
X0310705Y0205953D01*
X0310828Y0205853D01*
X0310949Y0205751D01*
X0311067Y0205646D01*
X0311182Y0205537D01*
X0311295Y0205426D01*
X0311405Y0205312D01*
X0311512Y0205195D01*
X0311616Y0205076D01*
X0311717Y0204954D01*
X0311814Y0204829D01*
X0311909Y0204702D01*
X0312000Y0204573D01*
X0312089Y0204442D01*
X0312173Y0204308D01*
X0312255Y0204172D01*
X0312333Y0204035D01*
X0312407Y0203895D01*
X0312478Y0203753D01*
X0312546Y0203610D01*
X0312610Y0203465D01*
X0312670Y0203319D01*
X0312726Y0203171D01*
X0312779Y0203022D01*
X0312828Y0202871D01*
X0312873Y0202719D01*
X0312914Y0202566D01*
X0312952Y0202413D01*
X0312985Y0202258D01*
X0313015Y0202102D01*
X0313041Y0201946D01*
X0313062Y0201789D01*
X0313080Y0201632D01*
X0313094Y0201474D01*
X0313104Y0201316D01*
X0313110Y0201158D01*
X0313112Y0201000D01*
X0313110Y0200842D01*
X0313104Y0200684D01*
X0313094Y0200526D01*
X0313080Y0200368D01*
X0313062Y0200211D01*
X0313041Y0200054D01*
X0313015Y0199898D01*
X0312985Y0199742D01*
X0312952Y0199587D01*
X0312914Y0199434D01*
X0312873Y0199281D01*
X0312828Y0199129D01*
X0312779Y0198978D01*
X0312726Y0198829D01*
X0312670Y0198681D01*
X0312610Y0198535D01*
X0312546Y0198390D01*
X0312478Y0198247D01*
X0312407Y0198105D01*
X0312333Y0197965D01*
X0312255Y0197828D01*
X0312173Y0197692D01*
X0312089Y0197558D01*
X0312000Y0197427D01*
X0311909Y0197298D01*
X0311814Y0197171D01*
X0311717Y0197046D01*
X0311616Y0196924D01*
X0311512Y0196805D01*
X0311405Y0196688D01*
X0311295Y0196574D01*
X0311182Y0196463D01*
X0311067Y0196354D01*
X0310949Y0196249D01*
X0310828Y0196147D01*
X0310705Y0196047D01*
X0310579Y0195951D01*
X0310451Y0195858D01*
X0310321Y0195768D01*
X0310188Y0195682D01*
X0310053Y0195598D01*
X0309917Y0195519D01*
X0309778Y0195442D01*
X0309637Y0195370D01*
X0309495Y0195300D01*
X0309351Y0195235D01*
X0309205Y0195173D01*
X0309058Y0195115D01*
X0308909Y0195060D01*
X0308759Y0195009D01*
X0308608Y0194962D01*
X0308456Y0194919D01*
X0308303Y0194880D01*
X0308148Y0194844D01*
X0307993Y0194813D01*
X0307837Y0194785D01*
X0307681Y0194761D01*
X0307524Y0194741D01*
X0307366Y0194725D01*
X0307209Y0194713D01*
X0307050Y0194705D01*
X0306892Y0194701D01*
X0306734Y0194701D01*
X0306576Y0194705D01*
X0306417Y0194713D01*
X0306260Y0194725D01*
X0306102Y0194741D01*
X0305945Y0194761D01*
X0305789Y0194785D01*
X0305633Y0194813D01*
X0305478Y0194844D01*
X0305323Y0194880D01*
X0305170Y0194919D01*
X0305018Y0194962D01*
X0304867Y0195009D01*
X0304717Y0195060D01*
X0304568Y0195115D01*
X0304421Y0195173D01*
X0304275Y0195235D01*
X0304131Y0195300D01*
X0303989Y0195370D01*
X0303848Y0195442D01*
X0303709Y0195519D01*
X0303573Y0195598D01*
X0303438Y0195682D01*
X0303305Y0195768D01*
X0303175Y0195858D01*
X0303047Y0195951D01*
X0302921Y0196047D01*
X0302798Y0196147D01*
X0302677Y0196249D01*
X0302559Y0196354D01*
X0302444Y0196463D01*
X0302331Y0196574D01*
X0302221Y0196688D01*
X0302114Y0196805D01*
X0302010Y0196924D01*
X0301909Y0197046D01*
X0301812Y0197171D01*
X0301717Y0197298D01*
X0301626Y0197427D01*
X0301537Y0197558D01*
X0301453Y0197692D01*
X0301371Y0197828D01*
X0301293Y0197965D01*
X0301219Y0198105D01*
X0301148Y0198247D01*
X0301080Y0198390D01*
X0301016Y0198535D01*
X0300956Y0198681D01*
X0300900Y0198829D01*
X0300847Y0198978D01*
X0300798Y0199129D01*
X0300753Y0199281D01*
X0300712Y0199434D01*
X0300674Y0199587D01*
X0300641Y0199742D01*
X0300611Y0199898D01*
X0300585Y0200054D01*
X0300564Y0200211D01*
X0300546Y0200368D01*
X0300532Y0200526D01*
X0300522Y0200684D01*
X0300516Y0200842D01*
X0300514Y0201000D01*
X0395514Y0261000D02*
X0395516Y0261158D01*
X0395522Y0261316D01*
X0395532Y0261474D01*
X0395546Y0261632D01*
X0395564Y0261789D01*
X0395585Y0261946D01*
X0395611Y0262102D01*
X0395641Y0262258D01*
X0395674Y0262413D01*
X0395712Y0262566D01*
X0395753Y0262719D01*
X0395798Y0262871D01*
X0395847Y0263022D01*
X0395900Y0263171D01*
X0395956Y0263319D01*
X0396016Y0263465D01*
X0396080Y0263610D01*
X0396148Y0263753D01*
X0396219Y0263895D01*
X0396293Y0264035D01*
X0396371Y0264172D01*
X0396453Y0264308D01*
X0396537Y0264442D01*
X0396626Y0264573D01*
X0396717Y0264702D01*
X0396812Y0264829D01*
X0396909Y0264954D01*
X0397010Y0265076D01*
X0397114Y0265195D01*
X0397221Y0265312D01*
X0397331Y0265426D01*
X0397444Y0265537D01*
X0397559Y0265646D01*
X0397677Y0265751D01*
X0397798Y0265853D01*
X0397921Y0265953D01*
X0398047Y0266049D01*
X0398175Y0266142D01*
X0398305Y0266232D01*
X0398438Y0266318D01*
X0398573Y0266402D01*
X0398709Y0266481D01*
X0398848Y0266558D01*
X0398989Y0266630D01*
X0399131Y0266700D01*
X0399275Y0266765D01*
X0399421Y0266827D01*
X0399568Y0266885D01*
X0399717Y0266940D01*
X0399867Y0266991D01*
X0400018Y0267038D01*
X0400170Y0267081D01*
X0400323Y0267120D01*
X0400478Y0267156D01*
X0400633Y0267187D01*
X0400789Y0267215D01*
X0400945Y0267239D01*
X0401102Y0267259D01*
X0401260Y0267275D01*
X0401417Y0267287D01*
X0401576Y0267295D01*
X0401734Y0267299D01*
X0401892Y0267299D01*
X0402050Y0267295D01*
X0402209Y0267287D01*
X0402366Y0267275D01*
X0402524Y0267259D01*
X0402681Y0267239D01*
X0402837Y0267215D01*
X0402993Y0267187D01*
X0403148Y0267156D01*
X0403303Y0267120D01*
X0403456Y0267081D01*
X0403608Y0267038D01*
X0403759Y0266991D01*
X0403909Y0266940D01*
X0404058Y0266885D01*
X0404205Y0266827D01*
X0404351Y0266765D01*
X0404495Y0266700D01*
X0404637Y0266630D01*
X0404778Y0266558D01*
X0404917Y0266481D01*
X0405053Y0266402D01*
X0405188Y0266318D01*
X0405321Y0266232D01*
X0405451Y0266142D01*
X0405579Y0266049D01*
X0405705Y0265953D01*
X0405828Y0265853D01*
X0405949Y0265751D01*
X0406067Y0265646D01*
X0406182Y0265537D01*
X0406295Y0265426D01*
X0406405Y0265312D01*
X0406512Y0265195D01*
X0406616Y0265076D01*
X0406717Y0264954D01*
X0406814Y0264829D01*
X0406909Y0264702D01*
X0407000Y0264573D01*
X0407089Y0264442D01*
X0407173Y0264308D01*
X0407255Y0264172D01*
X0407333Y0264035D01*
X0407407Y0263895D01*
X0407478Y0263753D01*
X0407546Y0263610D01*
X0407610Y0263465D01*
X0407670Y0263319D01*
X0407726Y0263171D01*
X0407779Y0263022D01*
X0407828Y0262871D01*
X0407873Y0262719D01*
X0407914Y0262566D01*
X0407952Y0262413D01*
X0407985Y0262258D01*
X0408015Y0262102D01*
X0408041Y0261946D01*
X0408062Y0261789D01*
X0408080Y0261632D01*
X0408094Y0261474D01*
X0408104Y0261316D01*
X0408110Y0261158D01*
X0408112Y0261000D01*
X0408110Y0260842D01*
X0408104Y0260684D01*
X0408094Y0260526D01*
X0408080Y0260368D01*
X0408062Y0260211D01*
X0408041Y0260054D01*
X0408015Y0259898D01*
X0407985Y0259742D01*
X0407952Y0259587D01*
X0407914Y0259434D01*
X0407873Y0259281D01*
X0407828Y0259129D01*
X0407779Y0258978D01*
X0407726Y0258829D01*
X0407670Y0258681D01*
X0407610Y0258535D01*
X0407546Y0258390D01*
X0407478Y0258247D01*
X0407407Y0258105D01*
X0407333Y0257965D01*
X0407255Y0257828D01*
X0407173Y0257692D01*
X0407089Y0257558D01*
X0407000Y0257427D01*
X0406909Y0257298D01*
X0406814Y0257171D01*
X0406717Y0257046D01*
X0406616Y0256924D01*
X0406512Y0256805D01*
X0406405Y0256688D01*
X0406295Y0256574D01*
X0406182Y0256463D01*
X0406067Y0256354D01*
X0405949Y0256249D01*
X0405828Y0256147D01*
X0405705Y0256047D01*
X0405579Y0255951D01*
X0405451Y0255858D01*
X0405321Y0255768D01*
X0405188Y0255682D01*
X0405053Y0255598D01*
X0404917Y0255519D01*
X0404778Y0255442D01*
X0404637Y0255370D01*
X0404495Y0255300D01*
X0404351Y0255235D01*
X0404205Y0255173D01*
X0404058Y0255115D01*
X0403909Y0255060D01*
X0403759Y0255009D01*
X0403608Y0254962D01*
X0403456Y0254919D01*
X0403303Y0254880D01*
X0403148Y0254844D01*
X0402993Y0254813D01*
X0402837Y0254785D01*
X0402681Y0254761D01*
X0402524Y0254741D01*
X0402366Y0254725D01*
X0402209Y0254713D01*
X0402050Y0254705D01*
X0401892Y0254701D01*
X0401734Y0254701D01*
X0401576Y0254705D01*
X0401417Y0254713D01*
X0401260Y0254725D01*
X0401102Y0254741D01*
X0400945Y0254761D01*
X0400789Y0254785D01*
X0400633Y0254813D01*
X0400478Y0254844D01*
X0400323Y0254880D01*
X0400170Y0254919D01*
X0400018Y0254962D01*
X0399867Y0255009D01*
X0399717Y0255060D01*
X0399568Y0255115D01*
X0399421Y0255173D01*
X0399275Y0255235D01*
X0399131Y0255300D01*
X0398989Y0255370D01*
X0398848Y0255442D01*
X0398709Y0255519D01*
X0398573Y0255598D01*
X0398438Y0255682D01*
X0398305Y0255768D01*
X0398175Y0255858D01*
X0398047Y0255951D01*
X0397921Y0256047D01*
X0397798Y0256147D01*
X0397677Y0256249D01*
X0397559Y0256354D01*
X0397444Y0256463D01*
X0397331Y0256574D01*
X0397221Y0256688D01*
X0397114Y0256805D01*
X0397010Y0256924D01*
X0396909Y0257046D01*
X0396812Y0257171D01*
X0396717Y0257298D01*
X0396626Y0257427D01*
X0396537Y0257558D01*
X0396453Y0257692D01*
X0396371Y0257828D01*
X0396293Y0257965D01*
X0396219Y0258105D01*
X0396148Y0258247D01*
X0396080Y0258390D01*
X0396016Y0258535D01*
X0395956Y0258681D01*
X0395900Y0258829D01*
X0395847Y0258978D01*
X0395798Y0259129D01*
X0395753Y0259281D01*
X0395712Y0259434D01*
X0395674Y0259587D01*
X0395641Y0259742D01*
X0395611Y0259898D01*
X0395585Y0260054D01*
X0395564Y0260211D01*
X0395546Y0260368D01*
X0395532Y0260526D01*
X0395522Y0260684D01*
X0395516Y0260842D01*
X0395514Y0261000D01*
D18*
X0077063Y0171000D02*
X0067563Y0171000D01*
X0067563Y0151000D02*
X0077063Y0151000D01*
X0077063Y0131000D02*
X0067563Y0131000D01*
D19*
X0099313Y0170000D02*
X0099313Y0178000D01*
X0109313Y0178000D02*
X0109313Y0170000D01*
X0119313Y0170000D02*
X0119313Y0178000D01*
X0129313Y0178000D02*
X0129313Y0170000D01*
X0139313Y0170000D02*
X0139313Y0178000D01*
X0149313Y0178000D02*
X0149313Y0170000D01*
X0159313Y0170000D02*
X0159313Y0178000D01*
X0169313Y0178000D02*
X0169313Y0170000D01*
X0169313Y0230000D02*
X0169313Y0238000D01*
X0159313Y0238000D02*
X0159313Y0230000D01*
X0149313Y0230000D02*
X0149313Y0238000D01*
X0139313Y0238000D02*
X0139313Y0230000D01*
X0129313Y0230000D02*
X0129313Y0238000D01*
X0119313Y0238000D02*
X0119313Y0230000D01*
X0109313Y0230000D02*
X0109313Y0238000D01*
X0099313Y0238000D02*
X0099313Y0230000D01*
D20*
X0266813Y0281000D03*
X0316813Y0271000D03*
D21*
X0316813Y0261000D01*
X0309313Y0260806D02*
X0304313Y0260806D01*
X0304313Y0259508D02*
X0304313Y0262492D01*
X0303171Y0265248D01*
X0301313Y0267107D01*
X0301313Y0274893D01*
X0301813Y0275393D01*
X0302565Y0274642D01*
X0305321Y0273500D01*
X0308305Y0273500D01*
X0309313Y0273918D01*
X0309313Y0266304D01*
X0309846Y0265017D01*
X0310209Y0264654D01*
X0309313Y0262492D01*
X0309313Y0259508D01*
X0310455Y0256752D01*
X0312565Y0254642D01*
X0315321Y0253500D01*
X0318305Y0253500D01*
X0321061Y0254642D01*
X0321813Y0255393D01*
X0322565Y0254642D01*
X0325321Y0253500D01*
X0328305Y0253500D01*
X0331061Y0254642D01*
X0331813Y0255393D01*
X0332565Y0254642D01*
X0335321Y0253500D01*
X0338305Y0253500D01*
X0341061Y0254642D01*
X0341813Y0255393D01*
X0342565Y0254642D01*
X0345321Y0253500D01*
X0348305Y0253500D01*
X0351061Y0254642D01*
X0351813Y0255393D01*
X0352565Y0254642D01*
X0355321Y0253500D01*
X0358305Y0253500D01*
X0361061Y0254642D01*
X0361813Y0255393D01*
X0362565Y0254642D01*
X0365321Y0253500D01*
X0368305Y0253500D01*
X0371061Y0254642D01*
X0371813Y0255393D01*
X0372313Y0254893D01*
X0372313Y0251800D01*
X0371960Y0251800D01*
X0369461Y0250765D01*
X0367548Y0248852D01*
X0366513Y0246353D01*
X0366513Y0245164D01*
X0366113Y0245564D01*
X0366113Y0247353D01*
X0365078Y0249852D01*
X0363165Y0251765D01*
X0360666Y0252800D01*
X0357960Y0252800D01*
X0355461Y0251765D01*
X0353548Y0249852D01*
X0352513Y0247353D01*
X0352513Y0244647D01*
X0353548Y0242148D01*
X0355461Y0240235D01*
X0357960Y0239200D01*
X0359749Y0239200D01*
X0367177Y0231772D01*
X0366813Y0231772D01*
X0362778Y0231772D01*
X0362269Y0231635D01*
X0361813Y0231372D01*
X0361441Y0231000D01*
X0361178Y0230544D01*
X0361041Y0230035D01*
X0361041Y0226000D01*
X0366813Y0226000D01*
X0366813Y0226000D01*
X0366813Y0231772D01*
X0366813Y0226000D01*
X0366813Y0220228D01*
X0370848Y0220228D01*
X0371357Y0220365D01*
X0371813Y0220628D01*
X0371857Y0220672D01*
X0372694Y0219835D01*
X0375367Y0218728D01*
X0378259Y0218728D01*
X0380932Y0219835D01*
X0381813Y0220716D01*
X0382694Y0219835D01*
X0385367Y0218728D01*
X0388259Y0218728D01*
X0390932Y0219835D01*
X0391813Y0220716D01*
X0392694Y0219835D01*
X0395367Y0218728D01*
X0398259Y0218728D01*
X0399813Y0219372D01*
X0399813Y0212628D01*
X0398259Y0213272D01*
X0395367Y0213272D01*
X0392694Y0212165D01*
X0391813Y0211284D01*
X0390932Y0212165D01*
X0388259Y0213272D01*
X0385367Y0213272D01*
X0382694Y0212165D01*
X0381813Y0211284D01*
X0380932Y0212165D01*
X0378259Y0213272D01*
X0375367Y0213272D01*
X0372694Y0212165D01*
X0371857Y0211328D01*
X0371813Y0211372D01*
X0371357Y0211635D01*
X0370848Y0211772D01*
X0366813Y0211772D01*
X0362778Y0211772D01*
X0362269Y0211635D01*
X0361813Y0211372D01*
X0361441Y0211000D01*
X0361178Y0210544D01*
X0361041Y0210035D01*
X0361041Y0206000D01*
X0366813Y0206000D01*
X0366813Y0206000D01*
X0366813Y0211772D01*
X0366813Y0206000D01*
X0366813Y0200228D01*
X0367177Y0200228D01*
X0365687Y0198738D01*
X0334896Y0198534D01*
X0334279Y0199151D01*
X0335932Y0199835D01*
X0336813Y0200716D01*
X0337694Y0199835D01*
X0340367Y0198728D01*
X0343259Y0198728D01*
X0345932Y0199835D01*
X0346813Y0200716D01*
X0347694Y0199835D01*
X0350367Y0198728D01*
X0353259Y0198728D01*
X0355932Y0199835D01*
X0357978Y0201881D01*
X0359085Y0204554D01*
X0359085Y0207446D01*
X0357978Y0210119D01*
X0355932Y0212165D01*
X0353259Y0213272D01*
X0350367Y0213272D01*
X0347694Y0212165D01*
X0346813Y0211284D01*
X0345932Y0212165D01*
X0343259Y0213272D01*
X0340367Y0213272D01*
X0337694Y0212165D01*
X0336813Y0211284D01*
X0335932Y0212165D01*
X0333259Y0213272D01*
X0330367Y0213272D01*
X0327694Y0212165D01*
X0326857Y0211328D01*
X0326813Y0211372D01*
X0326357Y0211635D01*
X0325848Y0211772D01*
X0321813Y0211772D01*
X0317778Y0211772D01*
X0317269Y0211635D01*
X0316813Y0211372D01*
X0316441Y0211000D01*
X0316178Y0210544D01*
X0316041Y0210035D01*
X0316041Y0207614D01*
X0315855Y0207938D01*
X0313751Y0210042D01*
X0311174Y0211529D01*
X0308301Y0212299D01*
X0305325Y0212299D01*
X0302452Y0211529D01*
X0299875Y0210042D01*
X0297771Y0207938D01*
X0296284Y0205361D01*
X0295514Y0202488D01*
X0295514Y0199512D01*
X0296284Y0196639D01*
X0297771Y0194062D01*
X0298834Y0193000D01*
X0287918Y0193000D01*
X0286264Y0192315D01*
X0284249Y0190300D01*
X0283460Y0190300D01*
X0280961Y0189265D01*
X0279048Y0187352D01*
X0278013Y0184853D01*
X0278013Y0182147D01*
X0279048Y0179648D01*
X0280696Y0178000D01*
X0279854Y0178000D01*
X0277254Y0180600D01*
X0271372Y0180600D01*
X0267213Y0176441D01*
X0267213Y0170559D01*
X0269272Y0168500D01*
X0267213Y0166441D01*
X0267213Y0160559D01*
X0271372Y0156400D01*
X0272177Y0156400D01*
X0270291Y0155619D01*
X0268294Y0153622D01*
X0268270Y0153563D01*
X0267961Y0153871D01*
X0267248Y0154390D01*
X0266463Y0154790D01*
X0265624Y0155062D01*
X0264754Y0155200D01*
X0264313Y0155200D01*
X0264313Y0146000D01*
X0264313Y0146000D01*
X0264313Y0136800D01*
X0264754Y0136800D01*
X0265624Y0136938D01*
X0266463Y0137210D01*
X0267248Y0137610D01*
X0267961Y0138129D01*
X0268270Y0138437D01*
X0268294Y0138378D01*
X0270291Y0136381D01*
X0272418Y0135500D01*
X0233854Y0135500D01*
X0235913Y0137559D01*
X0235913Y0143441D01*
X0232154Y0147200D01*
X0233166Y0147200D01*
X0235665Y0148235D01*
X0237578Y0150148D01*
X0238613Y0152647D01*
X0238613Y0155353D01*
X0237578Y0157852D01*
X0235665Y0159765D01*
X0233166Y0160800D01*
X0231377Y0160800D01*
X0193628Y0198549D01*
X0192362Y0199815D01*
X0190708Y0200500D01*
X0189430Y0200500D01*
X0187665Y0202265D01*
X0185166Y0203300D01*
X0182460Y0203300D01*
X0179961Y0202265D01*
X0178048Y0200352D01*
X0177013Y0197853D01*
X0177013Y0195147D01*
X0178048Y0192648D01*
X0179961Y0190735D01*
X0182460Y0189700D01*
X0185166Y0189700D01*
X0187665Y0190735D01*
X0188189Y0191260D01*
X0199344Y0180105D01*
X0197666Y0180800D01*
X0194960Y0180800D01*
X0192461Y0179765D01*
X0190548Y0177852D01*
X0189513Y0175353D01*
X0189513Y0172647D01*
X0190548Y0170148D01*
X0191813Y0168883D01*
X0191813Y0143541D01*
X0191713Y0143441D01*
X0191713Y0137559D01*
X0195872Y0133400D01*
X0199299Y0133400D01*
X0200064Y0132635D01*
X0199666Y0132800D01*
X0196960Y0132800D01*
X0194461Y0131765D01*
X0192548Y0129852D01*
X0191513Y0127353D01*
X0191513Y0124647D01*
X0192548Y0122148D01*
X0194461Y0120235D01*
X0196960Y0119200D01*
X0198749Y0119200D01*
X0198764Y0119185D01*
X0200418Y0118500D01*
X0247813Y0118500D01*
X0247813Y0103105D01*
X0248498Y0101451D01*
X0249764Y0100185D01*
X0256764Y0093185D01*
X0258418Y0092500D01*
X0295517Y0092500D01*
X0295514Y0092488D01*
X0295514Y0089512D01*
X0296284Y0086639D01*
X0297771Y0084062D01*
X0299875Y0081958D01*
X0302452Y0080471D01*
X0305325Y0079701D01*
X0308301Y0079701D01*
X0311174Y0080471D01*
X0313751Y0081958D01*
X0315855Y0084062D01*
X0317342Y0086639D01*
X0318112Y0089512D01*
X0318112Y0092488D01*
X0317342Y0095361D01*
X0315855Y0097938D01*
X0314792Y0099000D01*
X0324713Y0099000D01*
X0324713Y0095559D01*
X0328872Y0091400D01*
X0334754Y0091400D01*
X0338913Y0095559D01*
X0338913Y0101441D01*
X0335015Y0105338D01*
X0346077Y0116400D01*
X0347254Y0116400D01*
X0349313Y0118459D01*
X0350486Y0117286D01*
X0350194Y0117165D01*
X0348148Y0115119D01*
X0347041Y0112446D01*
X0347041Y0109554D01*
X0348148Y0106881D01*
X0349429Y0105600D01*
X0348872Y0105600D01*
X0344713Y0101441D01*
X0344713Y0095559D01*
X0348872Y0091400D01*
X0354754Y0091400D01*
X0358913Y0095559D01*
X0358913Y0101441D01*
X0356372Y0103982D01*
X0358432Y0104835D01*
X0360478Y0106881D01*
X0361585Y0109554D01*
X0361585Y0112446D01*
X0360478Y0115119D01*
X0358432Y0117165D01*
X0358140Y0117286D01*
X0361413Y0120559D01*
X0361413Y0126441D01*
X0361354Y0126500D01*
X0361458Y0126500D01*
X0363112Y0127185D01*
X0364378Y0128451D01*
X0366813Y0130886D01*
X0366813Y0127893D01*
X0369767Y0124939D01*
X0368313Y0123485D01*
X0368313Y0121000D01*
X0374313Y0121000D01*
X0374313Y0121000D01*
X0374313Y0115000D01*
X0374313Y0111000D01*
X0374313Y0111000D01*
X0374313Y0111000D01*
X0368313Y0111000D01*
X0368313Y0113485D01*
X0370828Y0116000D01*
X0368313Y0118515D01*
X0368313Y0121000D01*
X0374313Y0121000D01*
X0374313Y0121000D01*
X0374313Y0111000D01*
X0374313Y0105000D01*
X0374313Y0101000D01*
X0374313Y0101000D01*
X0374313Y0095000D01*
X0376798Y0095000D01*
X0378252Y0096454D01*
X0381206Y0093500D01*
X0387420Y0093500D01*
X0390846Y0096926D01*
X0393872Y0093900D01*
X0399754Y0093900D01*
X0401813Y0095959D01*
X0403872Y0093900D01*
X0409754Y0093900D01*
X0411530Y0095676D01*
X0412267Y0094939D01*
X0412236Y0094909D01*
X0411681Y0094145D01*
X0411253Y0093303D01*
X0410961Y0092405D01*
X0410813Y0091472D01*
X0410813Y0091000D01*
X0416813Y0091000D01*
X0426813Y0091000D01*
X0431313Y0091000D01*
X0437313Y0091000D01*
X0443313Y0091000D01*
X0443313Y0093485D01*
X0441859Y0094939D01*
X0444813Y0097893D01*
X0444813Y0104107D01*
X0442920Y0106000D01*
X0444813Y0107893D01*
X0444813Y0114107D01*
X0442920Y0116000D01*
X0444813Y0117893D01*
X0444813Y0124107D01*
X0442920Y0126000D01*
X0444813Y0127893D01*
X0444813Y0134107D01*
X0441859Y0137061D01*
X0443313Y0138515D01*
X0443313Y0141000D01*
X0443313Y0143485D01*
X0439798Y0147000D01*
X0437313Y0147000D01*
X0437313Y0141000D01*
X0437313Y0141000D01*
X0443313Y0141000D01*
X0437313Y0141000D01*
X0437313Y0141000D01*
X0437313Y0147000D01*
X0434828Y0147000D01*
X0433124Y0145296D01*
X0432420Y0146000D01*
X0434313Y0147893D01*
X0434313Y0154107D01*
X0432420Y0156000D01*
X0434313Y0157893D01*
X0434313Y0164107D01*
X0432420Y0166000D01*
X0434313Y0167893D01*
X0434313Y0174107D01*
X0432420Y0176000D01*
X0434313Y0177893D01*
X0434313Y0184107D01*
X0432420Y0186000D01*
X0434313Y0187893D01*
X0434313Y0194107D01*
X0432420Y0196000D01*
X0434313Y0197893D01*
X0434313Y0204107D01*
X0432420Y0206000D01*
X0434313Y0207893D01*
X0434313Y0214107D01*
X0432420Y0216000D01*
X0434313Y0217893D01*
X0434313Y0224107D01*
X0432420Y0226000D01*
X0434313Y0227893D01*
X0434313Y0234107D01*
X0432420Y0236000D01*
X0434313Y0237893D01*
X0434313Y0244107D01*
X0432420Y0246000D01*
X0435708Y0246000D01*
X0437362Y0246685D01*
X0441628Y0250951D01*
X0442313Y0252605D01*
X0442313Y0260298D01*
X0445013Y0257598D01*
X0445013Y0072402D01*
X0432411Y0059800D01*
X0428671Y0059800D01*
X0431174Y0060471D01*
X0433751Y0061958D01*
X0435855Y0064062D01*
X0437342Y0066639D01*
X0438112Y0069512D01*
X0438112Y0072488D01*
X0437342Y0075361D01*
X0435855Y0077938D01*
X0433751Y0080042D01*
X0431174Y0081529D01*
X0428301Y0082299D01*
X0425325Y0082299D01*
X0422452Y0081529D01*
X0419875Y0080042D01*
X0417771Y0077938D01*
X0416284Y0075361D01*
X0415514Y0072488D01*
X0415514Y0069512D01*
X0416284Y0066639D01*
X0417771Y0064062D01*
X0419875Y0061958D01*
X0422452Y0060471D01*
X0424955Y0059800D01*
X0174477Y0059800D01*
X0178177Y0063500D01*
X0178305Y0063500D01*
X0181061Y0064642D01*
X0181813Y0065393D01*
X0182565Y0064642D01*
X0185321Y0063500D01*
X0188305Y0063500D01*
X0191061Y0064642D01*
X0191813Y0065393D01*
X0192565Y0064642D01*
X0195321Y0063500D01*
X0198305Y0063500D01*
X0201061Y0064642D01*
X0202874Y0066454D01*
X0202904Y0066423D01*
X0203668Y0065868D01*
X0204510Y0065440D01*
X0205408Y0065148D01*
X0206341Y0065000D01*
X0206813Y0065000D01*
X0207285Y0065000D01*
X0208218Y0065148D01*
X0209116Y0065440D01*
X0209958Y0065868D01*
X0210722Y0066423D01*
X0211390Y0067091D01*
X0211813Y0067674D01*
X0212236Y0067091D01*
X0212904Y0066423D01*
X0213668Y0065868D01*
X0214510Y0065440D01*
X0215408Y0065148D01*
X0216341Y0065000D01*
X0216813Y0065000D01*
X0217285Y0065000D01*
X0218218Y0065148D01*
X0219116Y0065440D01*
X0219958Y0065868D01*
X0220722Y0066423D01*
X0220752Y0066454D01*
X0222565Y0064642D01*
X0225321Y0063500D01*
X0228305Y0063500D01*
X0231061Y0064642D01*
X0233171Y0066752D01*
X0234313Y0069508D01*
X0234313Y0072492D01*
X0233171Y0075248D01*
X0231061Y0077358D01*
X0228305Y0078500D01*
X0225321Y0078500D01*
X0222565Y0077358D01*
X0220752Y0075546D01*
X0220722Y0075577D01*
X0219958Y0076132D01*
X0219116Y0076560D01*
X0218218Y0076852D01*
X0217285Y0077000D01*
X0216813Y0077000D01*
X0216813Y0071000D01*
X0216813Y0071000D01*
X0216813Y0071000D01*
X0206813Y0071000D01*
X0206813Y0071000D01*
X0206813Y0071000D01*
X0206813Y0077000D01*
X0207285Y0077000D01*
X0208218Y0076852D01*
X0209116Y0076560D01*
X0209958Y0076132D01*
X0210722Y0075577D01*
X0211390Y0074909D01*
X0211813Y0074326D01*
X0212236Y0074909D01*
X0212904Y0075577D01*
X0213668Y0076132D01*
X0214510Y0076560D01*
X0215408Y0076852D01*
X0216341Y0077000D01*
X0216813Y0077000D01*
X0216813Y0071000D01*
X0216813Y0065000D01*
X0216813Y0071000D01*
X0216813Y0071000D01*
X0210813Y0071000D01*
X0206813Y0071000D01*
X0206813Y0077000D01*
X0206341Y0077000D01*
X0205408Y0076852D01*
X0204510Y0076560D01*
X0203668Y0076132D01*
X0202904Y0075577D01*
X0202874Y0075546D01*
X0201061Y0077358D01*
X0198305Y0078500D01*
X0195321Y0078500D01*
X0192565Y0077358D01*
X0191813Y0076607D01*
X0191061Y0077358D01*
X0188305Y0078500D01*
X0185321Y0078500D01*
X0182565Y0077358D01*
X0181813Y0076607D01*
X0181061Y0077358D01*
X0178305Y0078500D01*
X0175321Y0078500D01*
X0172565Y0077358D01*
X0171813Y0076607D01*
X0171061Y0077358D01*
X0168305Y0078500D01*
X0165321Y0078500D01*
X0162565Y0077358D01*
X0161813Y0076607D01*
X0161061Y0077358D01*
X0158305Y0078500D01*
X0155321Y0078500D01*
X0152565Y0077358D01*
X0150455Y0075248D01*
X0149313Y0072492D01*
X0149313Y0069508D01*
X0150455Y0066752D01*
X0150456Y0066750D01*
X0131802Y0066750D01*
X0112487Y0086065D01*
X0110833Y0086750D01*
X0094677Y0086750D01*
X0090438Y0090989D01*
X0090438Y0136511D01*
X0092998Y0133951D01*
X0094264Y0132685D01*
X0095918Y0132000D01*
X0140449Y0132000D01*
X0142813Y0129636D01*
X0142813Y0129607D01*
X0141252Y0128046D01*
X0139798Y0129500D01*
X0137313Y0129500D01*
X0137313Y0123500D01*
X0137313Y0123500D01*
X0137313Y0117500D01*
X0139798Y0117500D01*
X0141252Y0118954D01*
X0144206Y0116000D01*
X0150420Y0116000D01*
X0152313Y0117893D01*
X0154206Y0116000D01*
X0160420Y0116000D01*
X0162313Y0117893D01*
X0164206Y0116000D01*
X0170420Y0116000D01*
X0174813Y0120393D01*
X0174813Y0126607D01*
X0174696Y0126724D01*
X0175960Y0126200D01*
X0178666Y0126200D01*
X0179813Y0126675D01*
X0179813Y0118364D01*
X0173498Y0112049D01*
X0172813Y0110395D01*
X0172813Y0109107D01*
X0170420Y0111500D01*
X0164206Y0111500D01*
X0162313Y0109607D01*
X0160420Y0111500D01*
X0154206Y0111500D01*
X0152313Y0109607D01*
X0150420Y0111500D01*
X0144206Y0111500D01*
X0141252Y0108546D01*
X0139798Y0110000D01*
X0137313Y0110000D01*
X0137313Y0104000D01*
X0137313Y0104000D01*
X0137313Y0098000D01*
X0139798Y0098000D01*
X0141252Y0099454D01*
X0142813Y0097893D01*
X0142813Y0095105D01*
X0143392Y0093706D01*
X0143166Y0093800D01*
X0140460Y0093800D01*
X0137961Y0092765D01*
X0136048Y0090852D01*
X0135013Y0088353D01*
X0135013Y0085647D01*
X0136048Y0083148D01*
X0137961Y0081235D01*
X0140460Y0080200D01*
X0143166Y0080200D01*
X0145665Y0081235D01*
X0146430Y0082000D01*
X0175196Y0082000D01*
X0175961Y0081235D01*
X0178460Y0080200D01*
X0181166Y0080200D01*
X0183665Y0081235D01*
X0185578Y0083148D01*
X0186613Y0085647D01*
X0186613Y0088353D01*
X0185578Y0090852D01*
X0183665Y0092765D01*
X0181166Y0093800D01*
X0180977Y0093800D01*
X0181128Y0093951D01*
X0181813Y0095605D01*
X0181813Y0107636D01*
X0186862Y0112685D01*
X0188128Y0113951D01*
X0188813Y0115605D01*
X0188813Y0151383D01*
X0190078Y0152648D01*
X0191113Y0155147D01*
X0191113Y0157853D01*
X0190078Y0160352D01*
X0188165Y0162265D01*
X0185666Y0163300D01*
X0182960Y0163300D01*
X0180461Y0162265D01*
X0178548Y0160352D01*
X0177513Y0157853D01*
X0177513Y0155147D01*
X0178548Y0152648D01*
X0179813Y0151383D01*
X0179813Y0139325D01*
X0178666Y0139800D01*
X0175960Y0139800D01*
X0175901Y0139776D01*
X0174862Y0140815D01*
X0173208Y0141500D01*
X0160418Y0141500D01*
X0158764Y0140815D01*
X0154764Y0136815D01*
X0153498Y0135549D01*
X0152813Y0133895D01*
X0152813Y0129607D01*
X0152313Y0129107D01*
X0151813Y0129607D01*
X0151813Y0132395D01*
X0151128Y0134049D01*
X0149862Y0135315D01*
X0144862Y0140315D01*
X0143208Y0141000D01*
X0098677Y0141000D01*
X0096313Y0143364D01*
X0096313Y0163125D01*
X0097821Y0162500D01*
X0100805Y0162500D01*
X0103561Y0163642D01*
X0104313Y0164393D01*
X0105065Y0163642D01*
X0107821Y0162500D01*
X0110805Y0162500D01*
X0113561Y0163642D01*
X0115374Y0165454D01*
X0115404Y0165423D01*
X0116168Y0164868D01*
X0117010Y0164440D01*
X0117908Y0164148D01*
X0118841Y0164000D01*
X0119313Y0164000D01*
X0119785Y0164000D01*
X0120718Y0164148D01*
X0121616Y0164440D01*
X0122458Y0164868D01*
X0123222Y0165423D01*
X0123252Y0165454D01*
X0125065Y0163642D01*
X0127821Y0162500D01*
X0130805Y0162500D01*
X0133561Y0163642D01*
X0134313Y0164393D01*
X0135065Y0163642D01*
X0137821Y0162500D01*
X0140805Y0162500D01*
X0143561Y0163642D01*
X0144313Y0164393D01*
X0145065Y0163642D01*
X0147821Y0162500D01*
X0150805Y0162500D01*
X0153561Y0163642D01*
X0154313Y0164393D01*
X0155065Y0163642D01*
X0157821Y0162500D01*
X0160805Y0162500D01*
X0163561Y0163642D01*
X0165374Y0165454D01*
X0165404Y0165423D01*
X0166168Y0164868D01*
X0167010Y0164440D01*
X0167908Y0164148D01*
X0168841Y0164000D01*
X0169313Y0164000D01*
X0169785Y0164000D01*
X0170718Y0164148D01*
X0171616Y0164440D01*
X0172458Y0164868D01*
X0173222Y0165423D01*
X0173890Y0166091D01*
X0174445Y0166855D01*
X0174873Y0167697D01*
X0175165Y0168595D01*
X0175313Y0169528D01*
X0175313Y0174000D01*
X0175313Y0178472D01*
X0175165Y0179405D01*
X0174873Y0180303D01*
X0174445Y0181145D01*
X0173890Y0181909D01*
X0173222Y0182577D01*
X0172458Y0183132D01*
X0171616Y0183560D01*
X0170718Y0183852D01*
X0169785Y0184000D01*
X0169313Y0184000D01*
X0169313Y0174000D01*
X0169313Y0174000D01*
X0175313Y0174000D01*
X0169313Y0174000D01*
X0169313Y0174000D01*
X0169313Y0184000D01*
X0168841Y0184000D01*
X0167908Y0183852D01*
X0167010Y0183560D01*
X0166168Y0183132D01*
X0165404Y0182577D01*
X0165374Y0182546D01*
X0163561Y0184358D01*
X0160805Y0185500D01*
X0157821Y0185500D01*
X0155065Y0184358D01*
X0154313Y0183607D01*
X0153561Y0184358D01*
X0150805Y0185500D01*
X0147821Y0185500D01*
X0145065Y0184358D01*
X0144313Y0183607D01*
X0143561Y0184358D01*
X0140805Y0185500D01*
X0137821Y0185500D01*
X0135065Y0184358D01*
X0134313Y0183607D01*
X0133561Y0184358D01*
X0130805Y0185500D01*
X0127821Y0185500D01*
X0125065Y0184358D01*
X0123252Y0182546D01*
X0123222Y0182577D01*
X0122458Y0183132D01*
X0121616Y0183560D01*
X0120718Y0183852D01*
X0119785Y0184000D01*
X0119313Y0184000D01*
X0119313Y0174000D01*
X0119313Y0174000D01*
X0119313Y0184000D01*
X0118841Y0184000D01*
X0117908Y0183852D01*
X0117010Y0183560D01*
X0116168Y0183132D01*
X0115404Y0182577D01*
X0115374Y0182546D01*
X0113813Y0184107D01*
X0113813Y0189136D01*
X0133052Y0208375D01*
X0205833Y0208375D01*
X0207487Y0209060D01*
X0208753Y0210326D01*
X0223803Y0225376D01*
X0226401Y0224300D01*
X0229225Y0224300D01*
X0231835Y0225381D01*
X0232813Y0226359D01*
X0233791Y0225381D01*
X0236401Y0224300D01*
X0238399Y0224300D01*
X0241748Y0220951D01*
X0241748Y0220951D01*
X0242199Y0220500D01*
X0240293Y0220500D01*
X0238639Y0219815D01*
X0237373Y0218549D01*
X0235514Y0216690D01*
X0235514Y0216690D01*
X0234248Y0215424D01*
X0233940Y0214681D01*
X0233791Y0214619D01*
X0232813Y0213641D01*
X0231835Y0214619D01*
X0229225Y0215700D01*
X0226401Y0215700D01*
X0223791Y0214619D01*
X0221794Y0212622D01*
X0220713Y0210012D01*
X0220713Y0199988D01*
X0221794Y0197378D01*
X0223563Y0195609D01*
X0223563Y0180355D01*
X0224248Y0178701D01*
X0226013Y0176936D01*
X0226013Y0175147D01*
X0227048Y0172648D01*
X0228961Y0170735D01*
X0231460Y0169700D01*
X0234166Y0169700D01*
X0236665Y0170735D01*
X0238578Y0172648D01*
X0239613Y0175147D01*
X0239613Y0177853D01*
X0238578Y0180352D01*
X0236665Y0182265D01*
X0234166Y0183300D01*
X0232563Y0183300D01*
X0232563Y0196109D01*
X0232813Y0196359D01*
X0233791Y0195381D01*
X0236401Y0194300D01*
X0239225Y0194300D01*
X0241835Y0195381D01*
X0242813Y0196359D01*
X0243791Y0195381D01*
X0243813Y0195372D01*
X0243813Y0190617D01*
X0242548Y0189352D01*
X0241513Y0186853D01*
X0241513Y0184147D01*
X0242548Y0181648D01*
X0244461Y0179735D01*
X0246960Y0178700D01*
X0249666Y0178700D01*
X0252165Y0179735D01*
X0254078Y0181648D01*
X0255113Y0184147D01*
X0255113Y0186853D01*
X0254078Y0189352D01*
X0252813Y0190617D01*
X0252813Y0196359D01*
X0253791Y0195381D01*
X0256401Y0194300D01*
X0259225Y0194300D01*
X0261835Y0195381D01*
X0262813Y0196359D01*
X0263791Y0195381D01*
X0266401Y0194300D01*
X0269225Y0194300D01*
X0271835Y0195381D01*
X0272813Y0196359D01*
X0273791Y0195381D01*
X0276401Y0194300D01*
X0279225Y0194300D01*
X0281835Y0195381D01*
X0283832Y0197378D01*
X0283856Y0197437D01*
X0284165Y0197129D01*
X0284878Y0196610D01*
X0285663Y0196210D01*
X0286502Y0195938D01*
X0287372Y0195800D01*
X0287813Y0195800D01*
X0288254Y0195800D01*
X0289124Y0195938D01*
X0289963Y0196210D01*
X0290748Y0196610D01*
X0291461Y0197129D01*
X0292084Y0197752D01*
X0292603Y0198465D01*
X0293003Y0199250D01*
X0293275Y0200089D01*
X0293413Y0200959D01*
X0293413Y0205000D01*
X0293413Y0209041D01*
X0293275Y0209911D01*
X0293003Y0210750D01*
X0292603Y0211535D01*
X0292084Y0212248D01*
X0291461Y0212871D01*
X0290748Y0213390D01*
X0289963Y0213790D01*
X0289124Y0214062D01*
X0288254Y0214200D01*
X0287813Y0214200D01*
X0287813Y0205000D01*
X0287813Y0205000D01*
X0293413Y0205000D01*
X0287813Y0205000D01*
X0287813Y0205000D01*
X0287813Y0214200D01*
X0287372Y0214200D01*
X0286502Y0214062D01*
X0285663Y0213790D01*
X0284878Y0213390D01*
X0284165Y0212871D01*
X0283856Y0212563D01*
X0283832Y0212622D01*
X0281835Y0214619D01*
X0279225Y0215700D01*
X0277227Y0215700D01*
X0273927Y0219000D01*
X0282708Y0219000D01*
X0284362Y0219685D01*
X0288977Y0224300D01*
X0289225Y0224300D01*
X0291835Y0225381D01*
X0293832Y0227378D01*
X0294913Y0229988D01*
X0294913Y0240012D01*
X0293883Y0242500D01*
X0293949Y0242500D01*
X0297513Y0238936D01*
X0297513Y0237147D01*
X0298548Y0234648D01*
X0300461Y0232735D01*
X0302960Y0231700D01*
X0305666Y0231700D01*
X0308165Y0232735D01*
X0310078Y0234648D01*
X0311113Y0237147D01*
X0311113Y0239853D01*
X0310078Y0242352D01*
X0308165Y0244265D01*
X0305666Y0245300D01*
X0303877Y0245300D01*
X0298362Y0250815D01*
X0296708Y0251500D01*
X0247930Y0251500D01*
X0246665Y0252765D01*
X0244166Y0253800D01*
X0241460Y0253800D01*
X0238961Y0252765D01*
X0237048Y0250852D01*
X0236013Y0248353D01*
X0236013Y0245647D01*
X0236051Y0245555D01*
X0233791Y0244619D01*
X0232813Y0243641D01*
X0231835Y0244619D01*
X0229225Y0245700D01*
X0226401Y0245700D01*
X0223791Y0244619D01*
X0221794Y0242622D01*
X0220713Y0240012D01*
X0220713Y0235014D01*
X0203074Y0217375D01*
X0194052Y0217375D01*
X0222628Y0245951D01*
X0223313Y0247605D01*
X0223313Y0254332D01*
X0225321Y0253500D01*
X0228305Y0253500D01*
X0231061Y0254642D01*
X0231813Y0255393D01*
X0232565Y0254642D01*
X0235321Y0253500D01*
X0238305Y0253500D01*
X0241061Y0254642D01*
X0241813Y0255393D01*
X0242565Y0254642D01*
X0245321Y0253500D01*
X0248305Y0253500D01*
X0251061Y0254642D01*
X0251813Y0255393D01*
X0252565Y0254642D01*
X0255321Y0253500D01*
X0258305Y0253500D01*
X0261061Y0254642D01*
X0261813Y0255393D01*
X0262565Y0254642D01*
X0265321Y0253500D01*
X0268305Y0253500D01*
X0271061Y0254642D01*
X0271813Y0255393D01*
X0272565Y0254642D01*
X0275321Y0253500D01*
X0278305Y0253500D01*
X0281061Y0254642D01*
X0281813Y0255393D01*
X0282565Y0254642D01*
X0285321Y0253500D01*
X0288305Y0253500D01*
X0291061Y0254642D01*
X0291813Y0255393D01*
X0292565Y0254642D01*
X0295321Y0253500D01*
X0298305Y0253500D01*
X0301061Y0254642D01*
X0303171Y0256752D01*
X0304313Y0259508D01*
X0304023Y0258808D02*
X0309603Y0258808D01*
X0310431Y0256809D02*
X0303195Y0256809D01*
X0301231Y0254811D02*
X0312395Y0254811D01*
X0309443Y0262805D02*
X0304183Y0262805D01*
X0303355Y0264803D02*
X0310060Y0264803D01*
X0309313Y0266802D02*
X0301618Y0266802D01*
X0301313Y0268801D02*
X0309313Y0268801D01*
X0309313Y0270799D02*
X0301313Y0270799D01*
X0301313Y0272798D02*
X0309313Y0272798D01*
X0302410Y0274796D02*
X0301313Y0274796D01*
X0296813Y0281000D02*
X0296813Y0261000D01*
X0292395Y0254811D02*
X0291231Y0254811D01*
X0286813Y0261000D02*
X0286813Y0281000D01*
X0281813Y0275393D02*
X0282313Y0274893D01*
X0282313Y0267107D01*
X0281813Y0266607D01*
X0281061Y0267358D01*
X0280220Y0267707D01*
X0279362Y0268565D01*
X0275612Y0272315D01*
X0273958Y0273000D01*
X0220918Y0273000D01*
X0219264Y0272315D01*
X0216264Y0269315D01*
X0214998Y0268049D01*
X0214763Y0267482D01*
X0212305Y0268500D01*
X0209321Y0268500D01*
X0206565Y0267358D01*
X0205813Y0266607D01*
X0205061Y0267358D01*
X0202305Y0268500D01*
X0199321Y0268500D01*
X0196565Y0267358D01*
X0195813Y0266607D01*
X0195061Y0267358D01*
X0192305Y0268500D01*
X0189321Y0268500D01*
X0186565Y0267358D01*
X0185813Y0266607D01*
X0185061Y0267358D01*
X0182305Y0268500D01*
X0179321Y0268500D01*
X0176565Y0267358D01*
X0175813Y0266607D01*
X0175061Y0267358D01*
X0172305Y0268500D01*
X0169321Y0268500D01*
X0166565Y0267358D01*
X0165813Y0266607D01*
X0165061Y0267358D01*
X0162305Y0268500D01*
X0159321Y0268500D01*
X0156565Y0267358D01*
X0154752Y0265546D01*
X0154722Y0265577D01*
X0153958Y0266132D01*
X0153116Y0266560D01*
X0152218Y0266852D01*
X0151285Y0267000D01*
X0150813Y0267000D01*
X0150813Y0261000D01*
X0150813Y0261000D01*
X0150813Y0255000D01*
X0151285Y0255000D01*
X0152218Y0255148D01*
X0153116Y0255440D01*
X0153958Y0255868D01*
X0154722Y0256423D01*
X0154752Y0256454D01*
X0156313Y0254893D01*
X0156313Y0244875D01*
X0155065Y0244358D01*
X0154313Y0243607D01*
X0153561Y0244358D01*
X0150805Y0245500D01*
X0147821Y0245500D01*
X0145065Y0244358D01*
X0144313Y0243607D01*
X0143561Y0244358D01*
X0140805Y0245500D01*
X0137821Y0245500D01*
X0135065Y0244358D01*
X0134313Y0243607D01*
X0133561Y0244358D01*
X0130805Y0245500D01*
X0127821Y0245500D01*
X0125065Y0244358D01*
X0124313Y0243607D01*
X0123561Y0244358D01*
X0120805Y0245500D01*
X0117821Y0245500D01*
X0115065Y0244358D01*
X0114313Y0243607D01*
X0113561Y0244358D01*
X0110805Y0245500D01*
X0107821Y0245500D01*
X0105065Y0244358D01*
X0104313Y0243607D01*
X0103561Y0244358D01*
X0100805Y0245500D01*
X0097821Y0245500D01*
X0095065Y0244358D01*
X0092955Y0242248D01*
X0091813Y0239492D01*
X0091813Y0228508D01*
X0092955Y0225752D01*
X0095065Y0223642D01*
X0097821Y0222500D01*
X0100805Y0222500D01*
X0103561Y0223642D01*
X0104313Y0224393D01*
X0105065Y0223642D01*
X0107821Y0222500D01*
X0110805Y0222500D01*
X0113561Y0223642D01*
X0114313Y0224393D01*
X0115065Y0223642D01*
X0117821Y0222500D01*
X0120805Y0222500D01*
X0123561Y0223642D01*
X0124313Y0224393D01*
X0125065Y0223642D01*
X0127821Y0222500D01*
X0130805Y0222500D01*
X0133561Y0223642D01*
X0134313Y0224393D01*
X0135065Y0223642D01*
X0137821Y0222500D01*
X0140805Y0222500D01*
X0143561Y0223642D01*
X0144313Y0224393D01*
X0145065Y0223642D01*
X0147821Y0222500D01*
X0150805Y0222500D01*
X0153561Y0223642D01*
X0154313Y0224393D01*
X0155065Y0223642D01*
X0157821Y0222500D01*
X0160805Y0222500D01*
X0163561Y0223642D01*
X0165374Y0225454D01*
X0165404Y0225423D01*
X0166168Y0224868D01*
X0167010Y0224440D01*
X0167908Y0224148D01*
X0168841Y0224000D01*
X0169313Y0224000D01*
X0169785Y0224000D01*
X0170718Y0224148D01*
X0171616Y0224440D01*
X0172458Y0224868D01*
X0173222Y0225423D01*
X0173890Y0226091D01*
X0174445Y0226855D01*
X0174873Y0227697D01*
X0175165Y0228595D01*
X0175313Y0229528D01*
X0175313Y0230716D01*
X0175548Y0230148D01*
X0177461Y0228235D01*
X0179960Y0227200D01*
X0182666Y0227200D01*
X0185165Y0228235D01*
X0187078Y0230148D01*
X0188113Y0232647D01*
X0188113Y0235353D01*
X0187078Y0237852D01*
X0185813Y0239117D01*
X0185813Y0243395D01*
X0185128Y0245049D01*
X0183862Y0246315D01*
X0175313Y0254864D01*
X0175313Y0254893D01*
X0175813Y0255393D01*
X0176565Y0254642D01*
X0179321Y0253500D01*
X0182305Y0253500D01*
X0185061Y0254642D01*
X0185813Y0255393D01*
X0186565Y0254642D01*
X0189321Y0253500D01*
X0192305Y0253500D01*
X0195061Y0254642D01*
X0195813Y0255393D01*
X0196565Y0254642D01*
X0199321Y0253500D01*
X0202305Y0253500D01*
X0205061Y0254642D01*
X0205813Y0255393D01*
X0206565Y0254642D01*
X0209321Y0253500D01*
X0212305Y0253500D01*
X0214313Y0254332D01*
X0214313Y0250364D01*
X0186324Y0222375D01*
X0104293Y0222375D01*
X0102639Y0221690D01*
X0090438Y0209489D01*
X0090438Y0254511D01*
X0113052Y0277125D01*
X0251458Y0277125D01*
X0253112Y0277810D01*
X0260904Y0285602D01*
X0260813Y0285263D01*
X0260813Y0281000D01*
X0266813Y0281000D01*
X0266813Y0281000D01*
X0266813Y0287000D01*
X0271076Y0287000D01*
X0271585Y0286864D01*
X0271893Y0286686D01*
X0272313Y0287107D01*
X0272313Y0288511D01*
X0271199Y0289625D01*
X0264927Y0289625D01*
X0262211Y0286909D01*
X0262550Y0287000D01*
X0266813Y0287000D01*
X0266813Y0281000D01*
X0266813Y0275000D01*
X0271076Y0275000D01*
X0271585Y0275136D01*
X0271893Y0275314D01*
X0272565Y0274642D01*
X0275321Y0273500D01*
X0278305Y0273500D01*
X0281061Y0274642D01*
X0281813Y0275393D01*
X0282313Y0274796D02*
X0281216Y0274796D01*
X0282313Y0272798D02*
X0274447Y0272798D01*
X0272410Y0274796D02*
X0110723Y0274796D01*
X0108725Y0272798D02*
X0220429Y0272798D01*
X0217748Y0270799D02*
X0106726Y0270799D01*
X0104727Y0268801D02*
X0215750Y0268801D01*
X0218813Y0265500D02*
X0218813Y0248500D01*
X0188188Y0217875D01*
X0105188Y0217875D01*
X0091813Y0204500D01*
X0091813Y0141500D01*
X0096813Y0136500D01*
X0142313Y0136500D01*
X0147313Y0131500D01*
X0147313Y0123500D01*
X0142111Y0128905D02*
X0140394Y0128905D01*
X0141546Y0130903D02*
X0130516Y0130903D01*
X0130420Y0131000D02*
X0124206Y0131000D01*
X0122313Y0129107D01*
X0120420Y0131000D01*
X0114206Y0131000D01*
X0109813Y0126607D01*
X0109813Y0120393D01*
X0114206Y0116000D01*
X0120420Y0116000D01*
X0122313Y0117893D01*
X0124206Y0116000D01*
X0130420Y0116000D01*
X0133374Y0118954D01*
X0134828Y0117500D01*
X0137313Y0117500D01*
X0137313Y0123500D01*
X0137313Y0123500D01*
X0137313Y0129500D01*
X0134828Y0129500D01*
X0133374Y0128046D01*
X0130420Y0131000D01*
X0132515Y0128905D02*
X0134232Y0128905D01*
X0137313Y0128905D02*
X0137313Y0128905D01*
X0137313Y0126906D02*
X0137313Y0126906D01*
X0137313Y0124908D02*
X0137313Y0124908D01*
X0137313Y0122909D02*
X0137313Y0122909D01*
X0137313Y0120911D02*
X0137313Y0120911D01*
X0137313Y0118912D02*
X0137313Y0118912D01*
X0141210Y0118912D02*
X0141294Y0118912D01*
X0143293Y0116914D02*
X0131333Y0116914D01*
X0133332Y0118912D02*
X0133416Y0118912D01*
X0130420Y0111500D02*
X0124206Y0111500D01*
X0122313Y0109607D01*
X0120420Y0111500D01*
X0114206Y0111500D01*
X0109813Y0107107D01*
X0109813Y0100893D01*
X0114206Y0096500D01*
X0120420Y0096500D01*
X0122313Y0098393D01*
X0124206Y0096500D01*
X0130420Y0096500D01*
X0133374Y0099454D01*
X0134828Y0098000D01*
X0137313Y0098000D01*
X0137313Y0104000D01*
X0137313Y0104000D01*
X0137313Y0110000D01*
X0134828Y0110000D01*
X0133374Y0108546D01*
X0130420Y0111500D01*
X0131001Y0110918D02*
X0143625Y0110918D01*
X0141626Y0108920D02*
X0140879Y0108920D01*
X0137313Y0108920D02*
X0137313Y0108920D01*
X0137313Y0106921D02*
X0137313Y0106921D01*
X0137313Y0104923D02*
X0137313Y0104923D01*
X0137313Y0102924D02*
X0137313Y0102924D01*
X0137313Y0100926D02*
X0137313Y0100926D01*
X0137313Y0098927D02*
X0137313Y0098927D01*
X0140725Y0098927D02*
X0141779Y0098927D01*
X0142813Y0096929D02*
X0130848Y0096929D01*
X0132847Y0098927D02*
X0133901Y0098927D01*
X0138364Y0092932D02*
X0090438Y0092932D01*
X0090438Y0094930D02*
X0142885Y0094930D01*
X0147313Y0096000D02*
X0147313Y0104000D01*
X0151001Y0110918D02*
X0153625Y0110918D01*
X0153293Y0116914D02*
X0151333Y0116914D01*
X0157313Y0123500D02*
X0157313Y0133000D01*
X0161313Y0137000D01*
X0172313Y0137000D01*
X0176313Y0133000D01*
X0177313Y0133000D01*
X0179813Y0140896D02*
X0174667Y0140896D01*
X0179813Y0142894D02*
X0096783Y0142894D01*
X0096313Y0144893D02*
X0179813Y0144893D01*
X0179813Y0146891D02*
X0096313Y0146891D01*
X0096313Y0148890D02*
X0179813Y0148890D01*
X0179813Y0150888D02*
X0096313Y0150888D01*
X0096313Y0152887D02*
X0178449Y0152887D01*
X0177622Y0154885D02*
X0096313Y0154885D01*
X0096313Y0156884D02*
X0177513Y0156884D01*
X0177940Y0158882D02*
X0096313Y0158882D01*
X0096313Y0160881D02*
X0179077Y0160881D01*
X0181945Y0162879D02*
X0161721Y0162879D01*
X0164798Y0164878D02*
X0166155Y0164878D01*
X0169313Y0164878D02*
X0169313Y0164878D01*
X0169313Y0164000D02*
X0169313Y0174000D01*
X0169313Y0164000D01*
X0169313Y0166876D02*
X0169313Y0166876D01*
X0169313Y0168875D02*
X0169313Y0168875D01*
X0169313Y0170873D02*
X0169313Y0170873D01*
X0169313Y0172872D02*
X0169313Y0172872D01*
X0169313Y0174000D02*
X0169313Y0174000D01*
X0169313Y0174870D02*
X0169313Y0174870D01*
X0169313Y0176869D02*
X0169313Y0176869D01*
X0169313Y0178868D02*
X0169313Y0178868D01*
X0169313Y0180866D02*
X0169313Y0180866D01*
X0169313Y0182865D02*
X0169313Y0182865D01*
X0165801Y0182865D02*
X0165055Y0182865D01*
X0162343Y0184863D02*
X0194586Y0184863D01*
X0196585Y0182865D02*
X0172825Y0182865D01*
X0174587Y0180866D02*
X0198583Y0180866D01*
X0196313Y0174000D02*
X0196313Y0143000D01*
X0198813Y0140500D01*
X0199313Y0139750D01*
X0205563Y0133500D01*
X0205563Y0133250D01*
X0207813Y0131000D01*
X0285563Y0131000D01*
X0313063Y0103500D01*
X0326813Y0103500D01*
X0344313Y0121000D01*
X0344313Y0123500D01*
X0347768Y0116914D02*
X0349943Y0116914D01*
X0348064Y0114915D02*
X0344592Y0114915D01*
X0342594Y0112917D02*
X0347236Y0112917D01*
X0347041Y0110918D02*
X0340595Y0110918D01*
X0338597Y0108920D02*
X0347304Y0108920D01*
X0348132Y0106921D02*
X0336598Y0106921D01*
X0335431Y0104923D02*
X0348195Y0104923D01*
X0346196Y0102924D02*
X0337430Y0102924D01*
X0338913Y0100926D02*
X0344713Y0100926D01*
X0344713Y0098927D02*
X0338913Y0098927D01*
X0338913Y0096929D02*
X0344713Y0096929D01*
X0345342Y0094930D02*
X0338284Y0094930D01*
X0336285Y0092932D02*
X0347341Y0092932D01*
X0356285Y0092932D02*
X0411132Y0092932D01*
X0410813Y0091000D02*
X0410813Y0090528D01*
X0410961Y0089595D01*
X0411253Y0088697D01*
X0411681Y0087855D01*
X0412236Y0087091D01*
X0412904Y0086423D01*
X0413668Y0085868D01*
X0414510Y0085440D01*
X0415408Y0085148D01*
X0416341Y0085000D01*
X0416813Y0085000D01*
X0417285Y0085000D01*
X0418218Y0085148D01*
X0419116Y0085440D01*
X0419958Y0085868D01*
X0420722Y0086423D01*
X0421390Y0087091D01*
X0421813Y0087674D01*
X0422236Y0087091D01*
X0422904Y0086423D01*
X0423668Y0085868D01*
X0424510Y0085440D01*
X0425408Y0085148D01*
X0426341Y0085000D01*
X0426813Y0085000D01*
X0427285Y0085000D01*
X0428218Y0085148D01*
X0429116Y0085440D01*
X0429958Y0085868D01*
X0430722Y0086423D01*
X0431390Y0087091D01*
X0431945Y0087855D01*
X0431954Y0087874D01*
X0434828Y0085000D01*
X0437313Y0085000D01*
X0439798Y0085000D01*
X0443313Y0088515D01*
X0443313Y0091000D01*
X0437313Y0091000D01*
X0437313Y0091000D01*
X0437313Y0085000D01*
X0437313Y0091000D01*
X0437313Y0091000D01*
X0437313Y0091000D01*
X0426813Y0091000D01*
X0426813Y0091000D01*
X0426813Y0085000D01*
X0426813Y0091000D01*
X0426813Y0091000D01*
X0426813Y0091000D01*
X0422813Y0091000D01*
X0416813Y0091000D01*
X0416813Y0091000D01*
X0416813Y0085000D01*
X0416813Y0091000D01*
X0416813Y0091000D01*
X0416813Y0091000D01*
X0410813Y0091000D01*
X0410813Y0090933D02*
X0318112Y0090933D01*
X0317993Y0092932D02*
X0327341Y0092932D01*
X0325342Y0094930D02*
X0317458Y0094930D01*
X0316437Y0096929D02*
X0324713Y0096929D01*
X0324713Y0098927D02*
X0314865Y0098927D01*
X0317957Y0088934D02*
X0411175Y0088934D01*
X0412392Y0086936D02*
X0317422Y0086936D01*
X0316360Y0084937D02*
X0445013Y0084937D01*
X0445013Y0082939D02*
X0314731Y0082939D01*
X0311988Y0080940D02*
X0421432Y0080940D01*
X0418775Y0078942D02*
X0119610Y0078942D01*
X0117612Y0080940D02*
X0138673Y0080940D01*
X0136257Y0082939D02*
X0115613Y0082939D01*
X0113614Y0084937D02*
X0135307Y0084937D01*
X0135013Y0086936D02*
X0094491Y0086936D01*
X0092492Y0088934D02*
X0135254Y0088934D01*
X0136129Y0090933D02*
X0090494Y0090933D01*
X0085938Y0089125D02*
X0092813Y0082250D01*
X0109938Y0082250D01*
X0129938Y0062250D01*
X0170563Y0062250D01*
X0176813Y0068500D01*
X0176813Y0071000D01*
X0172150Y0076943D02*
X0171476Y0076943D01*
X0176673Y0080940D02*
X0144953Y0080940D01*
X0150329Y0074945D02*
X0123607Y0074945D01*
X0121609Y0076943D02*
X0152150Y0076943D01*
X0149501Y0072946D02*
X0125606Y0072946D01*
X0127604Y0070948D02*
X0149313Y0070948D01*
X0149544Y0068949D02*
X0129603Y0068949D01*
X0131601Y0066951D02*
X0150372Y0066951D01*
X0161476Y0076943D02*
X0162150Y0076943D01*
X0181476Y0076943D02*
X0182150Y0076943D01*
X0182953Y0080940D02*
X0301638Y0080940D01*
X0298895Y0082939D02*
X0243793Y0082939D01*
X0242254Y0081400D02*
X0236372Y0081400D01*
X0232213Y0085559D01*
X0232213Y0091441D01*
X0236372Y0095600D01*
X0242254Y0095600D01*
X0246413Y0091441D01*
X0246413Y0085559D01*
X0242254Y0081400D01*
X0242565Y0077358D02*
X0240455Y0075248D01*
X0239313Y0072492D01*
X0239313Y0069508D01*
X0240455Y0066752D01*
X0242565Y0064642D01*
X0245321Y0063500D01*
X0248305Y0063500D01*
X0251061Y0064642D01*
X0251813Y0065393D01*
X0252565Y0064642D01*
X0255321Y0063500D01*
X0258305Y0063500D01*
X0261061Y0064642D01*
X0261813Y0065393D01*
X0262565Y0064642D01*
X0265321Y0063500D01*
X0268305Y0063500D01*
X0271061Y0064642D01*
X0271813Y0065393D01*
X0272565Y0064642D01*
X0275321Y0063500D01*
X0278305Y0063500D01*
X0281061Y0064642D01*
X0281813Y0065393D01*
X0282565Y0064642D01*
X0285321Y0063500D01*
X0288305Y0063500D01*
X0291061Y0064642D01*
X0291813Y0065393D01*
X0292565Y0064642D01*
X0295321Y0063500D01*
X0298305Y0063500D01*
X0301061Y0064642D01*
X0301813Y0065393D01*
X0302565Y0064642D01*
X0305321Y0063500D01*
X0308305Y0063500D01*
X0311061Y0064642D01*
X0311813Y0065393D01*
X0312565Y0064642D01*
X0315321Y0063500D01*
X0318305Y0063500D01*
X0321061Y0064642D01*
X0323171Y0066752D01*
X0324313Y0069508D01*
X0324313Y0072492D01*
X0323171Y0075248D01*
X0321061Y0077358D01*
X0318305Y0078500D01*
X0315321Y0078500D01*
X0312565Y0077358D01*
X0311813Y0076607D01*
X0311061Y0077358D01*
X0308305Y0078500D01*
X0305321Y0078500D01*
X0302565Y0077358D01*
X0301813Y0076607D01*
X0301061Y0077358D01*
X0298305Y0078500D01*
X0295321Y0078500D01*
X0292565Y0077358D01*
X0291813Y0076607D01*
X0291061Y0077358D01*
X0288305Y0078500D01*
X0285321Y0078500D01*
X0282565Y0077358D01*
X0281813Y0076607D01*
X0281061Y0077358D01*
X0278305Y0078500D01*
X0275321Y0078500D01*
X0272565Y0077358D01*
X0271813Y0076607D01*
X0271061Y0077358D01*
X0268305Y0078500D01*
X0265321Y0078500D01*
X0262565Y0077358D01*
X0261813Y0076607D01*
X0261061Y0077358D01*
X0258305Y0078500D01*
X0255321Y0078500D01*
X0252565Y0077358D01*
X0251813Y0076607D01*
X0251061Y0077358D01*
X0248305Y0078500D01*
X0245321Y0078500D01*
X0242565Y0077358D01*
X0242150Y0076943D02*
X0231476Y0076943D01*
X0233297Y0074945D02*
X0240329Y0074945D01*
X0239501Y0072946D02*
X0234125Y0072946D01*
X0234313Y0070948D02*
X0239313Y0070948D01*
X0239544Y0068949D02*
X0234082Y0068949D01*
X0233254Y0066951D02*
X0240372Y0066951D01*
X0242254Y0064952D02*
X0231372Y0064952D01*
X0222254Y0064952D02*
X0201372Y0064952D01*
X0206813Y0065000D02*
X0206813Y0071000D01*
X0206813Y0065000D01*
X0206813Y0066951D02*
X0206813Y0066951D01*
X0206813Y0068949D02*
X0206813Y0068949D01*
X0206813Y0070948D02*
X0206813Y0070948D01*
X0206813Y0071000D02*
X0206813Y0071000D01*
X0206813Y0072946D02*
X0206813Y0072946D01*
X0206813Y0074945D02*
X0206813Y0074945D01*
X0206813Y0076943D02*
X0206813Y0076943D01*
X0205984Y0076943D02*
X0201476Y0076943D01*
X0207642Y0076943D02*
X0215984Y0076943D01*
X0216813Y0076943D02*
X0216813Y0076943D01*
X0217642Y0076943D02*
X0222150Y0076943D01*
X0216813Y0074945D02*
X0216813Y0074945D01*
X0216813Y0072946D02*
X0216813Y0072946D01*
X0216813Y0070948D02*
X0216813Y0070948D01*
X0216813Y0068949D02*
X0216813Y0068949D01*
X0216813Y0066951D02*
X0216813Y0066951D01*
X0212377Y0066951D02*
X0211249Y0066951D01*
X0211353Y0074945D02*
X0212273Y0074945D01*
X0211004Y0082900D02*
X0205122Y0082900D01*
X0200963Y0087059D01*
X0200963Y0092400D01*
X0198872Y0092400D01*
X0196813Y0094459D01*
X0194754Y0092400D01*
X0188872Y0092400D01*
X0184713Y0096559D01*
X0184713Y0102441D01*
X0188872Y0106600D01*
X0192672Y0106600D01*
X0191713Y0107559D01*
X0191713Y0113441D01*
X0195872Y0117600D01*
X0201754Y0117600D01*
X0203813Y0115541D01*
X0205872Y0117600D01*
X0211754Y0117600D01*
X0213813Y0115541D01*
X0215872Y0117600D01*
X0221754Y0117600D01*
X0224874Y0114480D01*
X0226493Y0116100D01*
X0228813Y0116100D01*
X0228813Y0110500D01*
X0228813Y0110500D01*
X0228813Y0116100D01*
X0231133Y0116100D01*
X0234413Y0112820D01*
X0234413Y0111520D01*
X0236993Y0114100D01*
X0239313Y0114100D01*
X0239313Y0108500D01*
X0239313Y0108500D01*
X0244913Y0108500D01*
X0244913Y0110820D01*
X0241633Y0114100D01*
X0239313Y0114100D01*
X0239313Y0108500D01*
X0239313Y0108500D01*
X0244913Y0108500D01*
X0244913Y0106180D01*
X0241633Y0102900D01*
X0239313Y0102900D01*
X0239313Y0108500D01*
X0239313Y0108500D01*
X0239313Y0102900D01*
X0236993Y0102900D01*
X0233713Y0106180D01*
X0233713Y0107480D01*
X0231133Y0104900D01*
X0228813Y0104900D01*
X0228813Y0110500D01*
X0228813Y0110500D01*
X0228813Y0104900D01*
X0226493Y0104900D01*
X0224874Y0106520D01*
X0221754Y0103400D01*
X0221202Y0103400D01*
X0213737Y0095935D01*
X0212628Y0095476D01*
X0214124Y0093980D01*
X0215743Y0095600D01*
X0218063Y0095600D01*
X0220383Y0095600D01*
X0223663Y0092320D01*
X0223663Y0090000D01*
X0218063Y0090000D01*
X0218063Y0090000D01*
X0218063Y0090000D01*
X0218063Y0095600D01*
X0218063Y0090000D01*
X0223663Y0090000D01*
X0223663Y0087680D01*
X0220383Y0084400D01*
X0218063Y0084400D01*
X0218063Y0090000D01*
X0218063Y0090000D01*
X0218063Y0084400D01*
X0215743Y0084400D01*
X0214124Y0086020D01*
X0211004Y0082900D01*
X0211043Y0082939D02*
X0234833Y0082939D01*
X0232835Y0084937D02*
X0220920Y0084937D01*
X0222919Y0086936D02*
X0232213Y0086936D01*
X0232213Y0088934D02*
X0223663Y0088934D01*
X0223663Y0090933D02*
X0232213Y0090933D01*
X0233704Y0092932D02*
X0223051Y0092932D01*
X0221053Y0094930D02*
X0235702Y0094930D01*
X0242924Y0094930D02*
X0255019Y0094930D01*
X0253020Y0096929D02*
X0214731Y0096929D01*
X0215073Y0094930D02*
X0213174Y0094930D01*
X0218063Y0094930D02*
X0218063Y0094930D01*
X0218063Y0092932D02*
X0218063Y0092932D01*
X0218063Y0090933D02*
X0218063Y0090933D01*
X0218063Y0088934D02*
X0218063Y0088934D01*
X0218063Y0086936D02*
X0218063Y0086936D01*
X0218063Y0084937D02*
X0218063Y0084937D01*
X0215206Y0084937D02*
X0213041Y0084937D01*
X0205083Y0082939D02*
X0185369Y0082939D01*
X0186319Y0084937D02*
X0203085Y0084937D01*
X0201086Y0086936D02*
X0186613Y0086936D01*
X0186372Y0088934D02*
X0200963Y0088934D01*
X0200963Y0090933D02*
X0185497Y0090933D01*
X0183262Y0092932D02*
X0188341Y0092932D01*
X0186342Y0094930D02*
X0181533Y0094930D01*
X0181813Y0096929D02*
X0184713Y0096929D01*
X0184713Y0098927D02*
X0181813Y0098927D01*
X0181813Y0100926D02*
X0184713Y0100926D01*
X0185196Y0102924D02*
X0181813Y0102924D01*
X0181813Y0104923D02*
X0187195Y0104923D01*
X0192351Y0106921D02*
X0181813Y0106921D01*
X0183097Y0108920D02*
X0191713Y0108920D01*
X0191713Y0110918D02*
X0185095Y0110918D01*
X0187094Y0112917D02*
X0191713Y0112917D01*
X0193187Y0114915D02*
X0188527Y0114915D01*
X0188813Y0116914D02*
X0195186Y0116914D01*
X0193786Y0120911D02*
X0188813Y0120911D01*
X0188813Y0122909D02*
X0192233Y0122909D01*
X0191513Y0124908D02*
X0188813Y0124908D01*
X0188813Y0126906D02*
X0191513Y0126906D01*
X0192156Y0128905D02*
X0188813Y0128905D01*
X0188813Y0130903D02*
X0193600Y0130903D01*
X0188813Y0132902D02*
X0199797Y0132902D01*
X0194372Y0134900D02*
X0188813Y0134900D01*
X0188813Y0136899D02*
X0192373Y0136899D01*
X0191713Y0138897D02*
X0188813Y0138897D01*
X0188813Y0140896D02*
X0191713Y0140896D01*
X0191713Y0142894D02*
X0188813Y0142894D01*
X0188813Y0144893D02*
X0191813Y0144893D01*
X0191813Y0146891D02*
X0188813Y0146891D01*
X0188813Y0148890D02*
X0191813Y0148890D01*
X0191813Y0150888D02*
X0188813Y0150888D01*
X0190177Y0152887D02*
X0191813Y0152887D01*
X0191813Y0154885D02*
X0191004Y0154885D01*
X0191113Y0156884D02*
X0191813Y0156884D01*
X0191813Y0158882D02*
X0190686Y0158882D01*
X0191813Y0160881D02*
X0189549Y0160881D01*
X0191813Y0162879D02*
X0186681Y0162879D01*
X0191813Y0164878D02*
X0172471Y0164878D01*
X0174455Y0166876D02*
X0191813Y0166876D01*
X0191813Y0168875D02*
X0175210Y0168875D01*
X0175313Y0170873D02*
X0190248Y0170873D01*
X0189513Y0172872D02*
X0175313Y0172872D01*
X0175313Y0174870D02*
X0189513Y0174870D01*
X0190141Y0176869D02*
X0175313Y0176869D01*
X0175250Y0178868D02*
X0191564Y0178868D01*
X0192587Y0186862D02*
X0113813Y0186862D01*
X0113813Y0188860D02*
X0190589Y0188860D01*
X0188590Y0190859D02*
X0187788Y0190859D01*
X0179838Y0190859D02*
X0115536Y0190859D01*
X0117534Y0192857D02*
X0177962Y0192857D01*
X0177134Y0194856D02*
X0119533Y0194856D01*
X0121531Y0196854D02*
X0177013Y0196854D01*
X0177427Y0198853D02*
X0123530Y0198853D01*
X0125528Y0200851D02*
X0178547Y0200851D01*
X0181373Y0202850D02*
X0127527Y0202850D01*
X0129525Y0204848D02*
X0220713Y0204848D01*
X0220713Y0202850D02*
X0186253Y0202850D01*
X0189079Y0200851D02*
X0220713Y0200851D01*
X0221183Y0198853D02*
X0193324Y0198853D01*
X0193628Y0198549D02*
X0193628Y0198549D01*
X0195323Y0196854D02*
X0222318Y0196854D01*
X0223563Y0194856D02*
X0197321Y0194856D01*
X0199320Y0192857D02*
X0223563Y0192857D01*
X0223563Y0190859D02*
X0201318Y0190859D01*
X0203317Y0188860D02*
X0223563Y0188860D01*
X0223563Y0186862D02*
X0205315Y0186862D01*
X0207314Y0184863D02*
X0223563Y0184863D01*
X0223563Y0182865D02*
X0209312Y0182865D01*
X0211311Y0180866D02*
X0223563Y0180866D01*
X0224179Y0178868D02*
X0213309Y0178868D01*
X0215308Y0176869D02*
X0226013Y0176869D01*
X0226128Y0174870D02*
X0217306Y0174870D01*
X0219305Y0172872D02*
X0226955Y0172872D01*
X0228823Y0170873D02*
X0221303Y0170873D01*
X0223302Y0168875D02*
X0268897Y0168875D01*
X0267649Y0166876D02*
X0225301Y0166876D01*
X0227299Y0164878D02*
X0267213Y0164878D01*
X0267213Y0162879D02*
X0229298Y0162879D01*
X0231296Y0160881D02*
X0267213Y0160881D01*
X0268890Y0158882D02*
X0236547Y0158882D01*
X0237979Y0156884D02*
X0270888Y0156884D01*
X0269557Y0154885D02*
X0266168Y0154885D01*
X0264313Y0154885D02*
X0264313Y0154885D01*
X0264313Y0155200D02*
X0263872Y0155200D01*
X0263002Y0155062D01*
X0262163Y0154790D01*
X0261378Y0154390D01*
X0260665Y0153871D01*
X0260042Y0153248D01*
X0259523Y0152535D01*
X0259123Y0151750D01*
X0258851Y0150911D01*
X0258713Y0150041D01*
X0258713Y0146000D01*
X0264313Y0146000D01*
X0264313Y0146000D01*
X0264313Y0146000D01*
X0264313Y0155200D01*
X0262458Y0154885D02*
X0238613Y0154885D01*
X0238613Y0152887D02*
X0259779Y0152887D01*
X0258847Y0150888D02*
X0237884Y0150888D01*
X0236319Y0148890D02*
X0258713Y0148890D01*
X0258713Y0146891D02*
X0232463Y0146891D01*
X0234461Y0144893D02*
X0258713Y0144893D01*
X0258713Y0146000D02*
X0258713Y0141959D01*
X0258851Y0141089D01*
X0259123Y0140250D01*
X0259523Y0139465D01*
X0260042Y0138752D01*
X0260665Y0138129D01*
X0261378Y0137610D01*
X0262163Y0137210D01*
X0263002Y0136938D01*
X0263872Y0136800D01*
X0264313Y0136800D01*
X0264313Y0146000D01*
X0258713Y0146000D01*
X0258713Y0142894D02*
X0235913Y0142894D01*
X0235913Y0140896D02*
X0258914Y0140896D01*
X0259936Y0138897D02*
X0235913Y0138897D01*
X0235253Y0136899D02*
X0263249Y0136899D01*
X0264313Y0136899D02*
X0264313Y0136899D01*
X0265377Y0136899D02*
X0269773Y0136899D01*
X0264313Y0138897D02*
X0264313Y0138897D01*
X0264313Y0140896D02*
X0264313Y0140896D01*
X0264313Y0142894D02*
X0264313Y0142894D01*
X0264313Y0144893D02*
X0264313Y0144893D01*
X0264313Y0146891D02*
X0264313Y0146891D01*
X0264313Y0148890D02*
X0264313Y0148890D01*
X0264313Y0150888D02*
X0264313Y0150888D01*
X0264313Y0152887D02*
X0264313Y0152887D01*
X0289313Y0156000D02*
X0289313Y0168500D01*
X0284313Y0173500D01*
X0274313Y0173500D01*
X0269640Y0178868D02*
X0250070Y0178868D01*
X0246556Y0178868D02*
X0239193Y0178868D01*
X0239613Y0176869D02*
X0267641Y0176869D01*
X0267213Y0174870D02*
X0239498Y0174870D01*
X0238670Y0172872D02*
X0267213Y0172872D01*
X0267213Y0170873D02*
X0236803Y0170873D01*
X0232813Y0176500D02*
X0228063Y0181250D01*
X0228063Y0204750D01*
X0227813Y0205000D01*
X0220713Y0206847D02*
X0131524Y0206847D01*
X0131188Y0212875D02*
X0204938Y0212875D01*
X0227063Y0235000D01*
X0227813Y0235000D01*
X0226813Y0234750D01*
X0220525Y0234826D02*
X0211503Y0234826D01*
X0213501Y0236824D02*
X0220713Y0236824D01*
X0220713Y0238823D02*
X0215500Y0238823D01*
X0217498Y0240821D02*
X0221048Y0240821D01*
X0221992Y0242820D02*
X0219497Y0242820D01*
X0221495Y0244818D02*
X0224272Y0244818D01*
X0222987Y0246817D02*
X0236013Y0246817D01*
X0236205Y0248815D02*
X0223313Y0248815D01*
X0223313Y0250814D02*
X0237033Y0250814D01*
X0239076Y0252812D02*
X0223313Y0252812D01*
X0231231Y0254811D02*
X0232395Y0254811D01*
X0241231Y0254811D02*
X0242395Y0254811D01*
X0246550Y0252812D02*
X0372313Y0252812D01*
X0372313Y0254811D02*
X0371231Y0254811D01*
X0369580Y0250814D02*
X0364116Y0250814D01*
X0365507Y0248815D02*
X0367533Y0248815D01*
X0366705Y0246817D02*
X0366113Y0246817D01*
X0359313Y0246000D02*
X0376813Y0228500D01*
X0376813Y0226000D01*
X0366813Y0226000D02*
X0366813Y0226000D01*
X0366813Y0226000D01*
X0366813Y0220228D01*
X0362778Y0220228D01*
X0362269Y0220365D01*
X0361813Y0220628D01*
X0361441Y0221000D01*
X0361178Y0221456D01*
X0361041Y0221965D01*
X0361041Y0226000D01*
X0366813Y0226000D01*
X0366813Y0226832D02*
X0366813Y0226832D01*
X0366813Y0228830D02*
X0366813Y0228830D01*
X0366813Y0230829D02*
X0366813Y0230829D01*
X0366122Y0232827D02*
X0354332Y0232827D01*
X0353259Y0233272D02*
X0355932Y0232165D01*
X0357978Y0230119D01*
X0359085Y0227446D01*
X0359085Y0224554D01*
X0357978Y0221881D01*
X0355932Y0219835D01*
X0353259Y0218728D01*
X0350367Y0218728D01*
X0347694Y0219835D01*
X0346813Y0220716D01*
X0345932Y0219835D01*
X0343259Y0218728D01*
X0340367Y0218728D01*
X0337694Y0219835D01*
X0336813Y0220716D01*
X0335932Y0219835D01*
X0333259Y0218728D01*
X0330367Y0218728D01*
X0327694Y0219835D01*
X0326857Y0220672D01*
X0326813Y0220628D01*
X0326357Y0220365D01*
X0325848Y0220228D01*
X0321813Y0220228D01*
X0321813Y0226000D01*
X0321813Y0226000D01*
X0321813Y0231772D01*
X0317778Y0231772D01*
X0317269Y0231635D01*
X0316813Y0231372D01*
X0316441Y0231000D01*
X0316178Y0230544D01*
X0316041Y0230035D01*
X0316041Y0226000D01*
X0321813Y0226000D01*
X0321813Y0231772D01*
X0325848Y0231772D01*
X0326357Y0231635D01*
X0326813Y0231372D01*
X0326857Y0231328D01*
X0327694Y0232165D01*
X0330367Y0233272D01*
X0333259Y0233272D01*
X0335932Y0232165D01*
X0336813Y0231284D01*
X0337694Y0232165D01*
X0340367Y0233272D01*
X0343259Y0233272D01*
X0345932Y0232165D01*
X0346813Y0231284D01*
X0347694Y0232165D01*
X0350367Y0233272D01*
X0353259Y0233272D01*
X0349294Y0232827D02*
X0344332Y0232827D01*
X0339294Y0232827D02*
X0334332Y0232827D01*
X0329294Y0232827D02*
X0308257Y0232827D01*
X0310151Y0234826D02*
X0364123Y0234826D01*
X0362125Y0236824D02*
X0310979Y0236824D01*
X0311113Y0238823D02*
X0360126Y0238823D01*
X0354875Y0240821D02*
X0310712Y0240821D01*
X0309610Y0242820D02*
X0353270Y0242820D01*
X0352513Y0244818D02*
X0306828Y0244818D01*
X0302360Y0246817D02*
X0352513Y0246817D01*
X0353119Y0248815D02*
X0300362Y0248815D01*
X0298363Y0250814D02*
X0354510Y0250814D01*
X0352395Y0254811D02*
X0351231Y0254811D01*
X0346813Y0261000D02*
X0346813Y0271000D01*
X0336813Y0271000D02*
X0336813Y0261000D01*
X0341231Y0254811D02*
X0342395Y0254811D01*
X0332395Y0254811D02*
X0331231Y0254811D01*
X0326813Y0261000D02*
X0326813Y0271000D01*
X0316813Y0281000D02*
X0316813Y0288500D01*
X0321813Y0293500D01*
X0346313Y0293500D01*
X0362313Y0277500D01*
X0423813Y0277500D01*
X0437813Y0263500D01*
X0437813Y0253500D01*
X0434813Y0250500D01*
X0427313Y0250500D01*
X0426813Y0251000D01*
X0432420Y0246000D02*
X0432420Y0246000D01*
X0433601Y0244818D02*
X0445013Y0244818D01*
X0445013Y0242820D02*
X0434313Y0242820D01*
X0434313Y0240821D02*
X0445013Y0240821D01*
X0445013Y0238823D02*
X0434313Y0238823D01*
X0433244Y0236824D02*
X0445013Y0236824D01*
X0445013Y0234826D02*
X0433594Y0234826D01*
X0434313Y0232827D02*
X0445013Y0232827D01*
X0445013Y0230829D02*
X0434313Y0230829D01*
X0434313Y0228830D02*
X0445013Y0228830D01*
X0445013Y0226832D02*
X0433251Y0226832D01*
X0433586Y0224833D02*
X0445013Y0224833D01*
X0445013Y0222835D02*
X0434313Y0222835D01*
X0434313Y0220836D02*
X0445013Y0220836D01*
X0445013Y0218838D02*
X0434313Y0218838D01*
X0433259Y0216839D02*
X0445013Y0216839D01*
X0445013Y0214841D02*
X0433579Y0214841D01*
X0434313Y0212842D02*
X0445013Y0212842D01*
X0445013Y0210844D02*
X0434313Y0210844D01*
X0434313Y0208845D02*
X0445013Y0208845D01*
X0445013Y0206847D02*
X0433266Y0206847D01*
X0433571Y0204848D02*
X0445013Y0204848D01*
X0445013Y0202850D02*
X0434313Y0202850D01*
X0434313Y0200851D02*
X0445013Y0200851D01*
X0445013Y0198853D02*
X0434313Y0198853D01*
X0433274Y0196854D02*
X0445013Y0196854D01*
X0445013Y0194856D02*
X0433564Y0194856D01*
X0434313Y0192857D02*
X0445013Y0192857D01*
X0445013Y0190859D02*
X0434313Y0190859D01*
X0434313Y0188860D02*
X0445013Y0188860D01*
X0445013Y0186862D02*
X0433281Y0186862D01*
X0433557Y0184863D02*
X0445013Y0184863D01*
X0445013Y0182865D02*
X0434313Y0182865D01*
X0434313Y0180866D02*
X0445013Y0180866D01*
X0445013Y0178868D02*
X0434313Y0178868D01*
X0433289Y0176869D02*
X0445013Y0176869D01*
X0445013Y0174870D02*
X0433549Y0174870D01*
X0434313Y0172872D02*
X0445013Y0172872D01*
X0445013Y0170873D02*
X0434313Y0170873D01*
X0434313Y0168875D02*
X0445013Y0168875D01*
X0445013Y0166876D02*
X0433296Y0166876D01*
X0433542Y0164878D02*
X0445013Y0164878D01*
X0445013Y0162879D02*
X0434313Y0162879D01*
X0434313Y0160881D02*
X0445013Y0160881D01*
X0445013Y0158882D02*
X0434313Y0158882D01*
X0433303Y0156884D02*
X0445013Y0156884D01*
X0445013Y0154885D02*
X0433534Y0154885D01*
X0434313Y0152887D02*
X0445013Y0152887D01*
X0445013Y0150888D02*
X0434313Y0150888D01*
X0434313Y0148890D02*
X0445013Y0148890D01*
X0445013Y0146891D02*
X0439907Y0146891D01*
X0437313Y0146891D02*
X0437313Y0146891D01*
X0437313Y0144893D02*
X0437313Y0144893D01*
X0437313Y0142894D02*
X0437313Y0142894D01*
X0434719Y0146891D02*
X0433311Y0146891D01*
X0441905Y0144893D02*
X0445013Y0144893D01*
X0445013Y0142894D02*
X0443313Y0142894D01*
X0443313Y0140896D02*
X0445013Y0140896D01*
X0445013Y0138897D02*
X0443313Y0138897D01*
X0442021Y0136899D02*
X0445013Y0136899D01*
X0445013Y0134900D02*
X0444019Y0134900D01*
X0444813Y0132902D02*
X0445013Y0132902D01*
X0445013Y0130903D02*
X0444813Y0130903D01*
X0444813Y0128905D02*
X0445013Y0128905D01*
X0445013Y0126906D02*
X0443826Y0126906D01*
X0444012Y0124908D02*
X0445013Y0124908D01*
X0445013Y0122909D02*
X0444813Y0122909D01*
X0444813Y0120911D02*
X0445013Y0120911D01*
X0445013Y0118912D02*
X0444813Y0118912D01*
X0445013Y0116914D02*
X0443833Y0116914D01*
X0444004Y0114915D02*
X0445013Y0114915D01*
X0445013Y0112917D02*
X0444813Y0112917D01*
X0444813Y0110918D02*
X0445013Y0110918D01*
X0445013Y0108920D02*
X0444813Y0108920D01*
X0445013Y0106921D02*
X0443841Y0106921D01*
X0443997Y0104923D02*
X0445013Y0104923D01*
X0445013Y0102924D02*
X0444813Y0102924D01*
X0444813Y0100926D02*
X0445013Y0100926D01*
X0445013Y0098927D02*
X0444813Y0098927D01*
X0445013Y0096929D02*
X0443848Y0096929D01*
X0445013Y0094930D02*
X0441868Y0094930D01*
X0443313Y0092932D02*
X0445013Y0092932D01*
X0445013Y0090933D02*
X0443313Y0090933D01*
X0443313Y0088934D02*
X0445013Y0088934D01*
X0445013Y0086936D02*
X0441734Y0086936D01*
X0437313Y0086936D02*
X0437313Y0086936D01*
X0437313Y0088934D02*
X0437313Y0088934D01*
X0437313Y0090933D02*
X0437313Y0090933D01*
X0432892Y0086936D02*
X0431234Y0086936D01*
X0426813Y0086936D02*
X0426813Y0086936D01*
X0426813Y0088934D02*
X0426813Y0088934D01*
X0426813Y0090933D02*
X0426813Y0090933D01*
X0422392Y0086936D02*
X0421234Y0086936D01*
X0416813Y0086936D02*
X0416813Y0086936D01*
X0416813Y0088934D02*
X0416813Y0088934D01*
X0416813Y0090933D02*
X0416813Y0090933D01*
X0412258Y0094930D02*
X0410784Y0094930D01*
X0402842Y0094930D02*
X0400784Y0094930D01*
X0392842Y0094930D02*
X0388850Y0094930D01*
X0379776Y0094930D02*
X0358284Y0094930D01*
X0358913Y0096929D02*
X0369899Y0096929D01*
X0368313Y0098515D02*
X0371828Y0095000D01*
X0374313Y0095000D01*
X0374313Y0101000D01*
X0374313Y0101000D01*
X0374313Y0101000D01*
X0368313Y0101000D01*
X0368313Y0103485D01*
X0370828Y0106000D01*
X0368313Y0108515D01*
X0368313Y0111000D01*
X0374313Y0111000D01*
X0374313Y0111000D01*
X0374313Y0101000D01*
X0368313Y0101000D01*
X0368313Y0098515D01*
X0368313Y0098927D02*
X0358913Y0098927D01*
X0358913Y0100926D02*
X0368313Y0100926D01*
X0368313Y0102924D02*
X0357430Y0102924D01*
X0358519Y0104923D02*
X0369750Y0104923D01*
X0369907Y0106921D02*
X0360494Y0106921D01*
X0361322Y0108920D02*
X0368313Y0108920D01*
X0368313Y0110918D02*
X0361585Y0110918D01*
X0361390Y0112917D02*
X0368313Y0112917D01*
X0369743Y0114915D02*
X0360562Y0114915D01*
X0358683Y0116914D02*
X0369914Y0116914D01*
X0368313Y0118912D02*
X0359766Y0118912D01*
X0361413Y0120911D02*
X0368313Y0120911D01*
X0368313Y0122909D02*
X0361413Y0122909D01*
X0361413Y0124908D02*
X0369735Y0124908D01*
X0367800Y0126906D02*
X0362439Y0126906D01*
X0364378Y0128451D02*
X0364378Y0128451D01*
X0364832Y0128905D02*
X0366813Y0128905D01*
X0360563Y0131000D02*
X0341188Y0131000D01*
X0328688Y0118500D01*
X0311813Y0118500D01*
X0304313Y0126000D01*
X0329313Y0138500D02*
X0336813Y0146000D01*
X0349938Y0146000D01*
X0355251Y0140688D01*
X0363063Y0148500D01*
X0379313Y0148500D01*
X0384313Y0143500D01*
X0384313Y0141000D01*
X0374313Y0141000D02*
X0370563Y0141000D01*
X0360563Y0131000D01*
X0354313Y0138500D02*
X0354313Y0139750D01*
X0355251Y0140688D01*
X0357438Y0152250D02*
X0358688Y0153500D01*
X0396813Y0153500D01*
X0414313Y0171000D01*
X0416813Y0171000D01*
X0406813Y0173500D02*
X0352813Y0173500D01*
X0350813Y0171500D01*
X0357086Y0168875D02*
X0361041Y0168875D01*
X0361041Y0169000D02*
X0361041Y0166000D01*
X0366813Y0166000D01*
X0366813Y0166000D01*
X0361041Y0166000D01*
X0361041Y0163000D01*
X0337177Y0163000D01*
X0336628Y0163549D01*
X0335362Y0164815D01*
X0334940Y0164990D01*
X0333165Y0166765D01*
X0330666Y0167800D01*
X0327960Y0167800D01*
X0325461Y0166765D01*
X0323548Y0164852D01*
X0322513Y0162353D01*
X0322513Y0159647D01*
X0323548Y0157148D01*
X0323946Y0156750D01*
X0294927Y0156750D01*
X0293813Y0157864D01*
X0293813Y0169395D01*
X0293128Y0171049D01*
X0288128Y0176049D01*
X0287093Y0177084D01*
X0288665Y0177735D01*
X0290578Y0179648D01*
X0291613Y0182147D01*
X0291613Y0184000D01*
X0313900Y0184000D01*
X0320150Y0176188D01*
X0320248Y0175951D01*
X0320705Y0175494D01*
X0321108Y0174990D01*
X0321333Y0174866D01*
X0321514Y0174685D01*
X0322111Y0174438D01*
X0322676Y0174126D01*
X0322931Y0174098D01*
X0323168Y0174000D01*
X0323814Y0174000D01*
X0324456Y0173929D01*
X0324702Y0174000D01*
X0344488Y0174000D01*
X0344013Y0172853D01*
X0344013Y0170147D01*
X0345048Y0167648D01*
X0346961Y0165735D01*
X0349460Y0164700D01*
X0352166Y0164700D01*
X0354665Y0165735D01*
X0356578Y0167648D01*
X0357138Y0169000D01*
X0361041Y0169000D01*
X0361041Y0166876D02*
X0355806Y0166876D01*
X0352595Y0164878D02*
X0361041Y0164878D01*
X0349031Y0164878D02*
X0335210Y0164878D01*
X0332895Y0166876D02*
X0345820Y0166876D01*
X0344540Y0168875D02*
X0293813Y0168875D01*
X0293813Y0166876D02*
X0325731Y0166876D01*
X0323574Y0164878D02*
X0293813Y0164878D01*
X0293813Y0162879D02*
X0322731Y0162879D01*
X0322513Y0160881D02*
X0293813Y0160881D01*
X0293813Y0158882D02*
X0322830Y0158882D01*
X0323812Y0156884D02*
X0294793Y0156884D01*
X0293063Y0152250D02*
X0289313Y0156000D01*
X0293063Y0152250D02*
X0357438Y0152250D01*
X0371813Y0158500D02*
X0335313Y0158500D01*
X0332813Y0161000D01*
X0329313Y0161000D01*
X0321325Y0174870D02*
X0289306Y0174870D01*
X0291305Y0172872D02*
X0344021Y0172872D01*
X0344013Y0170873D02*
X0293201Y0170873D01*
X0287308Y0176869D02*
X0319605Y0176869D01*
X0318006Y0178868D02*
X0289797Y0178868D01*
X0291082Y0180866D02*
X0316407Y0180866D01*
X0314809Y0182865D02*
X0291613Y0182865D01*
X0288813Y0188500D02*
X0284813Y0184500D01*
X0284813Y0183500D01*
X0278544Y0180866D02*
X0253296Y0180866D01*
X0254582Y0182865D02*
X0278013Y0182865D01*
X0278017Y0184863D02*
X0255113Y0184863D01*
X0255109Y0186862D02*
X0278845Y0186862D01*
X0280556Y0188860D02*
X0254281Y0188860D01*
X0252813Y0190859D02*
X0284808Y0190859D01*
X0287573Y0192857D02*
X0252813Y0192857D01*
X0252813Y0194856D02*
X0255059Y0194856D01*
X0260567Y0194856D02*
X0265059Y0194856D01*
X0270567Y0194856D02*
X0275059Y0194856D01*
X0280567Y0194856D02*
X0297313Y0194856D01*
X0296226Y0196854D02*
X0291083Y0196854D01*
X0292800Y0198853D02*
X0295691Y0198853D01*
X0295514Y0200851D02*
X0293396Y0200851D01*
X0293413Y0202850D02*
X0295611Y0202850D01*
X0296146Y0204848D02*
X0293413Y0204848D01*
X0293413Y0206847D02*
X0297141Y0206847D01*
X0298679Y0208845D02*
X0293413Y0208845D01*
X0292955Y0210844D02*
X0301264Y0210844D01*
X0291490Y0212842D02*
X0329330Y0212842D01*
X0334296Y0212842D02*
X0339330Y0212842D01*
X0344296Y0212842D02*
X0349330Y0212842D01*
X0354296Y0212842D02*
X0374330Y0212842D01*
X0379296Y0212842D02*
X0384330Y0212842D01*
X0389296Y0212842D02*
X0394330Y0212842D01*
X0399296Y0212842D02*
X0399813Y0212842D01*
X0399813Y0214841D02*
X0281300Y0214841D01*
X0283612Y0212842D02*
X0284136Y0212842D01*
X0287813Y0212842D02*
X0287813Y0212842D01*
X0287813Y0210844D02*
X0287813Y0210844D01*
X0287813Y0208845D02*
X0287813Y0208845D01*
X0287813Y0206847D02*
X0287813Y0206847D01*
X0287813Y0205000D02*
X0287813Y0195800D01*
X0287813Y0205000D01*
X0287813Y0205000D01*
X0287813Y0204848D02*
X0287813Y0204848D01*
X0287813Y0202850D02*
X0287813Y0202850D01*
X0287813Y0200851D02*
X0287813Y0200851D01*
X0287813Y0198853D02*
X0287813Y0198853D01*
X0287813Y0196854D02*
X0287813Y0196854D01*
X0284543Y0196854D02*
X0283308Y0196854D01*
X0288813Y0188500D02*
X0316063Y0188500D01*
X0324063Y0178500D01*
X0371813Y0178500D01*
X0376813Y0183500D01*
X0376813Y0186000D01*
X0366813Y0186000D02*
X0361041Y0186000D01*
X0366813Y0186000D01*
X0366813Y0186000D01*
X0361041Y0186000D02*
X0361041Y0183000D01*
X0326226Y0183000D01*
X0319976Y0190812D01*
X0319878Y0191049D01*
X0319421Y0191506D01*
X0319018Y0192010D01*
X0318793Y0192134D01*
X0318612Y0192315D01*
X0318015Y0192562D01*
X0317450Y0192874D01*
X0317195Y0192902D01*
X0316958Y0193000D01*
X0316312Y0193000D01*
X0315670Y0193071D01*
X0315424Y0193000D01*
X0314792Y0193000D01*
X0315855Y0194062D01*
X0317342Y0196639D01*
X0318112Y0199512D01*
X0318112Y0200228D01*
X0321813Y0200228D01*
X0325848Y0200228D01*
X0326357Y0200365D01*
X0326813Y0200628D01*
X0326857Y0200672D01*
X0327236Y0200293D01*
X0325961Y0199765D01*
X0324048Y0197852D01*
X0323013Y0195353D01*
X0323013Y0192647D01*
X0324048Y0190148D01*
X0325961Y0188235D01*
X0328460Y0187200D01*
X0331166Y0187200D01*
X0333665Y0188235D01*
X0334964Y0189534D01*
X0361041Y0189707D01*
X0361041Y0186000D01*
X0361041Y0186862D02*
X0323137Y0186862D01*
X0321538Y0188860D02*
X0325336Y0188860D01*
X0323754Y0190859D02*
X0319957Y0190859D01*
X0317480Y0192857D02*
X0323013Y0192857D01*
X0323013Y0194856D02*
X0316313Y0194856D01*
X0317400Y0196854D02*
X0323635Y0196854D01*
X0325049Y0198853D02*
X0317935Y0198853D01*
X0321813Y0200228D02*
X0321813Y0206000D01*
X0321813Y0206000D01*
X0321813Y0211772D01*
X0321813Y0206000D01*
X0321813Y0200228D01*
X0321813Y0200851D02*
X0321813Y0200851D01*
X0321813Y0202850D02*
X0321813Y0202850D01*
X0321813Y0204848D02*
X0321813Y0204848D01*
X0321813Y0206000D02*
X0321813Y0206000D01*
X0321813Y0206847D02*
X0321813Y0206847D01*
X0321813Y0208845D02*
X0321813Y0208845D01*
X0321813Y0210844D02*
X0321813Y0210844D01*
X0316351Y0210844D02*
X0312362Y0210844D01*
X0314947Y0208845D02*
X0316041Y0208845D01*
X0330102Y0218838D02*
X0274089Y0218838D01*
X0276088Y0216839D02*
X0399813Y0216839D01*
X0399813Y0218838D02*
X0398523Y0218838D01*
X0395102Y0218838D02*
X0388523Y0218838D01*
X0385102Y0218838D02*
X0378523Y0218838D01*
X0375102Y0218838D02*
X0353523Y0218838D01*
X0350102Y0218838D02*
X0343523Y0218838D01*
X0340102Y0218838D02*
X0333523Y0218838D01*
X0321813Y0220228D02*
X0321813Y0226000D01*
X0321813Y0226000D01*
X0321813Y0226000D01*
X0316041Y0226000D01*
X0316041Y0221965D01*
X0316178Y0221456D01*
X0316441Y0221000D01*
X0316813Y0220628D01*
X0317269Y0220365D01*
X0317778Y0220228D01*
X0321813Y0220228D01*
X0321813Y0220836D02*
X0321813Y0220836D01*
X0321813Y0222835D02*
X0321813Y0222835D01*
X0321813Y0224833D02*
X0321813Y0224833D01*
X0321813Y0226832D02*
X0321813Y0226832D01*
X0321813Y0228830D02*
X0321813Y0228830D01*
X0321813Y0230829D02*
X0321813Y0230829D01*
X0316342Y0230829D02*
X0294913Y0230829D01*
X0294913Y0232827D02*
X0300369Y0232827D01*
X0298475Y0234826D02*
X0294913Y0234826D01*
X0294913Y0236824D02*
X0297647Y0236824D01*
X0297513Y0238823D02*
X0294913Y0238823D01*
X0294578Y0240821D02*
X0295628Y0240821D01*
X0287813Y0235000D02*
X0286813Y0234750D01*
X0286813Y0228500D01*
X0281813Y0223500D01*
X0245563Y0223500D01*
X0238063Y0231000D01*
X0238063Y0234750D01*
X0237813Y0235000D01*
X0234272Y0244818D02*
X0231354Y0244818D01*
X0242813Y0247000D02*
X0295813Y0247000D01*
X0304313Y0238500D01*
X0294434Y0228830D02*
X0316041Y0228830D01*
X0316041Y0226832D02*
X0293286Y0226832D01*
X0290513Y0224833D02*
X0316041Y0224833D01*
X0316041Y0222835D02*
X0287512Y0222835D01*
X0285513Y0220836D02*
X0316605Y0220836D01*
X0334577Y0198853D02*
X0340067Y0198853D01*
X0343559Y0198853D02*
X0350067Y0198853D01*
X0353559Y0198853D02*
X0365802Y0198853D01*
X0366813Y0200228D02*
X0366813Y0206000D01*
X0366813Y0206000D01*
X0366813Y0206000D01*
X0361041Y0206000D01*
X0361041Y0201965D01*
X0361178Y0201456D01*
X0361441Y0201000D01*
X0361813Y0200628D01*
X0362269Y0200365D01*
X0362778Y0200228D01*
X0366813Y0200228D01*
X0366813Y0200851D02*
X0366813Y0200851D01*
X0366813Y0202850D02*
X0366813Y0202850D01*
X0366813Y0204848D02*
X0366813Y0204848D01*
X0366813Y0206847D02*
X0366813Y0206847D01*
X0366813Y0208845D02*
X0366813Y0208845D01*
X0366813Y0210844D02*
X0366813Y0210844D01*
X0361351Y0210844D02*
X0357253Y0210844D01*
X0358505Y0208845D02*
X0361041Y0208845D01*
X0361041Y0206847D02*
X0359085Y0206847D01*
X0359085Y0204848D02*
X0361041Y0204848D01*
X0361041Y0202850D02*
X0358379Y0202850D01*
X0356948Y0200851D02*
X0361590Y0200851D01*
X0367563Y0194250D02*
X0329813Y0194000D01*
X0334290Y0188860D02*
X0361041Y0188860D01*
X0361041Y0184863D02*
X0324735Y0184863D01*
X0279829Y0178868D02*
X0278986Y0178868D01*
X0248313Y0185500D02*
X0248313Y0204500D01*
X0247813Y0205000D01*
X0238063Y0206000D02*
X0238063Y0212875D01*
X0241188Y0216000D01*
X0270563Y0216000D01*
X0276813Y0209750D01*
X0276813Y0206000D01*
X0277813Y0205000D01*
X0243813Y0194856D02*
X0240567Y0194856D01*
X0243813Y0192857D02*
X0232563Y0192857D01*
X0232563Y0190859D02*
X0243813Y0190859D01*
X0242345Y0188860D02*
X0232563Y0188860D01*
X0232563Y0186862D02*
X0241517Y0186862D01*
X0241513Y0184863D02*
X0232563Y0184863D01*
X0235217Y0182865D02*
X0242044Y0182865D01*
X0243330Y0180866D02*
X0238064Y0180866D01*
X0235059Y0194856D02*
X0232563Y0194856D01*
X0237813Y0205000D02*
X0238063Y0206000D01*
X0234006Y0214841D02*
X0231300Y0214841D01*
X0235663Y0216839D02*
X0215266Y0216839D01*
X0213268Y0214841D02*
X0224326Y0214841D01*
X0222014Y0212842D02*
X0211269Y0212842D01*
X0209271Y0210844D02*
X0221057Y0210844D01*
X0220713Y0208845D02*
X0206968Y0208845D01*
X0204537Y0218838D02*
X0195515Y0218838D01*
X0197513Y0220836D02*
X0206535Y0220836D01*
X0208534Y0222835D02*
X0199512Y0222835D01*
X0201510Y0224833D02*
X0210532Y0224833D01*
X0212531Y0226832D02*
X0203509Y0226832D01*
X0205507Y0228830D02*
X0214529Y0228830D01*
X0216528Y0230829D02*
X0207506Y0230829D01*
X0209504Y0232827D02*
X0218526Y0232827D01*
X0223260Y0224833D02*
X0225113Y0224833D01*
X0221262Y0222835D02*
X0239864Y0222835D01*
X0241863Y0220836D02*
X0219263Y0220836D01*
X0217265Y0218838D02*
X0237662Y0218838D01*
X0237373Y0218549D02*
X0237373Y0218549D01*
X0235113Y0224833D02*
X0230513Y0224833D01*
X0204770Y0240821D02*
X0185813Y0240821D01*
X0185813Y0242820D02*
X0206769Y0242820D01*
X0208767Y0244818D02*
X0185223Y0244818D01*
X0183360Y0246817D02*
X0210766Y0246817D01*
X0212764Y0248815D02*
X0181362Y0248815D01*
X0179363Y0250814D02*
X0214313Y0250814D01*
X0214313Y0252812D02*
X0177365Y0252812D01*
X0176395Y0254811D02*
X0175366Y0254811D01*
X0170813Y0253000D02*
X0181313Y0242500D01*
X0181313Y0234000D01*
X0187503Y0236824D02*
X0200773Y0236824D01*
X0198775Y0234826D02*
X0188113Y0234826D01*
X0188113Y0232827D02*
X0196776Y0232827D01*
X0194778Y0230829D02*
X0187360Y0230829D01*
X0185760Y0228830D02*
X0192779Y0228830D01*
X0190781Y0226832D02*
X0174428Y0226832D01*
X0175203Y0228830D02*
X0176866Y0228830D01*
X0172389Y0224833D02*
X0188782Y0224833D01*
X0186784Y0222835D02*
X0161613Y0222835D01*
X0164753Y0224833D02*
X0166237Y0224833D01*
X0169313Y0224833D02*
X0169313Y0224833D01*
X0169313Y0224000D02*
X0169313Y0234000D01*
X0169313Y0234000D01*
X0169313Y0244000D01*
X0169785Y0244000D01*
X0170718Y0243852D01*
X0171616Y0243560D01*
X0172458Y0243132D01*
X0173222Y0242577D01*
X0173890Y0241909D01*
X0174445Y0241145D01*
X0174873Y0240303D01*
X0175165Y0239405D01*
X0175313Y0238472D01*
X0175313Y0237284D01*
X0175548Y0237852D01*
X0176813Y0239117D01*
X0176813Y0240636D01*
X0166998Y0250451D01*
X0166313Y0252105D01*
X0166313Y0254893D01*
X0165813Y0255393D01*
X0165313Y0254893D01*
X0165313Y0242607D01*
X0165374Y0242546D01*
X0165404Y0242577D01*
X0166168Y0243132D01*
X0167010Y0243560D01*
X0167908Y0243852D01*
X0168841Y0244000D01*
X0169313Y0244000D01*
X0169313Y0234000D01*
X0169313Y0234000D01*
X0169313Y0224000D01*
X0169313Y0226832D02*
X0169313Y0226832D01*
X0169313Y0228830D02*
X0169313Y0228830D01*
X0169313Y0230829D02*
X0169313Y0230829D01*
X0169313Y0232827D02*
X0169313Y0232827D01*
X0169313Y0234826D02*
X0169313Y0234826D01*
X0169313Y0236824D02*
X0169313Y0236824D01*
X0169313Y0238823D02*
X0169313Y0238823D01*
X0169313Y0240821D02*
X0169313Y0240821D01*
X0169313Y0242820D02*
X0169313Y0242820D01*
X0165739Y0242820D02*
X0165313Y0242820D01*
X0165313Y0244818D02*
X0172631Y0244818D01*
X0172887Y0242820D02*
X0174629Y0242820D01*
X0174609Y0240821D02*
X0176628Y0240821D01*
X0176519Y0238823D02*
X0175257Y0238823D01*
X0170632Y0246817D02*
X0165313Y0246817D01*
X0165313Y0248815D02*
X0168634Y0248815D01*
X0166848Y0250814D02*
X0165313Y0250814D01*
X0165313Y0252812D02*
X0166313Y0252812D01*
X0166313Y0254811D02*
X0165313Y0254811D01*
X0170813Y0253000D02*
X0170813Y0261000D01*
X0175618Y0266802D02*
X0176008Y0266802D01*
X0185618Y0266802D02*
X0186008Y0266802D01*
X0195618Y0266802D02*
X0196008Y0266802D01*
X0205618Y0266802D02*
X0206008Y0266802D01*
X0218813Y0265500D02*
X0221813Y0268500D01*
X0273063Y0268500D01*
X0276813Y0264750D01*
X0276813Y0261000D01*
X0281618Y0266802D02*
X0282008Y0266802D01*
X0282313Y0268801D02*
X0279126Y0268801D01*
X0277128Y0270799D02*
X0282313Y0270799D01*
X0276813Y0281000D02*
X0276813Y0290375D01*
X0273063Y0294125D01*
X0263063Y0294125D01*
X0250563Y0281625D01*
X0111188Y0281625D01*
X0085938Y0256375D01*
X0085938Y0089125D01*
X0081438Y0088934D02*
X0067081Y0088934D01*
X0069079Y0086936D02*
X0081974Y0086936D01*
X0082123Y0086576D02*
X0088998Y0079701D01*
X0090264Y0078435D01*
X0091918Y0077750D01*
X0108074Y0077750D01*
X0126024Y0059800D01*
X0096215Y0059800D01*
X0063613Y0092402D01*
X0063613Y0125523D01*
X0063805Y0125376D01*
X0064571Y0124933D01*
X0065389Y0124595D01*
X0066243Y0124365D01*
X0067121Y0124250D01*
X0071938Y0124250D01*
X0071938Y0130625D01*
X0072688Y0130625D01*
X0072688Y0124250D01*
X0077505Y0124250D01*
X0078383Y0124365D01*
X0079237Y0124595D01*
X0080055Y0124933D01*
X0080821Y0125376D01*
X0081438Y0125849D01*
X0081438Y0088230D01*
X0082123Y0086576D01*
X0083762Y0084937D02*
X0071078Y0084937D01*
X0073076Y0082939D02*
X0085760Y0082939D01*
X0087759Y0080940D02*
X0075075Y0080940D01*
X0077073Y0078942D02*
X0089757Y0078942D01*
X0083069Y0072946D02*
X0112878Y0072946D01*
X0114876Y0070948D02*
X0085068Y0070948D01*
X0087066Y0068949D02*
X0116875Y0068949D01*
X0118873Y0066951D02*
X0089065Y0066951D01*
X0091063Y0064952D02*
X0120872Y0064952D01*
X0122870Y0062954D02*
X0093062Y0062954D01*
X0095060Y0060955D02*
X0124869Y0060955D01*
X0110879Y0074945D02*
X0081071Y0074945D01*
X0079072Y0076943D02*
X0108881Y0076943D01*
X0113778Y0096929D02*
X0090438Y0096929D01*
X0090438Y0098927D02*
X0111779Y0098927D01*
X0109813Y0100926D02*
X0090438Y0100926D01*
X0090438Y0102924D02*
X0109813Y0102924D01*
X0109813Y0104923D02*
X0090438Y0104923D01*
X0090438Y0106921D02*
X0109813Y0106921D01*
X0111626Y0108920D02*
X0090438Y0108920D01*
X0090438Y0110918D02*
X0113625Y0110918D01*
X0121001Y0110918D02*
X0123625Y0110918D01*
X0123293Y0116914D02*
X0121333Y0116914D01*
X0113293Y0116914D02*
X0090438Y0116914D01*
X0090438Y0118912D02*
X0111294Y0118912D01*
X0109813Y0120911D02*
X0090438Y0120911D01*
X0090438Y0122909D02*
X0109813Y0122909D01*
X0109813Y0124908D02*
X0090438Y0124908D01*
X0090438Y0126906D02*
X0110113Y0126906D01*
X0112111Y0128905D02*
X0090438Y0128905D01*
X0090438Y0130903D02*
X0114110Y0130903D01*
X0120516Y0130903D02*
X0124110Y0130903D01*
X0143460Y0140896D02*
X0158959Y0140896D01*
X0156846Y0138897D02*
X0146280Y0138897D01*
X0148278Y0136899D02*
X0154848Y0136899D01*
X0153229Y0134900D02*
X0150277Y0134900D01*
X0151603Y0132902D02*
X0152813Y0132902D01*
X0152813Y0130903D02*
X0151813Y0130903D01*
X0157313Y0126500D02*
X0157313Y0123500D01*
X0161333Y0116914D02*
X0163293Y0116914D01*
X0163625Y0110918D02*
X0161001Y0110918D01*
X0171001Y0110918D02*
X0173030Y0110918D01*
X0174366Y0112917D02*
X0090438Y0112917D01*
X0090438Y0114915D02*
X0176364Y0114915D01*
X0178363Y0116914D02*
X0171333Y0116914D01*
X0173332Y0118912D02*
X0179813Y0118912D01*
X0179813Y0120911D02*
X0174813Y0120911D01*
X0174813Y0122909D02*
X0179813Y0122909D01*
X0179813Y0124908D02*
X0174813Y0124908D01*
X0184313Y0116500D02*
X0184313Y0156500D01*
X0156905Y0162879D02*
X0151721Y0162879D01*
X0146905Y0162879D02*
X0141721Y0162879D01*
X0136905Y0162879D02*
X0131721Y0162879D01*
X0126905Y0162879D02*
X0111721Y0162879D01*
X0114798Y0164878D02*
X0116155Y0164878D01*
X0119313Y0164878D02*
X0119313Y0164878D01*
X0119313Y0164000D02*
X0119313Y0174000D01*
X0119313Y0164000D01*
X0119313Y0166876D02*
X0119313Y0166876D01*
X0119313Y0168875D02*
X0119313Y0168875D01*
X0119313Y0170873D02*
X0119313Y0170873D01*
X0119313Y0172872D02*
X0119313Y0172872D01*
X0119313Y0174000D02*
X0119313Y0174000D01*
X0119313Y0174870D02*
X0119313Y0174870D01*
X0119313Y0176869D02*
X0119313Y0176869D01*
X0119313Y0178868D02*
X0119313Y0178868D01*
X0119313Y0180866D02*
X0119313Y0180866D01*
X0119313Y0182865D02*
X0119313Y0182865D01*
X0115801Y0182865D02*
X0115055Y0182865D01*
X0113813Y0184863D02*
X0126283Y0184863D01*
X0123571Y0182865D02*
X0122825Y0182865D01*
X0132343Y0184863D02*
X0136283Y0184863D01*
X0142343Y0184863D02*
X0146283Y0184863D01*
X0152343Y0184863D02*
X0156283Y0184863D01*
X0183813Y0196500D02*
X0184313Y0196000D01*
X0189813Y0196000D01*
X0231813Y0154000D01*
X0252677Y0126500D02*
X0262272Y0126500D01*
X0262213Y0126441D01*
X0262213Y0120559D01*
X0266091Y0116681D01*
X0265665Y0116371D01*
X0265042Y0115748D01*
X0264523Y0115035D01*
X0264123Y0114250D01*
X0263851Y0113411D01*
X0263713Y0112541D01*
X0263713Y0108500D01*
X0269313Y0108500D01*
X0269313Y0108500D01*
X0263713Y0108500D01*
X0263713Y0104459D01*
X0263851Y0103589D01*
X0264123Y0102750D01*
X0264523Y0101965D01*
X0264861Y0101500D01*
X0261177Y0101500D01*
X0256813Y0105864D01*
X0256813Y0121395D01*
X0256128Y0123049D01*
X0253628Y0125549D01*
X0252677Y0126500D01*
X0254269Y0124908D02*
X0262213Y0124908D01*
X0262213Y0122909D02*
X0256186Y0122909D01*
X0256813Y0120911D02*
X0262213Y0120911D01*
X0263860Y0118912D02*
X0256813Y0118912D01*
X0256813Y0116914D02*
X0265858Y0116914D01*
X0264462Y0114915D02*
X0256813Y0114915D01*
X0256813Y0112917D02*
X0263773Y0112917D01*
X0263713Y0110918D02*
X0256813Y0110918D01*
X0256813Y0108920D02*
X0263713Y0108920D01*
X0263713Y0106921D02*
X0256813Y0106921D01*
X0257754Y0104923D02*
X0263713Y0104923D01*
X0264067Y0102924D02*
X0259753Y0102924D01*
X0259313Y0097000D02*
X0252313Y0104000D01*
X0252313Y0120500D01*
X0249813Y0123000D01*
X0201313Y0123000D01*
X0198313Y0126000D01*
X0199423Y0118912D02*
X0188813Y0118912D01*
X0184313Y0116500D02*
X0177313Y0109500D01*
X0177313Y0096500D01*
X0173313Y0092500D01*
X0150813Y0092500D01*
X0147313Y0096000D01*
X0133747Y0108920D02*
X0133000Y0108920D01*
X0123778Y0096929D02*
X0120848Y0096929D01*
X0081438Y0096929D02*
X0063613Y0096929D01*
X0063613Y0098927D02*
X0081438Y0098927D01*
X0081438Y0100926D02*
X0063613Y0100926D01*
X0063613Y0102924D02*
X0081438Y0102924D01*
X0081438Y0104923D02*
X0063613Y0104923D01*
X0063613Y0106921D02*
X0081438Y0106921D01*
X0081438Y0108920D02*
X0063613Y0108920D01*
X0063613Y0110918D02*
X0081438Y0110918D01*
X0081438Y0112917D02*
X0063613Y0112917D01*
X0063613Y0114915D02*
X0081438Y0114915D01*
X0081438Y0116914D02*
X0063613Y0116914D01*
X0063613Y0118912D02*
X0081438Y0118912D01*
X0081438Y0120911D02*
X0063613Y0120911D01*
X0063613Y0122909D02*
X0081438Y0122909D01*
X0081438Y0124908D02*
X0079993Y0124908D01*
X0072688Y0124908D02*
X0071938Y0124908D01*
X0071938Y0126906D02*
X0072688Y0126906D01*
X0072688Y0128905D02*
X0071938Y0128905D01*
X0071938Y0131375D02*
X0071938Y0137750D01*
X0067121Y0137750D01*
X0066243Y0137634D01*
X0065389Y0137405D01*
X0064571Y0137067D01*
X0063805Y0136624D01*
X0063613Y0136477D01*
X0063613Y0143706D01*
X0065922Y0142750D01*
X0078704Y0142750D01*
X0081438Y0143882D01*
X0081438Y0136151D01*
X0080821Y0136624D01*
X0080055Y0137067D01*
X0079237Y0137405D01*
X0078383Y0137634D01*
X0077505Y0137750D01*
X0072688Y0137750D01*
X0072688Y0131375D01*
X0071938Y0131375D01*
X0071938Y0132902D02*
X0072688Y0132902D01*
X0072688Y0134900D02*
X0071938Y0134900D01*
X0071938Y0136899D02*
X0072688Y0136899D01*
X0080346Y0136899D02*
X0081438Y0136899D01*
X0081438Y0138897D02*
X0063613Y0138897D01*
X0063613Y0136899D02*
X0064280Y0136899D01*
X0063613Y0140896D02*
X0081438Y0140896D01*
X0081438Y0142894D02*
X0079052Y0142894D01*
X0065574Y0142894D02*
X0063613Y0142894D01*
X0063613Y0124908D02*
X0064633Y0124908D01*
X0090438Y0132902D02*
X0094047Y0132902D01*
X0092049Y0134900D02*
X0090438Y0134900D01*
X0096313Y0162879D02*
X0096905Y0162879D01*
X0101721Y0162879D02*
X0106905Y0162879D01*
X0109313Y0174000D02*
X0109313Y0191000D01*
X0131188Y0212875D01*
X0131613Y0222835D02*
X0137013Y0222835D01*
X0141613Y0222835D02*
X0147013Y0222835D01*
X0151613Y0222835D02*
X0157013Y0222835D01*
X0159313Y0234000D02*
X0160813Y0235500D01*
X0160813Y0261000D01*
X0165618Y0266802D02*
X0166008Y0266802D01*
X0156008Y0266802D02*
X0152373Y0266802D01*
X0150813Y0266802D02*
X0150813Y0266802D01*
X0150813Y0267000D02*
X0150341Y0267000D01*
X0149408Y0266852D01*
X0148510Y0266560D01*
X0147668Y0266132D01*
X0146904Y0265577D01*
X0146874Y0265546D01*
X0145061Y0267358D01*
X0142305Y0268500D01*
X0139321Y0268500D01*
X0136565Y0267358D01*
X0135813Y0266607D01*
X0135061Y0267358D01*
X0132305Y0268500D01*
X0129321Y0268500D01*
X0126565Y0267358D01*
X0125813Y0266607D01*
X0125061Y0267358D01*
X0122305Y0268500D01*
X0119321Y0268500D01*
X0116565Y0267358D01*
X0114455Y0265248D01*
X0113313Y0262492D01*
X0113313Y0259508D01*
X0114455Y0256752D01*
X0116565Y0254642D01*
X0119321Y0253500D01*
X0122305Y0253500D01*
X0125061Y0254642D01*
X0125813Y0255393D01*
X0126565Y0254642D01*
X0129321Y0253500D01*
X0132305Y0253500D01*
X0135061Y0254642D01*
X0135813Y0255393D01*
X0136565Y0254642D01*
X0139321Y0253500D01*
X0142305Y0253500D01*
X0145061Y0254642D01*
X0146874Y0256454D01*
X0146904Y0256423D01*
X0147668Y0255868D01*
X0148510Y0255440D01*
X0149408Y0255148D01*
X0150341Y0255000D01*
X0150813Y0255000D01*
X0150813Y0261000D01*
X0150813Y0261000D01*
X0150813Y0267000D01*
X0149253Y0266802D02*
X0145618Y0266802D01*
X0150813Y0264803D02*
X0150813Y0264803D01*
X0150813Y0262805D02*
X0150813Y0262805D01*
X0150813Y0260806D02*
X0150813Y0260806D01*
X0150813Y0258808D02*
X0150813Y0258808D01*
X0150813Y0256809D02*
X0150813Y0256809D01*
X0156313Y0254811D02*
X0145231Y0254811D01*
X0136395Y0254811D02*
X0135231Y0254811D01*
X0126395Y0254811D02*
X0125231Y0254811D01*
X0116395Y0254811D02*
X0090738Y0254811D01*
X0090438Y0252812D02*
X0156313Y0252812D01*
X0156313Y0250814D02*
X0090438Y0250814D01*
X0090438Y0248815D02*
X0156313Y0248815D01*
X0156313Y0246817D02*
X0090438Y0246817D01*
X0090438Y0244818D02*
X0096176Y0244818D01*
X0093526Y0242820D02*
X0090438Y0242820D01*
X0090438Y0240821D02*
X0092364Y0240821D01*
X0091813Y0238823D02*
X0090438Y0238823D01*
X0090438Y0236824D02*
X0091813Y0236824D01*
X0091813Y0234826D02*
X0090438Y0234826D01*
X0090438Y0232827D02*
X0091813Y0232827D01*
X0091813Y0230829D02*
X0090438Y0230829D01*
X0090438Y0228830D02*
X0091813Y0228830D01*
X0092507Y0226832D02*
X0090438Y0226832D01*
X0090438Y0224833D02*
X0093873Y0224833D01*
X0097013Y0222835D02*
X0090438Y0222835D01*
X0090438Y0220836D02*
X0101785Y0220836D01*
X0101613Y0222835D02*
X0107013Y0222835D01*
X0111613Y0222835D02*
X0117013Y0222835D01*
X0121613Y0222835D02*
X0127013Y0222835D01*
X0099787Y0218838D02*
X0090438Y0218838D01*
X0090438Y0216839D02*
X0097788Y0216839D01*
X0095790Y0214841D02*
X0090438Y0214841D01*
X0090438Y0212842D02*
X0093791Y0212842D01*
X0091793Y0210844D02*
X0090438Y0210844D01*
X0102450Y0244818D02*
X0106176Y0244818D01*
X0112450Y0244818D02*
X0116176Y0244818D01*
X0122450Y0244818D02*
X0126176Y0244818D01*
X0132450Y0244818D02*
X0136176Y0244818D01*
X0142450Y0244818D02*
X0146176Y0244818D01*
X0152450Y0244818D02*
X0156176Y0244818D01*
X0186107Y0238823D02*
X0202772Y0238823D01*
X0205231Y0254811D02*
X0206395Y0254811D01*
X0196395Y0254811D02*
X0195231Y0254811D01*
X0186395Y0254811D02*
X0185231Y0254811D01*
X0136008Y0266802D02*
X0135618Y0266802D01*
X0126008Y0266802D02*
X0125618Y0266802D01*
X0116008Y0266802D02*
X0102729Y0266802D01*
X0100730Y0264803D02*
X0114271Y0264803D01*
X0113443Y0262805D02*
X0098732Y0262805D01*
X0096733Y0260806D02*
X0113313Y0260806D01*
X0113603Y0258808D02*
X0094735Y0258808D01*
X0092736Y0256809D02*
X0114431Y0256809D01*
X0112722Y0276795D02*
X0260813Y0276795D01*
X0260813Y0276737D02*
X0260949Y0276228D01*
X0261213Y0275772D01*
X0261585Y0275400D01*
X0262041Y0275136D01*
X0262550Y0275000D01*
X0266813Y0275000D01*
X0266813Y0281000D01*
X0266813Y0281000D01*
X0266813Y0281000D01*
X0260813Y0281000D01*
X0260813Y0276737D01*
X0260813Y0278793D02*
X0254095Y0278793D01*
X0256094Y0280792D02*
X0260813Y0280792D01*
X0260813Y0282790D02*
X0258092Y0282790D01*
X0260091Y0284789D02*
X0260813Y0284789D01*
X0266813Y0284789D02*
X0266813Y0284789D01*
X0266813Y0286787D02*
X0266813Y0286787D01*
X0264088Y0288786D02*
X0272038Y0288786D01*
X0271994Y0286787D02*
X0271718Y0286787D01*
X0266813Y0282790D02*
X0266813Y0282790D01*
X0266813Y0280792D02*
X0266813Y0280792D01*
X0266813Y0278793D02*
X0266813Y0278793D01*
X0266813Y0276795D02*
X0266813Y0276795D01*
X0271231Y0254811D02*
X0272395Y0254811D01*
X0281231Y0254811D02*
X0282395Y0254811D01*
X0262395Y0254811D02*
X0261231Y0254811D01*
X0252395Y0254811D02*
X0251231Y0254811D01*
X0321231Y0254811D02*
X0322395Y0254811D01*
X0336813Y0281000D02*
X0349813Y0281000D01*
X0358813Y0272000D01*
X0406813Y0272000D01*
X0416813Y0261000D01*
X0396813Y0241000D01*
X0396813Y0226000D01*
X0404313Y0221625D02*
X0413688Y0231000D01*
X0416813Y0231000D01*
X0404313Y0221625D02*
X0404313Y0201000D01*
X0397438Y0194125D01*
X0391813Y0194125D01*
X0386813Y0189125D01*
X0386813Y0186000D01*
X0376813Y0203500D02*
X0367563Y0194250D01*
X0376813Y0203500D02*
X0376813Y0206000D01*
X0366813Y0220836D02*
X0366813Y0220836D01*
X0366813Y0222835D02*
X0366813Y0222835D01*
X0366813Y0224833D02*
X0366813Y0224833D01*
X0361041Y0224833D02*
X0359085Y0224833D01*
X0359085Y0226832D02*
X0361041Y0226832D01*
X0361041Y0228830D02*
X0358511Y0228830D01*
X0357268Y0230829D02*
X0361342Y0230829D01*
X0361041Y0222835D02*
X0358373Y0222835D01*
X0356933Y0220836D02*
X0361605Y0220836D01*
X0373313Y0245000D02*
X0376813Y0248500D01*
X0376813Y0261000D01*
X0362395Y0254811D02*
X0361231Y0254811D01*
X0437494Y0246817D02*
X0445013Y0246817D01*
X0445013Y0248815D02*
X0439492Y0248815D01*
X0441491Y0250814D02*
X0445013Y0250814D01*
X0445013Y0252812D02*
X0442313Y0252812D01*
X0442313Y0254811D02*
X0445013Y0254811D01*
X0445013Y0256809D02*
X0442313Y0256809D01*
X0442313Y0258808D02*
X0443803Y0258808D01*
X0416813Y0181000D02*
X0414313Y0181000D01*
X0406813Y0173500D01*
X0376813Y0166000D02*
X0376813Y0163500D01*
X0371813Y0158500D01*
X0374313Y0120911D02*
X0374313Y0120911D01*
X0374313Y0118912D02*
X0374313Y0118912D01*
X0374313Y0116914D02*
X0374313Y0116914D01*
X0374313Y0114915D02*
X0374313Y0114915D01*
X0374313Y0112917D02*
X0374313Y0112917D01*
X0374313Y0110918D02*
X0374313Y0110918D01*
X0374313Y0108920D02*
X0374313Y0108920D01*
X0374313Y0106921D02*
X0374313Y0106921D01*
X0374313Y0104923D02*
X0374313Y0104923D01*
X0374313Y0102924D02*
X0374313Y0102924D01*
X0374313Y0100926D02*
X0374313Y0100926D01*
X0374313Y0098927D02*
X0374313Y0098927D01*
X0374313Y0096929D02*
X0374313Y0096929D01*
X0375321Y0078500D02*
X0372565Y0077358D01*
X0371813Y0076607D01*
X0371061Y0077358D01*
X0368305Y0078500D01*
X0365321Y0078500D01*
X0362565Y0077358D01*
X0361813Y0076607D01*
X0361061Y0077358D01*
X0358305Y0078500D01*
X0355321Y0078500D01*
X0352565Y0077358D01*
X0351813Y0076607D01*
X0351061Y0077358D01*
X0348305Y0078500D01*
X0345321Y0078500D01*
X0342565Y0077358D01*
X0341813Y0076607D01*
X0341061Y0077358D01*
X0338305Y0078500D01*
X0335321Y0078500D01*
X0332565Y0077358D01*
X0330455Y0075248D01*
X0329313Y0072492D01*
X0329313Y0069508D01*
X0330455Y0066752D01*
X0332565Y0064642D01*
X0335321Y0063500D01*
X0338305Y0063500D01*
X0341061Y0064642D01*
X0341813Y0065393D01*
X0342565Y0064642D01*
X0345321Y0063500D01*
X0348305Y0063500D01*
X0351061Y0064642D01*
X0351813Y0065393D01*
X0352565Y0064642D01*
X0355321Y0063500D01*
X0358305Y0063500D01*
X0361061Y0064642D01*
X0361813Y0065393D01*
X0362565Y0064642D01*
X0365321Y0063500D01*
X0368305Y0063500D01*
X0371061Y0064642D01*
X0371813Y0065393D01*
X0372565Y0064642D01*
X0375321Y0063500D01*
X0378305Y0063500D01*
X0381061Y0064642D01*
X0381813Y0065393D01*
X0382565Y0064642D01*
X0385321Y0063500D01*
X0388305Y0063500D01*
X0391061Y0064642D01*
X0391813Y0065393D01*
X0392565Y0064642D01*
X0395321Y0063500D01*
X0398305Y0063500D01*
X0401061Y0064642D01*
X0401813Y0065393D01*
X0402565Y0064642D01*
X0405321Y0063500D01*
X0408305Y0063500D01*
X0411061Y0064642D01*
X0413171Y0066752D01*
X0414313Y0069508D01*
X0414313Y0072492D01*
X0413171Y0075248D01*
X0411061Y0077358D01*
X0408305Y0078500D01*
X0405321Y0078500D01*
X0402565Y0077358D01*
X0401813Y0076607D01*
X0401061Y0077358D01*
X0398305Y0078500D01*
X0395321Y0078500D01*
X0392565Y0077358D01*
X0391813Y0076607D01*
X0391061Y0077358D01*
X0388305Y0078500D01*
X0385321Y0078500D01*
X0382565Y0077358D01*
X0381813Y0076607D01*
X0381061Y0077358D01*
X0378305Y0078500D01*
X0375321Y0078500D01*
X0372150Y0076943D02*
X0371476Y0076943D01*
X0362150Y0076943D02*
X0361476Y0076943D01*
X0352150Y0076943D02*
X0351476Y0076943D01*
X0342150Y0076943D02*
X0341476Y0076943D01*
X0332150Y0076943D02*
X0321476Y0076943D01*
X0323297Y0074945D02*
X0330329Y0074945D01*
X0329501Y0072946D02*
X0324125Y0072946D01*
X0324313Y0070948D02*
X0329313Y0070948D01*
X0329544Y0068949D02*
X0324082Y0068949D01*
X0323254Y0066951D02*
X0330372Y0066951D01*
X0332254Y0064952D02*
X0321372Y0064952D01*
X0312254Y0064952D02*
X0311372Y0064952D01*
X0302254Y0064952D02*
X0301372Y0064952D01*
X0292254Y0064952D02*
X0291372Y0064952D01*
X0282254Y0064952D02*
X0281372Y0064952D01*
X0272254Y0064952D02*
X0271372Y0064952D01*
X0262254Y0064952D02*
X0261372Y0064952D01*
X0252254Y0064952D02*
X0251372Y0064952D01*
X0251476Y0076943D02*
X0252150Y0076943D01*
X0261476Y0076943D02*
X0262150Y0076943D01*
X0271476Y0076943D02*
X0272150Y0076943D01*
X0281476Y0076943D02*
X0282150Y0076943D01*
X0291476Y0076943D02*
X0292150Y0076943D01*
X0301476Y0076943D02*
X0302150Y0076943D01*
X0311476Y0076943D02*
X0312150Y0076943D01*
X0297266Y0084937D02*
X0245791Y0084937D01*
X0246413Y0086936D02*
X0296204Y0086936D01*
X0295669Y0088934D02*
X0246413Y0088934D01*
X0246413Y0090933D02*
X0295514Y0090933D01*
X0295813Y0097000D02*
X0259313Y0097000D01*
X0257376Y0092932D02*
X0244922Y0092932D01*
X0251022Y0098927D02*
X0216729Y0098927D01*
X0218728Y0100926D02*
X0249023Y0100926D01*
X0247888Y0102924D02*
X0241657Y0102924D01*
X0239313Y0102924D02*
X0239313Y0102924D01*
X0239313Y0104923D02*
X0239313Y0104923D01*
X0239313Y0106921D02*
X0239313Y0106921D01*
X0239313Y0108920D02*
X0239313Y0108920D01*
X0239313Y0110918D02*
X0239313Y0110918D01*
X0239313Y0112917D02*
X0239313Y0112917D01*
X0235810Y0112917D02*
X0234316Y0112917D01*
X0232317Y0114915D02*
X0247813Y0114915D01*
X0247813Y0112917D02*
X0242816Y0112917D01*
X0244814Y0110918D02*
X0247813Y0110918D01*
X0247813Y0108920D02*
X0244913Y0108920D01*
X0244913Y0106921D02*
X0247813Y0106921D01*
X0247813Y0104923D02*
X0243655Y0104923D01*
X0236969Y0102924D02*
X0220726Y0102924D01*
X0223276Y0104923D02*
X0226471Y0104923D01*
X0228813Y0104923D02*
X0228813Y0104923D01*
X0228813Y0106921D02*
X0228813Y0106921D01*
X0228813Y0108920D02*
X0228813Y0108920D01*
X0228813Y0110918D02*
X0228813Y0110918D01*
X0228813Y0112917D02*
X0228813Y0112917D01*
X0228813Y0114915D02*
X0228813Y0114915D01*
X0225309Y0114915D02*
X0224439Y0114915D01*
X0222440Y0116914D02*
X0247813Y0116914D01*
X0233713Y0106921D02*
X0233154Y0106921D01*
X0234971Y0104923D02*
X0231155Y0104923D01*
X0218813Y0107375D02*
X0218813Y0110500D01*
X0218813Y0107375D02*
X0211188Y0099750D01*
X0201813Y0099750D01*
X0201813Y0099500D01*
X0198341Y0092932D02*
X0195285Y0092932D01*
X0192150Y0076943D02*
X0191476Y0076943D01*
X0191372Y0064952D02*
X0192254Y0064952D01*
X0182254Y0064952D02*
X0181372Y0064952D01*
X0177631Y0062954D02*
X0418880Y0062954D01*
X0417257Y0064952D02*
X0411372Y0064952D01*
X0413254Y0066951D02*
X0416200Y0066951D01*
X0415665Y0068949D02*
X0414082Y0068949D01*
X0414313Y0070948D02*
X0415514Y0070948D01*
X0415637Y0072946D02*
X0414125Y0072946D01*
X0413297Y0074945D02*
X0416172Y0074945D01*
X0417197Y0076943D02*
X0411476Y0076943D01*
X0402150Y0076943D02*
X0401476Y0076943D01*
X0392150Y0076943D02*
X0391476Y0076943D01*
X0382150Y0076943D02*
X0381476Y0076943D01*
X0381372Y0064952D02*
X0382254Y0064952D01*
X0391372Y0064952D02*
X0392254Y0064952D01*
X0401372Y0064952D02*
X0402254Y0064952D01*
X0421612Y0060955D02*
X0175632Y0060955D01*
X0202440Y0116914D02*
X0205186Y0116914D01*
X0212440Y0116914D02*
X0215186Y0116914D01*
X0295813Y0097000D02*
X0301313Y0102500D01*
X0341372Y0064952D02*
X0342254Y0064952D01*
X0351372Y0064952D02*
X0352254Y0064952D01*
X0361372Y0064952D02*
X0362254Y0064952D01*
X0371372Y0064952D02*
X0372254Y0064952D01*
X0432014Y0060955D02*
X0433566Y0060955D01*
X0434746Y0062954D02*
X0435564Y0062954D01*
X0436369Y0064952D02*
X0437563Y0064952D01*
X0437426Y0066951D02*
X0439561Y0066951D01*
X0437961Y0068949D02*
X0441560Y0068949D01*
X0443558Y0070948D02*
X0438112Y0070948D01*
X0437989Y0072946D02*
X0445013Y0072946D01*
X0445013Y0074945D02*
X0437454Y0074945D01*
X0436429Y0076943D02*
X0445013Y0076943D01*
X0445013Y0078942D02*
X0434851Y0078942D01*
X0432194Y0080940D02*
X0445013Y0080940D01*
X0123828Y0164878D02*
X0122471Y0164878D01*
X0081438Y0094930D02*
X0063613Y0094930D01*
X0063613Y0092932D02*
X0081438Y0092932D01*
X0081438Y0090933D02*
X0065082Y0090933D01*
D22*
X0103813Y0072000D03*
X0136813Y0072000D03*
X0141813Y0087000D03*
X0179813Y0087000D03*
X0198313Y0126000D03*
X0177313Y0133000D03*
X0184313Y0156500D03*
X0196313Y0174000D03*
X0183813Y0196500D03*
X0136813Y0203500D03*
X0094313Y0219500D03*
X0181313Y0234000D03*
X0242813Y0247000D03*
X0304313Y0238500D03*
X0359313Y0246000D03*
X0373313Y0245000D03*
X0329813Y0194000D03*
X0350813Y0171500D03*
X0329313Y0161000D03*
X0284813Y0183500D03*
X0248313Y0185500D03*
X0232813Y0176500D03*
X0231813Y0154000D03*
X0301313Y0102500D03*
D23*
X0150813Y0253000D02*
X0150813Y0261000D01*
X0150813Y0265000D01*
D24*
X0141813Y0087000D02*
X0179813Y0087000D01*
M02*
