G75*
%MOIN*%
%OFA0B0*%
%FSLAX25Y25*%
%IPPOS*%
%LPD*%
%AMOC8*
5,1,8,0,0,1.08239X$1,22.5*
%
%ADD10C,0.01600*%
%ADD11OC8,0.08000*%
%ADD12OC8,0.07200*%
%ADD13C,0.07543*%
%ADD14C,0.07200*%
%ADD15R,0.07543X0.07543*%
%ADD16C,0.08000*%
%ADD17C,0.00000*%
%ADD18C,0.09500*%
%ADD19C,0.08000*%
%ADD20R,0.08000X0.08000*%
%ADD21R,0.04600X0.06300*%
%ADD22C,0.02400*%
%ADD23C,0.02000*%
%ADD24C,0.07600*%
%ADD25C,0.04000*%
%ADD26C,0.03000*%
%ADD27C,0.03200*%
D10*
X0083669Y0064144D02*
X0087349Y0060464D01*
X0090133Y0057680D02*
X0093813Y0054000D01*
X0097898Y0054000D01*
X0101835Y0054000D02*
X0105920Y0054000D01*
X0109857Y0054000D02*
X0113941Y0054000D01*
X0117878Y0054000D02*
X0121963Y0054000D01*
X0125900Y0054000D02*
X0129985Y0054000D01*
X0133922Y0054000D02*
X0138007Y0054000D01*
X0141944Y0054000D02*
X0146029Y0054000D01*
X0149966Y0054000D02*
X0154050Y0054000D01*
X0157987Y0054000D02*
X0162072Y0054000D01*
X0166009Y0054000D02*
X0170094Y0054000D01*
X0174031Y0054000D02*
X0178116Y0054000D01*
X0182053Y0054000D02*
X0186137Y0054000D01*
X0190074Y0054000D02*
X0194159Y0054000D01*
X0198096Y0054000D02*
X0202181Y0054000D01*
X0206118Y0054000D02*
X0210203Y0054000D01*
X0214140Y0054000D02*
X0218225Y0054000D01*
X0222162Y0054000D02*
X0226246Y0054000D01*
X0230183Y0054000D02*
X0234268Y0054000D01*
X0238205Y0054000D02*
X0242290Y0054000D01*
X0246227Y0054000D02*
X0250312Y0054000D01*
X0254249Y0054000D02*
X0258334Y0054000D01*
X0262271Y0054000D02*
X0266355Y0054000D01*
X0270292Y0054000D02*
X0274377Y0054000D01*
X0278314Y0054000D02*
X0282399Y0054000D01*
X0286336Y0054000D02*
X0290421Y0054000D01*
X0294358Y0054000D02*
X0298443Y0054000D01*
X0302380Y0054000D02*
X0306464Y0054000D01*
X0310401Y0054000D02*
X0314486Y0054000D01*
X0318423Y0054000D02*
X0322508Y0054000D01*
X0326445Y0054000D02*
X0330530Y0054000D01*
X0334467Y0054000D02*
X0338552Y0054000D01*
X0342489Y0054000D02*
X0346573Y0054000D01*
X0350510Y0054000D02*
X0354595Y0054000D01*
X0358532Y0054000D02*
X0362617Y0054000D01*
X0366554Y0054000D02*
X0370639Y0054000D01*
X0374576Y0054000D02*
X0378660Y0054000D01*
X0382597Y0054000D02*
X0386682Y0054000D01*
X0390619Y0054000D02*
X0394704Y0054000D01*
X0398641Y0054000D02*
X0402726Y0054000D01*
X0406663Y0054000D02*
X0410748Y0054000D01*
X0414685Y0054000D02*
X0418769Y0054000D01*
X0422706Y0054000D02*
X0426791Y0054000D01*
X0430728Y0054000D02*
X0434813Y0054000D01*
X0438290Y0057477D01*
X0441074Y0060261D02*
X0444552Y0063739D01*
X0447336Y0066523D02*
X0450813Y0070000D01*
X0450813Y0074144D01*
X0450813Y0078081D02*
X0450813Y0082224D01*
X0450813Y0086161D02*
X0450813Y0090305D01*
X0450813Y0094242D02*
X0450813Y0098386D01*
X0450813Y0102323D02*
X0450813Y0106467D01*
X0450813Y0110404D02*
X0450813Y0114547D01*
X0450813Y0118484D02*
X0450813Y0122628D01*
X0450813Y0126565D02*
X0450813Y0130709D01*
X0450813Y0134646D02*
X0450813Y0138789D01*
X0450813Y0142726D02*
X0450813Y0146870D01*
X0450813Y0150807D02*
X0450813Y0154951D01*
X0450813Y0158888D02*
X0450813Y0163031D01*
X0450813Y0166969D02*
X0450813Y0171112D01*
X0450813Y0175049D02*
X0450813Y0179193D01*
X0450813Y0183130D02*
X0450813Y0187274D01*
X0450813Y0191211D02*
X0450813Y0195354D01*
X0450813Y0199291D02*
X0450813Y0203435D01*
X0450813Y0207372D02*
X0450813Y0211516D01*
X0450813Y0215453D02*
X0450813Y0219596D01*
X0450813Y0223533D02*
X0450813Y0227677D01*
X0450813Y0231614D02*
X0450813Y0235758D01*
X0450813Y0239695D02*
X0450813Y0243839D01*
X0450813Y0247776D02*
X0450813Y0251919D01*
X0450813Y0255856D02*
X0450813Y0260000D01*
X0446651Y0264162D01*
X0443867Y0266946D02*
X0439705Y0271108D01*
X0436921Y0273892D02*
X0432759Y0278054D01*
X0429975Y0280838D02*
X0425813Y0285000D01*
X0421758Y0285000D01*
X0417821Y0285000D02*
X0413766Y0285000D01*
X0409829Y0285000D02*
X0405774Y0285000D01*
X0401837Y0285000D02*
X0397782Y0285000D01*
X0393845Y0285000D02*
X0389789Y0285000D01*
X0385852Y0285000D02*
X0381797Y0285000D01*
X0377860Y0285000D02*
X0373805Y0285000D01*
X0369868Y0285000D02*
X0365813Y0285000D01*
X0362669Y0288144D01*
X0359885Y0290928D02*
X0356741Y0294072D01*
X0353957Y0296856D02*
X0350813Y0300000D01*
X0346210Y0300000D01*
X0342273Y0300000D02*
X0337671Y0300000D01*
X0333734Y0300000D02*
X0329131Y0300000D01*
X0325194Y0300000D02*
X0320591Y0300000D01*
X0316654Y0300000D02*
X0312051Y0300000D01*
X0308114Y0300000D02*
X0303512Y0300000D01*
X0299575Y0300000D02*
X0294972Y0300000D01*
X0291035Y0300000D02*
X0286432Y0300000D01*
X0282495Y0300000D02*
X0277892Y0300000D01*
X0273955Y0300000D02*
X0269353Y0300000D01*
X0265416Y0300000D02*
X0260813Y0300000D01*
X0256205Y0295392D01*
X0253421Y0292608D02*
X0248813Y0288000D01*
X0244803Y0288000D01*
X0240866Y0288000D02*
X0236856Y0288000D01*
X0232919Y0288000D02*
X0228909Y0288000D01*
X0224972Y0288000D02*
X0220963Y0288000D01*
X0217026Y0288000D02*
X0213016Y0288000D01*
X0209079Y0288000D02*
X0205069Y0288000D01*
X0201132Y0288000D02*
X0197122Y0288000D01*
X0193185Y0288000D02*
X0189175Y0288000D01*
X0185238Y0288000D02*
X0181228Y0288000D01*
X0177291Y0288000D02*
X0173282Y0288000D01*
X0169345Y0288000D02*
X0165335Y0288000D01*
X0161398Y0288000D02*
X0157388Y0288000D01*
X0153451Y0288000D02*
X0149441Y0288000D01*
X0145504Y0288000D02*
X0141494Y0288000D01*
X0137557Y0288000D02*
X0133547Y0288000D01*
X0129610Y0288000D02*
X0125600Y0288000D01*
X0121663Y0288000D02*
X0117654Y0288000D01*
X0113717Y0288000D02*
X0109707Y0288000D01*
X0105770Y0288000D02*
X0101760Y0288000D01*
X0097823Y0288000D02*
X0093813Y0288000D01*
X0090133Y0284320D01*
X0087349Y0281536D02*
X0083669Y0277856D01*
X0080885Y0275072D02*
X0077205Y0271392D01*
X0074421Y0268608D02*
X0070741Y0264928D01*
X0067957Y0262144D02*
X0064277Y0258464D01*
X0061493Y0255680D02*
X0057813Y0252000D01*
X0057813Y0248035D01*
X0057813Y0244098D02*
X0057813Y0240133D01*
X0057813Y0236196D02*
X0057813Y0232232D01*
X0057813Y0228295D02*
X0057813Y0224330D01*
X0057813Y0220393D02*
X0057813Y0216428D01*
X0057813Y0212491D02*
X0057813Y0208526D01*
X0057813Y0204589D02*
X0057813Y0200625D01*
X0057813Y0196688D02*
X0057813Y0192723D01*
X0057813Y0188786D02*
X0057813Y0184821D01*
X0057813Y0180884D02*
X0057813Y0176919D01*
X0057813Y0172982D02*
X0057813Y0169018D01*
X0057813Y0165081D02*
X0057813Y0161116D01*
X0057813Y0157179D02*
X0057813Y0153214D01*
X0057813Y0149277D02*
X0057813Y0145312D01*
X0057813Y0141375D02*
X0057813Y0137411D01*
X0057813Y0133474D02*
X0057813Y0129509D01*
X0057813Y0125572D02*
X0057813Y0121607D01*
X0057813Y0117670D02*
X0057813Y0113705D01*
X0057813Y0109768D02*
X0057813Y0105804D01*
X0057813Y0101867D02*
X0057813Y0097902D01*
X0057813Y0093965D02*
X0057813Y0090000D01*
X0061493Y0086320D01*
X0064277Y0083536D02*
X0067957Y0079856D01*
X0070741Y0077072D02*
X0074421Y0073392D01*
X0077205Y0070608D02*
X0080885Y0066928D01*
D11*
X0117313Y0104000D03*
X0127313Y0104000D03*
X0137313Y0104000D03*
X0147313Y0104000D03*
X0157313Y0104000D03*
X0167313Y0104000D03*
X0167313Y0123500D03*
X0157313Y0123500D03*
X0147313Y0123500D03*
X0137313Y0123500D03*
X0127313Y0123500D03*
X0117313Y0123500D03*
X0374313Y0121000D03*
X0384313Y0121000D03*
X0384313Y0111000D03*
X0374313Y0111000D03*
X0374313Y0101000D03*
X0384313Y0101000D03*
X0416813Y0101000D03*
X0426813Y0101000D03*
X0437313Y0101000D03*
X0437313Y0091000D03*
X0437313Y0111000D03*
X0426813Y0111000D03*
X0416813Y0111000D03*
X0416813Y0121000D03*
X0426813Y0121000D03*
X0437313Y0121000D03*
X0437313Y0131000D03*
X0426813Y0131000D03*
X0416813Y0131000D03*
X0416813Y0141000D03*
X0426813Y0141000D03*
X0437313Y0141000D03*
X0426813Y0151000D03*
X0416813Y0151000D03*
X0416813Y0161000D03*
X0426813Y0161000D03*
X0426813Y0171000D03*
X0416813Y0171000D03*
X0416813Y0181000D03*
X0426813Y0181000D03*
X0426813Y0191000D03*
X0416813Y0191000D03*
X0416813Y0201000D03*
X0426813Y0201000D03*
X0426813Y0211000D03*
X0416813Y0211000D03*
X0416813Y0221000D03*
X0426813Y0221000D03*
X0426813Y0231000D03*
X0416813Y0231000D03*
X0416813Y0241000D03*
X0426813Y0241000D03*
X0426813Y0251000D03*
X0416813Y0251000D03*
X0384313Y0141000D03*
X0374313Y0141000D03*
X0374313Y0131000D03*
X0384313Y0131000D03*
D12*
X0396813Y0111000D03*
X0406813Y0111000D03*
X0406813Y0101000D03*
X0396813Y0101000D03*
X0354313Y0123500D03*
X0344313Y0123500D03*
X0344313Y0138500D03*
X0354313Y0138500D03*
X0324313Y0126000D03*
X0304313Y0126000D03*
X0279313Y0123500D03*
X0269313Y0123500D03*
X0239313Y0108500D03*
X0228813Y0110500D03*
X0218813Y0110500D03*
X0208813Y0110500D03*
X0198813Y0110500D03*
X0201813Y0099500D03*
X0191813Y0099500D03*
X0208063Y0090000D03*
X0218063Y0090000D03*
X0239313Y0088500D03*
X0228813Y0140500D03*
X0218813Y0140500D03*
X0208813Y0140500D03*
X0198813Y0140500D03*
X0274313Y0163500D03*
X0274313Y0173500D03*
X0331813Y0098500D03*
X0351813Y0098500D03*
D13*
X0354313Y0111000D03*
X0324313Y0111000D03*
X0329313Y0138500D03*
X0299313Y0138500D03*
X0376813Y0166000D03*
X0386813Y0166000D03*
X0396813Y0166000D03*
X0396813Y0186000D03*
X0386813Y0186000D03*
X0376813Y0186000D03*
X0376813Y0206000D03*
X0386813Y0206000D03*
X0396813Y0206000D03*
X0396813Y0226000D03*
X0386813Y0226000D03*
X0376813Y0226000D03*
X0351813Y0226000D03*
X0341813Y0226000D03*
X0331813Y0226000D03*
X0331813Y0206000D03*
X0341813Y0206000D03*
X0351813Y0206000D03*
D14*
X0287813Y0208600D02*
X0287813Y0201400D01*
X0277813Y0201400D02*
X0277813Y0208600D01*
X0267813Y0208600D02*
X0267813Y0201400D01*
X0257813Y0201400D02*
X0257813Y0208600D01*
X0247813Y0208600D02*
X0247813Y0201400D01*
X0237813Y0201400D02*
X0237813Y0208600D01*
X0227813Y0208600D02*
X0227813Y0201400D01*
X0227813Y0231400D02*
X0227813Y0238600D01*
X0237813Y0238600D02*
X0237813Y0231400D01*
X0247813Y0231400D02*
X0247813Y0238600D01*
X0257813Y0238600D02*
X0257813Y0231400D01*
X0267813Y0231400D02*
X0267813Y0238600D01*
X0277813Y0238600D02*
X0277813Y0231400D01*
X0287813Y0231400D02*
X0287813Y0238600D01*
X0284313Y0149600D02*
X0284313Y0142400D01*
X0274313Y0142400D02*
X0274313Y0149600D01*
X0264313Y0149600D02*
X0264313Y0142400D01*
X0269313Y0112100D02*
X0269313Y0104900D01*
X0279313Y0104900D02*
X0279313Y0112100D01*
X0289313Y0112100D02*
X0289313Y0104900D01*
D15*
X0366813Y0166000D03*
X0366813Y0186000D03*
X0366813Y0206000D03*
X0366813Y0226000D03*
X0321813Y0226000D03*
X0321813Y0206000D03*
D16*
X0316813Y0261000D03*
X0326813Y0261000D03*
X0336813Y0261000D03*
X0346813Y0261000D03*
X0356813Y0261000D03*
X0366813Y0261000D03*
X0376813Y0261000D03*
X0386813Y0261000D03*
X0416813Y0261000D03*
X0426813Y0261000D03*
X0346813Y0271000D03*
X0336813Y0271000D03*
X0326813Y0271000D03*
X0326813Y0281000D03*
X0316813Y0281000D03*
X0306813Y0281000D03*
X0296813Y0281000D03*
X0286813Y0281000D03*
X0276813Y0281000D03*
X0276813Y0261000D03*
X0266813Y0261000D03*
X0256813Y0261000D03*
X0246813Y0261000D03*
X0236813Y0261000D03*
X0226813Y0261000D03*
X0210813Y0261000D03*
X0200813Y0261000D03*
X0190813Y0261000D03*
X0180813Y0261000D03*
X0170813Y0261000D03*
X0160813Y0261000D03*
X0150813Y0261000D03*
X0140813Y0261000D03*
X0130813Y0261000D03*
X0120813Y0261000D03*
X0286813Y0261000D03*
X0296813Y0261000D03*
X0336813Y0281000D03*
X0416813Y0091000D03*
X0426813Y0091000D03*
X0406813Y0071000D03*
X0396813Y0071000D03*
X0386813Y0071000D03*
X0376813Y0071000D03*
X0366813Y0071000D03*
X0356813Y0071000D03*
X0346813Y0071000D03*
X0336813Y0071000D03*
X0316813Y0071000D03*
X0306813Y0071000D03*
X0296813Y0071000D03*
X0286813Y0071000D03*
X0276813Y0071000D03*
X0266813Y0071000D03*
X0256813Y0071000D03*
X0246813Y0071000D03*
X0226813Y0071000D03*
X0216813Y0071000D03*
X0206813Y0071000D03*
X0196813Y0071000D03*
X0186813Y0071000D03*
X0176813Y0071000D03*
X0166813Y0071000D03*
X0156813Y0071000D03*
D17*
X0300514Y0091000D02*
X0300516Y0091158D01*
X0300522Y0091316D01*
X0300532Y0091474D01*
X0300546Y0091632D01*
X0300564Y0091789D01*
X0300585Y0091946D01*
X0300611Y0092102D01*
X0300641Y0092258D01*
X0300674Y0092413D01*
X0300712Y0092566D01*
X0300753Y0092719D01*
X0300798Y0092871D01*
X0300847Y0093022D01*
X0300900Y0093171D01*
X0300956Y0093319D01*
X0301016Y0093465D01*
X0301080Y0093610D01*
X0301148Y0093753D01*
X0301219Y0093895D01*
X0301293Y0094035D01*
X0301371Y0094172D01*
X0301453Y0094308D01*
X0301537Y0094442D01*
X0301626Y0094573D01*
X0301717Y0094702D01*
X0301812Y0094829D01*
X0301909Y0094954D01*
X0302010Y0095076D01*
X0302114Y0095195D01*
X0302221Y0095312D01*
X0302331Y0095426D01*
X0302444Y0095537D01*
X0302559Y0095646D01*
X0302677Y0095751D01*
X0302798Y0095853D01*
X0302921Y0095953D01*
X0303047Y0096049D01*
X0303175Y0096142D01*
X0303305Y0096232D01*
X0303438Y0096318D01*
X0303573Y0096402D01*
X0303709Y0096481D01*
X0303848Y0096558D01*
X0303989Y0096630D01*
X0304131Y0096700D01*
X0304275Y0096765D01*
X0304421Y0096827D01*
X0304568Y0096885D01*
X0304717Y0096940D01*
X0304867Y0096991D01*
X0305018Y0097038D01*
X0305170Y0097081D01*
X0305323Y0097120D01*
X0305478Y0097156D01*
X0305633Y0097187D01*
X0305789Y0097215D01*
X0305945Y0097239D01*
X0306102Y0097259D01*
X0306260Y0097275D01*
X0306417Y0097287D01*
X0306576Y0097295D01*
X0306734Y0097299D01*
X0306892Y0097299D01*
X0307050Y0097295D01*
X0307209Y0097287D01*
X0307366Y0097275D01*
X0307524Y0097259D01*
X0307681Y0097239D01*
X0307837Y0097215D01*
X0307993Y0097187D01*
X0308148Y0097156D01*
X0308303Y0097120D01*
X0308456Y0097081D01*
X0308608Y0097038D01*
X0308759Y0096991D01*
X0308909Y0096940D01*
X0309058Y0096885D01*
X0309205Y0096827D01*
X0309351Y0096765D01*
X0309495Y0096700D01*
X0309637Y0096630D01*
X0309778Y0096558D01*
X0309917Y0096481D01*
X0310053Y0096402D01*
X0310188Y0096318D01*
X0310321Y0096232D01*
X0310451Y0096142D01*
X0310579Y0096049D01*
X0310705Y0095953D01*
X0310828Y0095853D01*
X0310949Y0095751D01*
X0311067Y0095646D01*
X0311182Y0095537D01*
X0311295Y0095426D01*
X0311405Y0095312D01*
X0311512Y0095195D01*
X0311616Y0095076D01*
X0311717Y0094954D01*
X0311814Y0094829D01*
X0311909Y0094702D01*
X0312000Y0094573D01*
X0312089Y0094442D01*
X0312173Y0094308D01*
X0312255Y0094172D01*
X0312333Y0094035D01*
X0312407Y0093895D01*
X0312478Y0093753D01*
X0312546Y0093610D01*
X0312610Y0093465D01*
X0312670Y0093319D01*
X0312726Y0093171D01*
X0312779Y0093022D01*
X0312828Y0092871D01*
X0312873Y0092719D01*
X0312914Y0092566D01*
X0312952Y0092413D01*
X0312985Y0092258D01*
X0313015Y0092102D01*
X0313041Y0091946D01*
X0313062Y0091789D01*
X0313080Y0091632D01*
X0313094Y0091474D01*
X0313104Y0091316D01*
X0313110Y0091158D01*
X0313112Y0091000D01*
X0313110Y0090842D01*
X0313104Y0090684D01*
X0313094Y0090526D01*
X0313080Y0090368D01*
X0313062Y0090211D01*
X0313041Y0090054D01*
X0313015Y0089898D01*
X0312985Y0089742D01*
X0312952Y0089587D01*
X0312914Y0089434D01*
X0312873Y0089281D01*
X0312828Y0089129D01*
X0312779Y0088978D01*
X0312726Y0088829D01*
X0312670Y0088681D01*
X0312610Y0088535D01*
X0312546Y0088390D01*
X0312478Y0088247D01*
X0312407Y0088105D01*
X0312333Y0087965D01*
X0312255Y0087828D01*
X0312173Y0087692D01*
X0312089Y0087558D01*
X0312000Y0087427D01*
X0311909Y0087298D01*
X0311814Y0087171D01*
X0311717Y0087046D01*
X0311616Y0086924D01*
X0311512Y0086805D01*
X0311405Y0086688D01*
X0311295Y0086574D01*
X0311182Y0086463D01*
X0311067Y0086354D01*
X0310949Y0086249D01*
X0310828Y0086147D01*
X0310705Y0086047D01*
X0310579Y0085951D01*
X0310451Y0085858D01*
X0310321Y0085768D01*
X0310188Y0085682D01*
X0310053Y0085598D01*
X0309917Y0085519D01*
X0309778Y0085442D01*
X0309637Y0085370D01*
X0309495Y0085300D01*
X0309351Y0085235D01*
X0309205Y0085173D01*
X0309058Y0085115D01*
X0308909Y0085060D01*
X0308759Y0085009D01*
X0308608Y0084962D01*
X0308456Y0084919D01*
X0308303Y0084880D01*
X0308148Y0084844D01*
X0307993Y0084813D01*
X0307837Y0084785D01*
X0307681Y0084761D01*
X0307524Y0084741D01*
X0307366Y0084725D01*
X0307209Y0084713D01*
X0307050Y0084705D01*
X0306892Y0084701D01*
X0306734Y0084701D01*
X0306576Y0084705D01*
X0306417Y0084713D01*
X0306260Y0084725D01*
X0306102Y0084741D01*
X0305945Y0084761D01*
X0305789Y0084785D01*
X0305633Y0084813D01*
X0305478Y0084844D01*
X0305323Y0084880D01*
X0305170Y0084919D01*
X0305018Y0084962D01*
X0304867Y0085009D01*
X0304717Y0085060D01*
X0304568Y0085115D01*
X0304421Y0085173D01*
X0304275Y0085235D01*
X0304131Y0085300D01*
X0303989Y0085370D01*
X0303848Y0085442D01*
X0303709Y0085519D01*
X0303573Y0085598D01*
X0303438Y0085682D01*
X0303305Y0085768D01*
X0303175Y0085858D01*
X0303047Y0085951D01*
X0302921Y0086047D01*
X0302798Y0086147D01*
X0302677Y0086249D01*
X0302559Y0086354D01*
X0302444Y0086463D01*
X0302331Y0086574D01*
X0302221Y0086688D01*
X0302114Y0086805D01*
X0302010Y0086924D01*
X0301909Y0087046D01*
X0301812Y0087171D01*
X0301717Y0087298D01*
X0301626Y0087427D01*
X0301537Y0087558D01*
X0301453Y0087692D01*
X0301371Y0087828D01*
X0301293Y0087965D01*
X0301219Y0088105D01*
X0301148Y0088247D01*
X0301080Y0088390D01*
X0301016Y0088535D01*
X0300956Y0088681D01*
X0300900Y0088829D01*
X0300847Y0088978D01*
X0300798Y0089129D01*
X0300753Y0089281D01*
X0300712Y0089434D01*
X0300674Y0089587D01*
X0300641Y0089742D01*
X0300611Y0089898D01*
X0300585Y0090054D01*
X0300564Y0090211D01*
X0300546Y0090368D01*
X0300532Y0090526D01*
X0300522Y0090684D01*
X0300516Y0090842D01*
X0300514Y0091000D01*
X0420514Y0071000D02*
X0420516Y0071158D01*
X0420522Y0071316D01*
X0420532Y0071474D01*
X0420546Y0071632D01*
X0420564Y0071789D01*
X0420585Y0071946D01*
X0420611Y0072102D01*
X0420641Y0072258D01*
X0420674Y0072413D01*
X0420712Y0072566D01*
X0420753Y0072719D01*
X0420798Y0072871D01*
X0420847Y0073022D01*
X0420900Y0073171D01*
X0420956Y0073319D01*
X0421016Y0073465D01*
X0421080Y0073610D01*
X0421148Y0073753D01*
X0421219Y0073895D01*
X0421293Y0074035D01*
X0421371Y0074172D01*
X0421453Y0074308D01*
X0421537Y0074442D01*
X0421626Y0074573D01*
X0421717Y0074702D01*
X0421812Y0074829D01*
X0421909Y0074954D01*
X0422010Y0075076D01*
X0422114Y0075195D01*
X0422221Y0075312D01*
X0422331Y0075426D01*
X0422444Y0075537D01*
X0422559Y0075646D01*
X0422677Y0075751D01*
X0422798Y0075853D01*
X0422921Y0075953D01*
X0423047Y0076049D01*
X0423175Y0076142D01*
X0423305Y0076232D01*
X0423438Y0076318D01*
X0423573Y0076402D01*
X0423709Y0076481D01*
X0423848Y0076558D01*
X0423989Y0076630D01*
X0424131Y0076700D01*
X0424275Y0076765D01*
X0424421Y0076827D01*
X0424568Y0076885D01*
X0424717Y0076940D01*
X0424867Y0076991D01*
X0425018Y0077038D01*
X0425170Y0077081D01*
X0425323Y0077120D01*
X0425478Y0077156D01*
X0425633Y0077187D01*
X0425789Y0077215D01*
X0425945Y0077239D01*
X0426102Y0077259D01*
X0426260Y0077275D01*
X0426417Y0077287D01*
X0426576Y0077295D01*
X0426734Y0077299D01*
X0426892Y0077299D01*
X0427050Y0077295D01*
X0427209Y0077287D01*
X0427366Y0077275D01*
X0427524Y0077259D01*
X0427681Y0077239D01*
X0427837Y0077215D01*
X0427993Y0077187D01*
X0428148Y0077156D01*
X0428303Y0077120D01*
X0428456Y0077081D01*
X0428608Y0077038D01*
X0428759Y0076991D01*
X0428909Y0076940D01*
X0429058Y0076885D01*
X0429205Y0076827D01*
X0429351Y0076765D01*
X0429495Y0076700D01*
X0429637Y0076630D01*
X0429778Y0076558D01*
X0429917Y0076481D01*
X0430053Y0076402D01*
X0430188Y0076318D01*
X0430321Y0076232D01*
X0430451Y0076142D01*
X0430579Y0076049D01*
X0430705Y0075953D01*
X0430828Y0075853D01*
X0430949Y0075751D01*
X0431067Y0075646D01*
X0431182Y0075537D01*
X0431295Y0075426D01*
X0431405Y0075312D01*
X0431512Y0075195D01*
X0431616Y0075076D01*
X0431717Y0074954D01*
X0431814Y0074829D01*
X0431909Y0074702D01*
X0432000Y0074573D01*
X0432089Y0074442D01*
X0432173Y0074308D01*
X0432255Y0074172D01*
X0432333Y0074035D01*
X0432407Y0073895D01*
X0432478Y0073753D01*
X0432546Y0073610D01*
X0432610Y0073465D01*
X0432670Y0073319D01*
X0432726Y0073171D01*
X0432779Y0073022D01*
X0432828Y0072871D01*
X0432873Y0072719D01*
X0432914Y0072566D01*
X0432952Y0072413D01*
X0432985Y0072258D01*
X0433015Y0072102D01*
X0433041Y0071946D01*
X0433062Y0071789D01*
X0433080Y0071632D01*
X0433094Y0071474D01*
X0433104Y0071316D01*
X0433110Y0071158D01*
X0433112Y0071000D01*
X0433110Y0070842D01*
X0433104Y0070684D01*
X0433094Y0070526D01*
X0433080Y0070368D01*
X0433062Y0070211D01*
X0433041Y0070054D01*
X0433015Y0069898D01*
X0432985Y0069742D01*
X0432952Y0069587D01*
X0432914Y0069434D01*
X0432873Y0069281D01*
X0432828Y0069129D01*
X0432779Y0068978D01*
X0432726Y0068829D01*
X0432670Y0068681D01*
X0432610Y0068535D01*
X0432546Y0068390D01*
X0432478Y0068247D01*
X0432407Y0068105D01*
X0432333Y0067965D01*
X0432255Y0067828D01*
X0432173Y0067692D01*
X0432089Y0067558D01*
X0432000Y0067427D01*
X0431909Y0067298D01*
X0431814Y0067171D01*
X0431717Y0067046D01*
X0431616Y0066924D01*
X0431512Y0066805D01*
X0431405Y0066688D01*
X0431295Y0066574D01*
X0431182Y0066463D01*
X0431067Y0066354D01*
X0430949Y0066249D01*
X0430828Y0066147D01*
X0430705Y0066047D01*
X0430579Y0065951D01*
X0430451Y0065858D01*
X0430321Y0065768D01*
X0430188Y0065682D01*
X0430053Y0065598D01*
X0429917Y0065519D01*
X0429778Y0065442D01*
X0429637Y0065370D01*
X0429495Y0065300D01*
X0429351Y0065235D01*
X0429205Y0065173D01*
X0429058Y0065115D01*
X0428909Y0065060D01*
X0428759Y0065009D01*
X0428608Y0064962D01*
X0428456Y0064919D01*
X0428303Y0064880D01*
X0428148Y0064844D01*
X0427993Y0064813D01*
X0427837Y0064785D01*
X0427681Y0064761D01*
X0427524Y0064741D01*
X0427366Y0064725D01*
X0427209Y0064713D01*
X0427050Y0064705D01*
X0426892Y0064701D01*
X0426734Y0064701D01*
X0426576Y0064705D01*
X0426417Y0064713D01*
X0426260Y0064725D01*
X0426102Y0064741D01*
X0425945Y0064761D01*
X0425789Y0064785D01*
X0425633Y0064813D01*
X0425478Y0064844D01*
X0425323Y0064880D01*
X0425170Y0064919D01*
X0425018Y0064962D01*
X0424867Y0065009D01*
X0424717Y0065060D01*
X0424568Y0065115D01*
X0424421Y0065173D01*
X0424275Y0065235D01*
X0424131Y0065300D01*
X0423989Y0065370D01*
X0423848Y0065442D01*
X0423709Y0065519D01*
X0423573Y0065598D01*
X0423438Y0065682D01*
X0423305Y0065768D01*
X0423175Y0065858D01*
X0423047Y0065951D01*
X0422921Y0066047D01*
X0422798Y0066147D01*
X0422677Y0066249D01*
X0422559Y0066354D01*
X0422444Y0066463D01*
X0422331Y0066574D01*
X0422221Y0066688D01*
X0422114Y0066805D01*
X0422010Y0066924D01*
X0421909Y0067046D01*
X0421812Y0067171D01*
X0421717Y0067298D01*
X0421626Y0067427D01*
X0421537Y0067558D01*
X0421453Y0067692D01*
X0421371Y0067828D01*
X0421293Y0067965D01*
X0421219Y0068105D01*
X0421148Y0068247D01*
X0421080Y0068390D01*
X0421016Y0068535D01*
X0420956Y0068681D01*
X0420900Y0068829D01*
X0420847Y0068978D01*
X0420798Y0069129D01*
X0420753Y0069281D01*
X0420712Y0069434D01*
X0420674Y0069587D01*
X0420641Y0069742D01*
X0420611Y0069898D01*
X0420585Y0070054D01*
X0420564Y0070211D01*
X0420546Y0070368D01*
X0420532Y0070526D01*
X0420522Y0070684D01*
X0420516Y0070842D01*
X0420514Y0071000D01*
X0300514Y0201000D02*
X0300516Y0201158D01*
X0300522Y0201316D01*
X0300532Y0201474D01*
X0300546Y0201632D01*
X0300564Y0201789D01*
X0300585Y0201946D01*
X0300611Y0202102D01*
X0300641Y0202258D01*
X0300674Y0202413D01*
X0300712Y0202566D01*
X0300753Y0202719D01*
X0300798Y0202871D01*
X0300847Y0203022D01*
X0300900Y0203171D01*
X0300956Y0203319D01*
X0301016Y0203465D01*
X0301080Y0203610D01*
X0301148Y0203753D01*
X0301219Y0203895D01*
X0301293Y0204035D01*
X0301371Y0204172D01*
X0301453Y0204308D01*
X0301537Y0204442D01*
X0301626Y0204573D01*
X0301717Y0204702D01*
X0301812Y0204829D01*
X0301909Y0204954D01*
X0302010Y0205076D01*
X0302114Y0205195D01*
X0302221Y0205312D01*
X0302331Y0205426D01*
X0302444Y0205537D01*
X0302559Y0205646D01*
X0302677Y0205751D01*
X0302798Y0205853D01*
X0302921Y0205953D01*
X0303047Y0206049D01*
X0303175Y0206142D01*
X0303305Y0206232D01*
X0303438Y0206318D01*
X0303573Y0206402D01*
X0303709Y0206481D01*
X0303848Y0206558D01*
X0303989Y0206630D01*
X0304131Y0206700D01*
X0304275Y0206765D01*
X0304421Y0206827D01*
X0304568Y0206885D01*
X0304717Y0206940D01*
X0304867Y0206991D01*
X0305018Y0207038D01*
X0305170Y0207081D01*
X0305323Y0207120D01*
X0305478Y0207156D01*
X0305633Y0207187D01*
X0305789Y0207215D01*
X0305945Y0207239D01*
X0306102Y0207259D01*
X0306260Y0207275D01*
X0306417Y0207287D01*
X0306576Y0207295D01*
X0306734Y0207299D01*
X0306892Y0207299D01*
X0307050Y0207295D01*
X0307209Y0207287D01*
X0307366Y0207275D01*
X0307524Y0207259D01*
X0307681Y0207239D01*
X0307837Y0207215D01*
X0307993Y0207187D01*
X0308148Y0207156D01*
X0308303Y0207120D01*
X0308456Y0207081D01*
X0308608Y0207038D01*
X0308759Y0206991D01*
X0308909Y0206940D01*
X0309058Y0206885D01*
X0309205Y0206827D01*
X0309351Y0206765D01*
X0309495Y0206700D01*
X0309637Y0206630D01*
X0309778Y0206558D01*
X0309917Y0206481D01*
X0310053Y0206402D01*
X0310188Y0206318D01*
X0310321Y0206232D01*
X0310451Y0206142D01*
X0310579Y0206049D01*
X0310705Y0205953D01*
X0310828Y0205853D01*
X0310949Y0205751D01*
X0311067Y0205646D01*
X0311182Y0205537D01*
X0311295Y0205426D01*
X0311405Y0205312D01*
X0311512Y0205195D01*
X0311616Y0205076D01*
X0311717Y0204954D01*
X0311814Y0204829D01*
X0311909Y0204702D01*
X0312000Y0204573D01*
X0312089Y0204442D01*
X0312173Y0204308D01*
X0312255Y0204172D01*
X0312333Y0204035D01*
X0312407Y0203895D01*
X0312478Y0203753D01*
X0312546Y0203610D01*
X0312610Y0203465D01*
X0312670Y0203319D01*
X0312726Y0203171D01*
X0312779Y0203022D01*
X0312828Y0202871D01*
X0312873Y0202719D01*
X0312914Y0202566D01*
X0312952Y0202413D01*
X0312985Y0202258D01*
X0313015Y0202102D01*
X0313041Y0201946D01*
X0313062Y0201789D01*
X0313080Y0201632D01*
X0313094Y0201474D01*
X0313104Y0201316D01*
X0313110Y0201158D01*
X0313112Y0201000D01*
X0313110Y0200842D01*
X0313104Y0200684D01*
X0313094Y0200526D01*
X0313080Y0200368D01*
X0313062Y0200211D01*
X0313041Y0200054D01*
X0313015Y0199898D01*
X0312985Y0199742D01*
X0312952Y0199587D01*
X0312914Y0199434D01*
X0312873Y0199281D01*
X0312828Y0199129D01*
X0312779Y0198978D01*
X0312726Y0198829D01*
X0312670Y0198681D01*
X0312610Y0198535D01*
X0312546Y0198390D01*
X0312478Y0198247D01*
X0312407Y0198105D01*
X0312333Y0197965D01*
X0312255Y0197828D01*
X0312173Y0197692D01*
X0312089Y0197558D01*
X0312000Y0197427D01*
X0311909Y0197298D01*
X0311814Y0197171D01*
X0311717Y0197046D01*
X0311616Y0196924D01*
X0311512Y0196805D01*
X0311405Y0196688D01*
X0311295Y0196574D01*
X0311182Y0196463D01*
X0311067Y0196354D01*
X0310949Y0196249D01*
X0310828Y0196147D01*
X0310705Y0196047D01*
X0310579Y0195951D01*
X0310451Y0195858D01*
X0310321Y0195768D01*
X0310188Y0195682D01*
X0310053Y0195598D01*
X0309917Y0195519D01*
X0309778Y0195442D01*
X0309637Y0195370D01*
X0309495Y0195300D01*
X0309351Y0195235D01*
X0309205Y0195173D01*
X0309058Y0195115D01*
X0308909Y0195060D01*
X0308759Y0195009D01*
X0308608Y0194962D01*
X0308456Y0194919D01*
X0308303Y0194880D01*
X0308148Y0194844D01*
X0307993Y0194813D01*
X0307837Y0194785D01*
X0307681Y0194761D01*
X0307524Y0194741D01*
X0307366Y0194725D01*
X0307209Y0194713D01*
X0307050Y0194705D01*
X0306892Y0194701D01*
X0306734Y0194701D01*
X0306576Y0194705D01*
X0306417Y0194713D01*
X0306260Y0194725D01*
X0306102Y0194741D01*
X0305945Y0194761D01*
X0305789Y0194785D01*
X0305633Y0194813D01*
X0305478Y0194844D01*
X0305323Y0194880D01*
X0305170Y0194919D01*
X0305018Y0194962D01*
X0304867Y0195009D01*
X0304717Y0195060D01*
X0304568Y0195115D01*
X0304421Y0195173D01*
X0304275Y0195235D01*
X0304131Y0195300D01*
X0303989Y0195370D01*
X0303848Y0195442D01*
X0303709Y0195519D01*
X0303573Y0195598D01*
X0303438Y0195682D01*
X0303305Y0195768D01*
X0303175Y0195858D01*
X0303047Y0195951D01*
X0302921Y0196047D01*
X0302798Y0196147D01*
X0302677Y0196249D01*
X0302559Y0196354D01*
X0302444Y0196463D01*
X0302331Y0196574D01*
X0302221Y0196688D01*
X0302114Y0196805D01*
X0302010Y0196924D01*
X0301909Y0197046D01*
X0301812Y0197171D01*
X0301717Y0197298D01*
X0301626Y0197427D01*
X0301537Y0197558D01*
X0301453Y0197692D01*
X0301371Y0197828D01*
X0301293Y0197965D01*
X0301219Y0198105D01*
X0301148Y0198247D01*
X0301080Y0198390D01*
X0301016Y0198535D01*
X0300956Y0198681D01*
X0300900Y0198829D01*
X0300847Y0198978D01*
X0300798Y0199129D01*
X0300753Y0199281D01*
X0300712Y0199434D01*
X0300674Y0199587D01*
X0300641Y0199742D01*
X0300611Y0199898D01*
X0300585Y0200054D01*
X0300564Y0200211D01*
X0300546Y0200368D01*
X0300532Y0200526D01*
X0300522Y0200684D01*
X0300516Y0200842D01*
X0300514Y0201000D01*
X0395514Y0261000D02*
X0395516Y0261158D01*
X0395522Y0261316D01*
X0395532Y0261474D01*
X0395546Y0261632D01*
X0395564Y0261789D01*
X0395585Y0261946D01*
X0395611Y0262102D01*
X0395641Y0262258D01*
X0395674Y0262413D01*
X0395712Y0262566D01*
X0395753Y0262719D01*
X0395798Y0262871D01*
X0395847Y0263022D01*
X0395900Y0263171D01*
X0395956Y0263319D01*
X0396016Y0263465D01*
X0396080Y0263610D01*
X0396148Y0263753D01*
X0396219Y0263895D01*
X0396293Y0264035D01*
X0396371Y0264172D01*
X0396453Y0264308D01*
X0396537Y0264442D01*
X0396626Y0264573D01*
X0396717Y0264702D01*
X0396812Y0264829D01*
X0396909Y0264954D01*
X0397010Y0265076D01*
X0397114Y0265195D01*
X0397221Y0265312D01*
X0397331Y0265426D01*
X0397444Y0265537D01*
X0397559Y0265646D01*
X0397677Y0265751D01*
X0397798Y0265853D01*
X0397921Y0265953D01*
X0398047Y0266049D01*
X0398175Y0266142D01*
X0398305Y0266232D01*
X0398438Y0266318D01*
X0398573Y0266402D01*
X0398709Y0266481D01*
X0398848Y0266558D01*
X0398989Y0266630D01*
X0399131Y0266700D01*
X0399275Y0266765D01*
X0399421Y0266827D01*
X0399568Y0266885D01*
X0399717Y0266940D01*
X0399867Y0266991D01*
X0400018Y0267038D01*
X0400170Y0267081D01*
X0400323Y0267120D01*
X0400478Y0267156D01*
X0400633Y0267187D01*
X0400789Y0267215D01*
X0400945Y0267239D01*
X0401102Y0267259D01*
X0401260Y0267275D01*
X0401417Y0267287D01*
X0401576Y0267295D01*
X0401734Y0267299D01*
X0401892Y0267299D01*
X0402050Y0267295D01*
X0402209Y0267287D01*
X0402366Y0267275D01*
X0402524Y0267259D01*
X0402681Y0267239D01*
X0402837Y0267215D01*
X0402993Y0267187D01*
X0403148Y0267156D01*
X0403303Y0267120D01*
X0403456Y0267081D01*
X0403608Y0267038D01*
X0403759Y0266991D01*
X0403909Y0266940D01*
X0404058Y0266885D01*
X0404205Y0266827D01*
X0404351Y0266765D01*
X0404495Y0266700D01*
X0404637Y0266630D01*
X0404778Y0266558D01*
X0404917Y0266481D01*
X0405053Y0266402D01*
X0405188Y0266318D01*
X0405321Y0266232D01*
X0405451Y0266142D01*
X0405579Y0266049D01*
X0405705Y0265953D01*
X0405828Y0265853D01*
X0405949Y0265751D01*
X0406067Y0265646D01*
X0406182Y0265537D01*
X0406295Y0265426D01*
X0406405Y0265312D01*
X0406512Y0265195D01*
X0406616Y0265076D01*
X0406717Y0264954D01*
X0406814Y0264829D01*
X0406909Y0264702D01*
X0407000Y0264573D01*
X0407089Y0264442D01*
X0407173Y0264308D01*
X0407255Y0264172D01*
X0407333Y0264035D01*
X0407407Y0263895D01*
X0407478Y0263753D01*
X0407546Y0263610D01*
X0407610Y0263465D01*
X0407670Y0263319D01*
X0407726Y0263171D01*
X0407779Y0263022D01*
X0407828Y0262871D01*
X0407873Y0262719D01*
X0407914Y0262566D01*
X0407952Y0262413D01*
X0407985Y0262258D01*
X0408015Y0262102D01*
X0408041Y0261946D01*
X0408062Y0261789D01*
X0408080Y0261632D01*
X0408094Y0261474D01*
X0408104Y0261316D01*
X0408110Y0261158D01*
X0408112Y0261000D01*
X0408110Y0260842D01*
X0408104Y0260684D01*
X0408094Y0260526D01*
X0408080Y0260368D01*
X0408062Y0260211D01*
X0408041Y0260054D01*
X0408015Y0259898D01*
X0407985Y0259742D01*
X0407952Y0259587D01*
X0407914Y0259434D01*
X0407873Y0259281D01*
X0407828Y0259129D01*
X0407779Y0258978D01*
X0407726Y0258829D01*
X0407670Y0258681D01*
X0407610Y0258535D01*
X0407546Y0258390D01*
X0407478Y0258247D01*
X0407407Y0258105D01*
X0407333Y0257965D01*
X0407255Y0257828D01*
X0407173Y0257692D01*
X0407089Y0257558D01*
X0407000Y0257427D01*
X0406909Y0257298D01*
X0406814Y0257171D01*
X0406717Y0257046D01*
X0406616Y0256924D01*
X0406512Y0256805D01*
X0406405Y0256688D01*
X0406295Y0256574D01*
X0406182Y0256463D01*
X0406067Y0256354D01*
X0405949Y0256249D01*
X0405828Y0256147D01*
X0405705Y0256047D01*
X0405579Y0255951D01*
X0405451Y0255858D01*
X0405321Y0255768D01*
X0405188Y0255682D01*
X0405053Y0255598D01*
X0404917Y0255519D01*
X0404778Y0255442D01*
X0404637Y0255370D01*
X0404495Y0255300D01*
X0404351Y0255235D01*
X0404205Y0255173D01*
X0404058Y0255115D01*
X0403909Y0255060D01*
X0403759Y0255009D01*
X0403608Y0254962D01*
X0403456Y0254919D01*
X0403303Y0254880D01*
X0403148Y0254844D01*
X0402993Y0254813D01*
X0402837Y0254785D01*
X0402681Y0254761D01*
X0402524Y0254741D01*
X0402366Y0254725D01*
X0402209Y0254713D01*
X0402050Y0254705D01*
X0401892Y0254701D01*
X0401734Y0254701D01*
X0401576Y0254705D01*
X0401417Y0254713D01*
X0401260Y0254725D01*
X0401102Y0254741D01*
X0400945Y0254761D01*
X0400789Y0254785D01*
X0400633Y0254813D01*
X0400478Y0254844D01*
X0400323Y0254880D01*
X0400170Y0254919D01*
X0400018Y0254962D01*
X0399867Y0255009D01*
X0399717Y0255060D01*
X0399568Y0255115D01*
X0399421Y0255173D01*
X0399275Y0255235D01*
X0399131Y0255300D01*
X0398989Y0255370D01*
X0398848Y0255442D01*
X0398709Y0255519D01*
X0398573Y0255598D01*
X0398438Y0255682D01*
X0398305Y0255768D01*
X0398175Y0255858D01*
X0398047Y0255951D01*
X0397921Y0256047D01*
X0397798Y0256147D01*
X0397677Y0256249D01*
X0397559Y0256354D01*
X0397444Y0256463D01*
X0397331Y0256574D01*
X0397221Y0256688D01*
X0397114Y0256805D01*
X0397010Y0256924D01*
X0396909Y0257046D01*
X0396812Y0257171D01*
X0396717Y0257298D01*
X0396626Y0257427D01*
X0396537Y0257558D01*
X0396453Y0257692D01*
X0396371Y0257828D01*
X0396293Y0257965D01*
X0396219Y0258105D01*
X0396148Y0258247D01*
X0396080Y0258390D01*
X0396016Y0258535D01*
X0395956Y0258681D01*
X0395900Y0258829D01*
X0395847Y0258978D01*
X0395798Y0259129D01*
X0395753Y0259281D01*
X0395712Y0259434D01*
X0395674Y0259587D01*
X0395641Y0259742D01*
X0395611Y0259898D01*
X0395585Y0260054D01*
X0395564Y0260211D01*
X0395546Y0260368D01*
X0395532Y0260526D01*
X0395522Y0260684D01*
X0395516Y0260842D01*
X0395514Y0261000D01*
D18*
X0077063Y0171000D02*
X0067563Y0171000D01*
X0067563Y0151000D02*
X0077063Y0151000D01*
X0077063Y0131000D02*
X0067563Y0131000D01*
D19*
X0099313Y0170000D02*
X0099313Y0178000D01*
X0109313Y0178000D02*
X0109313Y0170000D01*
X0119313Y0170000D02*
X0119313Y0178000D01*
X0129313Y0178000D02*
X0129313Y0170000D01*
X0139313Y0170000D02*
X0139313Y0178000D01*
X0149313Y0178000D02*
X0149313Y0170000D01*
X0159313Y0170000D02*
X0159313Y0178000D01*
X0169313Y0178000D02*
X0169313Y0170000D01*
X0169313Y0230000D02*
X0169313Y0238000D01*
X0159313Y0238000D02*
X0159313Y0230000D01*
X0149313Y0230000D02*
X0149313Y0238000D01*
X0139313Y0238000D02*
X0139313Y0230000D01*
X0129313Y0230000D02*
X0129313Y0238000D01*
X0119313Y0238000D02*
X0119313Y0230000D01*
X0109313Y0230000D02*
X0109313Y0238000D01*
X0099313Y0238000D02*
X0099313Y0230000D01*
D20*
X0266813Y0281000D03*
X0316813Y0271000D03*
D21*
X0089813Y0109000D03*
X0083813Y0109000D03*
X0077813Y0109000D03*
D22*
X0083813Y0109000D02*
X0088813Y0109000D01*
D23*
X0083813Y0109000D01*
X0146813Y0074000D02*
X0146813Y0067500D01*
X0154563Y0059750D01*
X0431813Y0059750D01*
X0444813Y0072750D01*
X0444813Y0154000D01*
X0440313Y0158500D01*
X0440313Y0198500D01*
X0437813Y0201000D01*
X0426813Y0201000D01*
X0416813Y0191000D02*
X0412813Y0191000D01*
X0407813Y0186000D01*
X0407813Y0162000D01*
X0399313Y0153500D01*
X0344813Y0153500D01*
X0336313Y0145000D01*
X0336313Y0113000D01*
X0325813Y0102500D01*
X0301313Y0102500D01*
X0291813Y0111000D02*
X0289313Y0108500D01*
X0289313Y0092250D01*
X0303063Y0078500D01*
X0311813Y0078500D01*
X0324938Y0091625D01*
X0325563Y0091000D01*
X0356813Y0091000D01*
X0361813Y0096000D01*
X0361813Y0121625D01*
X0371188Y0131000D01*
X0374313Y0131000D01*
X0384313Y0131000D02*
X0386813Y0131000D01*
X0393063Y0137250D01*
X0393063Y0144125D01*
X0388688Y0148500D01*
X0369313Y0148500D01*
X0361813Y0141000D01*
X0361813Y0131000D01*
X0354313Y0123500D01*
X0354313Y0111000D01*
X0351813Y0108500D01*
X0351813Y0098500D01*
X0331813Y0098500D02*
X0324938Y0091625D01*
X0324313Y0111000D02*
X0291813Y0111000D01*
X0301188Y0117875D02*
X0307438Y0117875D01*
X0314938Y0125375D01*
X0314938Y0135625D01*
X0350813Y0171500D01*
X0366813Y0166000D02*
X0366813Y0186000D01*
X0359541Y0188167D02*
X0355813Y0188000D01*
X0349813Y0196000D01*
X0346636Y0200539D01*
X0347874Y0201777D01*
X0348053Y0201598D01*
X0348788Y0201064D01*
X0349597Y0200651D01*
X0350461Y0200370D01*
X0351359Y0200228D01*
X0351813Y0200228D01*
X0352267Y0200228D01*
X0353165Y0200370D01*
X0354029Y0200651D01*
X0354838Y0201064D01*
X0355573Y0201598D01*
X0356215Y0202240D01*
X0356749Y0202975D01*
X0357162Y0203784D01*
X0357443Y0204648D01*
X0357585Y0205546D01*
X0357585Y0206000D01*
X0357585Y0206454D01*
X0357443Y0207352D01*
X0357162Y0208216D01*
X0356749Y0209025D01*
X0356215Y0209760D01*
X0355573Y0210402D01*
X0354838Y0210936D01*
X0354029Y0211349D01*
X0353165Y0211630D01*
X0352267Y0211772D01*
X0351813Y0211772D01*
X0351359Y0211772D01*
X0350461Y0211630D01*
X0349597Y0211349D01*
X0348788Y0210936D01*
X0348053Y0210402D01*
X0347874Y0210223D01*
X0346313Y0211784D01*
X0346313Y0220216D01*
X0347874Y0221777D01*
X0348053Y0221598D01*
X0348788Y0221064D01*
X0349597Y0220651D01*
X0350461Y0220370D01*
X0351359Y0220228D01*
X0351813Y0220228D01*
X0352267Y0220228D01*
X0353165Y0220370D01*
X0354029Y0220651D01*
X0354838Y0221064D01*
X0355573Y0221598D01*
X0356215Y0222240D01*
X0356749Y0222975D01*
X0357162Y0223784D01*
X0357443Y0224648D01*
X0357585Y0225546D01*
X0357585Y0226000D01*
X0357585Y0226454D01*
X0357443Y0227352D01*
X0357162Y0228216D01*
X0356762Y0229000D01*
X0359541Y0229000D01*
X0359541Y0221532D01*
X0360074Y0220246D01*
X0361059Y0219261D01*
X0362345Y0218728D01*
X0371281Y0218728D01*
X0372567Y0219261D01*
X0373010Y0219704D01*
X0375367Y0218728D01*
X0378259Y0218728D01*
X0380932Y0219835D01*
X0381813Y0220716D01*
X0382313Y0220216D01*
X0382313Y0211784D01*
X0381813Y0211284D01*
X0380932Y0212165D01*
X0378259Y0213272D01*
X0375367Y0213272D01*
X0373010Y0212296D01*
X0372567Y0212739D01*
X0371281Y0213272D01*
X0362345Y0213272D01*
X0361059Y0212739D01*
X0360074Y0211754D01*
X0359541Y0210468D01*
X0359541Y0201532D01*
X0360074Y0200246D01*
X0361059Y0199261D01*
X0362345Y0198728D01*
X0371281Y0198728D01*
X0372567Y0199261D01*
X0373010Y0199704D01*
X0375367Y0198728D01*
X0378259Y0198728D01*
X0380932Y0199835D01*
X0381813Y0200716D01*
X0382694Y0199835D01*
X0385367Y0198728D01*
X0388259Y0198728D01*
X0390932Y0199835D01*
X0392874Y0201777D01*
X0393053Y0201598D01*
X0393788Y0201064D01*
X0394597Y0200651D01*
X0395461Y0200370D01*
X0396359Y0200228D01*
X0396813Y0200228D01*
X0397267Y0200228D01*
X0398165Y0200370D01*
X0399029Y0200651D01*
X0399838Y0201064D01*
X0400573Y0201598D01*
X0401215Y0202240D01*
X0401749Y0202975D01*
X0402162Y0203784D01*
X0402443Y0204648D01*
X0402585Y0205546D01*
X0402585Y0206000D01*
X0402585Y0206454D01*
X0402443Y0207352D01*
X0402162Y0208216D01*
X0401749Y0209025D01*
X0401215Y0209760D01*
X0400573Y0210402D01*
X0399838Y0210936D01*
X0399029Y0211349D01*
X0398165Y0211630D01*
X0397267Y0211772D01*
X0396813Y0211772D01*
X0396359Y0211772D01*
X0395461Y0211630D01*
X0394597Y0211349D01*
X0393788Y0210936D01*
X0393053Y0210402D01*
X0392874Y0210223D01*
X0391313Y0211784D01*
X0391313Y0220216D01*
X0392874Y0221777D01*
X0393053Y0221598D01*
X0393788Y0221064D01*
X0394597Y0220651D01*
X0395461Y0220370D01*
X0396359Y0220228D01*
X0396813Y0220228D01*
X0397267Y0220228D01*
X0398165Y0220370D01*
X0399029Y0220651D01*
X0399838Y0221064D01*
X0400573Y0221598D01*
X0401215Y0222240D01*
X0401749Y0222975D01*
X0402162Y0223784D01*
X0402443Y0224648D01*
X0402585Y0225546D01*
X0402585Y0226000D01*
X0402585Y0226454D01*
X0402443Y0227352D01*
X0402162Y0228216D01*
X0401749Y0229025D01*
X0401215Y0229760D01*
X0400573Y0230402D01*
X0399838Y0230936D01*
X0399029Y0231349D01*
X0398165Y0231630D01*
X0397267Y0231772D01*
X0396813Y0231772D01*
X0396359Y0231772D01*
X0395461Y0231630D01*
X0394597Y0231349D01*
X0393788Y0230936D01*
X0393053Y0230402D01*
X0392874Y0230223D01*
X0392637Y0230460D01*
X0396454Y0234277D01*
X0401313Y0234500D01*
X0406313Y0234000D01*
X0406020Y0190571D01*
X0403998Y0188549D01*
X0403313Y0186895D01*
X0403313Y0163864D01*
X0399129Y0159680D01*
X0391313Y0159000D01*
X0391238Y0160141D01*
X0392874Y0161777D01*
X0393053Y0161598D01*
X0393788Y0161064D01*
X0394597Y0160651D01*
X0395461Y0160370D01*
X0396359Y0160228D01*
X0396813Y0160228D01*
X0397267Y0160228D01*
X0398165Y0160370D01*
X0399029Y0160651D01*
X0399838Y0161064D01*
X0400573Y0161598D01*
X0401215Y0162240D01*
X0401749Y0162975D01*
X0402162Y0163784D01*
X0402443Y0164648D01*
X0402585Y0165546D01*
X0402585Y0166000D01*
X0402585Y0166454D01*
X0402443Y0167352D01*
X0402162Y0168216D01*
X0401749Y0169025D01*
X0401215Y0169760D01*
X0400573Y0170402D01*
X0399838Y0170936D01*
X0399029Y0171349D01*
X0398165Y0171630D01*
X0397267Y0171772D01*
X0396813Y0171772D01*
X0396359Y0171772D01*
X0395461Y0171630D01*
X0394597Y0171349D01*
X0393788Y0170936D01*
X0393053Y0170402D01*
X0392874Y0170223D01*
X0391313Y0171784D01*
X0391313Y0180216D01*
X0392874Y0181777D01*
X0393053Y0181598D01*
X0393788Y0181064D01*
X0394597Y0180651D01*
X0395461Y0180370D01*
X0396359Y0180228D01*
X0396813Y0180228D01*
X0397267Y0180228D01*
X0398165Y0180370D01*
X0399029Y0180651D01*
X0399838Y0181064D01*
X0400573Y0181598D01*
X0401215Y0182240D01*
X0401749Y0182975D01*
X0402162Y0183784D01*
X0402443Y0184648D01*
X0402585Y0185546D01*
X0402585Y0186000D01*
X0402585Y0186454D01*
X0402443Y0187352D01*
X0402162Y0188216D01*
X0401749Y0189025D01*
X0401215Y0189760D01*
X0400573Y0190402D01*
X0399838Y0190936D01*
X0399029Y0191349D01*
X0398165Y0191630D01*
X0397267Y0191772D01*
X0396813Y0191772D01*
X0396359Y0191772D01*
X0395461Y0191630D01*
X0394597Y0191349D01*
X0393788Y0190936D01*
X0393053Y0190402D01*
X0392874Y0190223D01*
X0390932Y0192165D01*
X0388259Y0193272D01*
X0385367Y0193272D01*
X0382694Y0192165D01*
X0381813Y0191284D01*
X0380932Y0192165D01*
X0378259Y0193272D01*
X0375367Y0193272D01*
X0373010Y0192296D01*
X0372567Y0192739D01*
X0371281Y0193272D01*
X0362345Y0193272D01*
X0361059Y0192739D01*
X0360074Y0191754D01*
X0359541Y0190468D01*
X0359541Y0188167D01*
X0359541Y0188860D02*
X0355168Y0188860D01*
X0353669Y0190859D02*
X0359703Y0190859D01*
X0361344Y0192857D02*
X0352170Y0192857D01*
X0350671Y0194856D02*
X0406049Y0194856D01*
X0406062Y0196854D02*
X0349215Y0196854D01*
X0347816Y0198853D02*
X0362045Y0198853D01*
X0359823Y0200851D02*
X0354421Y0200851D01*
X0351813Y0200851D02*
X0351813Y0200851D01*
X0351813Y0200228D02*
X0351813Y0206000D01*
X0351813Y0226000D01*
X0357585Y0226000D01*
X0351813Y0226000D01*
X0351813Y0226000D01*
X0351813Y0220228D01*
X0351813Y0226000D01*
X0351813Y0226000D01*
X0351813Y0224833D02*
X0351813Y0224833D01*
X0351813Y0222835D02*
X0351813Y0222835D01*
X0351813Y0220836D02*
X0351813Y0220836D01*
X0354392Y0220836D02*
X0359830Y0220836D01*
X0359541Y0222835D02*
X0356647Y0222835D01*
X0357472Y0224833D02*
X0359541Y0224833D01*
X0359541Y0226832D02*
X0357525Y0226832D01*
X0356849Y0228830D02*
X0359541Y0228830D01*
X0349234Y0220836D02*
X0346933Y0220836D01*
X0346313Y0218838D02*
X0362081Y0218838D01*
X0361308Y0212842D02*
X0346313Y0212842D01*
X0346313Y0214841D02*
X0382313Y0214841D01*
X0382313Y0216839D02*
X0346313Y0216839D01*
X0347253Y0210844D02*
X0348660Y0210844D01*
X0351813Y0210844D02*
X0351813Y0210844D01*
X0351813Y0211772D02*
X0351813Y0206000D01*
X0351813Y0206000D01*
X0351813Y0211772D01*
X0351813Y0208845D02*
X0351813Y0208845D01*
X0351813Y0206847D02*
X0351813Y0206847D01*
X0351813Y0206000D02*
X0357585Y0206000D01*
X0351813Y0206000D01*
X0351813Y0206000D01*
X0351813Y0206000D01*
X0351813Y0200228D01*
X0351813Y0202850D02*
X0351813Y0202850D01*
X0351813Y0204848D02*
X0351813Y0204848D01*
X0349205Y0200851D02*
X0346948Y0200851D01*
X0341813Y0206000D02*
X0341813Y0226000D01*
X0341813Y0229750D01*
X0345563Y0233500D01*
X0380563Y0233500D01*
X0398063Y0251000D01*
X0416813Y0251000D01*
X0416813Y0241000D02*
X0396813Y0241000D01*
X0386813Y0231000D01*
X0386813Y0226000D01*
X0386813Y0206000D01*
X0391948Y0200851D02*
X0394205Y0200851D01*
X0396813Y0200851D02*
X0396813Y0200851D01*
X0396813Y0200228D02*
X0396813Y0206000D01*
X0396813Y0226000D01*
X0396813Y0226000D01*
X0396813Y0231772D01*
X0396813Y0226000D01*
X0402585Y0226000D01*
X0396813Y0226000D01*
X0396813Y0226000D01*
X0396813Y0220228D01*
X0396813Y0226000D01*
X0396813Y0226000D01*
X0396813Y0226832D02*
X0396813Y0226832D01*
X0396813Y0228830D02*
X0396813Y0228830D01*
X0396813Y0230829D02*
X0396813Y0230829D01*
X0395004Y0232827D02*
X0406305Y0232827D01*
X0406292Y0230829D02*
X0399986Y0230829D01*
X0401849Y0228830D02*
X0406278Y0228830D01*
X0406265Y0226832D02*
X0402525Y0226832D01*
X0402472Y0224833D02*
X0406251Y0224833D01*
X0406238Y0222835D02*
X0401647Y0222835D01*
X0399392Y0220836D02*
X0406224Y0220836D01*
X0406211Y0218838D02*
X0391313Y0218838D01*
X0391313Y0216839D02*
X0406197Y0216839D01*
X0406184Y0214841D02*
X0391313Y0214841D01*
X0391313Y0212842D02*
X0406170Y0212842D01*
X0406157Y0210844D02*
X0399966Y0210844D01*
X0401841Y0208845D02*
X0406143Y0208845D01*
X0406130Y0206847D02*
X0402523Y0206847D01*
X0402585Y0206000D02*
X0396813Y0206000D01*
X0396813Y0206000D01*
X0396813Y0211772D01*
X0396813Y0206000D01*
X0396813Y0206000D01*
X0402585Y0206000D01*
X0402474Y0204848D02*
X0406116Y0204848D01*
X0406103Y0202850D02*
X0401658Y0202850D01*
X0399421Y0200851D02*
X0406089Y0200851D01*
X0406076Y0198853D02*
X0388559Y0198853D01*
X0385067Y0198853D02*
X0378559Y0198853D01*
X0375067Y0198853D02*
X0371581Y0198853D01*
X0372282Y0192857D02*
X0374366Y0192857D01*
X0379260Y0192857D02*
X0384366Y0192857D01*
X0389260Y0192857D02*
X0406035Y0192857D01*
X0406022Y0190859D02*
X0399945Y0190859D01*
X0401833Y0188860D02*
X0404309Y0188860D01*
X0403313Y0186862D02*
X0402520Y0186862D01*
X0402585Y0186000D02*
X0396813Y0186000D01*
X0396813Y0166000D01*
X0396813Y0166000D01*
X0396813Y0171772D01*
X0396813Y0166000D01*
X0402585Y0166000D01*
X0396813Y0166000D01*
X0396813Y0166000D01*
X0396813Y0160228D01*
X0396813Y0166000D01*
X0396813Y0166000D01*
X0396813Y0166876D02*
X0396813Y0166876D01*
X0396813Y0164878D02*
X0396813Y0164878D01*
X0396813Y0162879D02*
X0396813Y0162879D01*
X0396813Y0160881D02*
X0396813Y0160881D01*
X0399479Y0160881D02*
X0400330Y0160881D01*
X0401680Y0162879D02*
X0402328Y0162879D01*
X0402479Y0164878D02*
X0403313Y0164878D01*
X0403313Y0166876D02*
X0402518Y0166876D01*
X0401826Y0168875D02*
X0403313Y0168875D01*
X0403313Y0170873D02*
X0399925Y0170873D01*
X0396813Y0170873D02*
X0396813Y0170873D01*
X0396813Y0168875D02*
X0396813Y0168875D01*
X0393701Y0170873D02*
X0392223Y0170873D01*
X0391313Y0172872D02*
X0403313Y0172872D01*
X0403313Y0174870D02*
X0391313Y0174870D01*
X0391313Y0176869D02*
X0403313Y0176869D01*
X0403313Y0178868D02*
X0391313Y0178868D01*
X0391963Y0180866D02*
X0394176Y0180866D01*
X0396813Y0180866D02*
X0396813Y0180866D01*
X0396813Y0180228D02*
X0396813Y0186000D01*
X0396813Y0186000D01*
X0396813Y0191772D01*
X0396813Y0186000D01*
X0396813Y0186000D01*
X0402585Y0186000D01*
X0402477Y0184863D02*
X0403313Y0184863D01*
X0403313Y0182865D02*
X0401669Y0182865D01*
X0403313Y0180866D02*
X0399450Y0180866D01*
X0396813Y0180228D02*
X0396813Y0186000D01*
X0396813Y0186000D01*
X0396813Y0186862D02*
X0396813Y0186862D01*
X0396813Y0188860D02*
X0396813Y0188860D01*
X0396813Y0190859D02*
X0396813Y0190859D01*
X0393681Y0190859D02*
X0392238Y0190859D01*
X0386813Y0186000D02*
X0386813Y0166000D01*
X0391978Y0160881D02*
X0394147Y0160881D01*
X0396813Y0182865D02*
X0396813Y0182865D01*
X0396813Y0184863D02*
X0396813Y0184863D01*
X0396813Y0200228D02*
X0396813Y0206000D01*
X0396813Y0206000D01*
X0396813Y0206847D02*
X0396813Y0206847D01*
X0396813Y0208845D02*
X0396813Y0208845D01*
X0396813Y0210844D02*
X0396813Y0210844D01*
X0393660Y0210844D02*
X0392253Y0210844D01*
X0396813Y0204848D02*
X0396813Y0204848D01*
X0396813Y0202850D02*
X0396813Y0202850D01*
X0382313Y0212842D02*
X0379296Y0212842D01*
X0374330Y0212842D02*
X0372318Y0212842D01*
X0371545Y0218838D02*
X0375102Y0218838D01*
X0378523Y0218838D02*
X0382313Y0218838D01*
X0391933Y0220836D02*
X0394234Y0220836D01*
X0396813Y0220836D02*
X0396813Y0220836D01*
X0396813Y0222835D02*
X0396813Y0222835D01*
X0396813Y0224833D02*
X0396813Y0224833D01*
X0393640Y0230829D02*
X0393006Y0230829D01*
X0373313Y0243500D02*
X0368313Y0238500D01*
X0304313Y0238500D01*
X0316813Y0233500D02*
X0326813Y0233500D01*
X0331813Y0228500D01*
X0331813Y0226000D01*
X0316813Y0233500D02*
X0306813Y0223500D01*
X0281813Y0223500D01*
X0278063Y0227250D01*
X0278063Y0234750D01*
X0277813Y0235000D01*
X0268063Y0236000D02*
X0268063Y0241625D01*
X0272438Y0246000D01*
X0359313Y0246000D01*
X0373313Y0245000D02*
X0373313Y0243500D01*
X0382438Y0253500D02*
X0386813Y0257875D01*
X0386813Y0261000D01*
X0382438Y0253500D02*
X0269938Y0253500D01*
X0258063Y0241625D01*
X0258063Y0236000D01*
X0257813Y0235000D01*
X0248063Y0234750D02*
X0247813Y0235000D01*
X0248063Y0234750D02*
X0248063Y0228500D01*
X0235563Y0216000D01*
X0223688Y0216000D01*
X0220563Y0212875D01*
X0220563Y0197250D01*
X0224313Y0193500D01*
X0264938Y0193500D01*
X0272938Y0185500D01*
X0282813Y0185500D01*
X0284813Y0183500D01*
X0276813Y0181000D02*
X0270313Y0181000D01*
X0265813Y0176500D01*
X0232813Y0176500D01*
X0224313Y0185375D02*
X0248188Y0185375D01*
X0248313Y0185500D01*
X0268063Y0199125D02*
X0268063Y0204750D01*
X0267813Y0205000D01*
X0268063Y0199125D02*
X0274688Y0192500D01*
X0295938Y0192500D01*
X0299938Y0188500D01*
X0324063Y0188500D01*
X0329813Y0194000D01*
X0331813Y0206000D02*
X0331813Y0212000D01*
X0327813Y0216000D01*
X0263063Y0216000D01*
X0258063Y0211000D01*
X0258063Y0206000D01*
X0257813Y0205000D01*
X0224313Y0185375D02*
X0215813Y0193875D01*
X0215813Y0236000D01*
X0226813Y0247000D01*
X0242813Y0247000D01*
X0227313Y0254000D02*
X0262813Y0254000D01*
X0266813Y0258000D01*
X0266813Y0261000D01*
X0268063Y0236000D02*
X0267813Y0235000D01*
X0227313Y0254000D02*
X0208063Y0234750D01*
X0208063Y0163750D01*
X0200813Y0156500D01*
X0184313Y0156500D01*
X0172313Y0140000D02*
X0198313Y0140000D01*
X0198813Y0140500D01*
X0198063Y0139750D01*
X0191313Y0133000D02*
X0177313Y0133000D01*
X0172313Y0140000D02*
X0168063Y0135750D01*
X0168063Y0123500D01*
X0167313Y0104000D01*
X0168063Y0122250D01*
X0168063Y0104750D01*
X0168063Y0086250D01*
X0175313Y0079000D01*
X0194813Y0079000D01*
X0196813Y0077000D01*
X0196813Y0071000D01*
X0208063Y0090000D02*
X0208063Y0092250D01*
X0201813Y0098500D01*
X0201813Y0099500D01*
X0191813Y0099500D02*
X0191438Y0099500D01*
X0189313Y0101625D01*
X0189313Y0112000D01*
X0195313Y0118000D01*
X0227313Y0118000D01*
X0231813Y0122500D01*
X0231813Y0131000D01*
X0238313Y0137500D01*
X0238313Y0147500D01*
X0231813Y0154000D01*
X0264313Y0146000D02*
X0239313Y0121000D01*
X0239313Y0108500D01*
X0269313Y0108500D01*
X0279313Y0108500D02*
X0279313Y0123500D01*
X0273688Y0131000D02*
X0269313Y0126625D01*
X0269313Y0123500D01*
X0273688Y0131000D02*
X0288063Y0131000D01*
X0301188Y0117875D01*
X0304313Y0126000D02*
X0295563Y0134750D01*
X0299313Y0138500D01*
X0295563Y0134750D02*
X0284313Y0146000D01*
X0274313Y0146000D02*
X0274313Y0163500D01*
X0276813Y0181000D02*
X0296813Y0161000D01*
X0329313Y0161000D01*
X0328313Y0161000D01*
X0329313Y0138500D02*
X0324313Y0133500D01*
X0324313Y0126000D01*
X0344313Y0123500D02*
X0344313Y0138500D01*
X0374313Y0121000D02*
X0374313Y0111000D01*
X0374313Y0101000D01*
X0384313Y0101000D02*
X0396813Y0101000D01*
X0406813Y0101000D02*
X0416813Y0101000D01*
X0426813Y0101000D02*
X0437313Y0101000D01*
X0437313Y0111000D02*
X0426813Y0111000D01*
X0416813Y0111000D02*
X0406813Y0111000D01*
X0396813Y0111000D02*
X0384313Y0111000D01*
X0384313Y0121000D02*
X0416813Y0121000D01*
X0426813Y0121000D02*
X0437313Y0121000D01*
X0437313Y0131000D02*
X0426813Y0131000D01*
X0359541Y0202850D02*
X0356658Y0202850D01*
X0357474Y0204848D02*
X0359541Y0204848D01*
X0359541Y0206847D02*
X0357523Y0206847D01*
X0356841Y0208845D02*
X0359541Y0208845D01*
X0359697Y0210844D02*
X0354966Y0210844D01*
X0426813Y0241000D02*
X0433063Y0241000D01*
X0438063Y0246000D01*
X0438063Y0263500D01*
X0423063Y0278500D01*
X0361813Y0278500D01*
X0346813Y0293500D01*
X0311813Y0293500D01*
X0306813Y0288500D01*
X0306813Y0281000D01*
X0326813Y0281000D02*
X0326813Y0286000D01*
X0329813Y0289000D01*
X0341313Y0289000D01*
X0366813Y0263500D01*
X0366813Y0261000D01*
X0226813Y0261000D02*
X0224938Y0259125D01*
X0224938Y0258500D01*
X0175563Y0209125D01*
X0146188Y0209125D01*
X0129313Y0226000D01*
X0129313Y0234000D01*
X0119313Y0234000D02*
X0119313Y0242000D01*
X0122313Y0245000D01*
X0187688Y0245000D01*
X0200563Y0257875D01*
X0200563Y0260750D01*
X0200813Y0261000D01*
X0190813Y0261000D02*
X0190813Y0259000D01*
X0181313Y0249500D01*
X0118438Y0249500D01*
X0109313Y0240375D01*
X0109313Y0234000D01*
X0099313Y0234000D02*
X0099313Y0244125D01*
X0104313Y0249125D01*
X0110938Y0249125D01*
X0115813Y0254000D01*
X0178313Y0254000D01*
X0180813Y0256500D01*
X0180813Y0261000D01*
X0210813Y0261000D02*
X0210813Y0251875D01*
X0173688Y0214750D01*
X0149563Y0214750D01*
X0139313Y0225000D01*
X0139313Y0234000D01*
X0149313Y0234000D02*
X0149313Y0226500D01*
X0156063Y0219750D01*
X0171188Y0219750D01*
X0181813Y0230375D01*
X0181813Y0233500D01*
X0181313Y0234000D01*
X0183813Y0196500D02*
X0183313Y0196000D01*
X0113688Y0196000D01*
X0099313Y0181625D01*
X0099313Y0174000D01*
X0109313Y0174000D02*
X0109313Y0182000D01*
X0118813Y0191500D01*
X0178813Y0191500D01*
X0196313Y0174000D01*
X0191313Y0133000D02*
X0198313Y0126000D01*
X0199313Y0111000D02*
X0198813Y0110500D01*
X0199313Y0111000D02*
X0208063Y0111000D01*
X0208813Y0110500D01*
X0208813Y0106500D01*
X0213688Y0101625D01*
X0219313Y0101625D01*
X0230563Y0090375D01*
X0230563Y0083500D01*
X0243063Y0071000D01*
X0239313Y0088500D02*
X0218813Y0109000D01*
X0218813Y0110500D01*
X0168063Y0104750D02*
X0167313Y0123500D01*
X0157313Y0104000D02*
X0156313Y0103000D01*
X0156313Y0083500D01*
X0146813Y0074000D01*
D24*
X0136813Y0072000D03*
X0141813Y0087000D03*
X0179813Y0087000D03*
X0198313Y0126000D03*
X0177313Y0133000D03*
X0184313Y0156500D03*
X0196313Y0174000D03*
X0183813Y0196500D03*
X0136813Y0203500D03*
X0094313Y0219500D03*
X0181313Y0234000D03*
X0242813Y0247000D03*
X0304313Y0238500D03*
X0359313Y0246000D03*
X0373313Y0245000D03*
X0329813Y0194000D03*
X0350813Y0171500D03*
X0329313Y0161000D03*
X0284813Y0183500D03*
X0248313Y0185500D03*
X0232813Y0176500D03*
X0231813Y0154000D03*
X0301313Y0102500D03*
X0103813Y0072000D03*
D25*
X0108813Y0091500D02*
X0122313Y0091500D01*
X0127313Y0096500D01*
X0127313Y0104000D01*
X0117313Y0104000D02*
X0107813Y0113500D01*
X0107813Y0140000D01*
X0119313Y0151500D01*
X0125813Y0151500D01*
X0139313Y0165000D01*
X0139313Y0174000D01*
X0129313Y0174000D02*
X0129313Y0165500D01*
X0122813Y0159000D01*
X0116313Y0159000D01*
X0099813Y0142500D01*
X0099813Y0100500D01*
X0108813Y0091500D01*
X0117313Y0123500D02*
X0117813Y0124000D01*
X0117813Y0140000D01*
X0122313Y0144500D01*
X0128813Y0144500D01*
X0149313Y0165000D01*
X0149313Y0174000D01*
X0159313Y0174000D02*
X0159313Y0165000D01*
X0127313Y0133000D01*
X0127313Y0123500D01*
X0072313Y0171000D02*
X0074813Y0174000D01*
X0099313Y0174000D01*
D26*
X0092813Y0167500D01*
X0092813Y0118000D01*
X0089813Y0115000D01*
X0089813Y0109000D01*
X0083813Y0109000D02*
X0083813Y0101000D01*
X0099813Y0085000D01*
X0139813Y0085000D01*
X0141813Y0087000D01*
X0179813Y0087000D02*
X0195813Y0087000D01*
X0202813Y0080000D01*
X0223813Y0080000D01*
X0226813Y0077000D01*
X0226813Y0071000D01*
X0086813Y0124000D02*
X0086813Y0142000D01*
X0077813Y0151000D01*
X0072313Y0151000D01*
X0086813Y0124000D02*
X0077813Y0115000D01*
X0077813Y0109000D01*
D27*
X0103813Y0072000D02*
X0136813Y0072000D01*
X0136813Y0203500D02*
X0109813Y0203500D01*
X0094313Y0219500D01*
M02*
