G75*
%MOIN*%
%OFA0B0*%
%FSLAX25Y25*%
%IPPOS*%
%LPD*%
%AMOC8*
5,1,8,0,0,1.08239X$1,22.5*
%
%ADD10C,0.01600*%
%ADD11C,0.00000*%
D10*
X0083669Y0064144D02*
X0087349Y0060464D01*
X0090133Y0057680D02*
X0093813Y0054000D01*
X0097898Y0054000D01*
X0101835Y0054000D02*
X0105920Y0054000D01*
X0109857Y0054000D02*
X0113941Y0054000D01*
X0117878Y0054000D02*
X0121963Y0054000D01*
X0125900Y0054000D02*
X0129985Y0054000D01*
X0133922Y0054000D02*
X0138007Y0054000D01*
X0141944Y0054000D02*
X0146029Y0054000D01*
X0149966Y0054000D02*
X0154050Y0054000D01*
X0157987Y0054000D02*
X0162072Y0054000D01*
X0166009Y0054000D02*
X0170094Y0054000D01*
X0174031Y0054000D02*
X0178116Y0054000D01*
X0182053Y0054000D02*
X0186137Y0054000D01*
X0190074Y0054000D02*
X0194159Y0054000D01*
X0198096Y0054000D02*
X0202181Y0054000D01*
X0206118Y0054000D02*
X0210203Y0054000D01*
X0214140Y0054000D02*
X0218225Y0054000D01*
X0222162Y0054000D02*
X0226246Y0054000D01*
X0230183Y0054000D02*
X0234268Y0054000D01*
X0238205Y0054000D02*
X0242290Y0054000D01*
X0246227Y0054000D02*
X0250312Y0054000D01*
X0254249Y0054000D02*
X0258334Y0054000D01*
X0262271Y0054000D02*
X0266355Y0054000D01*
X0270292Y0054000D02*
X0274377Y0054000D01*
X0278314Y0054000D02*
X0282399Y0054000D01*
X0286336Y0054000D02*
X0290421Y0054000D01*
X0294358Y0054000D02*
X0298443Y0054000D01*
X0302380Y0054000D02*
X0306464Y0054000D01*
X0310401Y0054000D02*
X0314486Y0054000D01*
X0318423Y0054000D02*
X0322508Y0054000D01*
X0326445Y0054000D02*
X0330530Y0054000D01*
X0334467Y0054000D02*
X0338552Y0054000D01*
X0342489Y0054000D02*
X0346573Y0054000D01*
X0350510Y0054000D02*
X0354595Y0054000D01*
X0358532Y0054000D02*
X0362617Y0054000D01*
X0366554Y0054000D02*
X0370639Y0054000D01*
X0374576Y0054000D02*
X0378660Y0054000D01*
X0382597Y0054000D02*
X0386682Y0054000D01*
X0390619Y0054000D02*
X0394704Y0054000D01*
X0398641Y0054000D02*
X0402726Y0054000D01*
X0406663Y0054000D02*
X0410748Y0054000D01*
X0414685Y0054000D02*
X0418769Y0054000D01*
X0422706Y0054000D02*
X0426791Y0054000D01*
X0430728Y0054000D02*
X0434813Y0054000D01*
X0438290Y0057477D01*
X0441074Y0060261D02*
X0444552Y0063739D01*
X0447336Y0066523D02*
X0450813Y0070000D01*
X0450813Y0074144D01*
X0450813Y0078081D02*
X0450813Y0082224D01*
X0450813Y0086161D02*
X0450813Y0090305D01*
X0450813Y0094242D02*
X0450813Y0098386D01*
X0450813Y0102323D02*
X0450813Y0106467D01*
X0450813Y0110404D02*
X0450813Y0114547D01*
X0450813Y0118484D02*
X0450813Y0122628D01*
X0450813Y0126565D02*
X0450813Y0130709D01*
X0450813Y0134646D02*
X0450813Y0138789D01*
X0450813Y0142726D02*
X0450813Y0146870D01*
X0450813Y0150807D02*
X0450813Y0154951D01*
X0450813Y0158888D02*
X0450813Y0163031D01*
X0450813Y0166969D02*
X0450813Y0171112D01*
X0450813Y0175049D02*
X0450813Y0179193D01*
X0450813Y0183130D02*
X0450813Y0187274D01*
X0450813Y0191211D02*
X0450813Y0195354D01*
X0450813Y0199291D02*
X0450813Y0203435D01*
X0450813Y0207372D02*
X0450813Y0211516D01*
X0450813Y0215453D02*
X0450813Y0219596D01*
X0450813Y0223533D02*
X0450813Y0227677D01*
X0450813Y0231614D02*
X0450813Y0235758D01*
X0450813Y0239695D02*
X0450813Y0243839D01*
X0450813Y0247776D02*
X0450813Y0251919D01*
X0450813Y0255856D02*
X0450813Y0260000D01*
X0446651Y0264162D01*
X0443867Y0266946D02*
X0439705Y0271108D01*
X0436921Y0273892D02*
X0432759Y0278054D01*
X0429975Y0280838D02*
X0425813Y0285000D01*
X0421758Y0285000D01*
X0417821Y0285000D02*
X0413766Y0285000D01*
X0409829Y0285000D02*
X0405774Y0285000D01*
X0401837Y0285000D02*
X0397782Y0285000D01*
X0393845Y0285000D02*
X0389789Y0285000D01*
X0385852Y0285000D02*
X0381797Y0285000D01*
X0377860Y0285000D02*
X0373805Y0285000D01*
X0369868Y0285000D02*
X0365813Y0285000D01*
X0362669Y0288144D01*
X0359885Y0290928D02*
X0356741Y0294072D01*
X0353957Y0296856D02*
X0350813Y0300000D01*
X0346210Y0300000D01*
X0342273Y0300000D02*
X0337671Y0300000D01*
X0333734Y0300000D02*
X0329131Y0300000D01*
X0325194Y0300000D02*
X0320591Y0300000D01*
X0316654Y0300000D02*
X0312051Y0300000D01*
X0308114Y0300000D02*
X0303512Y0300000D01*
X0299575Y0300000D02*
X0294972Y0300000D01*
X0291035Y0300000D02*
X0286432Y0300000D01*
X0282495Y0300000D02*
X0277892Y0300000D01*
X0273955Y0300000D02*
X0269353Y0300000D01*
X0265416Y0300000D02*
X0260813Y0300000D01*
X0256205Y0295392D01*
X0253421Y0292608D02*
X0248813Y0288000D01*
X0244803Y0288000D01*
X0240866Y0288000D02*
X0236856Y0288000D01*
X0232919Y0288000D02*
X0228909Y0288000D01*
X0224972Y0288000D02*
X0220963Y0288000D01*
X0217026Y0288000D02*
X0213016Y0288000D01*
X0209079Y0288000D02*
X0205069Y0288000D01*
X0201132Y0288000D02*
X0197122Y0288000D01*
X0193185Y0288000D02*
X0189175Y0288000D01*
X0185238Y0288000D02*
X0181228Y0288000D01*
X0177291Y0288000D02*
X0173282Y0288000D01*
X0169345Y0288000D02*
X0165335Y0288000D01*
X0161398Y0288000D02*
X0157388Y0288000D01*
X0153451Y0288000D02*
X0149441Y0288000D01*
X0145504Y0288000D02*
X0141494Y0288000D01*
X0137557Y0288000D02*
X0133547Y0288000D01*
X0129610Y0288000D02*
X0125600Y0288000D01*
X0121663Y0288000D02*
X0117654Y0288000D01*
X0113717Y0288000D02*
X0109707Y0288000D01*
X0105770Y0288000D02*
X0101760Y0288000D01*
X0097823Y0288000D02*
X0093813Y0288000D01*
X0090133Y0284320D01*
X0087349Y0281536D02*
X0083669Y0277856D01*
X0080885Y0275072D02*
X0077205Y0271392D01*
X0074421Y0268608D02*
X0070741Y0264928D01*
X0067957Y0262144D02*
X0064277Y0258464D01*
X0061493Y0255680D02*
X0057813Y0252000D01*
X0057813Y0248035D01*
X0057813Y0244098D02*
X0057813Y0240133D01*
X0057813Y0236196D02*
X0057813Y0232232D01*
X0057813Y0228295D02*
X0057813Y0224330D01*
X0057813Y0220393D02*
X0057813Y0216428D01*
X0057813Y0212491D02*
X0057813Y0208526D01*
X0057813Y0204589D02*
X0057813Y0200625D01*
X0057813Y0196688D02*
X0057813Y0192723D01*
X0057813Y0188786D02*
X0057813Y0184821D01*
X0057813Y0180884D02*
X0057813Y0176919D01*
X0057813Y0172982D02*
X0057813Y0169018D01*
X0057813Y0165081D02*
X0057813Y0161116D01*
X0057813Y0157179D02*
X0057813Y0153214D01*
X0057813Y0149277D02*
X0057813Y0145312D01*
X0057813Y0141375D02*
X0057813Y0137411D01*
X0057813Y0133474D02*
X0057813Y0129509D01*
X0057813Y0125572D02*
X0057813Y0121607D01*
X0057813Y0117670D02*
X0057813Y0113705D01*
X0057813Y0109768D02*
X0057813Y0105804D01*
X0057813Y0101867D02*
X0057813Y0097902D01*
X0057813Y0093965D02*
X0057813Y0090000D01*
X0061493Y0086320D01*
X0064277Y0083536D02*
X0067957Y0079856D01*
X0070741Y0077072D02*
X0074421Y0073392D01*
X0077205Y0070608D02*
X0080885Y0066928D01*
D11*
X0300514Y0091000D02*
X0300516Y0091158D01*
X0300522Y0091316D01*
X0300532Y0091474D01*
X0300546Y0091632D01*
X0300564Y0091789D01*
X0300585Y0091946D01*
X0300611Y0092102D01*
X0300641Y0092258D01*
X0300674Y0092413D01*
X0300712Y0092566D01*
X0300753Y0092719D01*
X0300798Y0092871D01*
X0300847Y0093022D01*
X0300900Y0093171D01*
X0300956Y0093319D01*
X0301016Y0093465D01*
X0301080Y0093610D01*
X0301148Y0093753D01*
X0301219Y0093895D01*
X0301293Y0094035D01*
X0301371Y0094172D01*
X0301453Y0094308D01*
X0301537Y0094442D01*
X0301626Y0094573D01*
X0301717Y0094702D01*
X0301812Y0094829D01*
X0301909Y0094954D01*
X0302010Y0095076D01*
X0302114Y0095195D01*
X0302221Y0095312D01*
X0302331Y0095426D01*
X0302444Y0095537D01*
X0302559Y0095646D01*
X0302677Y0095751D01*
X0302798Y0095853D01*
X0302921Y0095953D01*
X0303047Y0096049D01*
X0303175Y0096142D01*
X0303305Y0096232D01*
X0303438Y0096318D01*
X0303573Y0096402D01*
X0303709Y0096481D01*
X0303848Y0096558D01*
X0303989Y0096630D01*
X0304131Y0096700D01*
X0304275Y0096765D01*
X0304421Y0096827D01*
X0304568Y0096885D01*
X0304717Y0096940D01*
X0304867Y0096991D01*
X0305018Y0097038D01*
X0305170Y0097081D01*
X0305323Y0097120D01*
X0305478Y0097156D01*
X0305633Y0097187D01*
X0305789Y0097215D01*
X0305945Y0097239D01*
X0306102Y0097259D01*
X0306260Y0097275D01*
X0306417Y0097287D01*
X0306576Y0097295D01*
X0306734Y0097299D01*
X0306892Y0097299D01*
X0307050Y0097295D01*
X0307209Y0097287D01*
X0307366Y0097275D01*
X0307524Y0097259D01*
X0307681Y0097239D01*
X0307837Y0097215D01*
X0307993Y0097187D01*
X0308148Y0097156D01*
X0308303Y0097120D01*
X0308456Y0097081D01*
X0308608Y0097038D01*
X0308759Y0096991D01*
X0308909Y0096940D01*
X0309058Y0096885D01*
X0309205Y0096827D01*
X0309351Y0096765D01*
X0309495Y0096700D01*
X0309637Y0096630D01*
X0309778Y0096558D01*
X0309917Y0096481D01*
X0310053Y0096402D01*
X0310188Y0096318D01*
X0310321Y0096232D01*
X0310451Y0096142D01*
X0310579Y0096049D01*
X0310705Y0095953D01*
X0310828Y0095853D01*
X0310949Y0095751D01*
X0311067Y0095646D01*
X0311182Y0095537D01*
X0311295Y0095426D01*
X0311405Y0095312D01*
X0311512Y0095195D01*
X0311616Y0095076D01*
X0311717Y0094954D01*
X0311814Y0094829D01*
X0311909Y0094702D01*
X0312000Y0094573D01*
X0312089Y0094442D01*
X0312173Y0094308D01*
X0312255Y0094172D01*
X0312333Y0094035D01*
X0312407Y0093895D01*
X0312478Y0093753D01*
X0312546Y0093610D01*
X0312610Y0093465D01*
X0312670Y0093319D01*
X0312726Y0093171D01*
X0312779Y0093022D01*
X0312828Y0092871D01*
X0312873Y0092719D01*
X0312914Y0092566D01*
X0312952Y0092413D01*
X0312985Y0092258D01*
X0313015Y0092102D01*
X0313041Y0091946D01*
X0313062Y0091789D01*
X0313080Y0091632D01*
X0313094Y0091474D01*
X0313104Y0091316D01*
X0313110Y0091158D01*
X0313112Y0091000D01*
X0313110Y0090842D01*
X0313104Y0090684D01*
X0313094Y0090526D01*
X0313080Y0090368D01*
X0313062Y0090211D01*
X0313041Y0090054D01*
X0313015Y0089898D01*
X0312985Y0089742D01*
X0312952Y0089587D01*
X0312914Y0089434D01*
X0312873Y0089281D01*
X0312828Y0089129D01*
X0312779Y0088978D01*
X0312726Y0088829D01*
X0312670Y0088681D01*
X0312610Y0088535D01*
X0312546Y0088390D01*
X0312478Y0088247D01*
X0312407Y0088105D01*
X0312333Y0087965D01*
X0312255Y0087828D01*
X0312173Y0087692D01*
X0312089Y0087558D01*
X0312000Y0087427D01*
X0311909Y0087298D01*
X0311814Y0087171D01*
X0311717Y0087046D01*
X0311616Y0086924D01*
X0311512Y0086805D01*
X0311405Y0086688D01*
X0311295Y0086574D01*
X0311182Y0086463D01*
X0311067Y0086354D01*
X0310949Y0086249D01*
X0310828Y0086147D01*
X0310705Y0086047D01*
X0310579Y0085951D01*
X0310451Y0085858D01*
X0310321Y0085768D01*
X0310188Y0085682D01*
X0310053Y0085598D01*
X0309917Y0085519D01*
X0309778Y0085442D01*
X0309637Y0085370D01*
X0309495Y0085300D01*
X0309351Y0085235D01*
X0309205Y0085173D01*
X0309058Y0085115D01*
X0308909Y0085060D01*
X0308759Y0085009D01*
X0308608Y0084962D01*
X0308456Y0084919D01*
X0308303Y0084880D01*
X0308148Y0084844D01*
X0307993Y0084813D01*
X0307837Y0084785D01*
X0307681Y0084761D01*
X0307524Y0084741D01*
X0307366Y0084725D01*
X0307209Y0084713D01*
X0307050Y0084705D01*
X0306892Y0084701D01*
X0306734Y0084701D01*
X0306576Y0084705D01*
X0306417Y0084713D01*
X0306260Y0084725D01*
X0306102Y0084741D01*
X0305945Y0084761D01*
X0305789Y0084785D01*
X0305633Y0084813D01*
X0305478Y0084844D01*
X0305323Y0084880D01*
X0305170Y0084919D01*
X0305018Y0084962D01*
X0304867Y0085009D01*
X0304717Y0085060D01*
X0304568Y0085115D01*
X0304421Y0085173D01*
X0304275Y0085235D01*
X0304131Y0085300D01*
X0303989Y0085370D01*
X0303848Y0085442D01*
X0303709Y0085519D01*
X0303573Y0085598D01*
X0303438Y0085682D01*
X0303305Y0085768D01*
X0303175Y0085858D01*
X0303047Y0085951D01*
X0302921Y0086047D01*
X0302798Y0086147D01*
X0302677Y0086249D01*
X0302559Y0086354D01*
X0302444Y0086463D01*
X0302331Y0086574D01*
X0302221Y0086688D01*
X0302114Y0086805D01*
X0302010Y0086924D01*
X0301909Y0087046D01*
X0301812Y0087171D01*
X0301717Y0087298D01*
X0301626Y0087427D01*
X0301537Y0087558D01*
X0301453Y0087692D01*
X0301371Y0087828D01*
X0301293Y0087965D01*
X0301219Y0088105D01*
X0301148Y0088247D01*
X0301080Y0088390D01*
X0301016Y0088535D01*
X0300956Y0088681D01*
X0300900Y0088829D01*
X0300847Y0088978D01*
X0300798Y0089129D01*
X0300753Y0089281D01*
X0300712Y0089434D01*
X0300674Y0089587D01*
X0300641Y0089742D01*
X0300611Y0089898D01*
X0300585Y0090054D01*
X0300564Y0090211D01*
X0300546Y0090368D01*
X0300532Y0090526D01*
X0300522Y0090684D01*
X0300516Y0090842D01*
X0300514Y0091000D01*
X0420514Y0071000D02*
X0420516Y0071158D01*
X0420522Y0071316D01*
X0420532Y0071474D01*
X0420546Y0071632D01*
X0420564Y0071789D01*
X0420585Y0071946D01*
X0420611Y0072102D01*
X0420641Y0072258D01*
X0420674Y0072413D01*
X0420712Y0072566D01*
X0420753Y0072719D01*
X0420798Y0072871D01*
X0420847Y0073022D01*
X0420900Y0073171D01*
X0420956Y0073319D01*
X0421016Y0073465D01*
X0421080Y0073610D01*
X0421148Y0073753D01*
X0421219Y0073895D01*
X0421293Y0074035D01*
X0421371Y0074172D01*
X0421453Y0074308D01*
X0421537Y0074442D01*
X0421626Y0074573D01*
X0421717Y0074702D01*
X0421812Y0074829D01*
X0421909Y0074954D01*
X0422010Y0075076D01*
X0422114Y0075195D01*
X0422221Y0075312D01*
X0422331Y0075426D01*
X0422444Y0075537D01*
X0422559Y0075646D01*
X0422677Y0075751D01*
X0422798Y0075853D01*
X0422921Y0075953D01*
X0423047Y0076049D01*
X0423175Y0076142D01*
X0423305Y0076232D01*
X0423438Y0076318D01*
X0423573Y0076402D01*
X0423709Y0076481D01*
X0423848Y0076558D01*
X0423989Y0076630D01*
X0424131Y0076700D01*
X0424275Y0076765D01*
X0424421Y0076827D01*
X0424568Y0076885D01*
X0424717Y0076940D01*
X0424867Y0076991D01*
X0425018Y0077038D01*
X0425170Y0077081D01*
X0425323Y0077120D01*
X0425478Y0077156D01*
X0425633Y0077187D01*
X0425789Y0077215D01*
X0425945Y0077239D01*
X0426102Y0077259D01*
X0426260Y0077275D01*
X0426417Y0077287D01*
X0426576Y0077295D01*
X0426734Y0077299D01*
X0426892Y0077299D01*
X0427050Y0077295D01*
X0427209Y0077287D01*
X0427366Y0077275D01*
X0427524Y0077259D01*
X0427681Y0077239D01*
X0427837Y0077215D01*
X0427993Y0077187D01*
X0428148Y0077156D01*
X0428303Y0077120D01*
X0428456Y0077081D01*
X0428608Y0077038D01*
X0428759Y0076991D01*
X0428909Y0076940D01*
X0429058Y0076885D01*
X0429205Y0076827D01*
X0429351Y0076765D01*
X0429495Y0076700D01*
X0429637Y0076630D01*
X0429778Y0076558D01*
X0429917Y0076481D01*
X0430053Y0076402D01*
X0430188Y0076318D01*
X0430321Y0076232D01*
X0430451Y0076142D01*
X0430579Y0076049D01*
X0430705Y0075953D01*
X0430828Y0075853D01*
X0430949Y0075751D01*
X0431067Y0075646D01*
X0431182Y0075537D01*
X0431295Y0075426D01*
X0431405Y0075312D01*
X0431512Y0075195D01*
X0431616Y0075076D01*
X0431717Y0074954D01*
X0431814Y0074829D01*
X0431909Y0074702D01*
X0432000Y0074573D01*
X0432089Y0074442D01*
X0432173Y0074308D01*
X0432255Y0074172D01*
X0432333Y0074035D01*
X0432407Y0073895D01*
X0432478Y0073753D01*
X0432546Y0073610D01*
X0432610Y0073465D01*
X0432670Y0073319D01*
X0432726Y0073171D01*
X0432779Y0073022D01*
X0432828Y0072871D01*
X0432873Y0072719D01*
X0432914Y0072566D01*
X0432952Y0072413D01*
X0432985Y0072258D01*
X0433015Y0072102D01*
X0433041Y0071946D01*
X0433062Y0071789D01*
X0433080Y0071632D01*
X0433094Y0071474D01*
X0433104Y0071316D01*
X0433110Y0071158D01*
X0433112Y0071000D01*
X0433110Y0070842D01*
X0433104Y0070684D01*
X0433094Y0070526D01*
X0433080Y0070368D01*
X0433062Y0070211D01*
X0433041Y0070054D01*
X0433015Y0069898D01*
X0432985Y0069742D01*
X0432952Y0069587D01*
X0432914Y0069434D01*
X0432873Y0069281D01*
X0432828Y0069129D01*
X0432779Y0068978D01*
X0432726Y0068829D01*
X0432670Y0068681D01*
X0432610Y0068535D01*
X0432546Y0068390D01*
X0432478Y0068247D01*
X0432407Y0068105D01*
X0432333Y0067965D01*
X0432255Y0067828D01*
X0432173Y0067692D01*
X0432089Y0067558D01*
X0432000Y0067427D01*
X0431909Y0067298D01*
X0431814Y0067171D01*
X0431717Y0067046D01*
X0431616Y0066924D01*
X0431512Y0066805D01*
X0431405Y0066688D01*
X0431295Y0066574D01*
X0431182Y0066463D01*
X0431067Y0066354D01*
X0430949Y0066249D01*
X0430828Y0066147D01*
X0430705Y0066047D01*
X0430579Y0065951D01*
X0430451Y0065858D01*
X0430321Y0065768D01*
X0430188Y0065682D01*
X0430053Y0065598D01*
X0429917Y0065519D01*
X0429778Y0065442D01*
X0429637Y0065370D01*
X0429495Y0065300D01*
X0429351Y0065235D01*
X0429205Y0065173D01*
X0429058Y0065115D01*
X0428909Y0065060D01*
X0428759Y0065009D01*
X0428608Y0064962D01*
X0428456Y0064919D01*
X0428303Y0064880D01*
X0428148Y0064844D01*
X0427993Y0064813D01*
X0427837Y0064785D01*
X0427681Y0064761D01*
X0427524Y0064741D01*
X0427366Y0064725D01*
X0427209Y0064713D01*
X0427050Y0064705D01*
X0426892Y0064701D01*
X0426734Y0064701D01*
X0426576Y0064705D01*
X0426417Y0064713D01*
X0426260Y0064725D01*
X0426102Y0064741D01*
X0425945Y0064761D01*
X0425789Y0064785D01*
X0425633Y0064813D01*
X0425478Y0064844D01*
X0425323Y0064880D01*
X0425170Y0064919D01*
X0425018Y0064962D01*
X0424867Y0065009D01*
X0424717Y0065060D01*
X0424568Y0065115D01*
X0424421Y0065173D01*
X0424275Y0065235D01*
X0424131Y0065300D01*
X0423989Y0065370D01*
X0423848Y0065442D01*
X0423709Y0065519D01*
X0423573Y0065598D01*
X0423438Y0065682D01*
X0423305Y0065768D01*
X0423175Y0065858D01*
X0423047Y0065951D01*
X0422921Y0066047D01*
X0422798Y0066147D01*
X0422677Y0066249D01*
X0422559Y0066354D01*
X0422444Y0066463D01*
X0422331Y0066574D01*
X0422221Y0066688D01*
X0422114Y0066805D01*
X0422010Y0066924D01*
X0421909Y0067046D01*
X0421812Y0067171D01*
X0421717Y0067298D01*
X0421626Y0067427D01*
X0421537Y0067558D01*
X0421453Y0067692D01*
X0421371Y0067828D01*
X0421293Y0067965D01*
X0421219Y0068105D01*
X0421148Y0068247D01*
X0421080Y0068390D01*
X0421016Y0068535D01*
X0420956Y0068681D01*
X0420900Y0068829D01*
X0420847Y0068978D01*
X0420798Y0069129D01*
X0420753Y0069281D01*
X0420712Y0069434D01*
X0420674Y0069587D01*
X0420641Y0069742D01*
X0420611Y0069898D01*
X0420585Y0070054D01*
X0420564Y0070211D01*
X0420546Y0070368D01*
X0420532Y0070526D01*
X0420522Y0070684D01*
X0420516Y0070842D01*
X0420514Y0071000D01*
X0300514Y0201000D02*
X0300516Y0201158D01*
X0300522Y0201316D01*
X0300532Y0201474D01*
X0300546Y0201632D01*
X0300564Y0201789D01*
X0300585Y0201946D01*
X0300611Y0202102D01*
X0300641Y0202258D01*
X0300674Y0202413D01*
X0300712Y0202566D01*
X0300753Y0202719D01*
X0300798Y0202871D01*
X0300847Y0203022D01*
X0300900Y0203171D01*
X0300956Y0203319D01*
X0301016Y0203465D01*
X0301080Y0203610D01*
X0301148Y0203753D01*
X0301219Y0203895D01*
X0301293Y0204035D01*
X0301371Y0204172D01*
X0301453Y0204308D01*
X0301537Y0204442D01*
X0301626Y0204573D01*
X0301717Y0204702D01*
X0301812Y0204829D01*
X0301909Y0204954D01*
X0302010Y0205076D01*
X0302114Y0205195D01*
X0302221Y0205312D01*
X0302331Y0205426D01*
X0302444Y0205537D01*
X0302559Y0205646D01*
X0302677Y0205751D01*
X0302798Y0205853D01*
X0302921Y0205953D01*
X0303047Y0206049D01*
X0303175Y0206142D01*
X0303305Y0206232D01*
X0303438Y0206318D01*
X0303573Y0206402D01*
X0303709Y0206481D01*
X0303848Y0206558D01*
X0303989Y0206630D01*
X0304131Y0206700D01*
X0304275Y0206765D01*
X0304421Y0206827D01*
X0304568Y0206885D01*
X0304717Y0206940D01*
X0304867Y0206991D01*
X0305018Y0207038D01*
X0305170Y0207081D01*
X0305323Y0207120D01*
X0305478Y0207156D01*
X0305633Y0207187D01*
X0305789Y0207215D01*
X0305945Y0207239D01*
X0306102Y0207259D01*
X0306260Y0207275D01*
X0306417Y0207287D01*
X0306576Y0207295D01*
X0306734Y0207299D01*
X0306892Y0207299D01*
X0307050Y0207295D01*
X0307209Y0207287D01*
X0307366Y0207275D01*
X0307524Y0207259D01*
X0307681Y0207239D01*
X0307837Y0207215D01*
X0307993Y0207187D01*
X0308148Y0207156D01*
X0308303Y0207120D01*
X0308456Y0207081D01*
X0308608Y0207038D01*
X0308759Y0206991D01*
X0308909Y0206940D01*
X0309058Y0206885D01*
X0309205Y0206827D01*
X0309351Y0206765D01*
X0309495Y0206700D01*
X0309637Y0206630D01*
X0309778Y0206558D01*
X0309917Y0206481D01*
X0310053Y0206402D01*
X0310188Y0206318D01*
X0310321Y0206232D01*
X0310451Y0206142D01*
X0310579Y0206049D01*
X0310705Y0205953D01*
X0310828Y0205853D01*
X0310949Y0205751D01*
X0311067Y0205646D01*
X0311182Y0205537D01*
X0311295Y0205426D01*
X0311405Y0205312D01*
X0311512Y0205195D01*
X0311616Y0205076D01*
X0311717Y0204954D01*
X0311814Y0204829D01*
X0311909Y0204702D01*
X0312000Y0204573D01*
X0312089Y0204442D01*
X0312173Y0204308D01*
X0312255Y0204172D01*
X0312333Y0204035D01*
X0312407Y0203895D01*
X0312478Y0203753D01*
X0312546Y0203610D01*
X0312610Y0203465D01*
X0312670Y0203319D01*
X0312726Y0203171D01*
X0312779Y0203022D01*
X0312828Y0202871D01*
X0312873Y0202719D01*
X0312914Y0202566D01*
X0312952Y0202413D01*
X0312985Y0202258D01*
X0313015Y0202102D01*
X0313041Y0201946D01*
X0313062Y0201789D01*
X0313080Y0201632D01*
X0313094Y0201474D01*
X0313104Y0201316D01*
X0313110Y0201158D01*
X0313112Y0201000D01*
X0313110Y0200842D01*
X0313104Y0200684D01*
X0313094Y0200526D01*
X0313080Y0200368D01*
X0313062Y0200211D01*
X0313041Y0200054D01*
X0313015Y0199898D01*
X0312985Y0199742D01*
X0312952Y0199587D01*
X0312914Y0199434D01*
X0312873Y0199281D01*
X0312828Y0199129D01*
X0312779Y0198978D01*
X0312726Y0198829D01*
X0312670Y0198681D01*
X0312610Y0198535D01*
X0312546Y0198390D01*
X0312478Y0198247D01*
X0312407Y0198105D01*
X0312333Y0197965D01*
X0312255Y0197828D01*
X0312173Y0197692D01*
X0312089Y0197558D01*
X0312000Y0197427D01*
X0311909Y0197298D01*
X0311814Y0197171D01*
X0311717Y0197046D01*
X0311616Y0196924D01*
X0311512Y0196805D01*
X0311405Y0196688D01*
X0311295Y0196574D01*
X0311182Y0196463D01*
X0311067Y0196354D01*
X0310949Y0196249D01*
X0310828Y0196147D01*
X0310705Y0196047D01*
X0310579Y0195951D01*
X0310451Y0195858D01*
X0310321Y0195768D01*
X0310188Y0195682D01*
X0310053Y0195598D01*
X0309917Y0195519D01*
X0309778Y0195442D01*
X0309637Y0195370D01*
X0309495Y0195300D01*
X0309351Y0195235D01*
X0309205Y0195173D01*
X0309058Y0195115D01*
X0308909Y0195060D01*
X0308759Y0195009D01*
X0308608Y0194962D01*
X0308456Y0194919D01*
X0308303Y0194880D01*
X0308148Y0194844D01*
X0307993Y0194813D01*
X0307837Y0194785D01*
X0307681Y0194761D01*
X0307524Y0194741D01*
X0307366Y0194725D01*
X0307209Y0194713D01*
X0307050Y0194705D01*
X0306892Y0194701D01*
X0306734Y0194701D01*
X0306576Y0194705D01*
X0306417Y0194713D01*
X0306260Y0194725D01*
X0306102Y0194741D01*
X0305945Y0194761D01*
X0305789Y0194785D01*
X0305633Y0194813D01*
X0305478Y0194844D01*
X0305323Y0194880D01*
X0305170Y0194919D01*
X0305018Y0194962D01*
X0304867Y0195009D01*
X0304717Y0195060D01*
X0304568Y0195115D01*
X0304421Y0195173D01*
X0304275Y0195235D01*
X0304131Y0195300D01*
X0303989Y0195370D01*
X0303848Y0195442D01*
X0303709Y0195519D01*
X0303573Y0195598D01*
X0303438Y0195682D01*
X0303305Y0195768D01*
X0303175Y0195858D01*
X0303047Y0195951D01*
X0302921Y0196047D01*
X0302798Y0196147D01*
X0302677Y0196249D01*
X0302559Y0196354D01*
X0302444Y0196463D01*
X0302331Y0196574D01*
X0302221Y0196688D01*
X0302114Y0196805D01*
X0302010Y0196924D01*
X0301909Y0197046D01*
X0301812Y0197171D01*
X0301717Y0197298D01*
X0301626Y0197427D01*
X0301537Y0197558D01*
X0301453Y0197692D01*
X0301371Y0197828D01*
X0301293Y0197965D01*
X0301219Y0198105D01*
X0301148Y0198247D01*
X0301080Y0198390D01*
X0301016Y0198535D01*
X0300956Y0198681D01*
X0300900Y0198829D01*
X0300847Y0198978D01*
X0300798Y0199129D01*
X0300753Y0199281D01*
X0300712Y0199434D01*
X0300674Y0199587D01*
X0300641Y0199742D01*
X0300611Y0199898D01*
X0300585Y0200054D01*
X0300564Y0200211D01*
X0300546Y0200368D01*
X0300532Y0200526D01*
X0300522Y0200684D01*
X0300516Y0200842D01*
X0300514Y0201000D01*
X0395514Y0261000D02*
X0395516Y0261158D01*
X0395522Y0261316D01*
X0395532Y0261474D01*
X0395546Y0261632D01*
X0395564Y0261789D01*
X0395585Y0261946D01*
X0395611Y0262102D01*
X0395641Y0262258D01*
X0395674Y0262413D01*
X0395712Y0262566D01*
X0395753Y0262719D01*
X0395798Y0262871D01*
X0395847Y0263022D01*
X0395900Y0263171D01*
X0395956Y0263319D01*
X0396016Y0263465D01*
X0396080Y0263610D01*
X0396148Y0263753D01*
X0396219Y0263895D01*
X0396293Y0264035D01*
X0396371Y0264172D01*
X0396453Y0264308D01*
X0396537Y0264442D01*
X0396626Y0264573D01*
X0396717Y0264702D01*
X0396812Y0264829D01*
X0396909Y0264954D01*
X0397010Y0265076D01*
X0397114Y0265195D01*
X0397221Y0265312D01*
X0397331Y0265426D01*
X0397444Y0265537D01*
X0397559Y0265646D01*
X0397677Y0265751D01*
X0397798Y0265853D01*
X0397921Y0265953D01*
X0398047Y0266049D01*
X0398175Y0266142D01*
X0398305Y0266232D01*
X0398438Y0266318D01*
X0398573Y0266402D01*
X0398709Y0266481D01*
X0398848Y0266558D01*
X0398989Y0266630D01*
X0399131Y0266700D01*
X0399275Y0266765D01*
X0399421Y0266827D01*
X0399568Y0266885D01*
X0399717Y0266940D01*
X0399867Y0266991D01*
X0400018Y0267038D01*
X0400170Y0267081D01*
X0400323Y0267120D01*
X0400478Y0267156D01*
X0400633Y0267187D01*
X0400789Y0267215D01*
X0400945Y0267239D01*
X0401102Y0267259D01*
X0401260Y0267275D01*
X0401417Y0267287D01*
X0401576Y0267295D01*
X0401734Y0267299D01*
X0401892Y0267299D01*
X0402050Y0267295D01*
X0402209Y0267287D01*
X0402366Y0267275D01*
X0402524Y0267259D01*
X0402681Y0267239D01*
X0402837Y0267215D01*
X0402993Y0267187D01*
X0403148Y0267156D01*
X0403303Y0267120D01*
X0403456Y0267081D01*
X0403608Y0267038D01*
X0403759Y0266991D01*
X0403909Y0266940D01*
X0404058Y0266885D01*
X0404205Y0266827D01*
X0404351Y0266765D01*
X0404495Y0266700D01*
X0404637Y0266630D01*
X0404778Y0266558D01*
X0404917Y0266481D01*
X0405053Y0266402D01*
X0405188Y0266318D01*
X0405321Y0266232D01*
X0405451Y0266142D01*
X0405579Y0266049D01*
X0405705Y0265953D01*
X0405828Y0265853D01*
X0405949Y0265751D01*
X0406067Y0265646D01*
X0406182Y0265537D01*
X0406295Y0265426D01*
X0406405Y0265312D01*
X0406512Y0265195D01*
X0406616Y0265076D01*
X0406717Y0264954D01*
X0406814Y0264829D01*
X0406909Y0264702D01*
X0407000Y0264573D01*
X0407089Y0264442D01*
X0407173Y0264308D01*
X0407255Y0264172D01*
X0407333Y0264035D01*
X0407407Y0263895D01*
X0407478Y0263753D01*
X0407546Y0263610D01*
X0407610Y0263465D01*
X0407670Y0263319D01*
X0407726Y0263171D01*
X0407779Y0263022D01*
X0407828Y0262871D01*
X0407873Y0262719D01*
X0407914Y0262566D01*
X0407952Y0262413D01*
X0407985Y0262258D01*
X0408015Y0262102D01*
X0408041Y0261946D01*
X0408062Y0261789D01*
X0408080Y0261632D01*
X0408094Y0261474D01*
X0408104Y0261316D01*
X0408110Y0261158D01*
X0408112Y0261000D01*
X0408110Y0260842D01*
X0408104Y0260684D01*
X0408094Y0260526D01*
X0408080Y0260368D01*
X0408062Y0260211D01*
X0408041Y0260054D01*
X0408015Y0259898D01*
X0407985Y0259742D01*
X0407952Y0259587D01*
X0407914Y0259434D01*
X0407873Y0259281D01*
X0407828Y0259129D01*
X0407779Y0258978D01*
X0407726Y0258829D01*
X0407670Y0258681D01*
X0407610Y0258535D01*
X0407546Y0258390D01*
X0407478Y0258247D01*
X0407407Y0258105D01*
X0407333Y0257965D01*
X0407255Y0257828D01*
X0407173Y0257692D01*
X0407089Y0257558D01*
X0407000Y0257427D01*
X0406909Y0257298D01*
X0406814Y0257171D01*
X0406717Y0257046D01*
X0406616Y0256924D01*
X0406512Y0256805D01*
X0406405Y0256688D01*
X0406295Y0256574D01*
X0406182Y0256463D01*
X0406067Y0256354D01*
X0405949Y0256249D01*
X0405828Y0256147D01*
X0405705Y0256047D01*
X0405579Y0255951D01*
X0405451Y0255858D01*
X0405321Y0255768D01*
X0405188Y0255682D01*
X0405053Y0255598D01*
X0404917Y0255519D01*
X0404778Y0255442D01*
X0404637Y0255370D01*
X0404495Y0255300D01*
X0404351Y0255235D01*
X0404205Y0255173D01*
X0404058Y0255115D01*
X0403909Y0255060D01*
X0403759Y0255009D01*
X0403608Y0254962D01*
X0403456Y0254919D01*
X0403303Y0254880D01*
X0403148Y0254844D01*
X0402993Y0254813D01*
X0402837Y0254785D01*
X0402681Y0254761D01*
X0402524Y0254741D01*
X0402366Y0254725D01*
X0402209Y0254713D01*
X0402050Y0254705D01*
X0401892Y0254701D01*
X0401734Y0254701D01*
X0401576Y0254705D01*
X0401417Y0254713D01*
X0401260Y0254725D01*
X0401102Y0254741D01*
X0400945Y0254761D01*
X0400789Y0254785D01*
X0400633Y0254813D01*
X0400478Y0254844D01*
X0400323Y0254880D01*
X0400170Y0254919D01*
X0400018Y0254962D01*
X0399867Y0255009D01*
X0399717Y0255060D01*
X0399568Y0255115D01*
X0399421Y0255173D01*
X0399275Y0255235D01*
X0399131Y0255300D01*
X0398989Y0255370D01*
X0398848Y0255442D01*
X0398709Y0255519D01*
X0398573Y0255598D01*
X0398438Y0255682D01*
X0398305Y0255768D01*
X0398175Y0255858D01*
X0398047Y0255951D01*
X0397921Y0256047D01*
X0397798Y0256147D01*
X0397677Y0256249D01*
X0397559Y0256354D01*
X0397444Y0256463D01*
X0397331Y0256574D01*
X0397221Y0256688D01*
X0397114Y0256805D01*
X0397010Y0256924D01*
X0396909Y0257046D01*
X0396812Y0257171D01*
X0396717Y0257298D01*
X0396626Y0257427D01*
X0396537Y0257558D01*
X0396453Y0257692D01*
X0396371Y0257828D01*
X0396293Y0257965D01*
X0396219Y0258105D01*
X0396148Y0258247D01*
X0396080Y0258390D01*
X0396016Y0258535D01*
X0395956Y0258681D01*
X0395900Y0258829D01*
X0395847Y0258978D01*
X0395798Y0259129D01*
X0395753Y0259281D01*
X0395712Y0259434D01*
X0395674Y0259587D01*
X0395641Y0259742D01*
X0395611Y0259898D01*
X0395585Y0260054D01*
X0395564Y0260211D01*
X0395546Y0260368D01*
X0395532Y0260526D01*
X0395522Y0260684D01*
X0395516Y0260842D01*
X0395514Y0261000D01*
M02*
