%
M48
M72
T01C0.03200
T02C0.03228
T03C0.03543
T04C0.04000
T05C0.05500
T06C0.12598
%
T01
X103813Y72000
X136813Y72000
X191813Y99500
X201813Y99500
X208063Y90000
X218063Y90000
X239313Y88500
X239313Y108500
X228813Y110500
X218813Y110500
X208813Y110500
X198813Y110500
X198313Y126000
X198813Y140500
X208813Y140500
X218813Y140500
X228813Y140500
X231813Y154000
X232813Y176500
X248313Y185500
X247813Y205000
X237813Y205000
X227813Y205000
X257813Y205000
X267813Y205000
X277813Y205000
X287813Y205000
X284813Y183500
X274313Y173500
X274313Y163500
X274313Y146000
X264313Y146000
X284313Y146000
X304313Y126000
X324313Y126000
X344313Y123500
X354313Y123500
X354313Y138500
X344313Y138500
X329313Y161000
X350813Y171500
X329813Y194000
X287813Y235000
X277813Y235000
X267813Y235000
X257813Y235000
X247813Y235000
X237813Y235000
X227813Y235000
X242813Y247000
X304313Y238500
X359313Y246000
X373313Y245000
X196313Y174000
X184313Y156500
X177313Y133000
X183813Y196500
X136813Y203500
X94313Y219500
X181313Y234000
X269313Y123500
X279313Y123500
X279313Y108500
X269313Y108500
X289313Y108500
X301313Y102500
X331813Y98500
X351813Y98500
X396813Y101000
X406813Y101000
X406813Y111000
X396813Y111000
T02
X141813Y87000
X179813Y87000
T03
X299313Y138500
X329313Y138500
X324313Y111000
X354313Y111000
X396813Y166000
X386813Y166000
X376813Y166000
X366813Y166000
X366813Y186000
X376813Y186000
X386813Y186000
X396813Y186000
X396813Y206000
X386813Y206000
X376813Y206000
X366813Y206000
X351813Y206000
X341813Y206000
X331813Y206000
X321813Y206000
X321813Y226000
X331813Y226000
X341813Y226000
X351813Y226000
X366813Y226000
X376813Y226000
X386813Y226000
X396813Y226000
T04
X117313Y104000
X127313Y104000
X137313Y104000
X147313Y104000
X157313Y104000
X167313Y104000
X167313Y123500
X157313Y123500
X147313Y123500
X137313Y123500
X127313Y123500
X117313Y123500
X119313Y174000
X109313Y174000
X99313Y174000
X129313Y174000
X139313Y174000
X149313Y174000
X159313Y174000
X169313Y174000
X169313Y234000
X159313Y234000
X149313Y234000
X139313Y234000
X129313Y234000
X119313Y234000
X109313Y234000
X99313Y234000
X120813Y261000
X130813Y261000
X140813Y261000
X150813Y261000
X160813Y261000
X170813Y261000
X180813Y261000
X190813Y261000
X200813Y261000
X210813Y261000
X226813Y261000
X236813Y261000
X246813Y261000
X256813Y261000
X266813Y261000
X276813Y261000
X286813Y261000
X296813Y261000
X316813Y261000
X326813Y261000
X336813Y261000
X346813Y261000
X356813Y261000
X366813Y261000
X376813Y261000
X386813Y261000
X416813Y261000
X426813Y261000
X426813Y251000
X416813Y251000
X416813Y241000
X426813Y241000
X426813Y231000
X416813Y231000
X416813Y221000
X426813Y221000
X426813Y211000
X416813Y211000
X416813Y201000
X426813Y201000
X426813Y191000
X416813Y191000
X416813Y181000
X426813Y181000
X426813Y171000
X416813Y171000
X416813Y161000
X426813Y161000
X426813Y151000
X416813Y151000
X416813Y141000
X426813Y141000
X437313Y141000
X437313Y131000
X426813Y131000
X416813Y131000
X416813Y121000
X426813Y121000
X437313Y121000
X437313Y111000
X426813Y111000
X416813Y111000
X416813Y101000
X426813Y101000
X437313Y101000
X437313Y91000
X426813Y91000
X416813Y91000
X406813Y71000
X396813Y71000
X386813Y71000
X376813Y71000
X366813Y71000
X356813Y71000
X346813Y71000
X336813Y71000
X316813Y71000
X306813Y71000
X296813Y71000
X286813Y71000
X276813Y71000
X266813Y71000
X256813Y71000
X246813Y71000
X226813Y71000
X216813Y71000
X206813Y71000
X196813Y71000
X186813Y71000
X176813Y71000
X166813Y71000
X156813Y71000
X374313Y101000
X384313Y101000
X384313Y111000
X374313Y111000
X374313Y121000
X384313Y121000
X384313Y131000
X374313Y131000
X374313Y141000
X384313Y141000
X316813Y271000
X326813Y271000
X336813Y271000
X346813Y271000
X336813Y281000
X326813Y281000
X316813Y281000
X306813Y281000
X296813Y281000
X286813Y281000
X276813Y281000
X266813Y281000
T05
X72313Y131000
X72313Y151000
X72313Y171000
T06
X306813Y91000
X426813Y71000
X306813Y201000
X401813Y261000
M30
