G75*
%MOIN*%
%OFA0B0*%
%FSLAX25Y25*%
%IPPOS*%
%LPD*%
%AMOC8*
5,1,8,0,0,1.08239X$1,22.5*
%
%ADD10C,0.01000*%
%ADD11OC8,0.06600*%
%ADD12C,0.06000*%
%ADD13OC8,0.07400*%
%ADD14OC8,0.07600*%
%ADD15C,0.02400*%
D10*
X0013114Y0016136D02*
X0016136Y0013114D01*
X0018920Y0010330D02*
X0021943Y0007307D01*
X0024727Y0004523D02*
X0027750Y0001500D01*
X0032237Y0001500D01*
X0036174Y0001500D02*
X0040660Y0001500D01*
X0044597Y0001500D02*
X0049084Y0001500D01*
X0053021Y0001500D02*
X0057507Y0001500D01*
X0061444Y0001500D02*
X0065931Y0001500D01*
X0069868Y0001500D02*
X0074354Y0001500D01*
X0078291Y0001500D02*
X0082778Y0001500D01*
X0086715Y0001500D02*
X0091201Y0001500D01*
X0095138Y0001500D02*
X0099625Y0001500D01*
X0102698Y0004573D01*
X0105482Y0007357D02*
X0108555Y0010430D01*
X0111339Y0013214D02*
X0114412Y0016287D01*
X0117196Y0019071D02*
X0120269Y0022144D01*
X0123053Y0024928D02*
X0126126Y0028001D01*
X0128910Y0030785D02*
X0131983Y0033858D01*
X0134767Y0036642D02*
X0137840Y0039715D01*
X0140624Y0042499D02*
X0143697Y0045572D01*
X0146481Y0048356D02*
X0149554Y0051429D01*
X0152338Y0054213D02*
X0155411Y0057286D01*
X0158195Y0060070D02*
X0161268Y0063143D01*
X0164052Y0065927D02*
X0167125Y0069000D01*
X0167125Y0072957D01*
X0167125Y0076894D02*
X0167125Y0080850D01*
X0167125Y0084787D02*
X0167125Y0088744D01*
X0167125Y0092681D02*
X0167125Y0096638D01*
X0167125Y0100575D02*
X0167125Y0104531D01*
X0167125Y0108469D02*
X0167125Y0112425D01*
X0167125Y0116362D02*
X0167125Y0120319D01*
X0167125Y0124256D02*
X0167125Y0128213D01*
X0167125Y0132150D02*
X0167125Y0136106D01*
X0167125Y0140043D02*
X0167125Y0144000D01*
X0162988Y0144000D01*
X0159051Y0144000D02*
X0154913Y0144000D01*
X0150976Y0144000D02*
X0146839Y0144000D01*
X0142902Y0144000D02*
X0138764Y0144000D01*
X0134827Y0144000D02*
X0130690Y0144000D01*
X0126753Y0144000D02*
X0122616Y0144000D01*
X0118679Y0144000D02*
X0114541Y0144000D01*
X0110604Y0144000D02*
X0106467Y0144000D01*
X0102530Y0144000D02*
X0098393Y0144000D01*
X0094456Y0144000D02*
X0090318Y0144000D01*
X0086381Y0144000D02*
X0082244Y0144000D01*
X0078307Y0144000D02*
X0074169Y0144000D01*
X0070232Y0144000D02*
X0066095Y0144000D01*
X0062158Y0144000D02*
X0058021Y0144000D01*
X0054084Y0144000D02*
X0049946Y0144000D01*
X0046009Y0144000D02*
X0041872Y0144000D01*
X0037935Y0144000D02*
X0033798Y0144000D01*
X0029861Y0144000D02*
X0025723Y0144000D01*
X0021786Y0144000D02*
X0017649Y0144000D01*
X0013712Y0144000D02*
X0009574Y0144000D01*
X0005637Y0144000D02*
X0001500Y0144000D01*
X0001500Y0139925D01*
X0001500Y0135988D02*
X0001500Y0131912D01*
X0001500Y0127975D02*
X0001500Y0123900D01*
X0001500Y0119963D02*
X0001500Y0115887D01*
X0001500Y0111950D02*
X0001500Y0107875D01*
X0001500Y0103938D02*
X0001500Y0099862D01*
X0001500Y0095925D02*
X0001500Y0091850D01*
X0001500Y0087913D02*
X0001500Y0083837D01*
X0001500Y0079900D02*
X0001500Y0075825D01*
X0001500Y0071888D02*
X0001500Y0067812D01*
X0001500Y0063875D02*
X0001500Y0059800D01*
X0001500Y0055863D02*
X0001500Y0051787D01*
X0001500Y0047850D02*
X0001500Y0043775D01*
X0001500Y0039838D02*
X0001500Y0035762D01*
X0001500Y0031825D02*
X0001500Y0027750D01*
X0004523Y0024727D01*
X0007307Y0021943D02*
X0010330Y0018920D01*
D11*
X0029625Y0032750D03*
X0020875Y0054000D03*
X0050875Y0054000D03*
X0067125Y0072750D03*
X0059625Y0077750D03*
X0067125Y0082750D03*
X0059500Y0095125D03*
X0050375Y0096700D03*
X0050250Y0083375D03*
X0020250Y0083375D03*
X0020375Y0096700D03*
X0082438Y0079313D03*
X0089500Y0095125D03*
X0112437Y0079313D03*
X0125250Y0092750D03*
X0143125Y0075875D03*
X0112437Y0059000D03*
X0082438Y0059000D03*
X0059625Y0029625D03*
D12*
X0059625Y0023250D02*
X0059625Y0017250D01*
X0049625Y0017250D02*
X0049625Y0023250D01*
X0039625Y0023250D02*
X0039625Y0017250D01*
X0029625Y0017250D02*
X0029625Y0023250D01*
X0029625Y0039125D02*
X0029625Y0045125D01*
X0039625Y0045125D02*
X0039625Y0039125D01*
X0049625Y0039125D02*
X0049625Y0045125D01*
X0059625Y0045125D02*
X0059625Y0039125D01*
X0069625Y0039125D02*
X0069625Y0045125D01*
X0079625Y0045125D02*
X0079625Y0039125D01*
X0089625Y0039125D02*
X0089625Y0045125D01*
X0099625Y0045125D02*
X0099625Y0039125D01*
X0099625Y0028875D02*
X0099625Y0022875D01*
X0089625Y0022875D02*
X0089625Y0028875D01*
X0079625Y0028875D02*
X0079625Y0022875D01*
X0038250Y0063375D02*
X0032250Y0063375D01*
X0032250Y0073375D02*
X0038250Y0073375D01*
D13*
X0039875Y0118750D03*
X0029875Y0118750D03*
X0019875Y0118750D03*
X0019875Y0128750D03*
X0029875Y0128750D03*
X0039875Y0128750D03*
X0049875Y0128750D03*
X0059875Y0128750D03*
X0069875Y0128750D03*
X0079875Y0128750D03*
X0089875Y0128750D03*
X0099875Y0128750D03*
X0109875Y0128750D03*
X0119875Y0128750D03*
X0129875Y0128750D03*
X0139875Y0128750D03*
X0139875Y0118750D03*
X0129875Y0118750D03*
X0119875Y0118750D03*
X0109875Y0118750D03*
X0099875Y0118750D03*
X0089875Y0118750D03*
X0079875Y0118750D03*
X0069875Y0118750D03*
X0059875Y0118750D03*
X0049875Y0118750D03*
D14*
X0039375Y0106250D03*
X0029375Y0106250D03*
X0012312Y0073817D03*
X0069375Y0106250D03*
X0079375Y0106250D03*
X0099375Y0106250D03*
X0109375Y0106250D03*
X0119375Y0106250D03*
X0129375Y0106250D03*
X0139375Y0106250D03*
X0156375Y0091250D03*
X0156375Y0081250D03*
D15*
X0151375Y0081250D01*
X0148375Y0084250D01*
X0148375Y0125250D01*
X0144375Y0129250D01*
X0140375Y0129250D01*
X0139875Y0128750D01*
X0136375Y0136250D02*
X0148375Y0136250D01*
X0156375Y0128250D01*
X0156375Y0091250D01*
X0143975Y0090582D02*
X0133957Y0090582D01*
X0131750Y0092665D02*
X0131750Y0095442D01*
X0127942Y0099250D01*
X0122558Y0099250D01*
X0118750Y0095442D01*
X0118750Y0090058D01*
X0122558Y0086250D01*
X0125726Y0086250D01*
X0136625Y0075960D01*
X0136625Y0073183D01*
X0140433Y0069375D01*
X0145817Y0069375D01*
X0149625Y0073183D01*
X0149625Y0077212D01*
X0150500Y0076850D01*
X0150876Y0076850D01*
X0153476Y0074250D01*
X0159274Y0074250D01*
X0161425Y0076401D01*
X0161425Y0071361D01*
X0097264Y0007200D01*
X0030111Y0007200D01*
X0007200Y0030111D01*
X0007200Y0069029D01*
X0009413Y0066817D01*
X0015211Y0066817D01*
X0019312Y0070917D01*
X0019312Y0076716D01*
X0019153Y0076875D01*
X0022942Y0076875D01*
X0026750Y0080683D01*
X0026750Y0086067D01*
X0022942Y0089875D01*
X0017558Y0089875D01*
X0016712Y0089029D01*
X0016712Y0091171D01*
X0017683Y0090200D01*
X0023067Y0090200D01*
X0026875Y0094008D01*
X0026875Y0099250D01*
X0032274Y0099250D01*
X0034375Y0101351D01*
X0036476Y0099250D01*
X0042274Y0099250D01*
X0046375Y0103351D01*
X0046375Y0109149D01*
X0043204Y0112321D01*
X0044875Y0113992D01*
X0047017Y0111850D01*
X0052733Y0111850D01*
X0054875Y0113992D01*
X0057017Y0111850D01*
X0062733Y0111850D01*
X0064875Y0113992D01*
X0066046Y0112821D01*
X0062375Y0109149D01*
X0062375Y0103351D01*
X0066476Y0099250D01*
X0072274Y0099250D01*
X0074375Y0101351D01*
X0076476Y0099250D01*
X0082274Y0099250D01*
X0086375Y0103351D01*
X0086375Y0109149D01*
X0083204Y0112321D01*
X0084875Y0113992D01*
X0087017Y0111850D01*
X0092733Y0111850D01*
X0094875Y0113992D01*
X0096046Y0112821D01*
X0092375Y0109149D01*
X0092375Y0103351D01*
X0096476Y0099250D01*
X0102274Y0099250D01*
X0104375Y0101351D01*
X0106476Y0099250D01*
X0112274Y0099250D01*
X0114375Y0101351D01*
X0116476Y0099250D01*
X0122274Y0099250D01*
X0124375Y0101351D01*
X0126476Y0099250D01*
X0132274Y0099250D01*
X0134375Y0101351D01*
X0136476Y0099250D01*
X0142274Y0099250D01*
X0143975Y0100951D01*
X0143975Y0083375D01*
X0144389Y0082375D01*
X0142649Y0082375D01*
X0131750Y0092665D01*
X0131750Y0092980D02*
X0143975Y0092980D01*
X0143975Y0095379D02*
X0131750Y0095379D01*
X0129415Y0097777D02*
X0143975Y0097777D01*
X0143975Y0100176D02*
X0143200Y0100176D01*
X0135550Y0100176D02*
X0133200Y0100176D01*
X0125550Y0100176D02*
X0123200Y0100176D01*
X0121085Y0097777D02*
X0094626Y0097777D01*
X0095000Y0097403D02*
X0091778Y0100625D01*
X0089500Y0100625D01*
X0089500Y0095125D01*
X0095000Y0095125D01*
X0095000Y0097403D01*
X0095000Y0095379D02*
X0118750Y0095379D01*
X0118750Y0092980D02*
X0095000Y0092980D01*
X0095000Y0092847D02*
X0095000Y0095125D01*
X0089500Y0095125D01*
X0089500Y0095125D01*
X0089500Y0095125D01*
X0089500Y0089625D01*
X0091778Y0089625D01*
X0095000Y0092847D01*
X0092735Y0090582D02*
X0118750Y0090582D01*
X0120625Y0088183D02*
X0070884Y0088183D01*
X0069817Y0089250D02*
X0064433Y0089250D01*
X0060625Y0085442D01*
X0060625Y0084250D01*
X0056933Y0084250D01*
X0056750Y0084067D01*
X0056750Y0086067D01*
X0052942Y0089875D01*
X0047558Y0089875D01*
X0043750Y0086067D01*
X0043750Y0080683D01*
X0047558Y0076875D01*
X0052942Y0076875D01*
X0053125Y0077058D01*
X0053125Y0075058D01*
X0056933Y0071250D01*
X0060625Y0071250D01*
X0060625Y0070058D01*
X0064433Y0066250D01*
X0069817Y0066250D01*
X0073625Y0070058D01*
X0073625Y0075442D01*
X0071317Y0077750D01*
X0073625Y0080058D01*
X0073625Y0085442D01*
X0069817Y0089250D01*
X0066000Y0092433D02*
X0062192Y0088625D01*
X0056808Y0088625D01*
X0054150Y0091283D01*
X0053067Y0090200D01*
X0047683Y0090200D01*
X0043875Y0094008D01*
X0043875Y0099392D01*
X0047683Y0103200D01*
X0053067Y0103200D01*
X0055725Y0100542D01*
X0056808Y0101625D01*
X0062192Y0101625D01*
X0066000Y0097817D01*
X0066000Y0092433D01*
X0066000Y0092980D02*
X0084000Y0092980D01*
X0084000Y0092847D02*
X0087222Y0089625D01*
X0089500Y0089625D01*
X0089500Y0095125D01*
X0089500Y0095125D01*
X0089500Y0095125D01*
X0084000Y0095125D01*
X0084000Y0097403D01*
X0087222Y0100625D01*
X0089500Y0100625D01*
X0089500Y0095125D01*
X0084000Y0095125D01*
X0084000Y0092847D01*
X0084000Y0095379D02*
X0066000Y0095379D01*
X0066000Y0097777D02*
X0084374Y0097777D01*
X0083200Y0100176D02*
X0086772Y0100176D01*
X0085599Y0102574D02*
X0093151Y0102574D01*
X0092375Y0104973D02*
X0086375Y0104973D01*
X0086375Y0107371D02*
X0092375Y0107371D01*
X0092995Y0109770D02*
X0085755Y0109770D01*
X0086699Y0112168D02*
X0083356Y0112168D01*
X0093051Y0112168D02*
X0095394Y0112168D01*
X0095550Y0100176D02*
X0092228Y0100176D01*
X0089500Y0100176D02*
X0089500Y0100176D01*
X0089500Y0097777D02*
X0089500Y0097777D01*
X0089500Y0095379D02*
X0089500Y0095379D01*
X0089500Y0092980D02*
X0089500Y0092980D01*
X0089500Y0090582D02*
X0089500Y0090582D01*
X0086265Y0090582D02*
X0064149Y0090582D01*
X0063366Y0088183D02*
X0054634Y0088183D01*
X0054851Y0090582D02*
X0053449Y0090582D01*
X0047301Y0090582D02*
X0023449Y0090582D01*
X0024634Y0088183D02*
X0045866Y0088183D01*
X0043750Y0085784D02*
X0026750Y0085784D01*
X0026750Y0083386D02*
X0043750Y0083386D01*
X0043750Y0080987D02*
X0026750Y0080987D01*
X0028696Y0078589D02*
X0024656Y0078589D01*
X0026994Y0076887D02*
X0026050Y0074608D01*
X0026050Y0072142D01*
X0026994Y0069863D01*
X0028482Y0068375D01*
X0026994Y0066887D01*
X0026050Y0064608D01*
X0026050Y0062142D01*
X0026994Y0059863D01*
X0028738Y0058119D01*
X0031017Y0057175D01*
X0039483Y0057175D01*
X0041762Y0058119D01*
X0043506Y0059863D01*
X0044450Y0062142D01*
X0044450Y0064608D01*
X0043506Y0066887D01*
X0042018Y0068375D01*
X0043506Y0069863D01*
X0044450Y0072142D01*
X0044450Y0074608D01*
X0043506Y0076887D01*
X0041762Y0078631D01*
X0039483Y0079575D01*
X0031017Y0079575D01*
X0028738Y0078631D01*
X0026994Y0076887D01*
X0026705Y0076190D02*
X0019312Y0076190D01*
X0019312Y0073792D02*
X0026050Y0073792D01*
X0026360Y0071393D02*
X0019312Y0071393D01*
X0017389Y0068995D02*
X0027862Y0068995D01*
X0026874Y0066596D02*
X0007200Y0066596D01*
X0007200Y0064198D02*
X0026050Y0064198D01*
X0026192Y0061799D02*
X0007200Y0061799D01*
X0007200Y0059401D02*
X0017084Y0059401D01*
X0018183Y0060500D02*
X0014375Y0056692D01*
X0014375Y0051308D01*
X0018183Y0047500D01*
X0023567Y0047500D01*
X0024132Y0048064D01*
X0023425Y0046358D01*
X0023425Y0037892D01*
X0024055Y0036372D01*
X0023125Y0035442D01*
X0023125Y0030058D01*
X0026102Y0027081D01*
X0025659Y0026638D01*
X0025178Y0025975D01*
X0024806Y0025246D01*
X0024553Y0024468D01*
X0024425Y0023659D01*
X0024425Y0020250D01*
X0029625Y0020250D01*
X0029625Y0012050D01*
X0030034Y0012050D01*
X0030843Y0012178D01*
X0031621Y0012431D01*
X0032350Y0012803D01*
X0033013Y0013284D01*
X0033591Y0013862D01*
X0034054Y0014499D01*
X0034369Y0013738D01*
X0036113Y0011994D01*
X0038392Y0011050D01*
X0040858Y0011050D01*
X0043137Y0011994D01*
X0044625Y0013482D01*
X0046113Y0011994D01*
X0048392Y0011050D01*
X0050858Y0011050D01*
X0053137Y0011994D01*
X0054625Y0013482D01*
X0056113Y0011994D01*
X0058392Y0011050D01*
X0060858Y0011050D01*
X0063137Y0011994D01*
X0064881Y0013738D01*
X0065825Y0016017D01*
X0065825Y0024483D01*
X0065195Y0026003D01*
X0066125Y0026933D01*
X0066125Y0032317D01*
X0063855Y0034587D01*
X0064625Y0035357D01*
X0066113Y0033869D01*
X0068392Y0032925D01*
X0070858Y0032925D01*
X0073137Y0033869D01*
X0074625Y0035357D01*
X0075982Y0034000D01*
X0074369Y0032387D01*
X0073425Y0030108D01*
X0073425Y0021642D01*
X0074369Y0019363D01*
X0076113Y0017619D01*
X0078392Y0016675D01*
X0080858Y0016675D01*
X0083137Y0017619D01*
X0084625Y0019107D01*
X0086113Y0017619D01*
X0088392Y0016675D01*
X0090858Y0016675D01*
X0093137Y0017619D01*
X0094881Y0019363D01*
X0095196Y0020124D01*
X0095659Y0019487D01*
X0096237Y0018909D01*
X0096900Y0018428D01*
X0097629Y0018056D01*
X0098407Y0017803D01*
X0099216Y0017675D01*
X0099625Y0017675D01*
X0100034Y0017675D01*
X0100843Y0017803D01*
X0101621Y0018056D01*
X0102350Y0018428D01*
X0103013Y0018909D01*
X0103591Y0019487D01*
X0104072Y0020150D01*
X0104444Y0020879D01*
X0104697Y0021657D01*
X0104825Y0022466D01*
X0104825Y0025875D01*
X0104825Y0029284D01*
X0104697Y0030093D01*
X0104444Y0030871D01*
X0104072Y0031600D01*
X0103591Y0032263D01*
X0103013Y0032841D01*
X0102350Y0033322D01*
X0101621Y0033694D01*
X0100843Y0033947D01*
X0100508Y0034000D01*
X0100843Y0034053D01*
X0101621Y0034306D01*
X0102350Y0034678D01*
X0103013Y0035159D01*
X0103591Y0035737D01*
X0104072Y0036400D01*
X0104444Y0037129D01*
X0104697Y0037907D01*
X0104825Y0038716D01*
X0104825Y0042125D01*
X0104825Y0045534D01*
X0104697Y0046343D01*
X0104444Y0047121D01*
X0104072Y0047850D01*
X0103591Y0048513D01*
X0103013Y0049091D01*
X0102350Y0049572D01*
X0101621Y0049944D01*
X0100843Y0050197D01*
X0100034Y0050325D01*
X0099625Y0050325D01*
X0099625Y0042125D01*
X0099625Y0042125D01*
X0104825Y0042125D01*
X0099625Y0042125D01*
X0099625Y0042125D01*
X0099625Y0050325D01*
X0099216Y0050325D01*
X0098407Y0050197D01*
X0097629Y0049944D01*
X0096900Y0049572D01*
X0096237Y0049091D01*
X0095659Y0048513D01*
X0095196Y0047876D01*
X0094881Y0048637D01*
X0093137Y0050381D01*
X0090858Y0051325D01*
X0088392Y0051325D01*
X0086113Y0050381D01*
X0084625Y0048893D01*
X0083137Y0050381D01*
X0080858Y0051325D01*
X0078392Y0051325D01*
X0076113Y0050381D01*
X0074625Y0048893D01*
X0073137Y0050381D01*
X0070858Y0051325D01*
X0068392Y0051325D01*
X0066113Y0050381D01*
X0064625Y0048893D01*
X0063137Y0050381D01*
X0060858Y0051325D01*
X0058392Y0051325D01*
X0056686Y0050618D01*
X0057375Y0051308D01*
X0057375Y0056692D01*
X0053567Y0060500D01*
X0048183Y0060500D01*
X0044375Y0056692D01*
X0044375Y0051308D01*
X0045707Y0049975D01*
X0044625Y0048893D01*
X0043137Y0050381D01*
X0040858Y0051325D01*
X0038392Y0051325D01*
X0036113Y0050381D01*
X0034625Y0048893D01*
X0033137Y0050381D01*
X0030858Y0051325D01*
X0028392Y0051325D01*
X0026686Y0050618D01*
X0027375Y0051308D01*
X0027375Y0056692D01*
X0023567Y0060500D01*
X0018183Y0060500D01*
X0014685Y0057002D02*
X0007200Y0057002D01*
X0007200Y0054604D02*
X0014375Y0054604D01*
X0014375Y0052205D02*
X0007200Y0052205D01*
X0007200Y0049807D02*
X0015876Y0049807D01*
X0023425Y0045010D02*
X0007200Y0045010D01*
X0007200Y0042611D02*
X0023425Y0042611D01*
X0023425Y0040213D02*
X0007200Y0040213D01*
X0007200Y0037814D02*
X0023457Y0037814D01*
X0023125Y0035416D02*
X0007200Y0035416D01*
X0007200Y0033017D02*
X0023125Y0033017D01*
X0023125Y0030619D02*
X0007200Y0030619D01*
X0009091Y0028220D02*
X0024962Y0028220D01*
X0025099Y0025822D02*
X0011489Y0025822D01*
X0013888Y0023423D02*
X0024425Y0023423D01*
X0024425Y0021025D02*
X0016286Y0021025D01*
X0018685Y0018626D02*
X0024425Y0018626D01*
X0024425Y0020250D02*
X0024425Y0016841D01*
X0024553Y0016032D01*
X0024806Y0015254D01*
X0025178Y0014525D01*
X0025659Y0013862D01*
X0026237Y0013284D01*
X0026900Y0012803D01*
X0027629Y0012431D01*
X0028407Y0012178D01*
X0029216Y0012050D01*
X0029625Y0012050D01*
X0029625Y0020250D01*
X0029625Y0020250D01*
X0029625Y0020250D01*
X0024425Y0020250D01*
X0024522Y0016228D02*
X0021083Y0016228D01*
X0023482Y0013829D02*
X0025692Y0013829D01*
X0025880Y0011431D02*
X0037473Y0011431D01*
X0034331Y0013829D02*
X0033558Y0013829D01*
X0029625Y0013829D02*
X0029625Y0013829D01*
X0029625Y0016228D02*
X0029625Y0016228D01*
X0029625Y0018626D02*
X0029625Y0018626D01*
X0028279Y0009032D02*
X0099096Y0009032D01*
X0101495Y0011431D02*
X0061777Y0011431D01*
X0064919Y0013829D02*
X0103893Y0013829D01*
X0106292Y0016228D02*
X0065825Y0016228D01*
X0065825Y0018626D02*
X0075106Y0018626D01*
X0073681Y0021025D02*
X0065825Y0021025D01*
X0065825Y0023423D02*
X0073425Y0023423D01*
X0073425Y0025822D02*
X0065271Y0025822D01*
X0066125Y0028220D02*
X0073425Y0028220D01*
X0073636Y0030619D02*
X0066125Y0030619D01*
X0065425Y0033017D02*
X0068169Y0033017D01*
X0071081Y0033017D02*
X0074999Y0033017D01*
X0059625Y0029625D02*
X0058500Y0030750D01*
X0031625Y0030750D01*
X0029625Y0032750D01*
X0023860Y0047408D02*
X0007200Y0047408D01*
X0024666Y0059401D02*
X0027456Y0059401D01*
X0027065Y0057002D02*
X0044685Y0057002D01*
X0043044Y0059401D02*
X0047084Y0059401D01*
X0044308Y0061799D02*
X0076045Y0061799D01*
X0075938Y0061692D02*
X0075938Y0056308D01*
X0079745Y0052500D01*
X0085130Y0052500D01*
X0088937Y0056308D01*
X0088937Y0061692D01*
X0085130Y0065500D01*
X0079745Y0065500D01*
X0075938Y0061692D01*
X0075938Y0059401D02*
X0054666Y0059401D01*
X0057065Y0057002D02*
X0075938Y0057002D01*
X0077641Y0054604D02*
X0057375Y0054604D01*
X0057375Y0052205D02*
X0142269Y0052205D01*
X0139871Y0049807D02*
X0101890Y0049807D01*
X0099625Y0049807D02*
X0099625Y0049807D01*
X0097360Y0049807D02*
X0093711Y0049807D01*
X0099625Y0047408D02*
X0099625Y0047408D01*
X0099625Y0045010D02*
X0099625Y0045010D01*
X0099625Y0042611D02*
X0099625Y0042611D01*
X0099625Y0042125D02*
X0099625Y0034075D01*
X0099625Y0025875D01*
X0104825Y0025875D01*
X0099625Y0025875D01*
X0099625Y0025875D01*
X0099625Y0025875D01*
X0099625Y0017675D01*
X0099625Y0025875D01*
X0099625Y0025875D01*
X0099625Y0042125D01*
X0099625Y0042125D01*
X0099625Y0040213D02*
X0099625Y0040213D01*
X0099625Y0037814D02*
X0099625Y0037814D01*
X0099625Y0035416D02*
X0099625Y0035416D01*
X0099625Y0033017D02*
X0099625Y0033017D01*
X0099625Y0030619D02*
X0099625Y0030619D01*
X0102770Y0033017D02*
X0123081Y0033017D01*
X0120683Y0030619D02*
X0104526Y0030619D01*
X0104825Y0028220D02*
X0118284Y0028220D01*
X0115886Y0025822D02*
X0104825Y0025822D01*
X0104825Y0023423D02*
X0113487Y0023423D01*
X0111089Y0021025D02*
X0104491Y0021025D01*
X0102624Y0018626D02*
X0108690Y0018626D01*
X0099625Y0018626D02*
X0099625Y0018626D01*
X0099625Y0021025D02*
X0099625Y0021025D01*
X0099625Y0023423D02*
X0099625Y0023423D01*
X0099625Y0025822D02*
X0099625Y0025822D01*
X0099625Y0028220D02*
X0099625Y0028220D01*
X0103270Y0035416D02*
X0125480Y0035416D01*
X0127878Y0037814D02*
X0104667Y0037814D01*
X0104825Y0040213D02*
X0130277Y0040213D01*
X0132675Y0042611D02*
X0104825Y0042611D01*
X0104825Y0045010D02*
X0135074Y0045010D01*
X0137472Y0047408D02*
X0104298Y0047408D01*
X0110159Y0053500D02*
X0112437Y0053500D01*
X0112437Y0059000D01*
X0106937Y0059000D01*
X0106937Y0056722D01*
X0110159Y0053500D01*
X0109055Y0054604D02*
X0087234Y0054604D01*
X0088937Y0057002D02*
X0106937Y0057002D01*
X0106937Y0059000D02*
X0112437Y0059000D01*
X0112437Y0059000D01*
X0112438Y0059000D01*
X0117937Y0059000D01*
X0112438Y0059000D01*
X0112438Y0059000D01*
X0112438Y0053500D01*
X0114716Y0053500D01*
X0117937Y0056722D01*
X0117937Y0059000D01*
X0117937Y0061278D01*
X0114716Y0064500D01*
X0112438Y0064500D01*
X0112438Y0059000D01*
X0112437Y0059000D01*
X0112437Y0064500D01*
X0110159Y0064500D01*
X0106937Y0061278D01*
X0106937Y0059000D01*
X0106937Y0059401D02*
X0088937Y0059401D01*
X0088830Y0061799D02*
X0107459Y0061799D01*
X0109857Y0064198D02*
X0086432Y0064198D01*
X0078443Y0064198D02*
X0044450Y0064198D01*
X0043626Y0066596D02*
X0064086Y0066596D01*
X0061688Y0068995D02*
X0042638Y0068995D01*
X0044140Y0071393D02*
X0056789Y0071393D01*
X0054391Y0073792D02*
X0044450Y0073792D01*
X0043795Y0076190D02*
X0053125Y0076190D01*
X0045844Y0078589D02*
X0041804Y0078589D01*
X0044903Y0092980D02*
X0025847Y0092980D01*
X0026875Y0095379D02*
X0043875Y0095379D01*
X0043875Y0097777D02*
X0026875Y0097777D01*
X0033200Y0100176D02*
X0035550Y0100176D01*
X0043200Y0100176D02*
X0044658Y0100176D01*
X0045599Y0102574D02*
X0047057Y0102574D01*
X0046375Y0104973D02*
X0062375Y0104973D01*
X0062375Y0107371D02*
X0046375Y0107371D01*
X0045755Y0109770D02*
X0062995Y0109770D01*
X0063051Y0112168D02*
X0065394Y0112168D01*
X0056699Y0112168D02*
X0053051Y0112168D01*
X0046699Y0112168D02*
X0043356Y0112168D01*
X0053693Y0102574D02*
X0063151Y0102574D01*
X0063642Y0100176D02*
X0065550Y0100176D01*
X0073200Y0100176D02*
X0075550Y0100176D01*
X0073283Y0085784D02*
X0079717Y0085784D01*
X0079745Y0085812D02*
X0075938Y0082005D01*
X0075938Y0076620D01*
X0079745Y0072813D01*
X0085130Y0072813D01*
X0088937Y0076620D01*
X0088937Y0082005D01*
X0085130Y0085812D01*
X0079745Y0085812D01*
X0077319Y0083386D02*
X0073625Y0083386D01*
X0073625Y0080987D02*
X0075938Y0080987D01*
X0075938Y0078589D02*
X0072156Y0078589D01*
X0072877Y0076190D02*
X0076367Y0076190D01*
X0078766Y0073792D02*
X0073625Y0073792D01*
X0073625Y0071393D02*
X0138414Y0071393D01*
X0136625Y0073792D02*
X0116109Y0073792D01*
X0115130Y0072813D02*
X0118937Y0076620D01*
X0118937Y0082005D01*
X0115130Y0085812D01*
X0109745Y0085812D01*
X0105937Y0082005D01*
X0105937Y0076620D01*
X0109745Y0072813D01*
X0115130Y0072813D01*
X0118508Y0076190D02*
X0136381Y0076190D01*
X0133841Y0078589D02*
X0118937Y0078589D01*
X0118937Y0080987D02*
X0131300Y0080987D01*
X0128759Y0083386D02*
X0117556Y0083386D01*
X0115158Y0085784D02*
X0126219Y0085784D01*
X0125250Y0092750D02*
X0143125Y0075875D01*
X0147836Y0071393D02*
X0161425Y0071393D01*
X0161425Y0073792D02*
X0149625Y0073792D01*
X0149625Y0076190D02*
X0151535Y0076190D01*
X0159059Y0068995D02*
X0072562Y0068995D01*
X0070164Y0066596D02*
X0156660Y0066596D01*
X0154262Y0064198D02*
X0115018Y0064198D01*
X0112438Y0064198D02*
X0112437Y0064198D01*
X0112437Y0061799D02*
X0112438Y0061799D01*
X0112437Y0059401D02*
X0112438Y0059401D01*
X0112437Y0057002D02*
X0112438Y0057002D01*
X0112437Y0054604D02*
X0112438Y0054604D01*
X0115820Y0054604D02*
X0144668Y0054604D01*
X0147066Y0057002D02*
X0117937Y0057002D01*
X0117937Y0059401D02*
X0149465Y0059401D01*
X0151863Y0061799D02*
X0117416Y0061799D01*
X0108766Y0073792D02*
X0086109Y0073792D01*
X0088508Y0076190D02*
X0106367Y0076190D01*
X0105937Y0078589D02*
X0088937Y0078589D01*
X0088937Y0080987D02*
X0105937Y0080987D01*
X0107319Y0083386D02*
X0087556Y0083386D01*
X0085158Y0085784D02*
X0109717Y0085784D01*
X0113200Y0100176D02*
X0115550Y0100176D01*
X0105550Y0100176D02*
X0103200Y0100176D01*
X0136497Y0088183D02*
X0143975Y0088183D01*
X0143975Y0085784D02*
X0139038Y0085784D01*
X0141578Y0083386D02*
X0143975Y0083386D01*
X0161215Y0076190D02*
X0161425Y0076190D01*
X0129875Y0128750D02*
X0129875Y0129750D01*
X0136375Y0136250D01*
X0069875Y0133750D02*
X0069875Y0128750D01*
X0069875Y0133750D02*
X0066375Y0137250D01*
X0015375Y0137250D01*
X0012375Y0134250D01*
X0012375Y0131250D01*
X0012312Y0131187D01*
X0012312Y0073817D01*
X0007235Y0068995D02*
X0007200Y0068995D01*
X0027375Y0054604D02*
X0044375Y0054604D01*
X0044375Y0052205D02*
X0027375Y0052205D01*
X0033711Y0049807D02*
X0035539Y0049807D01*
X0043711Y0049807D02*
X0045539Y0049807D01*
X0063711Y0049807D02*
X0065539Y0049807D01*
X0073711Y0049807D02*
X0075539Y0049807D01*
X0083711Y0049807D02*
X0085539Y0049807D01*
X0085106Y0018626D02*
X0084144Y0018626D01*
X0094144Y0018626D02*
X0096626Y0018626D01*
X0057473Y0011431D02*
X0051777Y0011431D01*
X0047473Y0011431D02*
X0041777Y0011431D01*
X0056750Y0085784D02*
X0060967Y0085784D01*
X0017301Y0090582D02*
X0016712Y0090582D01*
M02*
