%
M48
M72
T01C0.0320
T02C0.0400
%
T01
X2963Y3275
X2088Y5400
X5088Y5400
X6713Y7275
X5963Y7775
X6713Y8275
X5950Y9513
X5038Y9670
X5025Y8338
X2025Y8338
X2038Y9670
X8244Y7931
X8950Y9513
X11244Y7931
X12525Y9275
X14313Y7588
X11244Y5900
X8244Y5900
X5963Y2963
T02
X2963Y2025
X3963Y2025
X4963Y2025
X5963Y2025
X7963Y2588
X8963Y2588
X9963Y2588
X9963Y4213
X8963Y4213
X7963Y4213
X6963Y4213
X5963Y4213
X4963Y4213
X3963Y4213
X2963Y4213
X3525Y6338
X3525Y7338
X1231Y7382
X2938Y10625
X3938Y10625
X3988Y11875
X4988Y11875
X5988Y11875
X6988Y11875
X7988Y11875
X8988Y11875
X9988Y11875
X10988Y11875
X11988Y11875
X12988Y11875
X13988Y11875
X13988Y12875
X12988Y12875
X11988Y12875
X10988Y12875
X9988Y12875
X8988Y12875
X7988Y12875
X6988Y12875
X5988Y12875
X4988Y12875
X3988Y12875
X2988Y12875
X1988Y12875
X1988Y11875
X2988Y11875
X6938Y10625
X7938Y10625
X9938Y10625
X10938Y10625
X11938Y10625
X12938Y10625
X13938Y10625
X15638Y9125
X15638Y8125
M30
