G75*
%MOIN*%
%OFA0B0*%
%FSLAX25Y25*%
%IPPOS*%
%LPD*%
%AMOC8*
5,1,8,0,0,1.08239X$1,22.5*
%
%ADD10C,0.01000*%
%ADD11OC8,0.07400*%
%ADD12C,0.06800*%
%ADD13OC8,0.08200*%
%ADD14OC8,0.08400*%
D10*
X0013114Y0016136D02*
X0016136Y0013114D01*
X0018920Y0010330D02*
X0021943Y0007307D01*
X0024727Y0004523D02*
X0027750Y0001500D01*
X0032237Y0001500D01*
X0036174Y0001500D02*
X0040660Y0001500D01*
X0044597Y0001500D02*
X0049084Y0001500D01*
X0053021Y0001500D02*
X0057507Y0001500D01*
X0061444Y0001500D02*
X0065931Y0001500D01*
X0069868Y0001500D02*
X0074354Y0001500D01*
X0078291Y0001500D02*
X0082778Y0001500D01*
X0086715Y0001500D02*
X0091201Y0001500D01*
X0095138Y0001500D02*
X0099625Y0001500D01*
X0102698Y0004573D01*
X0105482Y0007357D02*
X0108555Y0010430D01*
X0111339Y0013214D02*
X0114412Y0016287D01*
X0117196Y0019071D02*
X0120269Y0022144D01*
X0123053Y0024928D02*
X0126126Y0028001D01*
X0128910Y0030785D02*
X0131983Y0033858D01*
X0134767Y0036642D02*
X0137840Y0039715D01*
X0140624Y0042499D02*
X0143697Y0045572D01*
X0146481Y0048356D02*
X0149554Y0051429D01*
X0152338Y0054213D02*
X0155411Y0057286D01*
X0158195Y0060070D02*
X0161268Y0063143D01*
X0164052Y0065927D02*
X0167125Y0069000D01*
X0167125Y0072957D01*
X0167125Y0076894D02*
X0167125Y0080850D01*
X0167125Y0084787D02*
X0167125Y0088744D01*
X0167125Y0092681D02*
X0167125Y0096638D01*
X0167125Y0100575D02*
X0167125Y0104531D01*
X0167125Y0108469D02*
X0167125Y0112425D01*
X0167125Y0116362D02*
X0167125Y0120319D01*
X0167125Y0124256D02*
X0167125Y0128213D01*
X0167125Y0132150D02*
X0167125Y0136106D01*
X0167125Y0140043D02*
X0167125Y0144000D01*
X0162988Y0144000D01*
X0159051Y0144000D02*
X0154913Y0144000D01*
X0150976Y0144000D02*
X0146839Y0144000D01*
X0142902Y0144000D02*
X0138764Y0144000D01*
X0134827Y0144000D02*
X0130690Y0144000D01*
X0126753Y0144000D02*
X0122616Y0144000D01*
X0118679Y0144000D02*
X0114541Y0144000D01*
X0110604Y0144000D02*
X0106467Y0144000D01*
X0102530Y0144000D02*
X0098393Y0144000D01*
X0094456Y0144000D02*
X0090318Y0144000D01*
X0086381Y0144000D02*
X0082244Y0144000D01*
X0078307Y0144000D02*
X0074169Y0144000D01*
X0070232Y0144000D02*
X0066095Y0144000D01*
X0062158Y0144000D02*
X0058021Y0144000D01*
X0054084Y0144000D02*
X0049946Y0144000D01*
X0046009Y0144000D02*
X0041872Y0144000D01*
X0037935Y0144000D02*
X0033798Y0144000D01*
X0029861Y0144000D02*
X0025723Y0144000D01*
X0021786Y0144000D02*
X0017649Y0144000D01*
X0013712Y0144000D02*
X0009574Y0144000D01*
X0005637Y0144000D02*
X0001500Y0144000D01*
X0001500Y0139925D01*
X0001500Y0135988D02*
X0001500Y0131912D01*
X0001500Y0127975D02*
X0001500Y0123900D01*
X0001500Y0119963D02*
X0001500Y0115887D01*
X0001500Y0111950D02*
X0001500Y0107875D01*
X0001500Y0103938D02*
X0001500Y0099862D01*
X0001500Y0095925D02*
X0001500Y0091850D01*
X0001500Y0087913D02*
X0001500Y0083837D01*
X0001500Y0079900D02*
X0001500Y0075825D01*
X0001500Y0071888D02*
X0001500Y0067812D01*
X0001500Y0063875D02*
X0001500Y0059800D01*
X0001500Y0055863D02*
X0001500Y0051787D01*
X0001500Y0047850D02*
X0001500Y0043775D01*
X0001500Y0039838D02*
X0001500Y0035762D01*
X0001500Y0031825D02*
X0001500Y0027750D01*
X0004523Y0024727D01*
X0007307Y0021943D02*
X0010330Y0018920D01*
D11*
X0029625Y0032750D03*
X0020875Y0054000D03*
X0050875Y0054000D03*
X0067125Y0072750D03*
X0059625Y0077750D03*
X0067125Y0082750D03*
X0059500Y0095125D03*
X0050375Y0096700D03*
X0050250Y0083375D03*
X0020250Y0083375D03*
X0020375Y0096700D03*
X0082438Y0079313D03*
X0089500Y0095125D03*
X0112437Y0079313D03*
X0125250Y0092750D03*
X0143125Y0075875D03*
X0112437Y0059000D03*
X0082438Y0059000D03*
X0059625Y0029625D03*
D12*
X0059625Y0023250D02*
X0059625Y0017250D01*
X0049625Y0017250D02*
X0049625Y0023250D01*
X0039625Y0023250D02*
X0039625Y0017250D01*
X0029625Y0017250D02*
X0029625Y0023250D01*
X0029625Y0039125D02*
X0029625Y0045125D01*
X0039625Y0045125D02*
X0039625Y0039125D01*
X0049625Y0039125D02*
X0049625Y0045125D01*
X0059625Y0045125D02*
X0059625Y0039125D01*
X0069625Y0039125D02*
X0069625Y0045125D01*
X0079625Y0045125D02*
X0079625Y0039125D01*
X0089625Y0039125D02*
X0089625Y0045125D01*
X0099625Y0045125D02*
X0099625Y0039125D01*
X0099625Y0028875D02*
X0099625Y0022875D01*
X0089625Y0022875D02*
X0089625Y0028875D01*
X0079625Y0028875D02*
X0079625Y0022875D01*
X0038250Y0063375D02*
X0032250Y0063375D01*
X0032250Y0073375D02*
X0038250Y0073375D01*
D13*
X0039875Y0118750D03*
X0029875Y0118750D03*
X0019875Y0118750D03*
X0019875Y0128750D03*
X0029875Y0128750D03*
X0039875Y0128750D03*
X0049875Y0128750D03*
X0059875Y0128750D03*
X0069875Y0128750D03*
X0079875Y0128750D03*
X0089875Y0128750D03*
X0099875Y0128750D03*
X0109875Y0128750D03*
X0119875Y0128750D03*
X0129875Y0128750D03*
X0139875Y0128750D03*
X0139875Y0118750D03*
X0129875Y0118750D03*
X0119875Y0118750D03*
X0109875Y0118750D03*
X0099875Y0118750D03*
X0089875Y0118750D03*
X0079875Y0118750D03*
X0069875Y0118750D03*
X0059875Y0118750D03*
X0049875Y0118750D03*
D14*
X0039375Y0106250D03*
X0029375Y0106250D03*
X0012312Y0073817D03*
X0069375Y0106250D03*
X0079375Y0106250D03*
X0099375Y0106250D03*
X0109375Y0106250D03*
X0119375Y0106250D03*
X0129375Y0106250D03*
X0139375Y0106250D03*
X0156375Y0091250D03*
X0156375Y0081250D03*
M02*
