G75*
%MOIN*%
%OFA0B0*%
%FSLAX25Y25*%
%IPPOS*%
%LPD*%
%AMOC8*
5,1,8,0,0,1.08239X$1,22.5*
%
%ADD10C,0.00300*%
%ADD11C,0.01000*%
%ADD12R,0.06850X0.00050*%
%ADD13R,0.11900X0.00050*%
%ADD14R,0.03450X0.00050*%
%ADD15R,0.06900X0.00050*%
%ADD16R,0.13600X0.00050*%
%ADD17R,0.03400X0.00050*%
%ADD18R,0.14150X0.00050*%
%ADD19R,0.14350X0.00050*%
%ADD20R,0.14500X0.00050*%
%ADD21R,0.06800X0.00050*%
%ADD22R,0.14550X0.00050*%
%ADD23R,0.14600X0.00050*%
%ADD24R,0.14650X0.00050*%
%ADD25R,0.06750X0.00050*%
%ADD26R,0.14700X0.00050*%
%ADD27R,0.06700X0.00050*%
%ADD28R,0.14750X0.00050*%
%ADD29R,0.06650X0.00050*%
%ADD30R,0.14800X0.00050*%
%ADD31R,0.06600X0.00050*%
%ADD32R,0.06550X0.00050*%
%ADD33R,0.14850X0.00050*%
%ADD34R,0.06500X0.00050*%
%ADD35R,0.06450X0.00050*%
%ADD36R,0.06400X0.00050*%
%ADD37R,0.06350X0.00050*%
%ADD38R,0.06300X0.00050*%
%ADD39R,0.14900X0.00050*%
%ADD40R,0.06250X0.00050*%
%ADD41R,0.06200X0.00050*%
%ADD42R,0.06150X0.00050*%
%ADD43R,0.06100X0.00050*%
%ADD44R,0.06050X0.00050*%
%ADD45R,0.06000X0.00050*%
%ADD46R,0.05950X0.00050*%
%ADD47R,0.05900X0.00050*%
%ADD48R,0.03250X0.00050*%
%ADD49R,0.05500X0.00050*%
%ADD50R,0.03650X0.00050*%
%ADD51R,0.03200X0.00050*%
%ADD52R,0.04300X0.00050*%
%ADD53R,0.03800X0.00050*%
%ADD54R,0.03550X0.00050*%
%ADD55R,0.03350X0.00050*%
%ADD56R,0.03300X0.00050*%
%ADD57R,0.03600X0.00050*%
%ADD58R,0.03150X0.00050*%
%ADD59R,0.03100X0.00050*%
%ADD60R,0.03500X0.00050*%
%ADD61R,0.03850X0.00050*%
%ADD62R,0.07200X0.00050*%
%ADD63R,0.07500X0.00050*%
%ADD64R,0.07650X0.00050*%
%ADD65R,0.07850X0.00050*%
%ADD66R,0.07900X0.00050*%
%ADD67R,0.08000X0.00050*%
%ADD68R,0.08100X0.00050*%
%ADD69R,0.08150X0.00050*%
%ADD70R,0.08200X0.00050*%
%ADD71R,0.08250X0.00050*%
%ADD72R,0.08050X0.00050*%
%ADD73R,0.07000X0.00050*%
%ADD74R,0.07950X0.00050*%
%ADD75R,0.07750X0.00050*%
%ADD76R,0.07450X0.00050*%
%ADD77R,0.07050X0.00050*%
%ADD78R,0.03900X0.00050*%
%ADD79R,0.05850X0.00050*%
%ADD80R,0.05750X0.00050*%
%ADD81R,0.05700X0.00050*%
%ADD82R,0.05650X0.00050*%
%ADD83R,0.05550X0.00050*%
%ADD84R,0.05450X0.00050*%
%ADD85R,0.05400X0.00050*%
%ADD86R,0.05300X0.00050*%
%ADD87R,0.03950X0.00050*%
%ADD88R,0.08400X0.00050*%
%ADD89R,0.05250X0.00050*%
%ADD90R,0.05200X0.00050*%
%ADD91R,0.05150X0.00050*%
%ADD92R,0.05100X0.00050*%
%ADD93R,0.05050X0.00050*%
%ADD94R,0.04950X0.00050*%
%ADD95R,0.04850X0.00050*%
%ADD96R,0.08350X0.00050*%
%ADD97R,0.04750X0.00050*%
%ADD98R,0.04700X0.00050*%
%ADD99R,0.04650X0.00050*%
%ADD100R,0.04600X0.00050*%
%ADD101R,0.04500X0.00050*%
%ADD102R,0.04450X0.00050*%
%ADD103R,0.08300X0.00050*%
%ADD104R,0.04400X0.00050*%
%ADD105R,0.04350X0.00050*%
%ADD106R,0.04250X0.00050*%
%ADD107R,0.04200X0.00050*%
%ADD108R,0.04150X0.00050*%
%ADD109R,0.04050X0.00050*%
%ADD110R,0.03700X0.00050*%
%ADD111R,0.07700X0.00050*%
%ADD112R,0.07350X0.00050*%
%ADD113R,0.05350X0.00050*%
%ADD114C,0.00600*%
%ADD115C,0.00500*%
%ADD116C,0.00400*%
%ADD117C,0.00800*%
D10*
X0009025Y0063400D02*
X0011494Y0063400D01*
X0010259Y0063400D02*
X0010259Y0067103D01*
X0009025Y0065869D01*
X0012708Y0065869D02*
X0013325Y0065252D01*
X0014560Y0065252D01*
X0015177Y0064634D01*
X0015177Y0064017D01*
X0014560Y0063400D01*
X0013325Y0063400D01*
X0012708Y0064017D01*
X0012708Y0064634D01*
X0013325Y0065252D01*
X0012708Y0065869D02*
X0012708Y0066486D01*
X0013325Y0067103D01*
X0014560Y0067103D01*
X0015177Y0066486D01*
X0015177Y0065869D01*
X0014560Y0065252D01*
X0028025Y0095900D02*
X0030494Y0098369D01*
X0030494Y0098986D01*
X0029877Y0099603D01*
X0028642Y0099603D01*
X0028025Y0098986D01*
X0028025Y0095900D02*
X0030494Y0095900D01*
X0038025Y0096517D02*
X0038642Y0095900D01*
X0039877Y0095900D01*
X0040494Y0096517D01*
X0040494Y0097134D01*
X0039877Y0097752D01*
X0039259Y0097752D01*
X0039877Y0097752D02*
X0040494Y0098369D01*
X0040494Y0098986D01*
X0039877Y0099603D01*
X0038642Y0099603D01*
X0038025Y0098986D01*
X0022513Y0108184D02*
X0022030Y0107700D01*
X0021062Y0107700D01*
X0020578Y0108184D01*
X0019567Y0108667D02*
X0019567Y0110602D01*
X0020578Y0110119D02*
X0021062Y0110602D01*
X0022030Y0110602D01*
X0022513Y0110119D01*
X0022513Y0109635D01*
X0022030Y0109151D01*
X0022513Y0108667D01*
X0022513Y0108184D01*
X0022030Y0109151D02*
X0021546Y0109151D01*
X0019567Y0108667D02*
X0018599Y0107700D01*
X0017632Y0108667D01*
X0017632Y0110602D01*
X0016620Y0110119D02*
X0016620Y0109635D01*
X0016137Y0109151D01*
X0016620Y0108667D01*
X0016620Y0108184D01*
X0016137Y0107700D01*
X0015169Y0107700D01*
X0014685Y0108184D01*
X0015653Y0109151D02*
X0016137Y0109151D01*
X0016620Y0110119D02*
X0016137Y0110602D01*
X0015169Y0110602D01*
X0014685Y0110119D01*
X0017366Y0137200D02*
X0016882Y0137684D01*
X0017366Y0137200D02*
X0018333Y0137200D01*
X0018817Y0137684D01*
X0018817Y0138651D01*
X0018333Y0139135D01*
X0017849Y0139135D01*
X0016882Y0138651D01*
X0016882Y0140102D01*
X0018817Y0140102D01*
X0019828Y0140102D02*
X0019828Y0138167D01*
X0020796Y0137200D01*
X0021763Y0138167D01*
X0021763Y0140102D01*
X0026882Y0139852D02*
X0026882Y0138401D01*
X0027849Y0138885D01*
X0028333Y0138885D01*
X0028817Y0138401D01*
X0028817Y0137434D01*
X0028333Y0136950D01*
X0027366Y0136950D01*
X0026882Y0137434D01*
X0026882Y0139852D02*
X0028817Y0139852D01*
X0029828Y0139852D02*
X0029828Y0137917D01*
X0030796Y0136950D01*
X0031763Y0137917D01*
X0031763Y0139852D01*
X0035485Y0139519D02*
X0035485Y0137584D01*
X0035969Y0137100D01*
X0036937Y0137100D01*
X0037420Y0137584D01*
X0037420Y0138551D01*
X0036453Y0138551D01*
X0037420Y0139519D02*
X0036937Y0140002D01*
X0035969Y0140002D01*
X0035485Y0139519D01*
X0038432Y0140002D02*
X0038432Y0137100D01*
X0040367Y0137100D02*
X0040367Y0140002D01*
X0041378Y0140002D02*
X0042830Y0140002D01*
X0043313Y0139519D01*
X0043313Y0137584D01*
X0042830Y0137100D01*
X0041378Y0137100D01*
X0041378Y0140002D01*
X0038432Y0140002D02*
X0040367Y0137100D01*
X0056169Y0110602D02*
X0055685Y0110119D01*
X0055685Y0108184D01*
X0056169Y0107700D01*
X0057137Y0107700D01*
X0057620Y0108184D01*
X0057620Y0109151D01*
X0056653Y0109151D01*
X0057620Y0110119D02*
X0057137Y0110602D01*
X0056169Y0110602D01*
X0058632Y0110602D02*
X0060567Y0107700D01*
X0060567Y0110602D01*
X0061578Y0110602D02*
X0063030Y0110602D01*
X0063513Y0110119D01*
X0063513Y0108184D01*
X0063030Y0107700D01*
X0061578Y0107700D01*
X0061578Y0110602D01*
X0058632Y0110602D02*
X0058632Y0107700D01*
X0067259Y0099603D02*
X0067259Y0095900D01*
X0066025Y0095900D02*
X0068494Y0095900D01*
X0069708Y0095900D02*
X0069708Y0096517D01*
X0072177Y0098986D01*
X0072177Y0099603D01*
X0069708Y0099603D01*
X0067259Y0099603D02*
X0066025Y0098369D01*
X0076525Y0098986D02*
X0077142Y0099603D01*
X0078377Y0099603D01*
X0078994Y0098986D01*
X0078994Y0098369D01*
X0076525Y0095900D01*
X0078994Y0095900D01*
X0080208Y0095900D02*
X0080208Y0096517D01*
X0082677Y0098986D01*
X0082677Y0099603D01*
X0080208Y0099603D01*
X0094025Y0098986D02*
X0094642Y0099603D01*
X0095877Y0099603D01*
X0096494Y0098986D01*
X0096494Y0098369D01*
X0095877Y0097752D01*
X0096494Y0097134D01*
X0096494Y0096517D01*
X0095877Y0095900D01*
X0094642Y0095900D01*
X0094025Y0096517D01*
X0095259Y0097752D02*
X0095877Y0097752D01*
X0097708Y0097134D02*
X0098943Y0095900D01*
X0100177Y0097134D01*
X0100177Y0099603D01*
X0101391Y0098986D02*
X0102008Y0099603D01*
X0103243Y0099603D01*
X0103860Y0098986D01*
X0103860Y0098369D01*
X0103243Y0097752D01*
X0103860Y0097134D01*
X0103860Y0096517D01*
X0103243Y0095900D01*
X0102008Y0095900D01*
X0101391Y0096517D01*
X0102626Y0097752D02*
X0103243Y0097752D01*
X0107525Y0098369D02*
X0108759Y0099603D01*
X0108759Y0095900D01*
X0107525Y0095900D02*
X0109994Y0095900D01*
X0111208Y0096517D02*
X0113677Y0098986D01*
X0113677Y0096517D01*
X0113060Y0095900D01*
X0111825Y0095900D01*
X0111208Y0096517D01*
X0111208Y0098986D01*
X0111825Y0099603D01*
X0113060Y0099603D01*
X0113677Y0098986D01*
X0118025Y0098986D02*
X0118025Y0098369D01*
X0118642Y0097752D01*
X0120494Y0097752D01*
X0120494Y0098986D02*
X0120494Y0096517D01*
X0119877Y0095900D01*
X0118642Y0095900D01*
X0118025Y0096517D01*
X0118025Y0098986D02*
X0118642Y0099603D01*
X0119877Y0099603D01*
X0120494Y0098986D01*
X0125525Y0098369D02*
X0126759Y0099603D01*
X0126759Y0095900D01*
X0125525Y0095900D02*
X0127994Y0095900D01*
X0129208Y0095900D02*
X0131677Y0095900D01*
X0130443Y0095900D02*
X0130443Y0099603D01*
X0129208Y0098369D01*
X0135025Y0098986D02*
X0135025Y0096517D01*
X0135642Y0095900D01*
X0136877Y0095900D01*
X0137494Y0096517D01*
X0137494Y0097752D01*
X0136259Y0097752D01*
X0135025Y0098986D02*
X0135642Y0099603D01*
X0136877Y0099603D01*
X0137494Y0098986D01*
X0138708Y0099603D02*
X0141177Y0095900D01*
X0141177Y0099603D01*
X0142391Y0099603D02*
X0144243Y0099603D01*
X0144860Y0098986D01*
X0144860Y0096517D01*
X0144243Y0095900D01*
X0142391Y0095900D01*
X0142391Y0099603D01*
X0138708Y0099603D02*
X0138708Y0095900D01*
X0147525Y0092486D02*
X0147525Y0091869D01*
X0148142Y0091252D01*
X0149377Y0091252D01*
X0149994Y0090634D01*
X0149994Y0090017D01*
X0149377Y0089400D01*
X0148142Y0089400D01*
X0147525Y0090017D01*
X0147525Y0090634D01*
X0148142Y0091252D01*
X0149377Y0091252D02*
X0149994Y0091869D01*
X0149994Y0092486D01*
X0149377Y0093103D01*
X0148142Y0093103D01*
X0147525Y0092486D01*
X0147525Y0083103D02*
X0149994Y0083103D01*
X0149994Y0082486D01*
X0147525Y0080017D01*
X0147525Y0079400D01*
X0151297Y0075246D02*
X0153916Y0072628D01*
X0152606Y0071318D01*
X0151733Y0071318D01*
X0150861Y0072191D01*
X0150861Y0073064D01*
X0152170Y0074373D01*
X0151306Y0070019D02*
X0150434Y0069146D01*
X0150870Y0069582D02*
X0148252Y0072201D01*
X0147815Y0071764D01*
X0147393Y0069596D02*
X0146520Y0068723D01*
X0146520Y0067851D01*
X0147393Y0066978D01*
X0148266Y0066978D01*
X0149139Y0067851D01*
X0148702Y0069160D02*
X0148266Y0069596D01*
X0147393Y0069596D01*
X0148702Y0069160D02*
X0146956Y0067414D01*
X0146966Y0065678D02*
X0146093Y0064805D01*
X0146529Y0065242D02*
X0144784Y0066987D01*
X0144347Y0066551D01*
X0143925Y0065256D02*
X0143052Y0065256D01*
X0142179Y0064383D01*
X0142179Y0063510D01*
X0141757Y0062215D02*
X0140884Y0062215D01*
X0140011Y0061342D01*
X0139139Y0061342D01*
X0138702Y0061779D01*
X0138702Y0062651D01*
X0139575Y0063524D01*
X0140448Y0063524D01*
X0140870Y0064819D02*
X0143489Y0062201D01*
X0142194Y0061779D02*
X0142194Y0060906D01*
X0141321Y0060033D01*
X0140448Y0060033D01*
X0138716Y0060047D02*
X0136971Y0058301D01*
X0136112Y0057443D02*
X0136985Y0056570D01*
X0136985Y0055697D01*
X0135676Y0054388D01*
X0136548Y0053515D02*
X0133930Y0056133D01*
X0135239Y0057443D01*
X0136112Y0057443D01*
X0133071Y0055275D02*
X0131762Y0053965D01*
X0131762Y0053093D01*
X0132635Y0053093D01*
X0133508Y0053965D01*
X0134380Y0053965D01*
X0134380Y0053093D01*
X0133071Y0051783D01*
X0132213Y0050925D02*
X0130903Y0049615D01*
X0130030Y0049615D01*
X0130030Y0050488D01*
X0131340Y0051797D01*
X0130903Y0052234D02*
X0132213Y0050925D01*
X0130903Y0052234D02*
X0130030Y0052234D01*
X0129158Y0051361D01*
X0128299Y0049630D02*
X0127426Y0050502D01*
X0126553Y0050502D01*
X0125244Y0049193D01*
X0127862Y0046575D01*
X0126990Y0047447D02*
X0128299Y0048757D01*
X0128299Y0049630D01*
X0127862Y0048320D02*
X0129608Y0048320D01*
X0130440Y0045389D02*
X0130004Y0044080D01*
X0130004Y0042334D01*
X0131313Y0043644D01*
X0132186Y0043644D01*
X0132622Y0043207D01*
X0132622Y0042334D01*
X0131750Y0041462D01*
X0130877Y0041462D01*
X0130004Y0042334D01*
X0130454Y0040167D02*
X0128709Y0038421D01*
X0129582Y0039294D02*
X0126963Y0041912D01*
X0126963Y0040167D01*
X0125668Y0039744D02*
X0127414Y0037999D01*
X0127414Y0037126D01*
X0126541Y0036253D01*
X0125668Y0036253D01*
X0125668Y0039744D01*
X0124795Y0039744D01*
X0123922Y0038871D01*
X0123922Y0037999D01*
X0125668Y0036253D01*
X0125246Y0034958D02*
X0123500Y0033212D01*
X0123500Y0036703D01*
X0123064Y0037140D01*
X0122191Y0037140D01*
X0121318Y0036267D01*
X0121318Y0035394D01*
X0118313Y0037025D02*
X0116567Y0038771D01*
X0117877Y0040080D01*
X0118750Y0040080D01*
X0120059Y0038771D01*
X0120917Y0039630D02*
X0121790Y0040502D01*
X0121354Y0040066D02*
X0119608Y0041812D01*
X0119172Y0041375D01*
X0118735Y0042685D02*
X0118299Y0043121D01*
X0121344Y0043548D02*
X0122217Y0044421D01*
X0123090Y0044421D01*
X0123527Y0043984D01*
X0121781Y0042239D01*
X0122217Y0041802D02*
X0121344Y0042675D01*
X0121344Y0043548D01*
X0122217Y0041802D02*
X0123090Y0041802D01*
X0123963Y0042675D01*
X0117454Y0036167D02*
X0116145Y0037476D01*
X0115272Y0037476D01*
X0113963Y0036167D01*
X0115709Y0034421D01*
X0114414Y0033999D02*
X0114414Y0033126D01*
X0113541Y0032253D01*
X0112668Y0032253D01*
X0111795Y0033126D01*
X0111795Y0033999D01*
X0112668Y0034871D01*
X0113541Y0034871D01*
X0114414Y0033999D01*
X0111809Y0031394D02*
X0110064Y0033140D01*
X0109191Y0033140D01*
X0107881Y0031831D01*
X0110500Y0029212D01*
X0111809Y0030521D01*
X0111809Y0031394D01*
X0109483Y0036900D02*
X0107014Y0036900D01*
X0106397Y0037517D01*
X0106397Y0038752D01*
X0107014Y0039369D01*
X0108248Y0039369D02*
X0108248Y0038134D01*
X0108248Y0039369D02*
X0109483Y0039369D01*
X0110100Y0038752D01*
X0110100Y0037517D01*
X0109483Y0036900D01*
X0110100Y0040583D02*
X0106397Y0040583D01*
X0110100Y0043052D01*
X0106397Y0043052D01*
X0106397Y0044266D02*
X0106397Y0046118D01*
X0107014Y0046735D01*
X0109483Y0046735D01*
X0110100Y0046118D01*
X0110100Y0044266D01*
X0106397Y0044266D01*
X0133045Y0047994D02*
X0133917Y0043630D01*
X0136085Y0046670D02*
X0136085Y0050162D01*
X0137831Y0048416D01*
X0137831Y0047543D01*
X0136958Y0046670D01*
X0136085Y0046670D01*
X0134340Y0048416D01*
X0134340Y0049289D01*
X0135213Y0050162D01*
X0136085Y0050162D01*
X0137381Y0050584D02*
X0137381Y0052330D01*
X0139999Y0049711D01*
X0139126Y0048838D02*
X0140872Y0050584D01*
X0141731Y0051443D02*
X0140858Y0055807D01*
X0142589Y0055793D02*
X0142589Y0057538D01*
X0145208Y0054920D01*
X0144335Y0054047D02*
X0146081Y0055793D01*
X0146503Y0057088D02*
X0146066Y0057524D01*
X0146066Y0058397D01*
X0146939Y0059270D01*
X0147812Y0059270D01*
X0148249Y0058834D01*
X0148249Y0057961D01*
X0147376Y0057088D01*
X0146503Y0057088D01*
X0146066Y0058397D02*
X0145194Y0058397D01*
X0144757Y0058834D01*
X0144757Y0059706D01*
X0145630Y0060579D01*
X0146503Y0060579D01*
X0146939Y0060143D01*
X0146939Y0059270D01*
X0145234Y0063946D02*
X0143925Y0065256D01*
X0143911Y0067860D02*
X0143474Y0068297D01*
X0141757Y0062215D02*
X0142194Y0061779D01*
X0097708Y0097134D02*
X0097708Y0099603D01*
X0105969Y0137200D02*
X0106937Y0137200D01*
X0107420Y0137684D01*
X0107420Y0138651D01*
X0106453Y0138651D01*
X0105485Y0137684D02*
X0105969Y0137200D01*
X0105485Y0137684D02*
X0105485Y0139619D01*
X0105969Y0140102D01*
X0106937Y0140102D01*
X0107420Y0139619D01*
X0108432Y0140102D02*
X0108432Y0137200D01*
X0110367Y0137200D02*
X0110367Y0140102D01*
X0111378Y0140102D02*
X0112830Y0140102D01*
X0113313Y0139619D01*
X0113313Y0137684D01*
X0112830Y0137200D01*
X0111378Y0137200D01*
X0111378Y0140102D01*
X0108432Y0140102D02*
X0110367Y0137200D01*
X0083313Y0137384D02*
X0083313Y0139319D01*
X0082830Y0139802D01*
X0081378Y0139802D01*
X0081378Y0136900D01*
X0082830Y0136900D01*
X0083313Y0137384D01*
X0080367Y0136900D02*
X0080367Y0139802D01*
X0078432Y0139802D02*
X0080367Y0136900D01*
X0078432Y0136900D02*
X0078432Y0139802D01*
X0077420Y0139319D02*
X0076937Y0139802D01*
X0075969Y0139802D01*
X0075485Y0139319D01*
X0075485Y0137384D01*
X0075969Y0136900D01*
X0076937Y0136900D01*
X0077420Y0137384D01*
X0077420Y0138351D01*
X0076453Y0138351D01*
D11*
X0013114Y0016136D02*
X0016136Y0013114D01*
X0018920Y0010330D02*
X0021943Y0007307D01*
X0024727Y0004523D02*
X0027750Y0001500D01*
X0032237Y0001500D01*
X0036174Y0001500D02*
X0040660Y0001500D01*
X0044597Y0001500D02*
X0049084Y0001500D01*
X0053021Y0001500D02*
X0057507Y0001500D01*
X0061444Y0001500D02*
X0065931Y0001500D01*
X0069868Y0001500D02*
X0074354Y0001500D01*
X0078291Y0001500D02*
X0082778Y0001500D01*
X0086715Y0001500D02*
X0091201Y0001500D01*
X0095138Y0001500D02*
X0099625Y0001500D01*
X0102698Y0004573D01*
X0105482Y0007357D02*
X0108555Y0010430D01*
X0111339Y0013214D02*
X0114412Y0016287D01*
X0117196Y0019071D02*
X0120269Y0022144D01*
X0123053Y0024928D02*
X0126126Y0028001D01*
X0128910Y0030785D02*
X0131983Y0033858D01*
X0134767Y0036642D02*
X0137840Y0039715D01*
X0140624Y0042499D02*
X0143697Y0045572D01*
X0146481Y0048356D02*
X0149554Y0051429D01*
X0152338Y0054213D02*
X0155411Y0057286D01*
X0158195Y0060070D02*
X0161268Y0063143D01*
X0164052Y0065927D02*
X0167125Y0069000D01*
X0167125Y0072957D01*
X0167125Y0076894D02*
X0167125Y0080850D01*
X0167125Y0084787D02*
X0167125Y0088744D01*
X0167125Y0092681D02*
X0167125Y0096638D01*
X0167125Y0100575D02*
X0167125Y0104531D01*
X0167125Y0108469D02*
X0167125Y0112425D01*
X0167125Y0116362D02*
X0167125Y0120319D01*
X0167125Y0124256D02*
X0167125Y0128213D01*
X0167125Y0132150D02*
X0167125Y0136106D01*
X0167125Y0140043D02*
X0167125Y0144000D01*
X0162988Y0144000D01*
X0159051Y0144000D02*
X0154913Y0144000D01*
X0150976Y0144000D02*
X0146839Y0144000D01*
X0142902Y0144000D02*
X0138764Y0144000D01*
X0134827Y0144000D02*
X0130690Y0144000D01*
X0126753Y0144000D02*
X0122616Y0144000D01*
X0118679Y0144000D02*
X0114541Y0144000D01*
X0110604Y0144000D02*
X0106467Y0144000D01*
X0102530Y0144000D02*
X0098393Y0144000D01*
X0094456Y0144000D02*
X0090318Y0144000D01*
X0086381Y0144000D02*
X0082244Y0144000D01*
X0078307Y0144000D02*
X0074169Y0144000D01*
X0070232Y0144000D02*
X0066095Y0144000D01*
X0062158Y0144000D02*
X0058021Y0144000D01*
X0054084Y0144000D02*
X0049946Y0144000D01*
X0046009Y0144000D02*
X0041872Y0144000D01*
X0037935Y0144000D02*
X0033798Y0144000D01*
X0029861Y0144000D02*
X0025723Y0144000D01*
X0021786Y0144000D02*
X0017649Y0144000D01*
X0013712Y0144000D02*
X0009574Y0144000D01*
X0005637Y0144000D02*
X0001500Y0144000D01*
X0001500Y0139925D01*
X0001500Y0135988D02*
X0001500Y0131912D01*
X0001500Y0127975D02*
X0001500Y0123900D01*
X0001500Y0119963D02*
X0001500Y0115887D01*
X0001500Y0111950D02*
X0001500Y0107875D01*
X0001500Y0103938D02*
X0001500Y0099862D01*
X0001500Y0095925D02*
X0001500Y0091850D01*
X0001500Y0087913D02*
X0001500Y0083837D01*
X0001500Y0079900D02*
X0001500Y0075825D01*
X0001500Y0071888D02*
X0001500Y0067812D01*
X0001500Y0063875D02*
X0001500Y0059800D01*
X0001500Y0055863D02*
X0001500Y0051787D01*
X0001500Y0047850D02*
X0001500Y0043775D01*
X0001500Y0039838D02*
X0001500Y0035762D01*
X0001500Y0031825D02*
X0001500Y0027750D01*
X0004523Y0024727D01*
X0007307Y0021943D02*
X0010330Y0018920D01*
D12*
G36*
X0139154Y0065693D02*
X0134311Y0060850D01*
X0134276Y0060885D01*
X0139119Y0065728D01*
X0139154Y0065693D01*
G37*
G36*
X0139331Y0065587D02*
X0134488Y0060744D01*
X0134453Y0060779D01*
X0139296Y0065622D01*
X0139331Y0065587D01*
G37*
G36*
X0139190Y0065658D02*
X0134347Y0060815D01*
X0134312Y0060850D01*
X0139155Y0065693D01*
X0139190Y0065658D01*
G37*
D13*
G36*
X0128229Y0054556D02*
X0119816Y0046143D01*
X0119781Y0046178D01*
X0128194Y0054591D01*
X0128229Y0054556D01*
G37*
D14*
G36*
X0129290Y0059011D02*
X0126851Y0056572D01*
X0126816Y0056607D01*
X0129255Y0059046D01*
X0129290Y0059011D01*
G37*
G36*
X0132755Y0061415D02*
X0130316Y0058976D01*
X0130281Y0059011D01*
X0132720Y0061450D01*
X0132755Y0061415D01*
G37*
G36*
X0132543Y0061910D02*
X0130104Y0059471D01*
X0130069Y0059506D01*
X0132508Y0061945D01*
X0132543Y0061910D01*
G37*
G36*
X0132296Y0062441D02*
X0129857Y0060002D01*
X0129822Y0060037D01*
X0132261Y0062476D01*
X0132296Y0062441D01*
G37*
G36*
X0132048Y0062971D02*
X0129609Y0060532D01*
X0129574Y0060567D01*
X0132013Y0063006D01*
X0132048Y0062971D01*
G37*
G36*
X0131765Y0063607D02*
X0129326Y0061168D01*
X0129291Y0061203D01*
X0131730Y0063642D01*
X0131765Y0063607D01*
G37*
G36*
X0131518Y0064138D02*
X0129079Y0061699D01*
X0129044Y0061734D01*
X0131483Y0064173D01*
X0131518Y0064138D01*
G37*
G36*
X0131270Y0064668D02*
X0128831Y0062229D01*
X0128796Y0062264D01*
X0131235Y0064703D01*
X0131270Y0064668D01*
G37*
G36*
X0131023Y0065198D02*
X0128584Y0062759D01*
X0128549Y0062794D01*
X0130988Y0065233D01*
X0131023Y0065198D01*
G37*
G36*
X0131058Y0065092D02*
X0128619Y0062653D01*
X0128584Y0062688D01*
X0131023Y0065127D01*
X0131058Y0065092D01*
G37*
G36*
X0131094Y0065057D02*
X0128655Y0062618D01*
X0128620Y0062653D01*
X0131059Y0065092D01*
X0131094Y0065057D01*
G37*
G36*
X0131129Y0064951D02*
X0128690Y0062512D01*
X0128655Y0062547D01*
X0131094Y0064986D01*
X0131129Y0064951D01*
G37*
G36*
X0131164Y0064916D02*
X0128725Y0062477D01*
X0128690Y0062512D01*
X0131129Y0064951D01*
X0131164Y0064916D01*
G37*
G36*
X0131164Y0064845D02*
X0128725Y0062406D01*
X0128690Y0062441D01*
X0131129Y0064880D01*
X0131164Y0064845D01*
G37*
G36*
X0131200Y0064810D02*
X0128761Y0062371D01*
X0128726Y0062406D01*
X0131165Y0064845D01*
X0131200Y0064810D01*
G37*
G36*
X0131235Y0064703D02*
X0128796Y0062264D01*
X0128761Y0062299D01*
X0131200Y0064738D01*
X0131235Y0064703D01*
G37*
G36*
X0131306Y0064562D02*
X0128867Y0062123D01*
X0128832Y0062158D01*
X0131271Y0064597D01*
X0131306Y0064562D01*
G37*
G36*
X0131341Y0064527D02*
X0128902Y0062088D01*
X0128867Y0062123D01*
X0131306Y0064562D01*
X0131341Y0064527D01*
G37*
G36*
X0131376Y0064421D02*
X0128937Y0061982D01*
X0128902Y0062017D01*
X0131341Y0064456D01*
X0131376Y0064421D01*
G37*
G36*
X0131412Y0064315D02*
X0128973Y0061876D01*
X0128938Y0061911D01*
X0131377Y0064350D01*
X0131412Y0064315D01*
G37*
G36*
X0131447Y0064279D02*
X0129008Y0061840D01*
X0128973Y0061875D01*
X0131412Y0064314D01*
X0131447Y0064279D01*
G37*
G36*
X0131482Y0064173D02*
X0129043Y0061734D01*
X0129008Y0061769D01*
X0131447Y0064208D01*
X0131482Y0064173D01*
G37*
G36*
X0131553Y0064032D02*
X0129114Y0061593D01*
X0129079Y0061628D01*
X0131518Y0064067D01*
X0131553Y0064032D01*
G37*
G36*
X0131588Y0063926D02*
X0129149Y0061487D01*
X0129114Y0061522D01*
X0131553Y0063961D01*
X0131588Y0063926D01*
G37*
G36*
X0131624Y0063890D02*
X0129185Y0061451D01*
X0129150Y0061486D01*
X0131589Y0063925D01*
X0131624Y0063890D01*
G37*
G36*
X0131659Y0063784D02*
X0129220Y0061345D01*
X0129185Y0061380D01*
X0131624Y0063819D01*
X0131659Y0063784D01*
G37*
G36*
X0131695Y0063749D02*
X0129256Y0061310D01*
X0129221Y0061345D01*
X0131660Y0063784D01*
X0131695Y0063749D01*
G37*
G36*
X0131730Y0063643D02*
X0129291Y0061204D01*
X0129256Y0061239D01*
X0131695Y0063678D01*
X0131730Y0063643D01*
G37*
G36*
X0131801Y0063501D02*
X0129362Y0061062D01*
X0129327Y0061097D01*
X0131766Y0063536D01*
X0131801Y0063501D01*
G37*
G36*
X0131836Y0063395D02*
X0129397Y0060956D01*
X0129362Y0060991D01*
X0131801Y0063430D01*
X0131836Y0063395D01*
G37*
G36*
X0131871Y0063360D02*
X0129432Y0060921D01*
X0129397Y0060956D01*
X0131836Y0063395D01*
X0131871Y0063360D01*
G37*
G36*
X0131907Y0063254D02*
X0129468Y0060815D01*
X0129433Y0060850D01*
X0131872Y0063289D01*
X0131907Y0063254D01*
G37*
G36*
X0131942Y0063219D02*
X0129503Y0060780D01*
X0129468Y0060815D01*
X0131907Y0063254D01*
X0131942Y0063219D01*
G37*
G36*
X0131977Y0063112D02*
X0129538Y0060673D01*
X0129503Y0060708D01*
X0131942Y0063147D01*
X0131977Y0063112D01*
G37*
G36*
X0132013Y0063006D02*
X0129574Y0060567D01*
X0129539Y0060602D01*
X0131978Y0063041D01*
X0132013Y0063006D01*
G37*
G36*
X0132083Y0062865D02*
X0129644Y0060426D01*
X0129609Y0060461D01*
X0132048Y0062900D01*
X0132083Y0062865D01*
G37*
G36*
X0132119Y0062830D02*
X0129680Y0060391D01*
X0129645Y0060426D01*
X0132084Y0062865D01*
X0132119Y0062830D01*
G37*
G36*
X0132154Y0062724D02*
X0129715Y0060285D01*
X0129680Y0060320D01*
X0132119Y0062759D01*
X0132154Y0062724D01*
G37*
G36*
X0132225Y0062582D02*
X0129786Y0060143D01*
X0129751Y0060178D01*
X0132190Y0062617D01*
X0132225Y0062582D01*
G37*
G36*
X0132260Y0062476D02*
X0129821Y0060037D01*
X0129786Y0060072D01*
X0132225Y0062511D01*
X0132260Y0062476D01*
G37*
G36*
X0132331Y0062335D02*
X0129892Y0059896D01*
X0129857Y0059931D01*
X0132296Y0062370D01*
X0132331Y0062335D01*
G37*
G36*
X0132366Y0062299D02*
X0129927Y0059860D01*
X0129892Y0059895D01*
X0132331Y0062334D01*
X0132366Y0062299D01*
G37*
G36*
X0132402Y0062193D02*
X0129963Y0059754D01*
X0129928Y0059789D01*
X0132367Y0062228D01*
X0132402Y0062193D01*
G37*
G36*
X0132437Y0062087D02*
X0129998Y0059648D01*
X0129963Y0059683D01*
X0132402Y0062122D01*
X0132437Y0062087D01*
G37*
G36*
X0132472Y0062052D02*
X0130033Y0059613D01*
X0129998Y0059648D01*
X0132437Y0062087D01*
X0132472Y0062052D01*
G37*
G36*
X0132508Y0061946D02*
X0130069Y0059507D01*
X0130034Y0059542D01*
X0132473Y0061981D01*
X0132508Y0061946D01*
G37*
G36*
X0132578Y0061804D02*
X0130139Y0059365D01*
X0130104Y0059400D01*
X0132543Y0061839D01*
X0132578Y0061804D01*
G37*
G36*
X0132649Y0061663D02*
X0130210Y0059224D01*
X0130175Y0059259D01*
X0132614Y0061698D01*
X0132649Y0061663D01*
G37*
G36*
X0132685Y0061557D02*
X0130246Y0059118D01*
X0130211Y0059153D01*
X0132650Y0061592D01*
X0132685Y0061557D01*
G37*
G36*
X0132720Y0061522D02*
X0130281Y0059083D01*
X0130246Y0059118D01*
X0132685Y0061557D01*
X0132720Y0061522D01*
G37*
G36*
X0132826Y0061274D02*
X0130387Y0058835D01*
X0130352Y0058870D01*
X0132791Y0061309D01*
X0132826Y0061274D01*
G37*
G36*
X0132861Y0061168D02*
X0130422Y0058729D01*
X0130387Y0058764D01*
X0132826Y0061203D01*
X0132861Y0061168D01*
G37*
G36*
X0132897Y0061133D02*
X0130458Y0058694D01*
X0130423Y0058729D01*
X0132862Y0061168D01*
X0132897Y0061133D01*
G37*
G36*
X0132932Y0061027D02*
X0130493Y0058588D01*
X0130458Y0058623D01*
X0132897Y0061062D01*
X0132932Y0061027D01*
G37*
G36*
X0133003Y0060885D02*
X0130564Y0058446D01*
X0130529Y0058481D01*
X0132968Y0060920D01*
X0133003Y0060885D01*
G37*
G36*
X0133073Y0060744D02*
X0130634Y0058305D01*
X0130599Y0058340D01*
X0133038Y0060779D01*
X0133073Y0060744D01*
G37*
G36*
X0133109Y0060638D02*
X0130670Y0058199D01*
X0130635Y0058234D01*
X0133074Y0060673D01*
X0133109Y0060638D01*
G37*
G36*
X0133144Y0060602D02*
X0130705Y0058163D01*
X0130670Y0058198D01*
X0133109Y0060637D01*
X0133144Y0060602D01*
G37*
G36*
X0133179Y0060496D02*
X0130740Y0058057D01*
X0130705Y0058092D01*
X0133144Y0060531D01*
X0133179Y0060496D01*
G37*
G36*
X0133250Y0060355D02*
X0130811Y0057916D01*
X0130776Y0057951D01*
X0133215Y0060390D01*
X0133250Y0060355D01*
G37*
G36*
X0133286Y0060249D02*
X0130847Y0057810D01*
X0130812Y0057845D01*
X0133251Y0060284D01*
X0133286Y0060249D01*
G37*
G36*
X0133321Y0060213D02*
X0130882Y0057774D01*
X0130847Y0057809D01*
X0133286Y0060248D01*
X0133321Y0060213D01*
G37*
G36*
X0133356Y0060107D02*
X0130917Y0057668D01*
X0130882Y0057703D01*
X0133321Y0060142D01*
X0133356Y0060107D01*
G37*
G36*
X0133427Y0059966D02*
X0130988Y0057527D01*
X0130953Y0057562D01*
X0133392Y0060001D01*
X0133427Y0059966D01*
G37*
G36*
X0133498Y0059824D02*
X0131059Y0057385D01*
X0131024Y0057420D01*
X0133463Y0059859D01*
X0133498Y0059824D01*
G37*
G36*
X0129114Y0069300D02*
X0126675Y0066861D01*
X0126640Y0066896D01*
X0129079Y0069335D01*
X0129114Y0069300D01*
G37*
G36*
X0123457Y0060390D02*
X0121018Y0057951D01*
X0120983Y0057986D01*
X0123422Y0060425D01*
X0123457Y0060390D01*
G37*
D15*
G36*
X0133392Y0067779D02*
X0128514Y0062901D01*
X0128478Y0062937D01*
X0133356Y0067815D01*
X0133392Y0067779D01*
G37*
G36*
X0133427Y0067743D02*
X0128549Y0062865D01*
X0128513Y0062901D01*
X0133391Y0067779D01*
X0133427Y0067743D01*
G37*
G36*
X0139261Y0065657D02*
X0134383Y0060779D01*
X0134347Y0060815D01*
X0139225Y0065693D01*
X0139261Y0065657D01*
G37*
G36*
X0139296Y0065622D02*
X0134418Y0060744D01*
X0134382Y0060780D01*
X0139260Y0065658D01*
X0139296Y0065622D01*
G37*
D16*
G36*
X0129397Y0055793D02*
X0119781Y0046177D01*
X0119745Y0046213D01*
X0129361Y0055829D01*
X0129397Y0055793D01*
G37*
D17*
G36*
X0133462Y0059859D02*
X0131059Y0057456D01*
X0131024Y0057491D01*
X0133427Y0059894D01*
X0133462Y0059859D01*
G37*
G36*
X0133215Y0060390D02*
X0130812Y0057987D01*
X0130777Y0058022D01*
X0133180Y0060425D01*
X0133215Y0060390D01*
G37*
G36*
X0132967Y0060920D02*
X0130564Y0058517D01*
X0130529Y0058552D01*
X0132932Y0060955D01*
X0132967Y0060920D01*
G37*
G36*
X0132720Y0061450D02*
X0130317Y0059047D01*
X0130282Y0059082D01*
X0132685Y0061485D01*
X0132720Y0061450D01*
G37*
G36*
X0132472Y0061981D02*
X0130069Y0059578D01*
X0130034Y0059613D01*
X0132437Y0062016D01*
X0132472Y0061981D01*
G37*
G36*
X0132189Y0062617D02*
X0129786Y0060214D01*
X0129751Y0060249D01*
X0132154Y0062652D01*
X0132189Y0062617D01*
G37*
G36*
X0131942Y0063148D02*
X0129539Y0060745D01*
X0129504Y0060780D01*
X0131907Y0063183D01*
X0131942Y0063148D01*
G37*
G36*
X0131694Y0063678D02*
X0129291Y0061275D01*
X0129256Y0061310D01*
X0131659Y0063713D01*
X0131694Y0063678D01*
G37*
G36*
X0131447Y0064208D02*
X0129044Y0061805D01*
X0129009Y0061840D01*
X0131412Y0064243D01*
X0131447Y0064208D01*
G37*
G36*
X0131199Y0064739D02*
X0128796Y0062336D01*
X0128761Y0062371D01*
X0131164Y0064774D01*
X0131199Y0064739D01*
G37*
G36*
X0131022Y0065127D02*
X0128619Y0062724D01*
X0128584Y0062759D01*
X0130987Y0065162D01*
X0131022Y0065127D01*
G37*
G36*
X0131093Y0064986D02*
X0128690Y0062583D01*
X0128655Y0062618D01*
X0131058Y0065021D01*
X0131093Y0064986D01*
G37*
G36*
X0131270Y0064597D02*
X0128867Y0062194D01*
X0128832Y0062229D01*
X0131235Y0064632D01*
X0131270Y0064597D01*
G37*
G36*
X0131341Y0064456D02*
X0128938Y0062053D01*
X0128903Y0062088D01*
X0131306Y0064491D01*
X0131341Y0064456D01*
G37*
G36*
X0131376Y0064350D02*
X0128973Y0061947D01*
X0128938Y0061982D01*
X0131341Y0064385D01*
X0131376Y0064350D01*
G37*
G36*
X0131517Y0064067D02*
X0129114Y0061664D01*
X0129079Y0061699D01*
X0131482Y0064102D01*
X0131517Y0064067D01*
G37*
G36*
X0131553Y0063961D02*
X0129150Y0061558D01*
X0129115Y0061593D01*
X0131518Y0063996D01*
X0131553Y0063961D01*
G37*
G36*
X0131624Y0063819D02*
X0129221Y0061416D01*
X0129186Y0061451D01*
X0131589Y0063854D01*
X0131624Y0063819D01*
G37*
G36*
X0131765Y0063536D02*
X0129362Y0061133D01*
X0129327Y0061168D01*
X0131730Y0063571D01*
X0131765Y0063536D01*
G37*
G36*
X0131800Y0063430D02*
X0129397Y0061027D01*
X0129362Y0061062D01*
X0131765Y0063465D01*
X0131800Y0063430D01*
G37*
G36*
X0131871Y0063289D02*
X0129468Y0060886D01*
X0129433Y0060921D01*
X0131836Y0063324D01*
X0131871Y0063289D01*
G37*
G36*
X0131977Y0063041D02*
X0129574Y0060638D01*
X0129539Y0060673D01*
X0131942Y0063076D01*
X0131977Y0063041D01*
G37*
G36*
X0132048Y0062900D02*
X0129645Y0060497D01*
X0129610Y0060532D01*
X0132013Y0062935D01*
X0132048Y0062900D01*
G37*
G36*
X0132118Y0062759D02*
X0129715Y0060356D01*
X0129680Y0060391D01*
X0132083Y0062794D01*
X0132118Y0062759D01*
G37*
G36*
X0132154Y0062653D02*
X0129751Y0060250D01*
X0129716Y0060285D01*
X0132119Y0062688D01*
X0132154Y0062653D01*
G37*
G36*
X0132225Y0062511D02*
X0129822Y0060108D01*
X0129787Y0060143D01*
X0132190Y0062546D01*
X0132225Y0062511D01*
G37*
G36*
X0132295Y0062370D02*
X0129892Y0059967D01*
X0129857Y0060002D01*
X0132260Y0062405D01*
X0132295Y0062370D01*
G37*
G36*
X0132366Y0062228D02*
X0129963Y0059825D01*
X0129928Y0059860D01*
X0132331Y0062263D01*
X0132366Y0062228D01*
G37*
G36*
X0132401Y0062122D02*
X0129998Y0059719D01*
X0129963Y0059754D01*
X0132366Y0062157D01*
X0132401Y0062122D01*
G37*
G36*
X0132543Y0061839D02*
X0130140Y0059436D01*
X0130105Y0059471D01*
X0132508Y0061874D01*
X0132543Y0061839D01*
G37*
G36*
X0132578Y0061733D02*
X0130175Y0059330D01*
X0130140Y0059365D01*
X0132543Y0061768D01*
X0132578Y0061733D01*
G37*
G36*
X0132613Y0061698D02*
X0130210Y0059295D01*
X0130175Y0059330D01*
X0132578Y0061733D01*
X0132613Y0061698D01*
G37*
G36*
X0132649Y0061592D02*
X0130246Y0059189D01*
X0130211Y0059224D01*
X0132614Y0061627D01*
X0132649Y0061592D01*
G37*
G36*
X0132755Y0061344D02*
X0130352Y0058941D01*
X0130317Y0058976D01*
X0132720Y0061379D01*
X0132755Y0061344D01*
G37*
G36*
X0132790Y0061309D02*
X0130387Y0058906D01*
X0130352Y0058941D01*
X0132755Y0061344D01*
X0132790Y0061309D01*
G37*
G36*
X0132826Y0061203D02*
X0130423Y0058800D01*
X0130388Y0058835D01*
X0132791Y0061238D01*
X0132826Y0061203D01*
G37*
G36*
X0132896Y0061062D02*
X0130493Y0058659D01*
X0130458Y0058694D01*
X0132861Y0061097D01*
X0132896Y0061062D01*
G37*
G36*
X0132932Y0060955D02*
X0130529Y0058552D01*
X0130494Y0058587D01*
X0132897Y0060990D01*
X0132932Y0060955D01*
G37*
G36*
X0133002Y0060814D02*
X0130599Y0058411D01*
X0130564Y0058446D01*
X0132967Y0060849D01*
X0133002Y0060814D01*
G37*
G36*
X0133038Y0060779D02*
X0130635Y0058376D01*
X0130600Y0058411D01*
X0133003Y0060814D01*
X0133038Y0060779D01*
G37*
G36*
X0133073Y0060673D02*
X0130670Y0058270D01*
X0130635Y0058305D01*
X0133038Y0060708D01*
X0133073Y0060673D01*
G37*
G36*
X0133144Y0060531D02*
X0130741Y0058128D01*
X0130706Y0058163D01*
X0133109Y0060566D01*
X0133144Y0060531D01*
G37*
G36*
X0133179Y0060425D02*
X0130776Y0058022D01*
X0130741Y0058057D01*
X0133144Y0060460D01*
X0133179Y0060425D01*
G37*
G36*
X0133250Y0060284D02*
X0130847Y0057881D01*
X0130812Y0057916D01*
X0133215Y0060319D01*
X0133250Y0060284D01*
G37*
G36*
X0133321Y0060142D02*
X0130918Y0057739D01*
X0130883Y0057774D01*
X0133286Y0060177D01*
X0133321Y0060142D01*
G37*
G36*
X0133356Y0060036D02*
X0130953Y0057633D01*
X0130918Y0057668D01*
X0133321Y0060071D01*
X0133356Y0060036D01*
G37*
G36*
X0133391Y0060001D02*
X0130988Y0057598D01*
X0130953Y0057633D01*
X0133356Y0060036D01*
X0133391Y0060001D01*
G37*
G36*
X0133427Y0059895D02*
X0131024Y0057492D01*
X0130989Y0057527D01*
X0133392Y0059930D01*
X0133427Y0059895D01*
G37*
G36*
X0129078Y0069335D02*
X0126675Y0066932D01*
X0126640Y0066967D01*
X0129043Y0069370D01*
X0129078Y0069335D01*
G37*
G36*
X0124093Y0058905D02*
X0121690Y0056502D01*
X0121655Y0056537D01*
X0124058Y0058940D01*
X0124093Y0058905D01*
G37*
D18*
G36*
X0129750Y0056218D02*
X0119745Y0046213D01*
X0119710Y0046248D01*
X0129715Y0056253D01*
X0129750Y0056218D01*
G37*
D19*
G36*
X0129892Y0056430D02*
X0119746Y0046284D01*
X0119710Y0046320D01*
X0129856Y0056466D01*
X0129892Y0056430D01*
G37*
D20*
G36*
X0129962Y0056571D02*
X0119710Y0046319D01*
X0119674Y0046355D01*
X0129926Y0056607D01*
X0129962Y0056571D01*
G37*
D21*
G36*
X0139083Y0065693D02*
X0134276Y0060886D01*
X0134241Y0060921D01*
X0139048Y0065728D01*
X0139083Y0065693D01*
G37*
G36*
X0139048Y0065728D02*
X0134241Y0060921D01*
X0134206Y0060956D01*
X0139013Y0065763D01*
X0139048Y0065728D01*
G37*
G36*
X0139013Y0065764D02*
X0134206Y0060957D01*
X0134171Y0060992D01*
X0138978Y0065799D01*
X0139013Y0065764D01*
G37*
G36*
X0133320Y0067779D02*
X0128513Y0062972D01*
X0128478Y0063007D01*
X0133285Y0067814D01*
X0133320Y0067779D01*
G37*
G36*
X0133285Y0067814D02*
X0128478Y0063007D01*
X0128443Y0063042D01*
X0133250Y0067849D01*
X0133285Y0067814D01*
G37*
D22*
G36*
X0129997Y0056677D02*
X0119710Y0046390D01*
X0119675Y0046425D01*
X0129962Y0056712D01*
X0129997Y0056677D01*
G37*
D23*
G36*
X0129997Y0056748D02*
X0119674Y0046425D01*
X0119639Y0046460D01*
X0129962Y0056783D01*
X0129997Y0056748D01*
G37*
D24*
G36*
X0129998Y0056889D02*
X0119640Y0046531D01*
X0119604Y0046567D01*
X0129962Y0056925D01*
X0129998Y0056889D01*
G37*
G36*
X0129998Y0056818D02*
X0119640Y0046460D01*
X0119604Y0046496D01*
X0129962Y0056854D01*
X0129998Y0056818D01*
G37*
D25*
G36*
X0138943Y0065763D02*
X0134171Y0060991D01*
X0134135Y0061027D01*
X0138907Y0065799D01*
X0138943Y0065763D01*
G37*
G36*
X0138907Y0065799D02*
X0134135Y0061027D01*
X0134099Y0061063D01*
X0138871Y0065835D01*
X0138907Y0065799D01*
G37*
G36*
X0133215Y0067814D02*
X0128443Y0063042D01*
X0128407Y0063078D01*
X0133179Y0067850D01*
X0133215Y0067814D01*
G37*
G36*
X0125932Y0066117D02*
X0121160Y0061345D01*
X0121124Y0061381D01*
X0125896Y0066153D01*
X0125932Y0066117D01*
G37*
D26*
G36*
X0129997Y0056960D02*
X0119604Y0046567D01*
X0119569Y0046602D01*
X0129962Y0056995D01*
X0129997Y0056960D01*
G37*
D27*
G36*
X0128513Y0060638D02*
X0123776Y0055901D01*
X0123741Y0055936D01*
X0128478Y0060673D01*
X0128513Y0060638D01*
G37*
G36*
X0133179Y0067850D02*
X0128442Y0063113D01*
X0128407Y0063148D01*
X0133144Y0067885D01*
X0133179Y0067850D01*
G37*
G36*
X0138801Y0065835D02*
X0134064Y0061098D01*
X0134029Y0061133D01*
X0138766Y0065870D01*
X0138801Y0065835D01*
G37*
G36*
X0138836Y0065799D02*
X0134099Y0061062D01*
X0134064Y0061097D01*
X0138801Y0065834D01*
X0138836Y0065799D01*
G37*
D28*
G36*
X0129962Y0057208D02*
X0119533Y0046779D01*
X0119498Y0046814D01*
X0129927Y0057243D01*
X0129962Y0057208D01*
G37*
G36*
X0129997Y0057102D02*
X0119568Y0046673D01*
X0119533Y0046708D01*
X0129962Y0057137D01*
X0129997Y0057102D01*
G37*
G36*
X0129997Y0057031D02*
X0119568Y0046602D01*
X0119533Y0046637D01*
X0129962Y0057066D01*
X0129997Y0057031D01*
G37*
D29*
G36*
X0138730Y0065834D02*
X0134029Y0061133D01*
X0133994Y0061168D01*
X0138695Y0065869D01*
X0138730Y0065834D01*
G37*
G36*
X0138695Y0065870D02*
X0133994Y0061169D01*
X0133959Y0061204D01*
X0138660Y0065905D01*
X0138695Y0065870D01*
G37*
G36*
X0133108Y0067850D02*
X0128407Y0063149D01*
X0128372Y0063184D01*
X0133073Y0067885D01*
X0133108Y0067850D01*
G37*
G36*
X0133073Y0067885D02*
X0128372Y0063184D01*
X0128337Y0063219D01*
X0133038Y0067920D01*
X0133073Y0067885D01*
G37*
D30*
G36*
X0129892Y0057490D02*
X0119428Y0047026D01*
X0119392Y0047062D01*
X0129856Y0057526D01*
X0129892Y0057490D01*
G37*
G36*
X0129927Y0057384D02*
X0119463Y0046920D01*
X0119427Y0046956D01*
X0129891Y0057420D01*
X0129927Y0057384D01*
G37*
G36*
X0129927Y0057313D02*
X0119463Y0046849D01*
X0119427Y0046885D01*
X0129891Y0057349D01*
X0129927Y0057313D01*
G37*
G36*
X0129962Y0057278D02*
X0119498Y0046814D01*
X0119462Y0046850D01*
X0129926Y0057314D01*
X0129962Y0057278D01*
G37*
G36*
X0129998Y0057172D02*
X0119534Y0046708D01*
X0119498Y0046744D01*
X0129962Y0057208D01*
X0129998Y0057172D01*
G37*
D31*
G36*
X0138625Y0065870D02*
X0133959Y0061204D01*
X0133923Y0061240D01*
X0138589Y0065906D01*
X0138625Y0065870D01*
G37*
G36*
X0138589Y0065905D02*
X0133923Y0061239D01*
X0133887Y0061275D01*
X0138553Y0065941D01*
X0138589Y0065905D01*
G37*
D32*
G36*
X0138518Y0065906D02*
X0133887Y0061275D01*
X0133852Y0061310D01*
X0138483Y0065941D01*
X0138518Y0065906D01*
G37*
G36*
X0138483Y0065941D02*
X0133852Y0061310D01*
X0133817Y0061345D01*
X0138448Y0065976D01*
X0138483Y0065941D01*
G37*
G36*
X0133003Y0067885D02*
X0128372Y0063254D01*
X0128337Y0063289D01*
X0132968Y0067920D01*
X0133003Y0067885D01*
G37*
G36*
X0132967Y0067921D02*
X0128336Y0063290D01*
X0128301Y0063325D01*
X0132932Y0067956D01*
X0132967Y0067921D01*
G37*
D33*
G36*
X0129467Y0058551D02*
X0118968Y0048052D01*
X0118933Y0048087D01*
X0129432Y0058586D01*
X0129467Y0058551D01*
G37*
G36*
X0129573Y0058304D02*
X0119074Y0047805D01*
X0119039Y0047840D01*
X0129538Y0058339D01*
X0129573Y0058304D01*
G37*
G36*
X0129608Y0058198D02*
X0119109Y0047699D01*
X0119074Y0047734D01*
X0129573Y0058233D01*
X0129608Y0058198D01*
G37*
G36*
X0129643Y0058162D02*
X0119144Y0047663D01*
X0119109Y0047698D01*
X0129608Y0058197D01*
X0129643Y0058162D01*
G37*
G36*
X0129679Y0058056D02*
X0119180Y0047557D01*
X0119145Y0047592D01*
X0129644Y0058091D01*
X0129679Y0058056D01*
G37*
G36*
X0129714Y0057950D02*
X0119215Y0047451D01*
X0119180Y0047486D01*
X0129679Y0057985D01*
X0129714Y0057950D01*
G37*
G36*
X0129750Y0057915D02*
X0119251Y0047416D01*
X0119216Y0047451D01*
X0129715Y0057950D01*
X0129750Y0057915D01*
G37*
G36*
X0129750Y0057844D02*
X0119251Y0047345D01*
X0119216Y0047380D01*
X0129715Y0057879D01*
X0129750Y0057844D01*
G37*
G36*
X0129785Y0057809D02*
X0119286Y0047310D01*
X0119251Y0047345D01*
X0129750Y0057844D01*
X0129785Y0057809D01*
G37*
G36*
X0129785Y0057738D02*
X0119286Y0047239D01*
X0119251Y0047274D01*
X0129750Y0057773D01*
X0129785Y0057738D01*
G37*
G36*
X0129820Y0057703D02*
X0119321Y0047204D01*
X0119286Y0047239D01*
X0129785Y0057738D01*
X0129820Y0057703D01*
G37*
G36*
X0129856Y0057667D02*
X0119357Y0047168D01*
X0119322Y0047203D01*
X0129821Y0057702D01*
X0129856Y0057667D01*
G37*
G36*
X0129856Y0057597D02*
X0119357Y0047098D01*
X0119322Y0047133D01*
X0129821Y0057632D01*
X0129856Y0057597D01*
G37*
G36*
X0129891Y0057561D02*
X0119392Y0047062D01*
X0119357Y0047097D01*
X0129856Y0057596D01*
X0129891Y0057561D01*
G37*
G36*
X0129926Y0057455D02*
X0119427Y0046956D01*
X0119392Y0046991D01*
X0129891Y0057490D01*
X0129926Y0057455D01*
G37*
D34*
G36*
X0138412Y0065941D02*
X0133817Y0061346D01*
X0133782Y0061381D01*
X0138377Y0065976D01*
X0138412Y0065941D01*
G37*
G36*
X0138376Y0065976D02*
X0133781Y0061381D01*
X0133746Y0061416D01*
X0138341Y0066011D01*
X0138376Y0065976D01*
G37*
G36*
X0132896Y0067920D02*
X0128301Y0063325D01*
X0128266Y0063360D01*
X0132861Y0067955D01*
X0132896Y0067920D01*
G37*
D35*
G36*
X0132862Y0067956D02*
X0128302Y0063396D01*
X0128266Y0063432D01*
X0132826Y0067992D01*
X0132862Y0067956D01*
G37*
G36*
X0138271Y0066011D02*
X0133711Y0061451D01*
X0133675Y0061487D01*
X0138235Y0066047D01*
X0138271Y0066011D01*
G37*
G36*
X0138306Y0065976D02*
X0133746Y0061416D01*
X0133710Y0061452D01*
X0138270Y0066012D01*
X0138306Y0065976D01*
G37*
D36*
G36*
X0138200Y0066012D02*
X0133675Y0061487D01*
X0133640Y0061522D01*
X0138165Y0066047D01*
X0138200Y0066012D01*
G37*
G36*
X0138165Y0066047D02*
X0133640Y0061522D01*
X0133605Y0061557D01*
X0138130Y0066082D01*
X0138165Y0066047D01*
G37*
G36*
X0138129Y0066082D02*
X0133604Y0061557D01*
X0133569Y0061592D01*
X0138094Y0066117D01*
X0138129Y0066082D01*
G37*
G36*
X0132791Y0067956D02*
X0128266Y0063431D01*
X0128231Y0063466D01*
X0132756Y0067991D01*
X0132791Y0067956D01*
G37*
D37*
G36*
X0132755Y0067991D02*
X0128266Y0063502D01*
X0128231Y0063537D01*
X0132720Y0068026D01*
X0132755Y0067991D01*
G37*
G36*
X0132720Y0068027D02*
X0128231Y0063538D01*
X0128196Y0063573D01*
X0132685Y0068062D01*
X0132720Y0068027D01*
G37*
G36*
X0138023Y0066117D02*
X0133534Y0061628D01*
X0133499Y0061663D01*
X0137988Y0066152D01*
X0138023Y0066117D01*
G37*
G36*
X0138058Y0066082D02*
X0133569Y0061593D01*
X0133534Y0061628D01*
X0138023Y0066117D01*
X0138058Y0066082D01*
G37*
D38*
G36*
X0137953Y0066117D02*
X0133499Y0061663D01*
X0133463Y0061699D01*
X0137917Y0066153D01*
X0137953Y0066117D01*
G37*
G36*
X0137917Y0066152D02*
X0133463Y0061698D01*
X0133427Y0061734D01*
X0137881Y0066188D01*
X0137917Y0066152D01*
G37*
G36*
X0132650Y0068026D02*
X0128196Y0063572D01*
X0128160Y0063608D01*
X0132614Y0068062D01*
X0132650Y0068026D01*
G37*
D39*
G36*
X0129396Y0058764D02*
X0118861Y0048229D01*
X0118826Y0048264D01*
X0129361Y0058799D01*
X0129396Y0058764D01*
G37*
G36*
X0129432Y0058728D02*
X0118897Y0048193D01*
X0118862Y0048228D01*
X0129397Y0058763D01*
X0129432Y0058728D01*
G37*
G36*
X0129432Y0058658D02*
X0118897Y0048123D01*
X0118862Y0048158D01*
X0129397Y0058693D01*
X0129432Y0058658D01*
G37*
G36*
X0129467Y0058622D02*
X0118932Y0048087D01*
X0118897Y0048122D01*
X0129432Y0058657D01*
X0129467Y0058622D01*
G37*
G36*
X0129502Y0058516D02*
X0118967Y0047981D01*
X0118932Y0048016D01*
X0129467Y0058551D01*
X0129502Y0058516D01*
G37*
G36*
X0129538Y0058481D02*
X0119003Y0047946D01*
X0118968Y0047981D01*
X0129503Y0058516D01*
X0129538Y0058481D01*
G37*
G36*
X0129538Y0058410D02*
X0119003Y0047875D01*
X0118968Y0047910D01*
X0129503Y0058445D01*
X0129538Y0058410D01*
G37*
G36*
X0129573Y0058375D02*
X0119038Y0047840D01*
X0119003Y0047875D01*
X0129538Y0058410D01*
X0129573Y0058375D01*
G37*
G36*
X0129608Y0058269D02*
X0119073Y0047734D01*
X0119038Y0047769D01*
X0129573Y0058304D01*
X0129608Y0058269D01*
G37*
G36*
X0129679Y0058127D02*
X0119144Y0047592D01*
X0119109Y0047627D01*
X0129644Y0058162D01*
X0129679Y0058127D01*
G37*
G36*
X0129714Y0058021D02*
X0119179Y0047486D01*
X0119144Y0047521D01*
X0129679Y0058056D01*
X0129714Y0058021D01*
G37*
D40*
G36*
X0137846Y0066153D02*
X0133427Y0061734D01*
X0133392Y0061769D01*
X0137811Y0066188D01*
X0137846Y0066153D01*
G37*
G36*
X0137811Y0066188D02*
X0133392Y0061769D01*
X0133357Y0061804D01*
X0137776Y0066223D01*
X0137811Y0066188D01*
G37*
G36*
X0132614Y0068062D02*
X0128195Y0063643D01*
X0128160Y0063678D01*
X0132579Y0068097D01*
X0132614Y0068062D01*
G37*
D41*
G36*
X0132543Y0068062D02*
X0128160Y0063679D01*
X0128125Y0063714D01*
X0132508Y0068097D01*
X0132543Y0068062D01*
G37*
G36*
X0132507Y0068097D02*
X0128124Y0063714D01*
X0128089Y0063749D01*
X0132472Y0068132D01*
X0132507Y0068097D01*
G37*
G36*
X0137705Y0066223D02*
X0133322Y0061840D01*
X0133287Y0061875D01*
X0137670Y0066258D01*
X0137705Y0066223D01*
G37*
G36*
X0137740Y0066188D02*
X0133357Y0061805D01*
X0133322Y0061840D01*
X0137705Y0066223D01*
X0137740Y0066188D01*
G37*
D42*
G36*
X0137635Y0066223D02*
X0133287Y0061875D01*
X0133251Y0061911D01*
X0137599Y0066259D01*
X0137635Y0066223D01*
G37*
G36*
X0137599Y0066259D02*
X0133251Y0061911D01*
X0133215Y0061947D01*
X0137563Y0066295D01*
X0137599Y0066259D01*
G37*
D43*
G36*
X0137528Y0066258D02*
X0133216Y0061946D01*
X0133180Y0061982D01*
X0137492Y0066294D01*
X0137528Y0066258D01*
G37*
G36*
X0137493Y0066294D02*
X0133181Y0061982D01*
X0133145Y0062018D01*
X0137457Y0066330D01*
X0137493Y0066294D01*
G37*
G36*
X0132437Y0068097D02*
X0128125Y0063785D01*
X0128089Y0063821D01*
X0132401Y0068133D01*
X0132437Y0068097D01*
G37*
G36*
X0132402Y0068132D02*
X0128090Y0063820D01*
X0128054Y0063856D01*
X0132366Y0068168D01*
X0132402Y0068132D01*
G37*
D44*
G36*
X0132331Y0068133D02*
X0128054Y0063856D01*
X0128019Y0063891D01*
X0132296Y0068168D01*
X0132331Y0068133D01*
G37*
G36*
X0137387Y0066330D02*
X0133110Y0062053D01*
X0133075Y0062088D01*
X0137352Y0066365D01*
X0137387Y0066330D01*
G37*
G36*
X0137422Y0066294D02*
X0133145Y0062017D01*
X0133110Y0062052D01*
X0137387Y0066329D01*
X0137422Y0066294D01*
G37*
D45*
G36*
X0137315Y0066329D02*
X0133074Y0062088D01*
X0133039Y0062123D01*
X0137280Y0066364D01*
X0137315Y0066329D01*
G37*
G36*
X0137280Y0066365D02*
X0133039Y0062124D01*
X0133004Y0062159D01*
X0137245Y0066400D01*
X0137280Y0066365D01*
G37*
G36*
X0137245Y0066400D02*
X0133004Y0062159D01*
X0132969Y0062194D01*
X0137210Y0066435D01*
X0137245Y0066400D01*
G37*
G36*
X0132295Y0068168D02*
X0128054Y0063927D01*
X0128019Y0063962D01*
X0132260Y0068203D01*
X0132295Y0068168D01*
G37*
D46*
G36*
X0132225Y0068167D02*
X0128019Y0063961D01*
X0127983Y0063997D01*
X0132189Y0068203D01*
X0132225Y0068167D01*
G37*
G36*
X0137139Y0066435D02*
X0132933Y0062229D01*
X0132897Y0062265D01*
X0137103Y0066471D01*
X0137139Y0066435D01*
G37*
G36*
X0137175Y0066400D02*
X0132969Y0062194D01*
X0132933Y0062230D01*
X0137139Y0066436D01*
X0137175Y0066400D01*
G37*
D47*
G36*
X0137068Y0066436D02*
X0132897Y0062265D01*
X0132862Y0062300D01*
X0137033Y0066471D01*
X0137068Y0066436D01*
G37*
G36*
X0132189Y0068203D02*
X0128018Y0064032D01*
X0127983Y0064067D01*
X0132154Y0068238D01*
X0132189Y0068203D01*
G37*
D48*
G36*
X0128583Y0060425D02*
X0126286Y0058128D01*
X0126251Y0058163D01*
X0128548Y0060460D01*
X0128583Y0060425D01*
G37*
G36*
X0129184Y0059258D02*
X0126887Y0056961D01*
X0126852Y0056996D01*
X0129149Y0059293D01*
X0129184Y0059258D01*
G37*
G36*
X0129219Y0059152D02*
X0126922Y0056855D01*
X0126887Y0056890D01*
X0129184Y0059187D01*
X0129219Y0059152D01*
G37*
G36*
X0123987Y0058870D02*
X0121690Y0056573D01*
X0121655Y0056608D01*
X0123952Y0058905D01*
X0123987Y0058870D01*
G37*
G36*
X0123492Y0059860D02*
X0121195Y0057563D01*
X0121160Y0057598D01*
X0123457Y0059895D01*
X0123492Y0059860D01*
G37*
G36*
X0123421Y0060072D02*
X0121124Y0057775D01*
X0121089Y0057810D01*
X0123386Y0060107D01*
X0123421Y0060072D01*
G37*
G36*
X0123421Y0060001D02*
X0121124Y0057704D01*
X0121089Y0057739D01*
X0123386Y0060036D01*
X0123421Y0060001D01*
G37*
G36*
X0123456Y0059966D02*
X0121159Y0057669D01*
X0121124Y0057704D01*
X0123421Y0060001D01*
X0123456Y0059966D01*
G37*
G36*
X0123456Y0059895D02*
X0121159Y0057598D01*
X0121124Y0057633D01*
X0123421Y0059930D01*
X0123456Y0059895D01*
G37*
G36*
X0117835Y0057880D02*
X0115538Y0055583D01*
X0115503Y0055618D01*
X0117800Y0057915D01*
X0117835Y0057880D01*
G37*
G36*
X0117764Y0058021D02*
X0115467Y0055724D01*
X0115432Y0055759D01*
X0117729Y0058056D01*
X0117764Y0058021D01*
G37*
G36*
X0117941Y0057632D02*
X0115644Y0055335D01*
X0115609Y0055370D01*
X0117906Y0057667D01*
X0117941Y0057632D01*
G37*
G36*
X0118012Y0057491D02*
X0115715Y0055194D01*
X0115680Y0055229D01*
X0117977Y0057526D01*
X0118012Y0057491D01*
G37*
G36*
X0118118Y0057243D02*
X0115821Y0054946D01*
X0115786Y0054981D01*
X0118083Y0057278D01*
X0118118Y0057243D01*
G37*
G36*
X0120840Y0051197D02*
X0118543Y0048900D01*
X0118508Y0048935D01*
X0120805Y0051232D01*
X0120840Y0051197D01*
G37*
G36*
X0120911Y0051056D02*
X0118614Y0048759D01*
X0118579Y0048794D01*
X0120876Y0051091D01*
X0120911Y0051056D01*
G37*
G36*
X0121017Y0050809D02*
X0118720Y0048512D01*
X0118685Y0048547D01*
X0120982Y0050844D01*
X0121017Y0050809D01*
G37*
G36*
X0121088Y0050667D02*
X0118791Y0048370D01*
X0118756Y0048405D01*
X0121053Y0050702D01*
X0121088Y0050667D01*
G37*
G36*
X0121123Y0050561D02*
X0118826Y0048264D01*
X0118791Y0048299D01*
X0121088Y0050596D01*
X0121123Y0050561D01*
G37*
D49*
G36*
X0129361Y0058798D02*
X0125473Y0054910D01*
X0125437Y0054946D01*
X0129325Y0058834D01*
X0129361Y0058798D01*
G37*
G36*
X0131659Y0068380D02*
X0127771Y0064492D01*
X0127735Y0064528D01*
X0131623Y0068416D01*
X0131659Y0068380D01*
G37*
D50*
G36*
X0135937Y0066859D02*
X0133357Y0064279D01*
X0133321Y0064315D01*
X0135901Y0066895D01*
X0135937Y0066859D01*
G37*
G36*
X0136715Y0066577D02*
X0134135Y0063997D01*
X0134099Y0064033D01*
X0136679Y0066613D01*
X0136715Y0066577D01*
G37*
G36*
X0137034Y0066471D02*
X0134454Y0063891D01*
X0134418Y0063927D01*
X0136998Y0066507D01*
X0137034Y0066471D01*
G37*
G36*
X0136963Y0066471D02*
X0134383Y0063891D01*
X0134347Y0063927D01*
X0136927Y0066507D01*
X0136963Y0066471D01*
G37*
G36*
X0136927Y0066506D02*
X0134347Y0063926D01*
X0134311Y0063962D01*
X0136891Y0066542D01*
X0136927Y0066506D01*
G37*
G36*
X0136857Y0066506D02*
X0134277Y0063926D01*
X0134241Y0063962D01*
X0136821Y0066542D01*
X0136857Y0066506D01*
G37*
G36*
X0136821Y0066541D02*
X0134241Y0063961D01*
X0134205Y0063997D01*
X0136785Y0066577D01*
X0136821Y0066541D01*
G37*
G36*
X0136751Y0066541D02*
X0134171Y0063961D01*
X0134135Y0063997D01*
X0136715Y0066577D01*
X0136751Y0066541D01*
G37*
G36*
X0136609Y0066612D02*
X0134029Y0064032D01*
X0133993Y0064068D01*
X0136573Y0066648D01*
X0136609Y0066612D01*
G37*
G36*
X0136503Y0066647D02*
X0133923Y0064067D01*
X0133887Y0064103D01*
X0136467Y0066683D01*
X0136503Y0066647D01*
G37*
G36*
X0136397Y0066683D02*
X0133817Y0064103D01*
X0133781Y0064139D01*
X0136361Y0066719D01*
X0136397Y0066683D01*
G37*
G36*
X0136362Y0066718D02*
X0133782Y0064138D01*
X0133746Y0064174D01*
X0136326Y0066754D01*
X0136362Y0066718D01*
G37*
G36*
X0136291Y0066718D02*
X0133711Y0064138D01*
X0133675Y0064174D01*
X0136255Y0066754D01*
X0136291Y0066718D01*
G37*
G36*
X0136256Y0066753D02*
X0133676Y0064173D01*
X0133640Y0064209D01*
X0136220Y0066789D01*
X0136256Y0066753D01*
G37*
G36*
X0136150Y0066789D02*
X0133570Y0064209D01*
X0133534Y0064245D01*
X0136114Y0066825D01*
X0136150Y0066789D01*
G37*
G36*
X0136044Y0066824D02*
X0133464Y0064244D01*
X0133428Y0064280D01*
X0136008Y0066860D01*
X0136044Y0066824D01*
G37*
G36*
X0129361Y0069193D02*
X0126781Y0066613D01*
X0126745Y0066649D01*
X0129325Y0069229D01*
X0129361Y0069193D01*
G37*
D51*
G36*
X0128619Y0060390D02*
X0126357Y0058128D01*
X0126321Y0058164D01*
X0128583Y0060426D01*
X0128619Y0060390D01*
G37*
G36*
X0128654Y0060354D02*
X0126392Y0058092D01*
X0126356Y0058128D01*
X0128618Y0060390D01*
X0128654Y0060354D01*
G37*
G36*
X0129008Y0059647D02*
X0126746Y0057385D01*
X0126710Y0057421D01*
X0128972Y0059683D01*
X0129008Y0059647D01*
G37*
G36*
X0129043Y0059541D02*
X0126781Y0057279D01*
X0126745Y0057315D01*
X0129007Y0059577D01*
X0129043Y0059541D01*
G37*
G36*
X0129079Y0059435D02*
X0126817Y0057173D01*
X0126781Y0057209D01*
X0129043Y0059471D01*
X0129079Y0059435D01*
G37*
G36*
X0129114Y0059400D02*
X0126852Y0057138D01*
X0126816Y0057174D01*
X0129078Y0059436D01*
X0129114Y0059400D01*
G37*
G36*
X0129114Y0059329D02*
X0126852Y0057067D01*
X0126816Y0057103D01*
X0129078Y0059365D01*
X0129114Y0059329D01*
G37*
G36*
X0129149Y0059293D02*
X0126887Y0057031D01*
X0126851Y0057067D01*
X0129113Y0059329D01*
X0129149Y0059293D01*
G37*
G36*
X0129185Y0059187D02*
X0126923Y0056925D01*
X0126887Y0056961D01*
X0129149Y0059223D01*
X0129185Y0059187D01*
G37*
G36*
X0123917Y0058869D02*
X0121655Y0056607D01*
X0121619Y0056643D01*
X0123881Y0058905D01*
X0123917Y0058869D01*
G37*
G36*
X0123634Y0059435D02*
X0121372Y0057173D01*
X0121336Y0057209D01*
X0123598Y0059471D01*
X0123634Y0059435D01*
G37*
G36*
X0123493Y0059788D02*
X0121231Y0057526D01*
X0121195Y0057562D01*
X0123457Y0059824D01*
X0123493Y0059788D01*
G37*
G36*
X0123493Y0059718D02*
X0121231Y0057456D01*
X0121195Y0057492D01*
X0123457Y0059754D01*
X0123493Y0059718D01*
G37*
G36*
X0123528Y0059682D02*
X0121266Y0057420D01*
X0121230Y0057456D01*
X0123492Y0059718D01*
X0123528Y0059682D01*
G37*
G36*
X0123563Y0059576D02*
X0121301Y0057314D01*
X0121265Y0057350D01*
X0123527Y0059612D01*
X0123563Y0059576D01*
G37*
G36*
X0117871Y0057773D02*
X0115609Y0055511D01*
X0115573Y0055547D01*
X0117835Y0057809D01*
X0117871Y0057773D01*
G37*
G36*
X0117800Y0057915D02*
X0115538Y0055653D01*
X0115502Y0055689D01*
X0117764Y0057951D01*
X0117800Y0057915D01*
G37*
G36*
X0117765Y0057950D02*
X0115503Y0055688D01*
X0115467Y0055724D01*
X0117729Y0057986D01*
X0117765Y0057950D01*
G37*
G36*
X0117836Y0057809D02*
X0115574Y0055547D01*
X0115538Y0055583D01*
X0117800Y0057845D01*
X0117836Y0057809D01*
G37*
G36*
X0117871Y0057703D02*
X0115609Y0055441D01*
X0115573Y0055477D01*
X0117835Y0057739D01*
X0117871Y0057703D01*
G37*
G36*
X0117906Y0057667D02*
X0115644Y0055405D01*
X0115608Y0055441D01*
X0117870Y0057703D01*
X0117906Y0057667D01*
G37*
G36*
X0117942Y0057561D02*
X0115680Y0055299D01*
X0115644Y0055335D01*
X0117906Y0057597D01*
X0117942Y0057561D01*
G37*
G36*
X0117977Y0057526D02*
X0115715Y0055264D01*
X0115679Y0055300D01*
X0117941Y0057562D01*
X0117977Y0057526D01*
G37*
G36*
X0118012Y0057420D02*
X0115750Y0055158D01*
X0115714Y0055194D01*
X0117976Y0057456D01*
X0118012Y0057420D01*
G37*
G36*
X0118048Y0057384D02*
X0115786Y0055122D01*
X0115750Y0055158D01*
X0118012Y0057420D01*
X0118048Y0057384D01*
G37*
G36*
X0118048Y0057314D02*
X0115786Y0055052D01*
X0115750Y0055088D01*
X0118012Y0057350D01*
X0118048Y0057314D01*
G37*
G36*
X0118083Y0057278D02*
X0115821Y0055016D01*
X0115785Y0055052D01*
X0118047Y0057314D01*
X0118083Y0057278D01*
G37*
G36*
X0118118Y0057172D02*
X0115856Y0054910D01*
X0115820Y0054946D01*
X0118082Y0057208D01*
X0118118Y0057172D01*
G37*
G36*
X0118154Y0057137D02*
X0115892Y0054875D01*
X0115856Y0054911D01*
X0118118Y0057173D01*
X0118154Y0057137D01*
G37*
G36*
X0118154Y0057066D02*
X0115892Y0054804D01*
X0115856Y0054840D01*
X0118118Y0057102D01*
X0118154Y0057066D01*
G37*
G36*
X0118189Y0057031D02*
X0115927Y0054769D01*
X0115891Y0054805D01*
X0118153Y0057067D01*
X0118189Y0057031D01*
G37*
G36*
X0118225Y0056995D02*
X0115963Y0054733D01*
X0115927Y0054769D01*
X0118189Y0057031D01*
X0118225Y0056995D01*
G37*
G36*
X0118225Y0056925D02*
X0115963Y0054663D01*
X0115927Y0054699D01*
X0118189Y0056961D01*
X0118225Y0056925D01*
G37*
G36*
X0118260Y0056889D02*
X0115998Y0054627D01*
X0115962Y0054663D01*
X0118224Y0056925D01*
X0118260Y0056889D01*
G37*
G36*
X0118260Y0056819D02*
X0115998Y0054557D01*
X0115962Y0054593D01*
X0118224Y0056855D01*
X0118260Y0056819D01*
G37*
G36*
X0118295Y0056783D02*
X0116033Y0054521D01*
X0115997Y0054557D01*
X0118259Y0056819D01*
X0118295Y0056783D01*
G37*
G36*
X0118331Y0056748D02*
X0116069Y0054486D01*
X0116033Y0054522D01*
X0118295Y0056784D01*
X0118331Y0056748D01*
G37*
G36*
X0118331Y0056677D02*
X0116069Y0054415D01*
X0116033Y0054451D01*
X0118295Y0056713D01*
X0118331Y0056677D01*
G37*
G36*
X0118366Y0056642D02*
X0116104Y0054380D01*
X0116068Y0054416D01*
X0118330Y0056678D01*
X0118366Y0056642D01*
G37*
G36*
X0118401Y0056606D02*
X0116139Y0054344D01*
X0116103Y0054380D01*
X0118365Y0056642D01*
X0118401Y0056606D01*
G37*
G36*
X0118401Y0056536D02*
X0116139Y0054274D01*
X0116103Y0054310D01*
X0118365Y0056572D01*
X0118401Y0056536D01*
G37*
G36*
X0118437Y0056500D02*
X0116175Y0054238D01*
X0116139Y0054274D01*
X0118401Y0056536D01*
X0118437Y0056500D01*
G37*
G36*
X0118437Y0056430D02*
X0116175Y0054168D01*
X0116139Y0054204D01*
X0118401Y0056466D01*
X0118437Y0056430D01*
G37*
G36*
X0118472Y0056394D02*
X0116210Y0054132D01*
X0116174Y0054168D01*
X0118436Y0056430D01*
X0118472Y0056394D01*
G37*
G36*
X0118507Y0056359D02*
X0116245Y0054097D01*
X0116209Y0054133D01*
X0118471Y0056395D01*
X0118507Y0056359D01*
G37*
G36*
X0118507Y0056288D02*
X0116245Y0054026D01*
X0116209Y0054062D01*
X0118471Y0056324D01*
X0118507Y0056288D01*
G37*
G36*
X0118543Y0056253D02*
X0116281Y0053991D01*
X0116245Y0054027D01*
X0118507Y0056289D01*
X0118543Y0056253D01*
G37*
G36*
X0118578Y0056147D02*
X0116316Y0053885D01*
X0116280Y0053921D01*
X0118542Y0056183D01*
X0118578Y0056147D01*
G37*
G36*
X0118613Y0056112D02*
X0116351Y0053850D01*
X0116315Y0053886D01*
X0118577Y0056148D01*
X0118613Y0056112D01*
G37*
G36*
X0118613Y0056041D02*
X0116351Y0053779D01*
X0116315Y0053815D01*
X0118577Y0056077D01*
X0118613Y0056041D01*
G37*
G36*
X0118649Y0056005D02*
X0116387Y0053743D01*
X0116351Y0053779D01*
X0118613Y0056041D01*
X0118649Y0056005D01*
G37*
G36*
X0118684Y0055970D02*
X0116422Y0053708D01*
X0116386Y0053744D01*
X0118648Y0056006D01*
X0118684Y0055970D01*
G37*
G36*
X0118684Y0055899D02*
X0116422Y0053637D01*
X0116386Y0053673D01*
X0118648Y0055935D01*
X0118684Y0055899D01*
G37*
G36*
X0118720Y0055864D02*
X0116458Y0053602D01*
X0116422Y0053638D01*
X0118684Y0055900D01*
X0118720Y0055864D01*
G37*
G36*
X0118755Y0055758D02*
X0116493Y0053496D01*
X0116457Y0053532D01*
X0118719Y0055794D01*
X0118755Y0055758D01*
G37*
G36*
X0118790Y0055723D02*
X0116528Y0053461D01*
X0116492Y0053497D01*
X0118754Y0055759D01*
X0118790Y0055723D01*
G37*
G36*
X0118790Y0055652D02*
X0116528Y0053390D01*
X0116492Y0053426D01*
X0118754Y0055688D01*
X0118790Y0055652D01*
G37*
G36*
X0118826Y0055617D02*
X0116564Y0053355D01*
X0116528Y0053391D01*
X0118790Y0055653D01*
X0118826Y0055617D01*
G37*
G36*
X0118861Y0055510D02*
X0116599Y0053248D01*
X0116563Y0053284D01*
X0118825Y0055546D01*
X0118861Y0055510D01*
G37*
G36*
X0118896Y0055475D02*
X0116634Y0053213D01*
X0116598Y0053249D01*
X0118860Y0055511D01*
X0118896Y0055475D01*
G37*
G36*
X0118932Y0055369D02*
X0116670Y0053107D01*
X0116634Y0053143D01*
X0118896Y0055405D01*
X0118932Y0055369D01*
G37*
G36*
X0118967Y0055263D02*
X0116705Y0053001D01*
X0116669Y0053037D01*
X0118931Y0055299D01*
X0118967Y0055263D01*
G37*
G36*
X0119002Y0055228D02*
X0116740Y0052966D01*
X0116704Y0053002D01*
X0118966Y0055264D01*
X0119002Y0055228D01*
G37*
G36*
X0119038Y0055122D02*
X0116776Y0052860D01*
X0116740Y0052896D01*
X0119002Y0055158D01*
X0119038Y0055122D01*
G37*
G36*
X0119073Y0055086D02*
X0116811Y0052824D01*
X0116775Y0052860D01*
X0119037Y0055122D01*
X0119073Y0055086D01*
G37*
G36*
X0119073Y0055015D02*
X0116811Y0052753D01*
X0116775Y0052789D01*
X0119037Y0055051D01*
X0119073Y0055015D01*
G37*
G36*
X0119108Y0054980D02*
X0116846Y0052718D01*
X0116810Y0052754D01*
X0119072Y0055016D01*
X0119108Y0054980D01*
G37*
G36*
X0119144Y0054874D02*
X0116882Y0052612D01*
X0116846Y0052648D01*
X0119108Y0054910D01*
X0119144Y0054874D01*
G37*
G36*
X0119179Y0054839D02*
X0116917Y0052577D01*
X0116881Y0052613D01*
X0119143Y0054875D01*
X0119179Y0054839D01*
G37*
G36*
X0119215Y0054733D02*
X0116953Y0052471D01*
X0116917Y0052507D01*
X0119179Y0054769D01*
X0119215Y0054733D01*
G37*
G36*
X0119250Y0054627D02*
X0116988Y0052365D01*
X0116952Y0052401D01*
X0119214Y0054663D01*
X0119250Y0054627D01*
G37*
G36*
X0119285Y0054591D02*
X0117023Y0052329D01*
X0116987Y0052365D01*
X0119249Y0054627D01*
X0119285Y0054591D01*
G37*
G36*
X0119321Y0054485D02*
X0117059Y0052223D01*
X0117023Y0052259D01*
X0119285Y0054521D01*
X0119321Y0054485D01*
G37*
G36*
X0119356Y0054450D02*
X0117094Y0052188D01*
X0117058Y0052224D01*
X0119320Y0054486D01*
X0119356Y0054450D01*
G37*
G36*
X0119391Y0054344D02*
X0117129Y0052082D01*
X0117093Y0052118D01*
X0119355Y0054380D01*
X0119391Y0054344D01*
G37*
G36*
X0119427Y0054238D02*
X0117165Y0051976D01*
X0117129Y0052012D01*
X0119391Y0054274D01*
X0119427Y0054238D01*
G37*
G36*
X0119462Y0054202D02*
X0117200Y0051940D01*
X0117164Y0051976D01*
X0119426Y0054238D01*
X0119462Y0054202D01*
G37*
G36*
X0119497Y0054096D02*
X0117235Y0051834D01*
X0117199Y0051870D01*
X0119461Y0054132D01*
X0119497Y0054096D01*
G37*
G36*
X0119568Y0053955D02*
X0117306Y0051693D01*
X0117270Y0051729D01*
X0119532Y0053991D01*
X0119568Y0053955D01*
G37*
G36*
X0119603Y0053849D02*
X0117341Y0051587D01*
X0117305Y0051623D01*
X0119567Y0053885D01*
X0119603Y0053849D01*
G37*
G36*
X0119639Y0053813D02*
X0117377Y0051551D01*
X0117341Y0051587D01*
X0119603Y0053849D01*
X0119639Y0053813D01*
G37*
G36*
X0119674Y0053707D02*
X0117412Y0051445D01*
X0117376Y0051481D01*
X0119638Y0053743D01*
X0119674Y0053707D01*
G37*
G36*
X0119709Y0053601D02*
X0117447Y0051339D01*
X0117411Y0051375D01*
X0119673Y0053637D01*
X0119709Y0053601D01*
G37*
G36*
X0119745Y0053566D02*
X0117483Y0051304D01*
X0117447Y0051340D01*
X0119709Y0053602D01*
X0119745Y0053566D01*
G37*
G36*
X0119780Y0053460D02*
X0117518Y0051198D01*
X0117482Y0051234D01*
X0119744Y0053496D01*
X0119780Y0053460D01*
G37*
G36*
X0119816Y0053425D02*
X0117554Y0051163D01*
X0117518Y0051199D01*
X0119780Y0053461D01*
X0119816Y0053425D01*
G37*
G36*
X0119851Y0053318D02*
X0117589Y0051056D01*
X0117553Y0051092D01*
X0119815Y0053354D01*
X0119851Y0053318D01*
G37*
G36*
X0119886Y0053212D02*
X0117624Y0050950D01*
X0117588Y0050986D01*
X0119850Y0053248D01*
X0119886Y0053212D01*
G37*
G36*
X0119922Y0053177D02*
X0117660Y0050915D01*
X0117624Y0050951D01*
X0119886Y0053213D01*
X0119922Y0053177D01*
G37*
G36*
X0119957Y0053071D02*
X0117695Y0050809D01*
X0117659Y0050845D01*
X0119921Y0053107D01*
X0119957Y0053071D01*
G37*
G36*
X0120028Y0052930D02*
X0117766Y0050668D01*
X0117730Y0050704D01*
X0119992Y0052966D01*
X0120028Y0052930D01*
G37*
G36*
X0120063Y0052823D02*
X0117801Y0050561D01*
X0117765Y0050597D01*
X0120027Y0052859D01*
X0120063Y0052823D01*
G37*
G36*
X0120098Y0052788D02*
X0117836Y0050526D01*
X0117800Y0050562D01*
X0120062Y0052824D01*
X0120098Y0052788D01*
G37*
G36*
X0120134Y0052682D02*
X0117872Y0050420D01*
X0117836Y0050456D01*
X0120098Y0052718D01*
X0120134Y0052682D01*
G37*
G36*
X0120169Y0052647D02*
X0117907Y0050385D01*
X0117871Y0050421D01*
X0120133Y0052683D01*
X0120169Y0052647D01*
G37*
G36*
X0120169Y0052576D02*
X0117907Y0050314D01*
X0117871Y0050350D01*
X0120133Y0052612D01*
X0120169Y0052576D01*
G37*
G36*
X0120204Y0052541D02*
X0117942Y0050279D01*
X0117906Y0050315D01*
X0120168Y0052577D01*
X0120204Y0052541D01*
G37*
G36*
X0120240Y0052435D02*
X0117978Y0050173D01*
X0117942Y0050209D01*
X0120204Y0052471D01*
X0120240Y0052435D01*
G37*
G36*
X0120275Y0052399D02*
X0118013Y0050137D01*
X0117977Y0050173D01*
X0120239Y0052435D01*
X0120275Y0052399D01*
G37*
G36*
X0120311Y0052293D02*
X0118049Y0050031D01*
X0118013Y0050067D01*
X0120275Y0052329D01*
X0120311Y0052293D01*
G37*
G36*
X0120346Y0052258D02*
X0118084Y0049996D01*
X0118048Y0050032D01*
X0120310Y0052294D01*
X0120346Y0052258D01*
G37*
G36*
X0120346Y0052187D02*
X0118084Y0049925D01*
X0118048Y0049961D01*
X0120310Y0052223D01*
X0120346Y0052187D01*
G37*
G36*
X0120381Y0052152D02*
X0118119Y0049890D01*
X0118083Y0049926D01*
X0120345Y0052188D01*
X0120381Y0052152D01*
G37*
G36*
X0120417Y0052046D02*
X0118155Y0049784D01*
X0118119Y0049820D01*
X0120381Y0052082D01*
X0120417Y0052046D01*
G37*
G36*
X0120452Y0052010D02*
X0118190Y0049748D01*
X0118154Y0049784D01*
X0120416Y0052046D01*
X0120452Y0052010D01*
G37*
G36*
X0120487Y0051904D02*
X0118225Y0049642D01*
X0118189Y0049678D01*
X0120451Y0051940D01*
X0120487Y0051904D01*
G37*
G36*
X0120523Y0051869D02*
X0118261Y0049607D01*
X0118225Y0049643D01*
X0120487Y0051905D01*
X0120523Y0051869D01*
G37*
G36*
X0120523Y0051798D02*
X0118261Y0049536D01*
X0118225Y0049572D01*
X0120487Y0051834D01*
X0120523Y0051798D01*
G37*
G36*
X0120558Y0051763D02*
X0118296Y0049501D01*
X0118260Y0049537D01*
X0120522Y0051799D01*
X0120558Y0051763D01*
G37*
G36*
X0120593Y0051727D02*
X0118331Y0049465D01*
X0118295Y0049501D01*
X0120557Y0051763D01*
X0120593Y0051727D01*
G37*
G36*
X0120593Y0051657D02*
X0118331Y0049395D01*
X0118295Y0049431D01*
X0120557Y0051693D01*
X0120593Y0051657D01*
G37*
G36*
X0120629Y0051621D02*
X0118367Y0049359D01*
X0118331Y0049395D01*
X0120593Y0051657D01*
X0120629Y0051621D01*
G37*
G36*
X0120629Y0051551D02*
X0118367Y0049289D01*
X0118331Y0049325D01*
X0120593Y0051587D01*
X0120629Y0051551D01*
G37*
G36*
X0120664Y0051515D02*
X0118402Y0049253D01*
X0118366Y0049289D01*
X0120628Y0051551D01*
X0120664Y0051515D01*
G37*
G36*
X0120699Y0051480D02*
X0118437Y0049218D01*
X0118401Y0049254D01*
X0120663Y0051516D01*
X0120699Y0051480D01*
G37*
G36*
X0120699Y0051409D02*
X0118437Y0049147D01*
X0118401Y0049183D01*
X0120663Y0051445D01*
X0120699Y0051409D01*
G37*
G36*
X0120735Y0051374D02*
X0118473Y0049112D01*
X0118437Y0049148D01*
X0120699Y0051410D01*
X0120735Y0051374D01*
G37*
G36*
X0120770Y0051339D02*
X0118508Y0049077D01*
X0118472Y0049113D01*
X0120734Y0051375D01*
X0120770Y0051339D01*
G37*
G36*
X0120770Y0051268D02*
X0118508Y0049006D01*
X0118472Y0049042D01*
X0120734Y0051304D01*
X0120770Y0051268D01*
G37*
G36*
X0120805Y0051232D02*
X0118543Y0048970D01*
X0118507Y0049006D01*
X0120769Y0051268D01*
X0120805Y0051232D01*
G37*
G36*
X0120841Y0051126D02*
X0118579Y0048864D01*
X0118543Y0048900D01*
X0120805Y0051162D01*
X0120841Y0051126D01*
G37*
G36*
X0120876Y0051091D02*
X0118614Y0048829D01*
X0118578Y0048865D01*
X0120840Y0051127D01*
X0120876Y0051091D01*
G37*
G36*
X0120912Y0050985D02*
X0118650Y0048723D01*
X0118614Y0048759D01*
X0120876Y0051021D01*
X0120912Y0050985D01*
G37*
G36*
X0120947Y0050950D02*
X0118685Y0048688D01*
X0118649Y0048724D01*
X0120911Y0050986D01*
X0120947Y0050950D01*
G37*
G36*
X0120947Y0050879D02*
X0118685Y0048617D01*
X0118649Y0048653D01*
X0120911Y0050915D01*
X0120947Y0050879D01*
G37*
G36*
X0120982Y0050844D02*
X0118720Y0048582D01*
X0118684Y0048618D01*
X0120946Y0050880D01*
X0120982Y0050844D01*
G37*
G36*
X0121018Y0050738D02*
X0118756Y0048476D01*
X0118720Y0048512D01*
X0120982Y0050774D01*
X0121018Y0050738D01*
G37*
G36*
X0121053Y0050702D02*
X0118791Y0048440D01*
X0118755Y0048476D01*
X0121017Y0050738D01*
X0121053Y0050702D01*
G37*
G36*
X0121088Y0050596D02*
X0118826Y0048334D01*
X0118790Y0048370D01*
X0121052Y0050632D01*
X0121088Y0050596D01*
G37*
D52*
G36*
X0129361Y0058869D02*
X0126322Y0055830D01*
X0126287Y0055865D01*
X0129326Y0058904D01*
X0129361Y0058869D01*
G37*
G36*
X0130209Y0068910D02*
X0127170Y0065871D01*
X0127135Y0065906D01*
X0130174Y0068945D01*
X0130209Y0068910D01*
G37*
D53*
G36*
X0129573Y0069122D02*
X0126887Y0066436D01*
X0126851Y0066472D01*
X0129537Y0069158D01*
X0129573Y0069122D01*
G37*
G36*
X0129538Y0069158D02*
X0126852Y0066472D01*
X0126816Y0066508D01*
X0129502Y0069194D01*
X0129538Y0069158D01*
G37*
G36*
X0129326Y0058904D02*
X0126640Y0056218D01*
X0126604Y0056254D01*
X0129290Y0058940D01*
X0129326Y0058904D01*
G37*
D54*
G36*
X0129290Y0058940D02*
X0126781Y0056431D01*
X0126746Y0056466D01*
X0129255Y0058975D01*
X0129290Y0058940D01*
G37*
G36*
X0133639Y0067673D02*
X0131130Y0065164D01*
X0131095Y0065199D01*
X0133604Y0067708D01*
X0133639Y0067673D01*
G37*
G36*
X0134275Y0067461D02*
X0131766Y0064952D01*
X0131731Y0064987D01*
X0134240Y0067496D01*
X0134275Y0067461D01*
G37*
G36*
X0134982Y0067178D02*
X0132473Y0064669D01*
X0132438Y0064704D01*
X0134947Y0067213D01*
X0134982Y0067178D01*
G37*
G36*
X0135088Y0067143D02*
X0132579Y0064634D01*
X0132544Y0064669D01*
X0135053Y0067178D01*
X0135088Y0067143D01*
G37*
G36*
X0134876Y0067213D02*
X0132367Y0064704D01*
X0132332Y0064739D01*
X0134841Y0067248D01*
X0134876Y0067213D01*
G37*
G36*
X0134770Y0067249D02*
X0132261Y0064740D01*
X0132226Y0064775D01*
X0134735Y0067284D01*
X0134770Y0067249D01*
G37*
G36*
X0134735Y0067284D02*
X0132226Y0064775D01*
X0132191Y0064810D01*
X0134700Y0067319D01*
X0134735Y0067284D01*
G37*
G36*
X0134664Y0067284D02*
X0132155Y0064775D01*
X0132120Y0064810D01*
X0134629Y0067319D01*
X0134664Y0067284D01*
G37*
G36*
X0134629Y0067319D02*
X0132120Y0064810D01*
X0132085Y0064845D01*
X0134594Y0067354D01*
X0134629Y0067319D01*
G37*
G36*
X0134558Y0067319D02*
X0132049Y0064810D01*
X0132014Y0064845D01*
X0134523Y0067354D01*
X0134558Y0067319D01*
G37*
G36*
X0134523Y0067355D02*
X0132014Y0064846D01*
X0131979Y0064881D01*
X0134488Y0067390D01*
X0134523Y0067355D01*
G37*
G36*
X0134417Y0067390D02*
X0131908Y0064881D01*
X0131873Y0064916D01*
X0134382Y0067425D01*
X0134417Y0067390D01*
G37*
G36*
X0134310Y0067425D02*
X0131801Y0064916D01*
X0131766Y0064951D01*
X0134275Y0067460D01*
X0134310Y0067425D01*
G37*
G36*
X0134204Y0067461D02*
X0131695Y0064952D01*
X0131660Y0064987D01*
X0134169Y0067496D01*
X0134204Y0067461D01*
G37*
G36*
X0134169Y0067496D02*
X0131660Y0064987D01*
X0131625Y0065022D01*
X0134134Y0067531D01*
X0134169Y0067496D01*
G37*
G36*
X0134098Y0067496D02*
X0131589Y0064987D01*
X0131554Y0065022D01*
X0134063Y0067531D01*
X0134098Y0067496D01*
G37*
G36*
X0134063Y0067532D02*
X0131554Y0065023D01*
X0131519Y0065058D01*
X0134028Y0067567D01*
X0134063Y0067532D01*
G37*
G36*
X0133992Y0067532D02*
X0131483Y0065023D01*
X0131448Y0065058D01*
X0133957Y0067567D01*
X0133992Y0067532D01*
G37*
G36*
X0133957Y0067567D02*
X0131448Y0065058D01*
X0131413Y0065093D01*
X0133922Y0067602D01*
X0133957Y0067567D01*
G37*
G36*
X0133851Y0067602D02*
X0131342Y0065093D01*
X0131307Y0065128D01*
X0133816Y0067637D01*
X0133851Y0067602D01*
G37*
G36*
X0133745Y0067638D02*
X0131236Y0065129D01*
X0131201Y0065164D01*
X0133710Y0067673D01*
X0133745Y0067638D01*
G37*
G36*
X0133603Y0067708D02*
X0131094Y0065199D01*
X0131059Y0065234D01*
X0133568Y0067743D01*
X0133603Y0067708D01*
G37*
G36*
X0129255Y0069229D02*
X0126746Y0066720D01*
X0126711Y0066755D01*
X0129220Y0069264D01*
X0129255Y0069229D01*
G37*
D55*
G36*
X0128584Y0060496D02*
X0126216Y0058128D01*
X0126180Y0058164D01*
X0128548Y0060532D01*
X0128584Y0060496D01*
G37*
G36*
X0129255Y0059046D02*
X0126887Y0056678D01*
X0126851Y0056714D01*
X0129219Y0059082D01*
X0129255Y0059046D01*
G37*
G36*
X0123422Y0060213D02*
X0121054Y0057845D01*
X0121018Y0057881D01*
X0123386Y0060249D01*
X0123422Y0060213D01*
G37*
G36*
X0123422Y0060283D02*
X0121054Y0057915D01*
X0121018Y0057951D01*
X0123386Y0060319D01*
X0123422Y0060283D01*
G37*
D56*
G36*
X0123421Y0060143D02*
X0121088Y0057810D01*
X0121053Y0057845D01*
X0123386Y0060178D01*
X0123421Y0060143D01*
G37*
G36*
X0129255Y0059117D02*
X0126922Y0056784D01*
X0126887Y0056819D01*
X0129220Y0059152D01*
X0129255Y0059117D01*
G37*
D57*
G36*
X0123527Y0060532D02*
X0120982Y0057987D01*
X0120947Y0058022D01*
X0123492Y0060567D01*
X0123527Y0060532D01*
G37*
G36*
X0129326Y0069229D02*
X0126781Y0066684D01*
X0126746Y0066719D01*
X0129291Y0069264D01*
X0129326Y0069229D01*
G37*
G36*
X0134382Y0067426D02*
X0131837Y0064881D01*
X0131802Y0064916D01*
X0134347Y0067461D01*
X0134382Y0067426D01*
G37*
G36*
X0135159Y0067143D02*
X0132614Y0064598D01*
X0132579Y0064633D01*
X0135124Y0067178D01*
X0135159Y0067143D01*
G37*
G36*
X0135831Y0066895D02*
X0133286Y0064350D01*
X0133251Y0064385D01*
X0135796Y0066930D01*
X0135831Y0066895D01*
G37*
G36*
X0136644Y0066577D02*
X0134099Y0064032D01*
X0134064Y0064067D01*
X0136609Y0066612D01*
X0136644Y0066577D01*
G37*
G36*
X0136538Y0066613D02*
X0133993Y0064068D01*
X0133958Y0064103D01*
X0136503Y0066648D01*
X0136538Y0066613D01*
G37*
G36*
X0136432Y0066648D02*
X0133887Y0064103D01*
X0133852Y0064138D01*
X0136397Y0066683D01*
X0136432Y0066648D01*
G37*
G36*
X0136185Y0066754D02*
X0133640Y0064209D01*
X0133605Y0064244D01*
X0136150Y0066789D01*
X0136185Y0066754D01*
G37*
G36*
X0136079Y0066789D02*
X0133534Y0064244D01*
X0133499Y0064279D01*
X0136044Y0066824D01*
X0136079Y0066789D01*
G37*
G36*
X0135973Y0066825D02*
X0133428Y0064280D01*
X0133393Y0064315D01*
X0135938Y0066860D01*
X0135973Y0066825D01*
G37*
G36*
X0135866Y0066860D02*
X0133321Y0064315D01*
X0133286Y0064350D01*
X0135831Y0066895D01*
X0135866Y0066860D01*
G37*
G36*
X0135760Y0066895D02*
X0133215Y0064350D01*
X0133180Y0064385D01*
X0135725Y0066930D01*
X0135760Y0066895D01*
G37*
G36*
X0135725Y0066931D02*
X0133180Y0064386D01*
X0133145Y0064421D01*
X0135690Y0066966D01*
X0135725Y0066931D01*
G37*
G36*
X0135654Y0066931D02*
X0133109Y0064386D01*
X0133074Y0064421D01*
X0135619Y0066966D01*
X0135654Y0066931D01*
G37*
G36*
X0135619Y0066966D02*
X0133074Y0064421D01*
X0133039Y0064456D01*
X0135584Y0067001D01*
X0135619Y0066966D01*
G37*
G36*
X0135548Y0066966D02*
X0133003Y0064421D01*
X0132968Y0064456D01*
X0135513Y0067001D01*
X0135548Y0066966D01*
G37*
G36*
X0135513Y0067002D02*
X0132968Y0064457D01*
X0132933Y0064492D01*
X0135478Y0067037D01*
X0135513Y0067002D01*
G37*
G36*
X0135478Y0067037D02*
X0132933Y0064492D01*
X0132898Y0064527D01*
X0135443Y0067072D01*
X0135478Y0067037D01*
G37*
G36*
X0135407Y0067037D02*
X0132862Y0064492D01*
X0132827Y0064527D01*
X0135372Y0067072D01*
X0135407Y0067037D01*
G37*
G36*
X0135371Y0067072D02*
X0132826Y0064527D01*
X0132791Y0064562D01*
X0135336Y0067107D01*
X0135371Y0067072D01*
G37*
G36*
X0135301Y0067072D02*
X0132756Y0064527D01*
X0132721Y0064562D01*
X0135266Y0067107D01*
X0135301Y0067072D01*
G37*
G36*
X0135265Y0067108D02*
X0132720Y0064563D01*
X0132685Y0064598D01*
X0135230Y0067143D01*
X0135265Y0067108D01*
G37*
G36*
X0135195Y0067108D02*
X0132650Y0064563D01*
X0132615Y0064598D01*
X0135160Y0067143D01*
X0135195Y0067108D01*
G37*
G36*
X0135053Y0067178D02*
X0132508Y0064633D01*
X0132473Y0064668D01*
X0135018Y0067213D01*
X0135053Y0067178D01*
G37*
G36*
X0134947Y0067214D02*
X0132402Y0064669D01*
X0132367Y0064704D01*
X0134912Y0067249D01*
X0134947Y0067214D01*
G37*
G36*
X0134841Y0067249D02*
X0132296Y0064704D01*
X0132261Y0064739D01*
X0134806Y0067284D01*
X0134841Y0067249D01*
G37*
G36*
X0134488Y0067390D02*
X0131943Y0064845D01*
X0131908Y0064880D01*
X0134453Y0067425D01*
X0134488Y0067390D01*
G37*
D58*
G36*
X0128654Y0060284D02*
X0126427Y0058057D01*
X0126392Y0058092D01*
X0128619Y0060319D01*
X0128654Y0060284D01*
G37*
G36*
X0128689Y0060249D02*
X0126462Y0058022D01*
X0126427Y0058057D01*
X0128654Y0060284D01*
X0128689Y0060249D01*
G37*
G36*
X0128725Y0060213D02*
X0126498Y0057986D01*
X0126463Y0058021D01*
X0128690Y0060248D01*
X0128725Y0060213D01*
G37*
G36*
X0128760Y0060107D02*
X0126533Y0057880D01*
X0126498Y0057915D01*
X0128725Y0060142D01*
X0128760Y0060107D01*
G37*
G36*
X0128795Y0060072D02*
X0126568Y0057845D01*
X0126533Y0057880D01*
X0128760Y0060107D01*
X0128795Y0060072D01*
G37*
G36*
X0128831Y0059966D02*
X0126604Y0057739D01*
X0126569Y0057774D01*
X0128796Y0060001D01*
X0128831Y0059966D01*
G37*
G36*
X0128866Y0059931D02*
X0126639Y0057704D01*
X0126604Y0057739D01*
X0128831Y0059966D01*
X0128866Y0059931D01*
G37*
G36*
X0128866Y0059860D02*
X0126639Y0057633D01*
X0126604Y0057668D01*
X0128831Y0059895D01*
X0128866Y0059860D01*
G37*
G36*
X0128902Y0059825D02*
X0126675Y0057598D01*
X0126640Y0057633D01*
X0128867Y0059860D01*
X0128902Y0059825D01*
G37*
G36*
X0128937Y0059789D02*
X0126710Y0057562D01*
X0126675Y0057597D01*
X0128902Y0059824D01*
X0128937Y0059789D01*
G37*
G36*
X0128937Y0059718D02*
X0126710Y0057491D01*
X0126675Y0057526D01*
X0128902Y0059753D01*
X0128937Y0059718D01*
G37*
G36*
X0128972Y0059683D02*
X0126745Y0057456D01*
X0126710Y0057491D01*
X0128937Y0059718D01*
X0128972Y0059683D01*
G37*
G36*
X0129008Y0059577D02*
X0126781Y0057350D01*
X0126746Y0057385D01*
X0128973Y0059612D01*
X0129008Y0059577D01*
G37*
G36*
X0129043Y0059471D02*
X0126816Y0057244D01*
X0126781Y0057279D01*
X0129008Y0059506D01*
X0129043Y0059471D01*
G37*
G36*
X0123881Y0058905D02*
X0121654Y0056678D01*
X0121619Y0056713D01*
X0123846Y0058940D01*
X0123881Y0058905D01*
G37*
G36*
X0123669Y0059330D02*
X0121442Y0057103D01*
X0121407Y0057138D01*
X0123634Y0059365D01*
X0123669Y0059330D01*
G37*
G36*
X0123528Y0059612D02*
X0121301Y0057385D01*
X0121266Y0057420D01*
X0123493Y0059647D01*
X0123528Y0059612D01*
G37*
G36*
X0123563Y0059506D02*
X0121336Y0057279D01*
X0121301Y0057314D01*
X0123528Y0059541D01*
X0123563Y0059506D01*
G37*
G36*
X0123598Y0059471D02*
X0121371Y0057244D01*
X0121336Y0057279D01*
X0123563Y0059506D01*
X0123598Y0059471D01*
G37*
G36*
X0123634Y0059365D02*
X0121407Y0057138D01*
X0121372Y0057173D01*
X0123599Y0059400D01*
X0123634Y0059365D01*
G37*
G36*
X0123669Y0059259D02*
X0121442Y0057032D01*
X0121407Y0057067D01*
X0123634Y0059294D01*
X0123669Y0059259D01*
G37*
G36*
X0123704Y0059223D02*
X0121477Y0056996D01*
X0121442Y0057031D01*
X0123669Y0059258D01*
X0123704Y0059223D01*
G37*
G36*
X0123740Y0059188D02*
X0121513Y0056961D01*
X0121478Y0056996D01*
X0123705Y0059223D01*
X0123740Y0059188D01*
G37*
G36*
X0123740Y0059117D02*
X0121513Y0056890D01*
X0121478Y0056925D01*
X0123705Y0059152D01*
X0123740Y0059117D01*
G37*
G36*
X0123775Y0059082D02*
X0121548Y0056855D01*
X0121513Y0056890D01*
X0123740Y0059117D01*
X0123775Y0059082D01*
G37*
G36*
X0123810Y0059047D02*
X0121583Y0056820D01*
X0121548Y0056855D01*
X0123775Y0059082D01*
X0123810Y0059047D01*
G37*
G36*
X0123810Y0058976D02*
X0121583Y0056749D01*
X0121548Y0056784D01*
X0123775Y0059011D01*
X0123810Y0058976D01*
G37*
G36*
X0123846Y0058941D02*
X0121619Y0056714D01*
X0121584Y0056749D01*
X0123811Y0058976D01*
X0123846Y0058941D01*
G37*
G36*
X0118542Y0056183D02*
X0116315Y0053956D01*
X0116280Y0053991D01*
X0118507Y0056218D01*
X0118542Y0056183D01*
G37*
G36*
X0118719Y0055794D02*
X0116492Y0053567D01*
X0116457Y0053602D01*
X0118684Y0055829D01*
X0118719Y0055794D01*
G37*
G36*
X0118825Y0055547D02*
X0116598Y0053320D01*
X0116563Y0053355D01*
X0118790Y0055582D01*
X0118825Y0055547D01*
G37*
G36*
X0118896Y0055405D02*
X0116669Y0053178D01*
X0116634Y0053213D01*
X0118861Y0055440D01*
X0118896Y0055405D01*
G37*
G36*
X0118931Y0055299D02*
X0116704Y0053072D01*
X0116669Y0053107D01*
X0118896Y0055334D01*
X0118931Y0055299D01*
G37*
G36*
X0119002Y0055158D02*
X0116775Y0052931D01*
X0116740Y0052966D01*
X0118967Y0055193D01*
X0119002Y0055158D01*
G37*
G36*
X0119108Y0054910D02*
X0116881Y0052683D01*
X0116846Y0052718D01*
X0119073Y0054945D01*
X0119108Y0054910D01*
G37*
G36*
X0119179Y0054769D02*
X0116952Y0052542D01*
X0116917Y0052577D01*
X0119144Y0054804D01*
X0119179Y0054769D01*
G37*
G36*
X0119214Y0054663D02*
X0116987Y0052436D01*
X0116952Y0052471D01*
X0119179Y0054698D01*
X0119214Y0054663D01*
G37*
G36*
X0119285Y0054521D02*
X0117058Y0052294D01*
X0117023Y0052329D01*
X0119250Y0054556D01*
X0119285Y0054521D01*
G37*
G36*
X0119356Y0054380D02*
X0117129Y0052153D01*
X0117094Y0052188D01*
X0119321Y0054415D01*
X0119356Y0054380D01*
G37*
G36*
X0119391Y0054274D02*
X0117164Y0052047D01*
X0117129Y0052082D01*
X0119356Y0054309D01*
X0119391Y0054274D01*
G37*
G36*
X0119462Y0054132D02*
X0117235Y0051905D01*
X0117200Y0051940D01*
X0119427Y0054167D01*
X0119462Y0054132D01*
G37*
G36*
X0119497Y0054026D02*
X0117270Y0051799D01*
X0117235Y0051834D01*
X0119462Y0054061D01*
X0119497Y0054026D01*
G37*
G36*
X0119532Y0053991D02*
X0117305Y0051764D01*
X0117270Y0051799D01*
X0119497Y0054026D01*
X0119532Y0053991D01*
G37*
G36*
X0119568Y0053885D02*
X0117341Y0051658D01*
X0117306Y0051693D01*
X0119533Y0053920D01*
X0119568Y0053885D01*
G37*
G36*
X0119638Y0053743D02*
X0117411Y0051516D01*
X0117376Y0051551D01*
X0119603Y0053778D01*
X0119638Y0053743D01*
G37*
G36*
X0119674Y0053637D02*
X0117447Y0051410D01*
X0117412Y0051445D01*
X0119639Y0053672D01*
X0119674Y0053637D01*
G37*
G36*
X0119745Y0053496D02*
X0117518Y0051269D01*
X0117483Y0051304D01*
X0119710Y0053531D01*
X0119745Y0053496D01*
G37*
G36*
X0119815Y0053354D02*
X0117588Y0051127D01*
X0117553Y0051162D01*
X0119780Y0053389D01*
X0119815Y0053354D01*
G37*
G36*
X0119851Y0053248D02*
X0117624Y0051021D01*
X0117589Y0051056D01*
X0119816Y0053283D01*
X0119851Y0053248D01*
G37*
G36*
X0119921Y0053107D02*
X0117694Y0050880D01*
X0117659Y0050915D01*
X0119886Y0053142D01*
X0119921Y0053107D01*
G37*
G36*
X0119957Y0053001D02*
X0117730Y0050774D01*
X0117695Y0050809D01*
X0119922Y0053036D01*
X0119957Y0053001D01*
G37*
G36*
X0119992Y0052966D02*
X0117765Y0050739D01*
X0117730Y0050774D01*
X0119957Y0053001D01*
X0119992Y0052966D01*
G37*
G36*
X0120027Y0052860D02*
X0117800Y0050633D01*
X0117765Y0050668D01*
X0119992Y0052895D01*
X0120027Y0052860D01*
G37*
G36*
X0120098Y0052718D02*
X0117871Y0050491D01*
X0117836Y0050526D01*
X0120063Y0052753D01*
X0120098Y0052718D01*
G37*
G36*
X0120204Y0052471D02*
X0117977Y0050244D01*
X0117942Y0050279D01*
X0120169Y0052506D01*
X0120204Y0052471D01*
G37*
G36*
X0120275Y0052329D02*
X0118048Y0050102D01*
X0118013Y0050137D01*
X0120240Y0052364D01*
X0120275Y0052329D01*
G37*
G36*
X0120381Y0052082D02*
X0118154Y0049855D01*
X0118119Y0049890D01*
X0120346Y0052117D01*
X0120381Y0052082D01*
G37*
G36*
X0120452Y0051940D02*
X0118225Y0049713D01*
X0118190Y0049748D01*
X0120417Y0051975D01*
X0120452Y0051940D01*
G37*
D59*
G36*
X0128795Y0060001D02*
X0126604Y0057810D01*
X0126569Y0057845D01*
X0128760Y0060036D01*
X0128795Y0060001D01*
G37*
G36*
X0128724Y0060142D02*
X0126533Y0057951D01*
X0126498Y0057986D01*
X0128689Y0060177D01*
X0128724Y0060142D01*
G37*
D60*
G36*
X0128548Y0060531D02*
X0126074Y0058057D01*
X0126038Y0058093D01*
X0128512Y0060567D01*
X0128548Y0060531D01*
G37*
G36*
X0133533Y0067708D02*
X0131059Y0065234D01*
X0131023Y0065270D01*
X0133497Y0067744D01*
X0133533Y0067708D01*
G37*
G36*
X0133887Y0067567D02*
X0131413Y0065093D01*
X0131377Y0065129D01*
X0133851Y0067603D01*
X0133887Y0067567D01*
G37*
G36*
X0133781Y0067602D02*
X0131307Y0065128D01*
X0131271Y0065164D01*
X0133745Y0067638D01*
X0133781Y0067602D01*
G37*
G36*
X0133675Y0067637D02*
X0131201Y0065163D01*
X0131165Y0065199D01*
X0133639Y0067673D01*
X0133675Y0067637D01*
G37*
G36*
X0129220Y0069264D02*
X0126746Y0066790D01*
X0126710Y0066826D01*
X0129184Y0069300D01*
X0129220Y0069264D01*
G37*
G36*
X0129185Y0069299D02*
X0126711Y0066825D01*
X0126675Y0066861D01*
X0129149Y0069335D01*
X0129185Y0069299D01*
G37*
D61*
G36*
X0129644Y0069122D02*
X0126923Y0066401D01*
X0126888Y0066436D01*
X0129609Y0069157D01*
X0129644Y0069122D01*
G37*
G36*
X0128512Y0060566D02*
X0125791Y0057845D01*
X0125756Y0057880D01*
X0128477Y0060601D01*
X0128512Y0060566D01*
G37*
D62*
G36*
X0128477Y0060672D02*
X0123387Y0055582D01*
X0123351Y0055618D01*
X0128441Y0060708D01*
X0128477Y0060672D01*
G37*
D63*
G36*
X0128442Y0060707D02*
X0123140Y0055405D01*
X0123104Y0055441D01*
X0128406Y0060743D01*
X0128442Y0060707D01*
G37*
D64*
G36*
X0128407Y0060744D02*
X0122998Y0055335D01*
X0122963Y0055370D01*
X0128372Y0060779D01*
X0128407Y0060744D01*
G37*
G36*
X0127205Y0061734D02*
X0121796Y0056325D01*
X0121761Y0056360D01*
X0127170Y0061769D01*
X0127205Y0061734D01*
G37*
D65*
G36*
X0126003Y0065976D02*
X0120453Y0060426D01*
X0120417Y0060462D01*
X0125967Y0066012D01*
X0126003Y0065976D01*
G37*
G36*
X0128407Y0060814D02*
X0122857Y0055264D01*
X0122821Y0055300D01*
X0128371Y0060850D01*
X0128407Y0060814D01*
G37*
D66*
G36*
X0128371Y0060849D02*
X0122786Y0055264D01*
X0122751Y0055299D01*
X0128336Y0060884D01*
X0128371Y0060849D01*
G37*
G36*
X0127416Y0061804D02*
X0121831Y0056219D01*
X0121796Y0056254D01*
X0127381Y0061839D01*
X0127416Y0061804D01*
G37*
G36*
X0126002Y0065905D02*
X0120417Y0060320D01*
X0120382Y0060355D01*
X0125967Y0065940D01*
X0126002Y0065905D01*
G37*
D67*
G36*
X0127558Y0061804D02*
X0121902Y0056148D01*
X0121866Y0056184D01*
X0127522Y0061840D01*
X0127558Y0061804D01*
G37*
G36*
X0128336Y0060884D02*
X0122680Y0055228D01*
X0122644Y0055264D01*
X0128300Y0060920D01*
X0128336Y0060884D01*
G37*
D68*
G36*
X0128336Y0060956D02*
X0122609Y0055229D01*
X0122574Y0055264D01*
X0128301Y0060991D01*
X0128336Y0060956D01*
G37*
G36*
X0127735Y0061698D02*
X0122008Y0055971D01*
X0121973Y0056006D01*
X0127700Y0061733D01*
X0127735Y0061698D01*
G37*
G36*
X0127699Y0061734D02*
X0121972Y0056007D01*
X0121937Y0056042D01*
X0127664Y0061769D01*
X0127699Y0061734D01*
G37*
G36*
X0127664Y0061769D02*
X0121937Y0056042D01*
X0121902Y0056077D01*
X0127629Y0061804D01*
X0127664Y0061769D01*
G37*
G36*
X0126108Y0065658D02*
X0120381Y0059931D01*
X0120346Y0059966D01*
X0126073Y0065693D01*
X0126108Y0065658D01*
G37*
G36*
X0126108Y0065729D02*
X0120381Y0060002D01*
X0120346Y0060037D01*
X0126073Y0065764D01*
X0126108Y0065729D01*
G37*
D69*
G36*
X0126144Y0065622D02*
X0120382Y0059860D01*
X0120346Y0059896D01*
X0126108Y0065658D01*
X0126144Y0065622D01*
G37*
G36*
X0128265Y0061026D02*
X0122503Y0055264D01*
X0122467Y0055300D01*
X0128229Y0061062D01*
X0128265Y0061026D01*
G37*
G36*
X0128301Y0060990D02*
X0122539Y0055228D01*
X0122503Y0055264D01*
X0128265Y0061026D01*
X0128301Y0060990D01*
G37*
D70*
G36*
X0127876Y0061627D02*
X0122079Y0055830D01*
X0122044Y0055865D01*
X0127841Y0061662D01*
X0127876Y0061627D01*
G37*
G36*
X0127840Y0061663D02*
X0122043Y0055866D01*
X0122008Y0055901D01*
X0127805Y0061698D01*
X0127840Y0061663D01*
G37*
G36*
X0127805Y0061698D02*
X0122008Y0055901D01*
X0121973Y0055936D01*
X0127770Y0061733D01*
X0127805Y0061698D01*
G37*
G36*
X0128265Y0061097D02*
X0122468Y0055300D01*
X0122433Y0055335D01*
X0128230Y0061132D01*
X0128265Y0061097D01*
G37*
G36*
X0126214Y0065481D02*
X0120417Y0059684D01*
X0120382Y0059719D01*
X0126179Y0065516D01*
X0126214Y0065481D01*
G37*
G36*
X0126179Y0065587D02*
X0120382Y0059790D01*
X0120347Y0059825D01*
X0126144Y0065622D01*
X0126179Y0065587D01*
G37*
G36*
X0126179Y0065516D02*
X0120382Y0059719D01*
X0120347Y0059754D01*
X0126144Y0065551D01*
X0126179Y0065516D01*
G37*
D71*
G36*
X0126250Y0065446D02*
X0120417Y0059613D01*
X0120382Y0059648D01*
X0126215Y0065481D01*
X0126250Y0065446D01*
G37*
G36*
X0126250Y0065375D02*
X0120417Y0059542D01*
X0120382Y0059577D01*
X0126215Y0065410D01*
X0126250Y0065375D01*
G37*
G36*
X0126285Y0065340D02*
X0120452Y0059507D01*
X0120417Y0059542D01*
X0126250Y0065375D01*
X0126285Y0065340D01*
G37*
G36*
X0127911Y0061592D02*
X0122078Y0055759D01*
X0122043Y0055794D01*
X0127876Y0061627D01*
X0127911Y0061592D01*
G37*
G36*
X0127947Y0061557D02*
X0122114Y0055724D01*
X0122079Y0055759D01*
X0127912Y0061592D01*
X0127947Y0061557D01*
G37*
G36*
X0127982Y0061521D02*
X0122149Y0055688D01*
X0122114Y0055723D01*
X0127947Y0061556D01*
X0127982Y0061521D01*
G37*
G36*
X0127982Y0061451D02*
X0122149Y0055618D01*
X0122114Y0055653D01*
X0127947Y0061486D01*
X0127982Y0061451D01*
G37*
G36*
X0128018Y0061415D02*
X0122185Y0055582D01*
X0122150Y0055617D01*
X0127983Y0061450D01*
X0128018Y0061415D01*
G37*
G36*
X0128053Y0061380D02*
X0122220Y0055547D01*
X0122185Y0055582D01*
X0128018Y0061415D01*
X0128053Y0061380D01*
G37*
G36*
X0128088Y0061345D02*
X0122255Y0055512D01*
X0122220Y0055547D01*
X0128053Y0061380D01*
X0128088Y0061345D01*
G37*
G36*
X0128124Y0061309D02*
X0122291Y0055476D01*
X0122256Y0055511D01*
X0128089Y0061344D01*
X0128124Y0061309D01*
G37*
G36*
X0128159Y0061274D02*
X0122326Y0055441D01*
X0122291Y0055476D01*
X0128124Y0061309D01*
X0128159Y0061274D01*
G37*
G36*
X0128159Y0061203D02*
X0122326Y0055370D01*
X0122291Y0055405D01*
X0128124Y0061238D01*
X0128159Y0061203D01*
G37*
G36*
X0128194Y0061168D02*
X0122361Y0055335D01*
X0122326Y0055370D01*
X0128159Y0061203D01*
X0128194Y0061168D01*
G37*
G36*
X0128230Y0061133D02*
X0122397Y0055300D01*
X0122362Y0055335D01*
X0128195Y0061168D01*
X0128230Y0061133D01*
G37*
D72*
G36*
X0127593Y0061769D02*
X0121902Y0056078D01*
X0121867Y0056113D01*
X0127558Y0061804D01*
X0127593Y0061769D01*
G37*
G36*
X0126073Y0065764D02*
X0120382Y0060073D01*
X0120347Y0060108D01*
X0126038Y0065799D01*
X0126073Y0065764D01*
G37*
G36*
X0126073Y0065835D02*
X0120382Y0060144D01*
X0120347Y0060179D01*
X0126038Y0065870D01*
X0126073Y0065835D01*
G37*
D73*
G36*
X0133498Y0067744D02*
X0128549Y0062795D01*
X0128514Y0062830D01*
X0133463Y0067779D01*
X0133498Y0067744D01*
G37*
D74*
G36*
X0126038Y0065870D02*
X0120417Y0060249D01*
X0120382Y0060284D01*
X0126003Y0065905D01*
X0126038Y0065870D01*
G37*
G36*
X0127487Y0061804D02*
X0121866Y0056183D01*
X0121831Y0056218D01*
X0127452Y0061839D01*
X0127487Y0061804D01*
G37*
D75*
G36*
X0127310Y0061769D02*
X0121831Y0056290D01*
X0121796Y0056325D01*
X0127275Y0061804D01*
X0127310Y0061769D01*
G37*
D76*
G36*
X0127027Y0061627D02*
X0121760Y0056360D01*
X0121725Y0056395D01*
X0126992Y0061662D01*
X0127027Y0061627D01*
G37*
D77*
G36*
X0126745Y0061415D02*
X0121761Y0056431D01*
X0121725Y0056467D01*
X0126709Y0061451D01*
X0126745Y0061415D01*
G37*
D78*
G36*
X0124482Y0059223D02*
X0121725Y0056466D01*
X0121690Y0056501D01*
X0124447Y0059258D01*
X0124482Y0059223D01*
G37*
G36*
X0129679Y0069087D02*
X0126922Y0066330D01*
X0126887Y0066365D01*
X0129644Y0069122D01*
X0129679Y0069087D01*
G37*
D79*
G36*
X0132083Y0068238D02*
X0127948Y0064103D01*
X0127913Y0064138D01*
X0132048Y0068273D01*
X0132083Y0068238D01*
G37*
G36*
X0132118Y0068203D02*
X0127983Y0064068D01*
X0127948Y0064103D01*
X0132083Y0068238D01*
X0132118Y0068203D01*
G37*
D80*
G36*
X0132013Y0068239D02*
X0127948Y0064174D01*
X0127913Y0064209D01*
X0131978Y0068274D01*
X0132013Y0068239D01*
G37*
G36*
X0131977Y0068274D02*
X0127912Y0064209D01*
X0127877Y0064244D01*
X0131942Y0068309D01*
X0131977Y0068274D01*
G37*
D81*
G36*
X0131906Y0068274D02*
X0127877Y0064245D01*
X0127842Y0064280D01*
X0131871Y0068309D01*
X0131906Y0068274D01*
G37*
D82*
G36*
X0131872Y0068309D02*
X0127878Y0064315D01*
X0127842Y0064351D01*
X0131836Y0068345D01*
X0131872Y0068309D01*
G37*
G36*
X0131836Y0068344D02*
X0127842Y0064350D01*
X0127806Y0064386D01*
X0131800Y0068380D01*
X0131836Y0068344D01*
G37*
D83*
G36*
X0131765Y0068345D02*
X0127842Y0064422D01*
X0127807Y0064457D01*
X0131730Y0068380D01*
X0131765Y0068345D01*
G37*
G36*
X0131729Y0068380D02*
X0127806Y0064457D01*
X0127771Y0064492D01*
X0131694Y0068415D01*
X0131729Y0068380D01*
G37*
D84*
G36*
X0131624Y0068416D02*
X0127771Y0064563D01*
X0127736Y0064598D01*
X0131589Y0068451D01*
X0131624Y0068416D01*
G37*
D85*
G36*
X0131553Y0068415D02*
X0127736Y0064598D01*
X0127701Y0064633D01*
X0131518Y0068450D01*
X0131553Y0068415D01*
G37*
G36*
X0131517Y0068451D02*
X0127700Y0064634D01*
X0127665Y0064669D01*
X0131482Y0068486D01*
X0131517Y0068451D01*
G37*
D86*
G36*
X0131447Y0068451D02*
X0127700Y0064704D01*
X0127665Y0064739D01*
X0131412Y0068486D01*
X0131447Y0068451D01*
G37*
G36*
X0131412Y0068486D02*
X0127665Y0064739D01*
X0127630Y0064774D01*
X0131377Y0068521D01*
X0131412Y0068486D01*
G37*
D87*
G36*
X0129786Y0069051D02*
X0126994Y0066259D01*
X0126958Y0066295D01*
X0129750Y0069087D01*
X0129786Y0069051D01*
G37*
G36*
X0129750Y0069087D02*
X0126958Y0066295D01*
X0126922Y0066331D01*
X0129714Y0069123D01*
X0129750Y0069087D01*
G37*
G36*
X0123775Y0060849D02*
X0120983Y0058057D01*
X0120947Y0058093D01*
X0123739Y0060885D01*
X0123775Y0060849D01*
G37*
D88*
G36*
X0126886Y0064032D02*
X0120947Y0058093D01*
X0120912Y0058128D01*
X0126851Y0064067D01*
X0126886Y0064032D01*
G37*
G36*
X0126568Y0064774D02*
X0120629Y0058835D01*
X0120594Y0058870D01*
X0126533Y0064809D01*
X0126568Y0064774D01*
G37*
G36*
X0126639Y0064633D02*
X0120700Y0058694D01*
X0120665Y0058729D01*
X0126604Y0064668D01*
X0126639Y0064633D01*
G37*
G36*
X0126674Y0064527D02*
X0120735Y0058588D01*
X0120700Y0058623D01*
X0126639Y0064562D01*
X0126674Y0064527D01*
G37*
G36*
X0126709Y0064491D02*
X0120770Y0058552D01*
X0120735Y0058587D01*
X0126674Y0064526D01*
X0126709Y0064491D01*
G37*
G36*
X0126709Y0064421D02*
X0120770Y0058482D01*
X0120735Y0058517D01*
X0126674Y0064456D01*
X0126709Y0064421D01*
G37*
G36*
X0126745Y0064385D02*
X0120806Y0058446D01*
X0120771Y0058481D01*
X0126710Y0064420D01*
X0126745Y0064385D01*
G37*
G36*
X0126780Y0064350D02*
X0120841Y0058411D01*
X0120806Y0058446D01*
X0126745Y0064385D01*
X0126780Y0064350D01*
G37*
G36*
X0126780Y0064279D02*
X0120841Y0058340D01*
X0120806Y0058375D01*
X0126745Y0064314D01*
X0126780Y0064279D01*
G37*
G36*
X0126815Y0064244D02*
X0120876Y0058305D01*
X0120841Y0058340D01*
X0126780Y0064279D01*
X0126815Y0064244D01*
G37*
G36*
X0126815Y0064173D02*
X0120876Y0058234D01*
X0120841Y0058269D01*
X0126780Y0064208D01*
X0126815Y0064173D01*
G37*
G36*
X0126851Y0064138D02*
X0120912Y0058199D01*
X0120877Y0058234D01*
X0126816Y0064173D01*
X0126851Y0064138D01*
G37*
G36*
X0126886Y0064102D02*
X0120947Y0058163D01*
X0120912Y0058198D01*
X0126851Y0064137D01*
X0126886Y0064102D01*
G37*
D89*
G36*
X0131341Y0068486D02*
X0127630Y0064775D01*
X0127595Y0064810D01*
X0131306Y0068521D01*
X0131341Y0068486D01*
G37*
D90*
G36*
X0131306Y0068521D02*
X0127630Y0064845D01*
X0127594Y0064881D01*
X0131270Y0068557D01*
X0131306Y0068521D01*
G37*
D91*
G36*
X0131235Y0068522D02*
X0127594Y0064881D01*
X0127559Y0064916D01*
X0131200Y0068557D01*
X0131235Y0068522D01*
G37*
D92*
G36*
X0131199Y0068557D02*
X0127594Y0064952D01*
X0127559Y0064987D01*
X0131164Y0068592D01*
X0131199Y0068557D01*
G37*
D93*
G36*
X0131129Y0068557D02*
X0127559Y0064987D01*
X0127523Y0065023D01*
X0131093Y0068593D01*
X0131129Y0068557D01*
G37*
G36*
X0131094Y0068592D02*
X0127524Y0065022D01*
X0127488Y0065058D01*
X0131058Y0068628D01*
X0131094Y0068592D01*
G37*
D94*
G36*
X0130952Y0068663D02*
X0127453Y0065164D01*
X0127418Y0065199D01*
X0130917Y0068698D01*
X0130952Y0068663D01*
G37*
G36*
X0130987Y0068628D02*
X0127488Y0065129D01*
X0127453Y0065164D01*
X0130952Y0068663D01*
X0130987Y0068628D01*
G37*
G36*
X0131022Y0068592D02*
X0127523Y0065093D01*
X0127488Y0065128D01*
X0130987Y0068627D01*
X0131022Y0068592D01*
G37*
D95*
G36*
X0130881Y0068663D02*
X0127452Y0065234D01*
X0127417Y0065269D01*
X0130846Y0068698D01*
X0130881Y0068663D01*
G37*
G36*
X0130846Y0068699D02*
X0127417Y0065270D01*
X0127382Y0065305D01*
X0130811Y0068734D01*
X0130846Y0068699D01*
G37*
D96*
G36*
X0126391Y0065163D02*
X0120488Y0059260D01*
X0120453Y0059295D01*
X0126356Y0065198D01*
X0126391Y0065163D01*
G37*
G36*
X0126426Y0065057D02*
X0120523Y0059154D01*
X0120488Y0059189D01*
X0126391Y0065092D01*
X0126426Y0065057D01*
G37*
G36*
X0126462Y0064951D02*
X0120559Y0059048D01*
X0120524Y0059083D01*
X0126427Y0064986D01*
X0126462Y0064951D01*
G37*
G36*
X0126497Y0064915D02*
X0120594Y0059012D01*
X0120559Y0059047D01*
X0126462Y0064950D01*
X0126497Y0064915D01*
G37*
G36*
X0126497Y0064844D02*
X0120594Y0058941D01*
X0120559Y0058976D01*
X0126462Y0064879D01*
X0126497Y0064844D01*
G37*
G36*
X0126532Y0064809D02*
X0120629Y0058906D01*
X0120594Y0058941D01*
X0126497Y0064844D01*
X0126532Y0064809D01*
G37*
G36*
X0126568Y0064703D02*
X0120665Y0058800D01*
X0120630Y0058835D01*
X0126533Y0064738D01*
X0126568Y0064703D01*
G37*
G36*
X0126603Y0064668D02*
X0120700Y0058765D01*
X0120665Y0058800D01*
X0126568Y0064703D01*
X0126603Y0064668D01*
G37*
G36*
X0126638Y0064562D02*
X0120735Y0058659D01*
X0120700Y0058694D01*
X0126603Y0064597D01*
X0126638Y0064562D01*
G37*
D97*
G36*
X0130776Y0068698D02*
X0127418Y0065340D01*
X0127382Y0065376D01*
X0130740Y0068734D01*
X0130776Y0068698D01*
G37*
G36*
X0130740Y0068733D02*
X0127382Y0065375D01*
X0127346Y0065411D01*
X0130704Y0068769D01*
X0130740Y0068733D01*
G37*
D98*
G36*
X0130669Y0068734D02*
X0127346Y0065411D01*
X0127311Y0065446D01*
X0130634Y0068769D01*
X0130669Y0068734D01*
G37*
D99*
G36*
X0130634Y0068769D02*
X0127347Y0065482D01*
X0127312Y0065517D01*
X0130599Y0068804D01*
X0130634Y0068769D01*
G37*
D100*
G36*
X0130564Y0068769D02*
X0127312Y0065517D01*
X0127276Y0065553D01*
X0130528Y0068805D01*
X0130564Y0068769D01*
G37*
G36*
X0130528Y0068804D02*
X0127276Y0065552D01*
X0127240Y0065588D01*
X0130492Y0068840D01*
X0130528Y0068804D01*
G37*
D101*
G36*
X0130457Y0068804D02*
X0127276Y0065623D01*
X0127241Y0065658D01*
X0130422Y0068839D01*
X0130457Y0068804D01*
G37*
G36*
X0130422Y0068840D02*
X0127241Y0065659D01*
X0127206Y0065694D01*
X0130387Y0068875D01*
X0130422Y0068840D01*
G37*
D102*
G36*
X0130350Y0068839D02*
X0127205Y0065694D01*
X0127170Y0065729D01*
X0130315Y0068874D01*
X0130350Y0068839D01*
G37*
D103*
G36*
X0126321Y0065304D02*
X0120453Y0059436D01*
X0120417Y0059472D01*
X0126285Y0065340D01*
X0126321Y0065304D01*
G37*
G36*
X0126321Y0065233D02*
X0120453Y0059365D01*
X0120417Y0059401D01*
X0126285Y0065269D01*
X0126321Y0065233D01*
G37*
G36*
X0126356Y0065198D02*
X0120488Y0059330D01*
X0120452Y0059366D01*
X0126320Y0065234D01*
X0126356Y0065198D01*
G37*
G36*
X0126392Y0065092D02*
X0120524Y0059224D01*
X0120488Y0059260D01*
X0126356Y0065128D01*
X0126392Y0065092D01*
G37*
G36*
X0126427Y0064986D02*
X0120559Y0059118D01*
X0120523Y0059154D01*
X0126391Y0065022D01*
X0126427Y0064986D01*
G37*
D104*
G36*
X0130316Y0068875D02*
X0127206Y0065765D01*
X0127170Y0065801D01*
X0130280Y0068911D01*
X0130316Y0068875D01*
G37*
D105*
G36*
X0130245Y0068875D02*
X0127170Y0065800D01*
X0127135Y0065835D01*
X0130210Y0068910D01*
X0130245Y0068875D01*
G37*
D106*
G36*
X0130139Y0068910D02*
X0127135Y0065906D01*
X0127099Y0065942D01*
X0130103Y0068946D01*
X0130139Y0068910D01*
G37*
G36*
X0130104Y0068945D02*
X0127100Y0065941D01*
X0127064Y0065977D01*
X0130068Y0068981D01*
X0130104Y0068945D01*
G37*
D107*
G36*
X0130068Y0068981D02*
X0127099Y0066012D01*
X0127064Y0066047D01*
X0130033Y0069016D01*
X0130068Y0068981D01*
G37*
D108*
G36*
X0129997Y0068981D02*
X0127064Y0066048D01*
X0127029Y0066083D01*
X0129962Y0069016D01*
X0129997Y0068981D01*
G37*
G36*
X0129962Y0069016D02*
X0127029Y0066083D01*
X0126994Y0066118D01*
X0129927Y0069051D01*
X0129962Y0069016D01*
G37*
D109*
G36*
X0129891Y0069017D02*
X0127028Y0066154D01*
X0126993Y0066189D01*
X0129856Y0069052D01*
X0129891Y0069017D01*
G37*
G36*
X0129856Y0069052D02*
X0126993Y0066189D01*
X0126958Y0066224D01*
X0129821Y0069087D01*
X0129856Y0069052D01*
G37*
D110*
G36*
X0129467Y0069158D02*
X0126852Y0066543D01*
X0126817Y0066578D01*
X0129432Y0069193D01*
X0129467Y0069158D01*
G37*
G36*
X0129431Y0069193D02*
X0126816Y0066578D01*
X0126781Y0066613D01*
X0129396Y0069228D01*
X0129431Y0069193D01*
G37*
D111*
G36*
X0125967Y0066011D02*
X0120523Y0060567D01*
X0120487Y0060603D01*
X0125931Y0066047D01*
X0125967Y0066011D01*
G37*
D112*
G36*
X0125932Y0066046D02*
X0120736Y0060850D01*
X0120700Y0060886D01*
X0125896Y0066082D01*
X0125932Y0066046D01*
G37*
D113*
G36*
X0125897Y0066152D02*
X0122115Y0062370D01*
X0122079Y0062406D01*
X0125861Y0066188D01*
X0125897Y0066152D01*
G37*
D114*
X0104625Y0044625D02*
X0102125Y0047125D01*
X0097125Y0047125D01*
X0094625Y0044625D01*
X0092125Y0047125D01*
X0087125Y0047125D01*
X0084625Y0044625D01*
X0082125Y0047125D01*
X0077125Y0047125D01*
X0074625Y0044625D01*
X0072125Y0047125D01*
X0067125Y0047125D01*
X0064625Y0044625D01*
X0062125Y0047125D01*
X0057125Y0047125D01*
X0054625Y0044625D01*
X0052125Y0047125D01*
X0047125Y0047125D01*
X0044625Y0044625D01*
X0042125Y0047125D01*
X0037125Y0047125D01*
X0034625Y0044625D01*
X0032125Y0047125D01*
X0027125Y0047125D01*
X0024625Y0044625D01*
X0024625Y0039625D01*
X0027125Y0037125D01*
X0032125Y0037125D01*
X0034625Y0039625D01*
X0037125Y0037125D01*
X0042125Y0037125D01*
X0044625Y0039625D01*
X0047125Y0037125D01*
X0052125Y0037125D01*
X0054625Y0039625D01*
X0057125Y0037125D01*
X0062125Y0037125D01*
X0064625Y0039625D01*
X0067125Y0037125D01*
X0072125Y0037125D01*
X0074625Y0039625D01*
X0077125Y0037125D01*
X0082125Y0037125D01*
X0084625Y0039625D01*
X0087125Y0037125D01*
X0092125Y0037125D01*
X0094625Y0039625D01*
X0097125Y0037125D01*
X0102125Y0037125D01*
X0104625Y0039625D01*
X0104625Y0044625D01*
X0102125Y0030875D02*
X0097125Y0030875D01*
X0094625Y0028375D01*
X0092125Y0030875D01*
X0087125Y0030875D01*
X0084625Y0028375D01*
X0082125Y0030875D01*
X0077125Y0030875D01*
X0074625Y0028375D01*
X0074625Y0023375D01*
X0077125Y0020875D01*
X0082125Y0020875D01*
X0084625Y0023375D01*
X0087125Y0020875D01*
X0092125Y0020875D01*
X0094625Y0023375D01*
X0097125Y0020875D01*
X0102125Y0020875D01*
X0104625Y0023375D01*
X0104625Y0028375D01*
X0102125Y0030875D01*
X0064625Y0022750D02*
X0064625Y0017750D01*
X0062125Y0015250D01*
X0057125Y0015250D01*
X0054625Y0017750D01*
X0052125Y0015250D01*
X0047125Y0015250D01*
X0044625Y0017750D01*
X0042125Y0015250D01*
X0037125Y0015250D01*
X0034625Y0017750D01*
X0032125Y0015250D01*
X0027125Y0015250D01*
X0024625Y0017750D01*
X0024625Y0022750D01*
X0027125Y0025250D01*
X0032125Y0025250D01*
X0034625Y0022750D01*
X0037125Y0025250D01*
X0042125Y0025250D01*
X0044625Y0022750D01*
X0047125Y0025250D01*
X0052125Y0025250D01*
X0054625Y0022750D01*
X0057125Y0025250D01*
X0062125Y0025250D01*
X0064625Y0022750D01*
X0037750Y0058375D02*
X0032750Y0058375D01*
X0030250Y0060875D01*
X0030250Y0065875D01*
X0032750Y0068375D01*
X0030250Y0070875D01*
X0030250Y0075875D01*
X0032750Y0078375D01*
X0037750Y0078375D01*
X0040250Y0075875D01*
X0040250Y0070875D01*
X0037750Y0068375D01*
X0040250Y0065875D01*
X0040250Y0060875D01*
X0037750Y0058375D01*
X0037750Y0068375D02*
X0032750Y0068375D01*
X0017312Y0071317D02*
X0014812Y0068817D01*
X0009812Y0068817D01*
X0007312Y0071317D01*
X0007312Y0076317D01*
X0009812Y0078817D01*
X0014812Y0078817D01*
X0017312Y0076317D01*
X0017312Y0071317D01*
X0026875Y0101250D02*
X0031875Y0101250D01*
X0034375Y0103750D01*
X0036875Y0101250D01*
X0041875Y0101250D01*
X0044375Y0103750D01*
X0044375Y0108750D01*
X0041875Y0111250D01*
X0036875Y0111250D01*
X0034375Y0108750D01*
X0034375Y0103750D01*
X0034375Y0108750D01*
X0031875Y0111250D01*
X0026875Y0111250D01*
X0024375Y0108750D01*
X0024375Y0103750D01*
X0026875Y0101250D01*
X0064375Y0103750D02*
X0066875Y0101250D01*
X0071875Y0101250D01*
X0074375Y0103750D01*
X0076875Y0101250D01*
X0081875Y0101250D01*
X0084375Y0103750D01*
X0084375Y0108750D01*
X0081875Y0111250D01*
X0076875Y0111250D01*
X0074375Y0108750D01*
X0074375Y0103750D01*
X0074375Y0108750D01*
X0071875Y0111250D01*
X0066875Y0111250D01*
X0064375Y0108750D01*
X0064375Y0103750D01*
X0094375Y0103750D02*
X0096875Y0101250D01*
X0101875Y0101250D01*
X0104375Y0103750D01*
X0104375Y0108750D01*
X0101875Y0111250D01*
X0096875Y0111250D01*
X0094375Y0108750D01*
X0094375Y0103750D01*
X0104375Y0103750D02*
X0106875Y0101250D01*
X0111875Y0101250D01*
X0114375Y0103750D01*
X0114375Y0108750D01*
X0111875Y0111250D01*
X0106875Y0111250D01*
X0104375Y0108750D01*
X0104375Y0103750D01*
X0114375Y0103750D02*
X0116875Y0101250D01*
X0121875Y0101250D01*
X0124375Y0103750D01*
X0124375Y0108750D01*
X0121875Y0111250D01*
X0116875Y0111250D01*
X0114375Y0108750D01*
X0114375Y0103750D01*
X0124375Y0103750D02*
X0126875Y0101250D01*
X0131875Y0101250D01*
X0134375Y0103750D01*
X0136875Y0101250D01*
X0141875Y0101250D01*
X0144375Y0103750D01*
X0144375Y0108750D01*
X0141875Y0111250D01*
X0136875Y0111250D01*
X0134375Y0108750D01*
X0134375Y0103750D01*
X0134375Y0108750D01*
X0131875Y0111250D01*
X0126875Y0111250D01*
X0124375Y0108750D01*
X0124375Y0103750D01*
X0151375Y0093750D02*
X0151375Y0088750D01*
X0153875Y0086250D01*
X0151375Y0083750D01*
X0151375Y0078750D01*
X0153875Y0076250D01*
X0158875Y0076250D01*
X0161375Y0078750D01*
X0161375Y0083750D01*
X0158875Y0086250D01*
X0153875Y0086250D01*
X0158875Y0086250D01*
X0161375Y0088750D01*
X0161375Y0093750D01*
X0158875Y0096250D01*
X0153875Y0096250D01*
X0151375Y0093750D01*
D115*
X0071376Y0028129D02*
X0071376Y0023625D01*
X0069875Y0023625D02*
X0072878Y0023625D01*
X0073897Y0020875D02*
X0073899Y0020929D01*
X0073905Y0020982D01*
X0073915Y0021035D01*
X0073929Y0021087D01*
X0073946Y0021138D01*
X0073967Y0021187D01*
X0073992Y0021235D01*
X0074021Y0021281D01*
X0074052Y0021324D01*
X0074087Y0021365D01*
X0074125Y0021404D01*
X0074165Y0021439D01*
X0074208Y0021472D01*
X0074253Y0021501D01*
X0074301Y0021527D01*
X0074350Y0021549D01*
X0074400Y0021567D01*
X0074452Y0021582D01*
X0074504Y0021593D01*
X0074558Y0021600D01*
X0074612Y0021603D01*
X0074665Y0021602D01*
X0074719Y0021597D01*
X0074772Y0021588D01*
X0074824Y0021575D01*
X0074875Y0021559D01*
X0074925Y0021538D01*
X0074973Y0021514D01*
X0075020Y0021487D01*
X0075064Y0021456D01*
X0075105Y0021422D01*
X0075145Y0021385D01*
X0075181Y0021345D01*
X0075214Y0021303D01*
X0075244Y0021258D01*
X0075271Y0021211D01*
X0075294Y0021163D01*
X0075313Y0021113D01*
X0075329Y0021061D01*
X0075341Y0021009D01*
X0075349Y0020956D01*
X0075353Y0020902D01*
X0075353Y0020848D01*
X0075349Y0020794D01*
X0075341Y0020741D01*
X0075329Y0020689D01*
X0075313Y0020637D01*
X0075294Y0020587D01*
X0075271Y0020539D01*
X0075244Y0020492D01*
X0075214Y0020447D01*
X0075181Y0020405D01*
X0075145Y0020365D01*
X0075105Y0020328D01*
X0075064Y0020294D01*
X0075020Y0020263D01*
X0074973Y0020236D01*
X0074925Y0020212D01*
X0074875Y0020191D01*
X0074824Y0020175D01*
X0074772Y0020162D01*
X0074719Y0020153D01*
X0074665Y0020148D01*
X0074612Y0020147D01*
X0074558Y0020150D01*
X0074504Y0020157D01*
X0074452Y0020168D01*
X0074400Y0020183D01*
X0074350Y0020201D01*
X0074301Y0020223D01*
X0074253Y0020249D01*
X0074208Y0020278D01*
X0074165Y0020311D01*
X0074125Y0020346D01*
X0074087Y0020385D01*
X0074052Y0020426D01*
X0074021Y0020469D01*
X0073992Y0020515D01*
X0073967Y0020563D01*
X0073946Y0020612D01*
X0073929Y0020663D01*
X0073915Y0020715D01*
X0073905Y0020768D01*
X0073899Y0020821D01*
X0073897Y0020875D01*
X0068524Y0018000D02*
X0065521Y0018000D01*
X0067022Y0018000D02*
X0067022Y0022504D01*
X0065521Y0021003D01*
X0063703Y0025250D02*
X0063705Y0025310D01*
X0063711Y0025370D01*
X0063721Y0025430D01*
X0063734Y0025489D01*
X0063752Y0025546D01*
X0063773Y0025603D01*
X0063798Y0025658D01*
X0063827Y0025711D01*
X0063858Y0025762D01*
X0063894Y0025811D01*
X0063932Y0025858D01*
X0063973Y0025902D01*
X0064017Y0025943D01*
X0064064Y0025981D01*
X0064113Y0026017D01*
X0064164Y0026048D01*
X0064217Y0026077D01*
X0064272Y0026102D01*
X0064329Y0026123D01*
X0064386Y0026141D01*
X0064445Y0026154D01*
X0064505Y0026164D01*
X0064565Y0026170D01*
X0064625Y0026172D01*
X0064685Y0026170D01*
X0064745Y0026164D01*
X0064805Y0026154D01*
X0064864Y0026141D01*
X0064921Y0026123D01*
X0064978Y0026102D01*
X0065033Y0026077D01*
X0065086Y0026048D01*
X0065137Y0026017D01*
X0065186Y0025981D01*
X0065233Y0025943D01*
X0065277Y0025902D01*
X0065318Y0025858D01*
X0065356Y0025811D01*
X0065392Y0025762D01*
X0065423Y0025711D01*
X0065452Y0025658D01*
X0065477Y0025603D01*
X0065498Y0025546D01*
X0065516Y0025489D01*
X0065529Y0025430D01*
X0065539Y0025370D01*
X0065545Y0025310D01*
X0065547Y0025250D01*
X0065545Y0025190D01*
X0065539Y0025130D01*
X0065529Y0025070D01*
X0065516Y0025011D01*
X0065498Y0024954D01*
X0065477Y0024897D01*
X0065452Y0024842D01*
X0065423Y0024789D01*
X0065392Y0024738D01*
X0065356Y0024689D01*
X0065318Y0024642D01*
X0065277Y0024598D01*
X0065233Y0024557D01*
X0065186Y0024519D01*
X0065137Y0024483D01*
X0065086Y0024452D01*
X0065033Y0024423D01*
X0064978Y0024398D01*
X0064921Y0024377D01*
X0064864Y0024359D01*
X0064805Y0024346D01*
X0064745Y0024336D01*
X0064685Y0024330D01*
X0064625Y0024328D01*
X0064565Y0024330D01*
X0064505Y0024336D01*
X0064445Y0024346D01*
X0064386Y0024359D01*
X0064329Y0024377D01*
X0064272Y0024398D01*
X0064217Y0024423D01*
X0064164Y0024452D01*
X0064113Y0024483D01*
X0064064Y0024519D01*
X0064017Y0024557D01*
X0063973Y0024598D01*
X0063932Y0024642D01*
X0063894Y0024689D01*
X0063858Y0024738D01*
X0063827Y0024789D01*
X0063798Y0024842D01*
X0063773Y0024897D01*
X0063752Y0024954D01*
X0063734Y0025011D01*
X0063721Y0025070D01*
X0063711Y0025130D01*
X0063705Y0025190D01*
X0063703Y0025250D01*
X0069875Y0026628D02*
X0071376Y0028129D01*
X0023225Y0037125D02*
X0023227Y0037184D01*
X0023233Y0037244D01*
X0023243Y0037302D01*
X0023256Y0037360D01*
X0023274Y0037417D01*
X0023295Y0037473D01*
X0023320Y0037527D01*
X0023348Y0037579D01*
X0023380Y0037630D01*
X0023415Y0037678D01*
X0023453Y0037724D01*
X0023494Y0037767D01*
X0023538Y0037807D01*
X0023584Y0037844D01*
X0023633Y0037878D01*
X0023684Y0037909D01*
X0023736Y0037937D01*
X0023791Y0037961D01*
X0023847Y0037981D01*
X0023904Y0037997D01*
X0023962Y0038010D01*
X0024021Y0038019D01*
X0024080Y0038024D01*
X0024140Y0038025D01*
X0024199Y0038022D01*
X0024258Y0038015D01*
X0024317Y0038004D01*
X0024375Y0037990D01*
X0024431Y0037971D01*
X0024487Y0037949D01*
X0024540Y0037924D01*
X0024592Y0037894D01*
X0024642Y0037862D01*
X0024689Y0037826D01*
X0024735Y0037787D01*
X0024777Y0037745D01*
X0024817Y0037701D01*
X0024853Y0037654D01*
X0024886Y0037605D01*
X0024917Y0037553D01*
X0024943Y0037500D01*
X0024966Y0037445D01*
X0024985Y0037389D01*
X0025001Y0037331D01*
X0025013Y0037273D01*
X0025021Y0037214D01*
X0025025Y0037155D01*
X0025025Y0037095D01*
X0025021Y0037036D01*
X0025013Y0036977D01*
X0025001Y0036919D01*
X0024985Y0036861D01*
X0024966Y0036805D01*
X0024943Y0036750D01*
X0024917Y0036697D01*
X0024886Y0036645D01*
X0024853Y0036596D01*
X0024817Y0036549D01*
X0024777Y0036505D01*
X0024735Y0036463D01*
X0024689Y0036424D01*
X0024642Y0036388D01*
X0024592Y0036356D01*
X0024540Y0036326D01*
X0024487Y0036301D01*
X0024431Y0036279D01*
X0024375Y0036260D01*
X0024317Y0036246D01*
X0024258Y0036235D01*
X0024199Y0036228D01*
X0024140Y0036225D01*
X0024080Y0036226D01*
X0024021Y0036231D01*
X0023962Y0036240D01*
X0023904Y0036253D01*
X0023847Y0036269D01*
X0023791Y0036289D01*
X0023736Y0036313D01*
X0023684Y0036341D01*
X0023633Y0036372D01*
X0023584Y0036406D01*
X0023538Y0036443D01*
X0023494Y0036483D01*
X0023453Y0036526D01*
X0023415Y0036572D01*
X0023380Y0036620D01*
X0023348Y0036671D01*
X0023320Y0036723D01*
X0023295Y0036777D01*
X0023274Y0036833D01*
X0023256Y0036890D01*
X0023243Y0036948D01*
X0023233Y0037006D01*
X0023227Y0037066D01*
X0023225Y0037125D01*
X0022774Y0039625D02*
X0019771Y0039625D01*
X0021272Y0039625D02*
X0021272Y0044129D01*
X0019771Y0042628D01*
D116*
X0042497Y0057025D02*
X0042497Y0058827D01*
X0043097Y0059427D01*
X0044298Y0059427D01*
X0044899Y0058827D01*
X0044899Y0057025D01*
X0046100Y0057025D02*
X0042497Y0057025D01*
X0043097Y0060708D02*
X0045499Y0060708D01*
X0046100Y0061309D01*
X0046100Y0062510D01*
X0045499Y0063110D01*
X0043097Y0063110D01*
X0042497Y0062510D01*
X0042497Y0061309D01*
X0043097Y0060708D01*
X0042497Y0064391D02*
X0046100Y0064391D01*
X0044899Y0065592D01*
X0046100Y0066793D01*
X0042497Y0066793D01*
X0042497Y0068074D02*
X0046100Y0068074D01*
X0046100Y0070476D01*
X0046100Y0071758D02*
X0042497Y0071758D01*
X0042497Y0073559D01*
X0043097Y0074160D01*
X0044298Y0074160D01*
X0044899Y0073559D01*
X0044899Y0071758D01*
X0044899Y0072959D02*
X0046100Y0074160D01*
X0046701Y0075441D02*
X0046701Y0077843D01*
X0046100Y0079124D02*
X0046100Y0080925D01*
X0045499Y0081526D01*
X0044899Y0081526D01*
X0044298Y0080925D01*
X0044298Y0079124D01*
X0042497Y0079124D02*
X0042497Y0080925D01*
X0043097Y0081526D01*
X0043698Y0081526D01*
X0044298Y0080925D01*
X0042497Y0079124D02*
X0046100Y0079124D01*
X0042497Y0070476D02*
X0042497Y0068074D01*
X0044298Y0068074D02*
X0044298Y0069275D01*
X0058443Y0053803D02*
X0057842Y0053203D01*
X0057842Y0050801D01*
X0058443Y0050200D01*
X0059644Y0050200D01*
X0060244Y0050801D01*
X0061526Y0050801D02*
X0062126Y0050200D01*
X0063327Y0050200D01*
X0063928Y0050801D01*
X0063928Y0053203D01*
X0063327Y0053803D01*
X0062126Y0053803D01*
X0061526Y0053203D01*
X0061526Y0050801D01*
X0060244Y0053203D02*
X0059644Y0053803D01*
X0058443Y0053803D01*
X0065209Y0053803D02*
X0065209Y0050200D01*
X0067611Y0050200D02*
X0067611Y0053803D01*
X0066410Y0052602D01*
X0065209Y0053803D01*
X0068892Y0053803D02*
X0068892Y0050200D01*
X0071294Y0050200D02*
X0071294Y0053803D01*
X0070093Y0052602D01*
X0068892Y0053803D01*
X0082426Y0018428D02*
X0081825Y0017828D01*
X0081825Y0017227D01*
X0082426Y0016627D01*
X0083627Y0016627D01*
X0084227Y0016026D01*
X0084227Y0015426D01*
X0083627Y0014825D01*
X0082426Y0014825D01*
X0081825Y0015426D01*
X0082426Y0018428D02*
X0083627Y0018428D01*
X0084227Y0017828D01*
X0085508Y0018428D02*
X0085508Y0014825D01*
X0087910Y0014825D01*
X0089191Y0014825D02*
X0089191Y0018428D01*
X0090993Y0018428D01*
X0091593Y0017828D01*
X0091593Y0016627D01*
X0090993Y0016026D01*
X0089191Y0016026D01*
X0090392Y0016026D02*
X0091593Y0014825D01*
X0092874Y0016026D02*
X0094075Y0014825D01*
X0095276Y0016026D01*
X0095276Y0018428D01*
X0096558Y0017828D02*
X0096558Y0015426D01*
X0097158Y0014825D01*
X0098359Y0014825D01*
X0098960Y0015426D01*
X0098960Y0017828D01*
X0098359Y0018428D01*
X0097158Y0018428D01*
X0096558Y0017828D01*
X0092874Y0018428D02*
X0092874Y0016026D01*
X0087910Y0018428D02*
X0085508Y0018428D01*
X0085508Y0016627D02*
X0086709Y0016627D01*
X0052169Y0012328D02*
X0052169Y0011127D01*
X0051568Y0010526D01*
X0049767Y0010526D01*
X0050968Y0010526D02*
X0052169Y0009325D01*
X0049767Y0009325D02*
X0049767Y0012928D01*
X0051568Y0012928D01*
X0052169Y0012328D01*
X0048486Y0011727D02*
X0048486Y0009325D01*
X0048486Y0011127D02*
X0046084Y0011127D01*
X0046084Y0011727D02*
X0046084Y0009325D01*
X0044803Y0009325D02*
X0044803Y0012928D01*
X0046084Y0011727D02*
X0047285Y0012928D01*
X0048486Y0011727D01*
X0044803Y0009325D02*
X0042401Y0012928D01*
X0042401Y0009325D01*
X0041119Y0009926D02*
X0041119Y0012328D01*
X0040519Y0012928D01*
X0039318Y0012928D01*
X0038717Y0012328D01*
X0038717Y0009926D01*
X0039318Y0009325D01*
X0040519Y0009325D01*
X0041119Y0009926D01*
X0037436Y0009926D02*
X0036836Y0009325D01*
X0035635Y0009325D01*
X0035034Y0009926D01*
X0035635Y0011127D02*
X0036836Y0011127D01*
X0037436Y0010526D01*
X0037436Y0009926D01*
X0035635Y0011127D02*
X0035034Y0011727D01*
X0035034Y0012328D01*
X0035635Y0012928D01*
X0036836Y0012928D01*
X0037436Y0012328D01*
D117*
X0012946Y0111939D02*
X0146804Y0111939D01*
X0146804Y0135561D01*
X0012946Y0135561D01*
X0012946Y0111939D01*
X0017375Y0112825D02*
X0022375Y0112825D01*
M02*
