G75*
%MOIN*%
%OFA0B0*%
%FSLAX25Y25*%
%IPPOS*%
%LPD*%
%AMOC8*
5,1,8,0,0,1.08239X$1,22.5*
%
%ADD10C,0.01000*%
%ADD11C,0.00060*%
%ADD12C,0.00600*%
%ADD13C,0.00500*%
D10*
X0013114Y0016136D02*
X0016136Y0013114D01*
X0018920Y0010330D02*
X0021943Y0007307D01*
X0024727Y0004523D02*
X0027750Y0001500D01*
X0032237Y0001500D01*
X0036174Y0001500D02*
X0040660Y0001500D01*
X0044597Y0001500D02*
X0049084Y0001500D01*
X0053021Y0001500D02*
X0057507Y0001500D01*
X0061444Y0001500D02*
X0065931Y0001500D01*
X0069868Y0001500D02*
X0074354Y0001500D01*
X0078291Y0001500D02*
X0082778Y0001500D01*
X0086715Y0001500D02*
X0091201Y0001500D01*
X0095138Y0001500D02*
X0099625Y0001500D01*
X0102698Y0004573D01*
X0105482Y0007357D02*
X0108555Y0010430D01*
X0111339Y0013214D02*
X0114412Y0016287D01*
X0117196Y0019071D02*
X0120269Y0022144D01*
X0123053Y0024928D02*
X0126126Y0028001D01*
X0128910Y0030785D02*
X0131983Y0033858D01*
X0134767Y0036642D02*
X0137840Y0039715D01*
X0140624Y0042499D02*
X0143697Y0045572D01*
X0146481Y0048356D02*
X0149554Y0051429D01*
X0152338Y0054213D02*
X0155411Y0057286D01*
X0158195Y0060070D02*
X0161268Y0063143D01*
X0164052Y0065927D02*
X0167125Y0069000D01*
X0167125Y0072957D01*
X0167125Y0076894D02*
X0167125Y0080850D01*
X0167125Y0084787D02*
X0167125Y0088744D01*
X0167125Y0092681D02*
X0167125Y0096638D01*
X0167125Y0100575D02*
X0167125Y0104531D01*
X0167125Y0108469D02*
X0167125Y0112425D01*
X0167125Y0116362D02*
X0167125Y0120319D01*
X0167125Y0124256D02*
X0167125Y0128213D01*
X0167125Y0132150D02*
X0167125Y0136106D01*
X0167125Y0140043D02*
X0167125Y0144000D01*
X0162988Y0144000D01*
X0159051Y0144000D02*
X0154913Y0144000D01*
X0150976Y0144000D02*
X0146839Y0144000D01*
X0142902Y0144000D02*
X0138764Y0144000D01*
X0134827Y0144000D02*
X0130690Y0144000D01*
X0126753Y0144000D02*
X0122616Y0144000D01*
X0118679Y0144000D02*
X0114541Y0144000D01*
X0110604Y0144000D02*
X0106467Y0144000D01*
X0102530Y0144000D02*
X0098393Y0144000D01*
X0094456Y0144000D02*
X0090318Y0144000D01*
X0086381Y0144000D02*
X0082244Y0144000D01*
X0078307Y0144000D02*
X0074169Y0144000D01*
X0070232Y0144000D02*
X0066095Y0144000D01*
X0062158Y0144000D02*
X0058021Y0144000D01*
X0054084Y0144000D02*
X0049946Y0144000D01*
X0046009Y0144000D02*
X0041872Y0144000D01*
X0037935Y0144000D02*
X0033798Y0144000D01*
X0029861Y0144000D02*
X0025723Y0144000D01*
X0021786Y0144000D02*
X0017649Y0144000D01*
X0013712Y0144000D02*
X0009574Y0144000D01*
X0005637Y0144000D02*
X0001500Y0144000D01*
X0001500Y0139925D01*
X0001500Y0135988D02*
X0001500Y0131912D01*
X0001500Y0127975D02*
X0001500Y0123900D01*
X0001500Y0119963D02*
X0001500Y0115887D01*
X0001500Y0111950D02*
X0001500Y0107875D01*
X0001500Y0103938D02*
X0001500Y0099862D01*
X0001500Y0095925D02*
X0001500Y0091850D01*
X0001500Y0087913D02*
X0001500Y0083837D01*
X0001500Y0079900D02*
X0001500Y0075825D01*
X0001500Y0071888D02*
X0001500Y0067812D01*
X0001500Y0063875D02*
X0001500Y0059800D01*
X0001500Y0055863D02*
X0001500Y0051787D01*
X0001500Y0047850D02*
X0001500Y0043775D01*
X0001500Y0039838D02*
X0001500Y0035762D01*
X0001500Y0031825D02*
X0001500Y0027750D01*
X0004523Y0024727D01*
X0007307Y0021943D02*
X0010330Y0018920D01*
D11*
X0023106Y0050471D02*
X0023646Y0050471D01*
X0023646Y0050470D02*
X0023650Y0050418D01*
X0023657Y0050367D01*
X0023668Y0050317D01*
X0023683Y0050267D01*
X0023701Y0050219D01*
X0023723Y0050172D01*
X0023748Y0050126D01*
X0023776Y0050083D01*
X0023807Y0050042D01*
X0023841Y0050002D01*
X0023877Y0049966D01*
X0023917Y0049932D01*
X0023958Y0049901D01*
X0024001Y0049873D01*
X0024047Y0049848D01*
X0024094Y0049826D01*
X0024142Y0049808D01*
X0024192Y0049793D01*
X0024242Y0049782D01*
X0024293Y0049775D01*
X0024345Y0049771D01*
X0024346Y0049231D01*
X0024345Y0049230D01*
X0024276Y0049234D01*
X0024207Y0049241D01*
X0024139Y0049252D01*
X0024072Y0049267D01*
X0024005Y0049285D01*
X0023939Y0049307D01*
X0023875Y0049332D01*
X0023812Y0049361D01*
X0023751Y0049394D01*
X0023692Y0049429D01*
X0023635Y0049468D01*
X0023580Y0049510D01*
X0023527Y0049554D01*
X0023477Y0049602D01*
X0023429Y0049652D01*
X0023385Y0049705D01*
X0023343Y0049760D01*
X0023304Y0049817D01*
X0023269Y0049876D01*
X0023236Y0049937D01*
X0023207Y0050000D01*
X0023182Y0050064D01*
X0023160Y0050130D01*
X0023142Y0050197D01*
X0023127Y0050264D01*
X0023116Y0050332D01*
X0023109Y0050401D01*
X0023105Y0050470D01*
X0023161Y0050470D01*
X0023165Y0050402D01*
X0023172Y0050334D01*
X0023184Y0050266D01*
X0023199Y0050200D01*
X0023218Y0050134D01*
X0023240Y0050069D01*
X0023266Y0050006D01*
X0023296Y0049944D01*
X0023329Y0049884D01*
X0023365Y0049826D01*
X0023405Y0049771D01*
X0023447Y0049717D01*
X0023493Y0049666D01*
X0023541Y0049618D01*
X0023592Y0049572D01*
X0023646Y0049530D01*
X0023701Y0049490D01*
X0023759Y0049454D01*
X0023819Y0049421D01*
X0023881Y0049391D01*
X0023944Y0049365D01*
X0024009Y0049343D01*
X0024075Y0049324D01*
X0024141Y0049309D01*
X0024209Y0049297D01*
X0024277Y0049290D01*
X0024345Y0049286D01*
X0024345Y0049342D01*
X0024277Y0049346D01*
X0024210Y0049354D01*
X0024144Y0049365D01*
X0024078Y0049381D01*
X0024013Y0049400D01*
X0023949Y0049423D01*
X0023887Y0049450D01*
X0023827Y0049480D01*
X0023768Y0049514D01*
X0023711Y0049551D01*
X0023657Y0049591D01*
X0023605Y0049635D01*
X0023556Y0049681D01*
X0023510Y0049730D01*
X0023466Y0049782D01*
X0023426Y0049836D01*
X0023389Y0049893D01*
X0023355Y0049952D01*
X0023325Y0050012D01*
X0023298Y0050074D01*
X0023275Y0050138D01*
X0023256Y0050203D01*
X0023240Y0050269D01*
X0023229Y0050335D01*
X0023221Y0050402D01*
X0023217Y0050470D01*
X0023273Y0050470D01*
X0023277Y0050406D01*
X0023284Y0050342D01*
X0023295Y0050279D01*
X0023310Y0050216D01*
X0023329Y0050155D01*
X0023350Y0050094D01*
X0023376Y0050035D01*
X0023405Y0049978D01*
X0023437Y0049922D01*
X0023472Y0049868D01*
X0023510Y0049817D01*
X0023552Y0049768D01*
X0023596Y0049721D01*
X0023643Y0049677D01*
X0023692Y0049635D01*
X0023743Y0049597D01*
X0023797Y0049562D01*
X0023853Y0049530D01*
X0023910Y0049501D01*
X0023969Y0049475D01*
X0024030Y0049454D01*
X0024091Y0049435D01*
X0024154Y0049420D01*
X0024217Y0049409D01*
X0024281Y0049402D01*
X0024345Y0049398D01*
X0024345Y0049454D01*
X0024282Y0049458D01*
X0024219Y0049466D01*
X0024157Y0049477D01*
X0024095Y0049492D01*
X0024035Y0049511D01*
X0023975Y0049533D01*
X0023918Y0049559D01*
X0023862Y0049589D01*
X0023807Y0049621D01*
X0023755Y0049657D01*
X0023705Y0049696D01*
X0023658Y0049738D01*
X0023613Y0049783D01*
X0023571Y0049830D01*
X0023532Y0049880D01*
X0023496Y0049932D01*
X0023464Y0049987D01*
X0023434Y0050043D01*
X0023408Y0050100D01*
X0023386Y0050160D01*
X0023367Y0050220D01*
X0023352Y0050282D01*
X0023341Y0050344D01*
X0023333Y0050407D01*
X0023329Y0050470D01*
X0023385Y0050470D01*
X0023389Y0050408D01*
X0023397Y0050346D01*
X0023409Y0050285D01*
X0023424Y0050225D01*
X0023443Y0050165D01*
X0023466Y0050107D01*
X0023493Y0050051D01*
X0023523Y0049996D01*
X0023556Y0049944D01*
X0023593Y0049893D01*
X0023632Y0049845D01*
X0023675Y0049800D01*
X0023720Y0049757D01*
X0023768Y0049718D01*
X0023819Y0049681D01*
X0023871Y0049648D01*
X0023926Y0049618D01*
X0023982Y0049591D01*
X0024040Y0049568D01*
X0024100Y0049549D01*
X0024160Y0049534D01*
X0024221Y0049522D01*
X0024283Y0049514D01*
X0024345Y0049510D01*
X0024345Y0049566D01*
X0024287Y0049570D01*
X0024228Y0049578D01*
X0024171Y0049589D01*
X0024114Y0049603D01*
X0024058Y0049621D01*
X0024004Y0049643D01*
X0023951Y0049668D01*
X0023899Y0049696D01*
X0023850Y0049728D01*
X0023802Y0049762D01*
X0023757Y0049799D01*
X0023715Y0049840D01*
X0023674Y0049882D01*
X0023637Y0049927D01*
X0023603Y0049975D01*
X0023571Y0050024D01*
X0023543Y0050076D01*
X0023518Y0050129D01*
X0023496Y0050183D01*
X0023478Y0050239D01*
X0023464Y0050296D01*
X0023453Y0050353D01*
X0023445Y0050412D01*
X0023441Y0050470D01*
X0023498Y0050470D01*
X0023501Y0050413D01*
X0023509Y0050356D01*
X0023520Y0050300D01*
X0023535Y0050244D01*
X0023554Y0050190D01*
X0023576Y0050137D01*
X0023601Y0050086D01*
X0023630Y0050036D01*
X0023661Y0049988D01*
X0023696Y0049943D01*
X0023734Y0049900D01*
X0023775Y0049859D01*
X0023818Y0049821D01*
X0023863Y0049786D01*
X0023911Y0049755D01*
X0023961Y0049726D01*
X0024012Y0049701D01*
X0024065Y0049679D01*
X0024119Y0049660D01*
X0024175Y0049645D01*
X0024231Y0049634D01*
X0024288Y0049626D01*
X0024345Y0049623D01*
X0024345Y0049679D01*
X0024289Y0049682D01*
X0024234Y0049690D01*
X0024179Y0049702D01*
X0024125Y0049717D01*
X0024072Y0049736D01*
X0024021Y0049758D01*
X0023972Y0049784D01*
X0023924Y0049813D01*
X0023878Y0049845D01*
X0023835Y0049881D01*
X0023794Y0049919D01*
X0023756Y0049960D01*
X0023720Y0050003D01*
X0023688Y0050049D01*
X0023659Y0050097D01*
X0023633Y0050146D01*
X0023611Y0050197D01*
X0023592Y0050250D01*
X0023577Y0050304D01*
X0023565Y0050359D01*
X0023557Y0050414D01*
X0023554Y0050470D01*
X0023610Y0050470D01*
X0023614Y0050416D01*
X0023622Y0050362D01*
X0023633Y0050309D01*
X0023649Y0050257D01*
X0023668Y0050206D01*
X0023691Y0050156D01*
X0023717Y0050108D01*
X0023746Y0050063D01*
X0023779Y0050019D01*
X0023814Y0049978D01*
X0023853Y0049939D01*
X0023894Y0049904D01*
X0023938Y0049871D01*
X0023983Y0049842D01*
X0024031Y0049816D01*
X0024081Y0049793D01*
X0024132Y0049774D01*
X0024184Y0049758D01*
X0024237Y0049747D01*
X0024291Y0049739D01*
X0024345Y0049735D01*
X0024346Y0058769D02*
X0024346Y0058229D01*
X0024345Y0058229D02*
X0024293Y0058225D01*
X0024242Y0058218D01*
X0024192Y0058207D01*
X0024142Y0058192D01*
X0024094Y0058174D01*
X0024047Y0058152D01*
X0024001Y0058127D01*
X0023958Y0058099D01*
X0023917Y0058068D01*
X0023877Y0058034D01*
X0023841Y0057998D01*
X0023807Y0057958D01*
X0023776Y0057917D01*
X0023748Y0057874D01*
X0023723Y0057828D01*
X0023701Y0057781D01*
X0023683Y0057733D01*
X0023668Y0057683D01*
X0023657Y0057633D01*
X0023650Y0057582D01*
X0023646Y0057530D01*
X0023106Y0057529D01*
X0023105Y0057530D01*
X0023109Y0057599D01*
X0023116Y0057668D01*
X0023127Y0057736D01*
X0023142Y0057803D01*
X0023160Y0057870D01*
X0023182Y0057936D01*
X0023207Y0058000D01*
X0023236Y0058063D01*
X0023269Y0058124D01*
X0023304Y0058183D01*
X0023343Y0058240D01*
X0023385Y0058295D01*
X0023429Y0058348D01*
X0023477Y0058398D01*
X0023527Y0058446D01*
X0023580Y0058490D01*
X0023635Y0058532D01*
X0023692Y0058571D01*
X0023751Y0058606D01*
X0023812Y0058639D01*
X0023875Y0058668D01*
X0023939Y0058693D01*
X0024005Y0058715D01*
X0024072Y0058733D01*
X0024139Y0058748D01*
X0024207Y0058759D01*
X0024276Y0058766D01*
X0024345Y0058770D01*
X0024345Y0058714D01*
X0024277Y0058710D01*
X0024209Y0058703D01*
X0024141Y0058691D01*
X0024075Y0058676D01*
X0024009Y0058657D01*
X0023944Y0058635D01*
X0023881Y0058609D01*
X0023819Y0058579D01*
X0023759Y0058546D01*
X0023701Y0058510D01*
X0023646Y0058470D01*
X0023592Y0058428D01*
X0023541Y0058382D01*
X0023493Y0058334D01*
X0023447Y0058283D01*
X0023405Y0058229D01*
X0023365Y0058174D01*
X0023329Y0058116D01*
X0023296Y0058056D01*
X0023266Y0057994D01*
X0023240Y0057931D01*
X0023218Y0057866D01*
X0023199Y0057800D01*
X0023184Y0057734D01*
X0023172Y0057666D01*
X0023165Y0057598D01*
X0023161Y0057530D01*
X0023217Y0057530D01*
X0023221Y0057598D01*
X0023229Y0057665D01*
X0023240Y0057731D01*
X0023256Y0057797D01*
X0023275Y0057862D01*
X0023298Y0057926D01*
X0023325Y0057988D01*
X0023355Y0058048D01*
X0023389Y0058107D01*
X0023426Y0058164D01*
X0023466Y0058218D01*
X0023510Y0058270D01*
X0023556Y0058319D01*
X0023605Y0058365D01*
X0023657Y0058409D01*
X0023711Y0058449D01*
X0023768Y0058486D01*
X0023827Y0058520D01*
X0023887Y0058550D01*
X0023949Y0058577D01*
X0024013Y0058600D01*
X0024078Y0058619D01*
X0024144Y0058635D01*
X0024210Y0058646D01*
X0024277Y0058654D01*
X0024345Y0058658D01*
X0024345Y0058602D01*
X0024281Y0058598D01*
X0024217Y0058591D01*
X0024154Y0058580D01*
X0024091Y0058565D01*
X0024030Y0058546D01*
X0023969Y0058525D01*
X0023910Y0058499D01*
X0023853Y0058470D01*
X0023797Y0058438D01*
X0023743Y0058403D01*
X0023692Y0058365D01*
X0023643Y0058323D01*
X0023596Y0058279D01*
X0023552Y0058232D01*
X0023510Y0058183D01*
X0023472Y0058132D01*
X0023437Y0058078D01*
X0023405Y0058022D01*
X0023376Y0057965D01*
X0023350Y0057906D01*
X0023329Y0057845D01*
X0023310Y0057784D01*
X0023295Y0057721D01*
X0023284Y0057658D01*
X0023277Y0057594D01*
X0023273Y0057530D01*
X0023329Y0057530D01*
X0023333Y0057593D01*
X0023341Y0057656D01*
X0023352Y0057718D01*
X0023367Y0057780D01*
X0023386Y0057840D01*
X0023408Y0057900D01*
X0023434Y0057957D01*
X0023464Y0058013D01*
X0023496Y0058068D01*
X0023532Y0058120D01*
X0023571Y0058170D01*
X0023613Y0058217D01*
X0023658Y0058262D01*
X0023705Y0058304D01*
X0023755Y0058343D01*
X0023807Y0058379D01*
X0023862Y0058411D01*
X0023918Y0058441D01*
X0023975Y0058467D01*
X0024035Y0058489D01*
X0024095Y0058508D01*
X0024157Y0058523D01*
X0024219Y0058534D01*
X0024282Y0058542D01*
X0024345Y0058546D01*
X0024345Y0058490D01*
X0024283Y0058486D01*
X0024221Y0058478D01*
X0024160Y0058466D01*
X0024100Y0058451D01*
X0024040Y0058432D01*
X0023982Y0058409D01*
X0023926Y0058382D01*
X0023871Y0058352D01*
X0023819Y0058319D01*
X0023768Y0058282D01*
X0023720Y0058243D01*
X0023675Y0058200D01*
X0023632Y0058155D01*
X0023593Y0058107D01*
X0023556Y0058056D01*
X0023523Y0058004D01*
X0023493Y0057949D01*
X0023466Y0057893D01*
X0023443Y0057835D01*
X0023424Y0057775D01*
X0023409Y0057715D01*
X0023397Y0057654D01*
X0023389Y0057592D01*
X0023385Y0057530D01*
X0023441Y0057530D01*
X0023445Y0057588D01*
X0023453Y0057647D01*
X0023464Y0057704D01*
X0023478Y0057761D01*
X0023496Y0057817D01*
X0023518Y0057871D01*
X0023543Y0057924D01*
X0023571Y0057976D01*
X0023603Y0058025D01*
X0023637Y0058073D01*
X0023674Y0058118D01*
X0023715Y0058160D01*
X0023757Y0058201D01*
X0023802Y0058238D01*
X0023850Y0058272D01*
X0023899Y0058304D01*
X0023951Y0058332D01*
X0024004Y0058357D01*
X0024058Y0058379D01*
X0024114Y0058397D01*
X0024171Y0058411D01*
X0024228Y0058422D01*
X0024287Y0058430D01*
X0024345Y0058434D01*
X0024345Y0058377D01*
X0024288Y0058374D01*
X0024231Y0058366D01*
X0024175Y0058355D01*
X0024119Y0058340D01*
X0024065Y0058321D01*
X0024012Y0058299D01*
X0023961Y0058274D01*
X0023911Y0058245D01*
X0023863Y0058214D01*
X0023818Y0058179D01*
X0023775Y0058141D01*
X0023734Y0058100D01*
X0023696Y0058057D01*
X0023661Y0058012D01*
X0023630Y0057964D01*
X0023601Y0057914D01*
X0023576Y0057863D01*
X0023554Y0057810D01*
X0023535Y0057756D01*
X0023520Y0057700D01*
X0023509Y0057644D01*
X0023501Y0057587D01*
X0023498Y0057530D01*
X0023554Y0057530D01*
X0023557Y0057586D01*
X0023565Y0057641D01*
X0023577Y0057696D01*
X0023592Y0057750D01*
X0023611Y0057803D01*
X0023633Y0057854D01*
X0023659Y0057903D01*
X0023688Y0057951D01*
X0023720Y0057997D01*
X0023756Y0058040D01*
X0023794Y0058081D01*
X0023835Y0058119D01*
X0023878Y0058155D01*
X0023924Y0058187D01*
X0023972Y0058216D01*
X0024021Y0058242D01*
X0024072Y0058264D01*
X0024125Y0058283D01*
X0024179Y0058298D01*
X0024234Y0058310D01*
X0024289Y0058318D01*
X0024345Y0058321D01*
X0024345Y0058265D01*
X0024291Y0058261D01*
X0024237Y0058253D01*
X0024184Y0058242D01*
X0024132Y0058226D01*
X0024081Y0058207D01*
X0024031Y0058184D01*
X0023983Y0058158D01*
X0023938Y0058129D01*
X0023894Y0058096D01*
X0023853Y0058061D01*
X0023814Y0058022D01*
X0023779Y0057981D01*
X0023746Y0057937D01*
X0023717Y0057892D01*
X0023691Y0057844D01*
X0023668Y0057794D01*
X0023649Y0057743D01*
X0023633Y0057691D01*
X0023622Y0057638D01*
X0023614Y0057584D01*
X0023610Y0057530D01*
X0048644Y0057529D02*
X0048104Y0057529D01*
X0048104Y0057530D02*
X0048100Y0057582D01*
X0048093Y0057633D01*
X0048082Y0057683D01*
X0048067Y0057733D01*
X0048049Y0057781D01*
X0048027Y0057828D01*
X0048002Y0057874D01*
X0047974Y0057917D01*
X0047943Y0057958D01*
X0047909Y0057998D01*
X0047873Y0058034D01*
X0047833Y0058068D01*
X0047792Y0058099D01*
X0047749Y0058127D01*
X0047703Y0058152D01*
X0047656Y0058174D01*
X0047608Y0058192D01*
X0047558Y0058207D01*
X0047508Y0058218D01*
X0047457Y0058225D01*
X0047405Y0058229D01*
X0047404Y0058769D01*
X0047405Y0058770D01*
X0047474Y0058766D01*
X0047543Y0058759D01*
X0047611Y0058748D01*
X0047678Y0058733D01*
X0047745Y0058715D01*
X0047811Y0058693D01*
X0047875Y0058668D01*
X0047938Y0058639D01*
X0047999Y0058606D01*
X0048058Y0058571D01*
X0048115Y0058532D01*
X0048170Y0058490D01*
X0048223Y0058446D01*
X0048273Y0058398D01*
X0048321Y0058348D01*
X0048365Y0058295D01*
X0048407Y0058240D01*
X0048446Y0058183D01*
X0048481Y0058124D01*
X0048514Y0058063D01*
X0048543Y0058000D01*
X0048568Y0057936D01*
X0048590Y0057870D01*
X0048608Y0057803D01*
X0048623Y0057736D01*
X0048634Y0057668D01*
X0048641Y0057599D01*
X0048645Y0057530D01*
X0048589Y0057530D01*
X0048585Y0057598D01*
X0048578Y0057666D01*
X0048566Y0057734D01*
X0048551Y0057800D01*
X0048532Y0057866D01*
X0048510Y0057931D01*
X0048484Y0057994D01*
X0048454Y0058056D01*
X0048421Y0058116D01*
X0048385Y0058174D01*
X0048345Y0058229D01*
X0048303Y0058283D01*
X0048257Y0058334D01*
X0048209Y0058382D01*
X0048158Y0058428D01*
X0048104Y0058470D01*
X0048049Y0058510D01*
X0047991Y0058546D01*
X0047931Y0058579D01*
X0047869Y0058609D01*
X0047806Y0058635D01*
X0047741Y0058657D01*
X0047675Y0058676D01*
X0047609Y0058691D01*
X0047541Y0058703D01*
X0047473Y0058710D01*
X0047405Y0058714D01*
X0047405Y0058658D01*
X0047473Y0058654D01*
X0047540Y0058646D01*
X0047606Y0058635D01*
X0047672Y0058619D01*
X0047737Y0058600D01*
X0047801Y0058577D01*
X0047863Y0058550D01*
X0047923Y0058520D01*
X0047982Y0058486D01*
X0048039Y0058449D01*
X0048093Y0058409D01*
X0048145Y0058365D01*
X0048194Y0058319D01*
X0048240Y0058270D01*
X0048284Y0058218D01*
X0048324Y0058164D01*
X0048361Y0058107D01*
X0048395Y0058048D01*
X0048425Y0057988D01*
X0048452Y0057926D01*
X0048475Y0057862D01*
X0048494Y0057797D01*
X0048510Y0057731D01*
X0048521Y0057665D01*
X0048529Y0057598D01*
X0048533Y0057530D01*
X0048477Y0057530D01*
X0048473Y0057594D01*
X0048466Y0057658D01*
X0048455Y0057721D01*
X0048440Y0057784D01*
X0048421Y0057845D01*
X0048400Y0057906D01*
X0048374Y0057965D01*
X0048345Y0058022D01*
X0048313Y0058078D01*
X0048278Y0058132D01*
X0048240Y0058183D01*
X0048198Y0058232D01*
X0048154Y0058279D01*
X0048107Y0058323D01*
X0048058Y0058365D01*
X0048007Y0058403D01*
X0047953Y0058438D01*
X0047897Y0058470D01*
X0047840Y0058499D01*
X0047781Y0058525D01*
X0047720Y0058546D01*
X0047659Y0058565D01*
X0047596Y0058580D01*
X0047533Y0058591D01*
X0047469Y0058598D01*
X0047405Y0058602D01*
X0047405Y0058546D01*
X0047468Y0058542D01*
X0047531Y0058534D01*
X0047593Y0058523D01*
X0047655Y0058508D01*
X0047715Y0058489D01*
X0047775Y0058467D01*
X0047832Y0058441D01*
X0047888Y0058411D01*
X0047943Y0058379D01*
X0047995Y0058343D01*
X0048045Y0058304D01*
X0048092Y0058262D01*
X0048137Y0058217D01*
X0048179Y0058170D01*
X0048218Y0058120D01*
X0048254Y0058068D01*
X0048286Y0058013D01*
X0048316Y0057957D01*
X0048342Y0057900D01*
X0048364Y0057840D01*
X0048383Y0057780D01*
X0048398Y0057718D01*
X0048409Y0057656D01*
X0048417Y0057593D01*
X0048421Y0057530D01*
X0048365Y0057530D01*
X0048361Y0057592D01*
X0048353Y0057654D01*
X0048341Y0057715D01*
X0048326Y0057775D01*
X0048307Y0057835D01*
X0048284Y0057893D01*
X0048257Y0057949D01*
X0048227Y0058004D01*
X0048194Y0058056D01*
X0048157Y0058107D01*
X0048118Y0058155D01*
X0048075Y0058200D01*
X0048030Y0058243D01*
X0047982Y0058282D01*
X0047931Y0058319D01*
X0047879Y0058352D01*
X0047824Y0058382D01*
X0047768Y0058409D01*
X0047710Y0058432D01*
X0047650Y0058451D01*
X0047590Y0058466D01*
X0047529Y0058478D01*
X0047467Y0058486D01*
X0047405Y0058490D01*
X0047405Y0058434D01*
X0047463Y0058430D01*
X0047522Y0058422D01*
X0047579Y0058411D01*
X0047636Y0058397D01*
X0047692Y0058379D01*
X0047746Y0058357D01*
X0047799Y0058332D01*
X0047851Y0058304D01*
X0047900Y0058272D01*
X0047948Y0058238D01*
X0047993Y0058201D01*
X0048035Y0058160D01*
X0048076Y0058118D01*
X0048113Y0058073D01*
X0048147Y0058025D01*
X0048179Y0057976D01*
X0048207Y0057924D01*
X0048232Y0057871D01*
X0048254Y0057817D01*
X0048272Y0057761D01*
X0048286Y0057704D01*
X0048297Y0057647D01*
X0048305Y0057588D01*
X0048309Y0057530D01*
X0048252Y0057530D01*
X0048249Y0057587D01*
X0048241Y0057644D01*
X0048230Y0057700D01*
X0048215Y0057756D01*
X0048196Y0057810D01*
X0048174Y0057863D01*
X0048149Y0057914D01*
X0048120Y0057964D01*
X0048089Y0058012D01*
X0048054Y0058057D01*
X0048016Y0058100D01*
X0047975Y0058141D01*
X0047932Y0058179D01*
X0047887Y0058214D01*
X0047839Y0058245D01*
X0047789Y0058274D01*
X0047738Y0058299D01*
X0047685Y0058321D01*
X0047631Y0058340D01*
X0047575Y0058355D01*
X0047519Y0058366D01*
X0047462Y0058374D01*
X0047405Y0058377D01*
X0047405Y0058321D01*
X0047461Y0058318D01*
X0047516Y0058310D01*
X0047571Y0058298D01*
X0047625Y0058283D01*
X0047678Y0058264D01*
X0047729Y0058242D01*
X0047778Y0058216D01*
X0047826Y0058187D01*
X0047872Y0058155D01*
X0047915Y0058119D01*
X0047956Y0058081D01*
X0047994Y0058040D01*
X0048030Y0057997D01*
X0048062Y0057951D01*
X0048091Y0057903D01*
X0048117Y0057854D01*
X0048139Y0057803D01*
X0048158Y0057750D01*
X0048173Y0057696D01*
X0048185Y0057641D01*
X0048193Y0057586D01*
X0048196Y0057530D01*
X0048140Y0057530D01*
X0048136Y0057584D01*
X0048128Y0057638D01*
X0048117Y0057691D01*
X0048101Y0057743D01*
X0048082Y0057794D01*
X0048059Y0057844D01*
X0048033Y0057892D01*
X0048004Y0057937D01*
X0047971Y0057981D01*
X0047936Y0058022D01*
X0047897Y0058061D01*
X0047856Y0058096D01*
X0047812Y0058129D01*
X0047767Y0058158D01*
X0047719Y0058184D01*
X0047669Y0058207D01*
X0047618Y0058226D01*
X0047566Y0058242D01*
X0047513Y0058253D01*
X0047459Y0058261D01*
X0047405Y0058265D01*
X0047404Y0049231D02*
X0047404Y0049771D01*
X0047405Y0049771D02*
X0047457Y0049775D01*
X0047508Y0049782D01*
X0047558Y0049793D01*
X0047608Y0049808D01*
X0047656Y0049826D01*
X0047703Y0049848D01*
X0047749Y0049873D01*
X0047792Y0049901D01*
X0047833Y0049932D01*
X0047873Y0049966D01*
X0047909Y0050002D01*
X0047943Y0050042D01*
X0047974Y0050083D01*
X0048002Y0050126D01*
X0048027Y0050172D01*
X0048049Y0050219D01*
X0048067Y0050267D01*
X0048082Y0050317D01*
X0048093Y0050367D01*
X0048100Y0050418D01*
X0048104Y0050470D01*
X0048644Y0050471D01*
X0048645Y0050470D01*
X0048641Y0050401D01*
X0048634Y0050332D01*
X0048623Y0050264D01*
X0048608Y0050197D01*
X0048590Y0050130D01*
X0048568Y0050064D01*
X0048543Y0050000D01*
X0048514Y0049937D01*
X0048481Y0049876D01*
X0048446Y0049817D01*
X0048407Y0049760D01*
X0048365Y0049705D01*
X0048321Y0049652D01*
X0048273Y0049602D01*
X0048223Y0049554D01*
X0048170Y0049510D01*
X0048115Y0049468D01*
X0048058Y0049429D01*
X0047999Y0049394D01*
X0047938Y0049361D01*
X0047875Y0049332D01*
X0047811Y0049307D01*
X0047745Y0049285D01*
X0047678Y0049267D01*
X0047611Y0049252D01*
X0047543Y0049241D01*
X0047474Y0049234D01*
X0047405Y0049230D01*
X0047405Y0049286D01*
X0047473Y0049290D01*
X0047541Y0049297D01*
X0047609Y0049309D01*
X0047675Y0049324D01*
X0047741Y0049343D01*
X0047806Y0049365D01*
X0047869Y0049391D01*
X0047931Y0049421D01*
X0047991Y0049454D01*
X0048049Y0049490D01*
X0048104Y0049530D01*
X0048158Y0049572D01*
X0048209Y0049618D01*
X0048257Y0049666D01*
X0048303Y0049717D01*
X0048345Y0049771D01*
X0048385Y0049826D01*
X0048421Y0049884D01*
X0048454Y0049944D01*
X0048484Y0050006D01*
X0048510Y0050069D01*
X0048532Y0050134D01*
X0048551Y0050200D01*
X0048566Y0050266D01*
X0048578Y0050334D01*
X0048585Y0050402D01*
X0048589Y0050470D01*
X0048533Y0050470D01*
X0048529Y0050402D01*
X0048521Y0050335D01*
X0048510Y0050269D01*
X0048494Y0050203D01*
X0048475Y0050138D01*
X0048452Y0050074D01*
X0048425Y0050012D01*
X0048395Y0049952D01*
X0048361Y0049893D01*
X0048324Y0049836D01*
X0048284Y0049782D01*
X0048240Y0049730D01*
X0048194Y0049681D01*
X0048145Y0049635D01*
X0048093Y0049591D01*
X0048039Y0049551D01*
X0047982Y0049514D01*
X0047923Y0049480D01*
X0047863Y0049450D01*
X0047801Y0049423D01*
X0047737Y0049400D01*
X0047672Y0049381D01*
X0047606Y0049365D01*
X0047540Y0049354D01*
X0047473Y0049346D01*
X0047405Y0049342D01*
X0047405Y0049398D01*
X0047469Y0049402D01*
X0047533Y0049409D01*
X0047596Y0049420D01*
X0047659Y0049435D01*
X0047720Y0049454D01*
X0047781Y0049475D01*
X0047840Y0049501D01*
X0047897Y0049530D01*
X0047953Y0049562D01*
X0048007Y0049597D01*
X0048058Y0049635D01*
X0048107Y0049677D01*
X0048154Y0049721D01*
X0048198Y0049768D01*
X0048240Y0049817D01*
X0048278Y0049868D01*
X0048313Y0049922D01*
X0048345Y0049978D01*
X0048374Y0050035D01*
X0048400Y0050094D01*
X0048421Y0050155D01*
X0048440Y0050216D01*
X0048455Y0050279D01*
X0048466Y0050342D01*
X0048473Y0050406D01*
X0048477Y0050470D01*
X0048421Y0050470D01*
X0048417Y0050407D01*
X0048409Y0050344D01*
X0048398Y0050282D01*
X0048383Y0050220D01*
X0048364Y0050160D01*
X0048342Y0050100D01*
X0048316Y0050043D01*
X0048286Y0049987D01*
X0048254Y0049932D01*
X0048218Y0049880D01*
X0048179Y0049830D01*
X0048137Y0049783D01*
X0048092Y0049738D01*
X0048045Y0049696D01*
X0047995Y0049657D01*
X0047943Y0049621D01*
X0047888Y0049589D01*
X0047832Y0049559D01*
X0047775Y0049533D01*
X0047715Y0049511D01*
X0047655Y0049492D01*
X0047593Y0049477D01*
X0047531Y0049466D01*
X0047468Y0049458D01*
X0047405Y0049454D01*
X0047405Y0049510D01*
X0047467Y0049514D01*
X0047529Y0049522D01*
X0047590Y0049534D01*
X0047650Y0049549D01*
X0047710Y0049568D01*
X0047768Y0049591D01*
X0047824Y0049618D01*
X0047879Y0049648D01*
X0047931Y0049681D01*
X0047982Y0049718D01*
X0048030Y0049757D01*
X0048075Y0049800D01*
X0048118Y0049845D01*
X0048157Y0049893D01*
X0048194Y0049944D01*
X0048227Y0049996D01*
X0048257Y0050051D01*
X0048284Y0050107D01*
X0048307Y0050165D01*
X0048326Y0050225D01*
X0048341Y0050285D01*
X0048353Y0050346D01*
X0048361Y0050408D01*
X0048365Y0050470D01*
X0048309Y0050470D01*
X0048305Y0050412D01*
X0048297Y0050353D01*
X0048286Y0050296D01*
X0048272Y0050239D01*
X0048254Y0050183D01*
X0048232Y0050129D01*
X0048207Y0050076D01*
X0048179Y0050024D01*
X0048147Y0049975D01*
X0048113Y0049927D01*
X0048076Y0049882D01*
X0048035Y0049840D01*
X0047993Y0049799D01*
X0047948Y0049762D01*
X0047900Y0049728D01*
X0047851Y0049696D01*
X0047799Y0049668D01*
X0047746Y0049643D01*
X0047692Y0049621D01*
X0047636Y0049603D01*
X0047579Y0049589D01*
X0047522Y0049578D01*
X0047463Y0049570D01*
X0047405Y0049566D01*
X0047405Y0049623D01*
X0047462Y0049626D01*
X0047519Y0049634D01*
X0047575Y0049645D01*
X0047631Y0049660D01*
X0047685Y0049679D01*
X0047738Y0049701D01*
X0047789Y0049726D01*
X0047839Y0049755D01*
X0047887Y0049786D01*
X0047932Y0049821D01*
X0047975Y0049859D01*
X0048016Y0049900D01*
X0048054Y0049943D01*
X0048089Y0049988D01*
X0048120Y0050036D01*
X0048149Y0050086D01*
X0048174Y0050137D01*
X0048196Y0050190D01*
X0048215Y0050244D01*
X0048230Y0050300D01*
X0048241Y0050356D01*
X0048249Y0050413D01*
X0048252Y0050470D01*
X0048196Y0050470D01*
X0048193Y0050414D01*
X0048185Y0050359D01*
X0048173Y0050304D01*
X0048158Y0050250D01*
X0048139Y0050197D01*
X0048117Y0050146D01*
X0048091Y0050097D01*
X0048062Y0050049D01*
X0048030Y0050003D01*
X0047994Y0049960D01*
X0047956Y0049919D01*
X0047915Y0049881D01*
X0047872Y0049845D01*
X0047826Y0049813D01*
X0047778Y0049784D01*
X0047729Y0049758D01*
X0047678Y0049736D01*
X0047625Y0049717D01*
X0047571Y0049702D01*
X0047516Y0049690D01*
X0047461Y0049682D01*
X0047405Y0049679D01*
X0047405Y0049735D01*
X0047459Y0049739D01*
X0047513Y0049747D01*
X0047566Y0049758D01*
X0047618Y0049774D01*
X0047669Y0049793D01*
X0047719Y0049816D01*
X0047767Y0049842D01*
X0047812Y0049871D01*
X0047856Y0049904D01*
X0047897Y0049939D01*
X0047936Y0049978D01*
X0047971Y0050019D01*
X0048004Y0050063D01*
X0048033Y0050108D01*
X0048059Y0050156D01*
X0048082Y0050206D01*
X0048101Y0050257D01*
X0048117Y0050309D01*
X0048128Y0050362D01*
X0048136Y0050416D01*
X0048140Y0050470D01*
X0073768Y0086226D02*
X0073434Y0085802D01*
X0073434Y0085803D02*
X0073235Y0085955D01*
X0073033Y0086102D01*
X0072827Y0086244D01*
X0072617Y0086381D01*
X0072404Y0086513D01*
X0072188Y0086639D01*
X0071969Y0086760D01*
X0071747Y0086876D01*
X0071523Y0086987D01*
X0071295Y0087091D01*
X0071065Y0087191D01*
X0070833Y0087284D01*
X0070599Y0087372D01*
X0070362Y0087454D01*
X0070124Y0087531D01*
X0069884Y0087601D01*
X0069642Y0087666D01*
X0069399Y0087724D01*
X0069154Y0087777D01*
X0068908Y0087823D01*
X0068661Y0087864D01*
X0068413Y0087899D01*
X0068164Y0087927D01*
X0067915Y0087949D01*
X0067665Y0087966D01*
X0067415Y0087976D01*
X0067165Y0087980D01*
X0066914Y0087978D01*
X0066664Y0087970D01*
X0066414Y0087955D01*
X0066165Y0087935D01*
X0065916Y0087908D01*
X0065668Y0087876D01*
X0065420Y0087837D01*
X0065174Y0087792D01*
X0064929Y0087741D01*
X0064685Y0087685D01*
X0064443Y0087622D01*
X0064202Y0087554D01*
X0063963Y0087479D01*
X0063726Y0087399D01*
X0063491Y0087313D01*
X0063258Y0087221D01*
X0063027Y0087123D01*
X0062799Y0087020D01*
X0062574Y0086912D01*
X0062351Y0086798D01*
X0062131Y0086678D01*
X0061914Y0086553D01*
X0061700Y0086423D01*
X0061489Y0086288D01*
X0061282Y0086147D01*
X0061079Y0086002D01*
X0060878Y0085851D01*
X0060682Y0085696D01*
X0060490Y0085536D01*
X0060301Y0085371D01*
X0060117Y0085202D01*
X0059936Y0085029D01*
X0059760Y0084850D01*
X0059589Y0084668D01*
X0059422Y0084482D01*
X0059259Y0084291D01*
X0059102Y0084097D01*
X0058949Y0083899D01*
X0058801Y0083697D01*
X0058658Y0083491D01*
X0058520Y0083282D01*
X0058387Y0083070D01*
X0058260Y0082855D01*
X0058137Y0082636D01*
X0058021Y0082415D01*
X0057909Y0082191D01*
X0057803Y0081964D01*
X0057703Y0081735D01*
X0057608Y0081503D01*
X0057519Y0081269D01*
X0057436Y0081033D01*
X0057359Y0080795D01*
X0056843Y0080953D01*
X0056843Y0080954D01*
X0056924Y0081205D01*
X0057012Y0081453D01*
X0057105Y0081700D01*
X0057205Y0081944D01*
X0057311Y0082185D01*
X0057422Y0082424D01*
X0057539Y0082660D01*
X0057662Y0082893D01*
X0057791Y0083123D01*
X0057925Y0083350D01*
X0058065Y0083573D01*
X0058210Y0083793D01*
X0058361Y0084010D01*
X0058517Y0084222D01*
X0058678Y0084431D01*
X0058844Y0084636D01*
X0059015Y0084836D01*
X0059191Y0085033D01*
X0059371Y0085225D01*
X0059556Y0085412D01*
X0059746Y0085595D01*
X0059940Y0085773D01*
X0060139Y0085947D01*
X0060342Y0086115D01*
X0060548Y0086279D01*
X0060759Y0086437D01*
X0060973Y0086590D01*
X0061192Y0086738D01*
X0061413Y0086881D01*
X0061639Y0087018D01*
X0061867Y0087149D01*
X0062099Y0087275D01*
X0062333Y0087395D01*
X0062571Y0087510D01*
X0062811Y0087618D01*
X0063054Y0087721D01*
X0063299Y0087817D01*
X0063546Y0087908D01*
X0063796Y0087993D01*
X0064048Y0088071D01*
X0064301Y0088143D01*
X0064556Y0088209D01*
X0064813Y0088269D01*
X0065071Y0088322D01*
X0065331Y0088369D01*
X0065591Y0088410D01*
X0065852Y0088445D01*
X0066114Y0088472D01*
X0066377Y0088494D01*
X0066640Y0088509D01*
X0066904Y0088518D01*
X0067167Y0088520D01*
X0067431Y0088516D01*
X0067694Y0088505D01*
X0067957Y0088488D01*
X0068220Y0088464D01*
X0068482Y0088434D01*
X0068743Y0088398D01*
X0069003Y0088355D01*
X0069262Y0088306D01*
X0069519Y0088250D01*
X0069776Y0088189D01*
X0070030Y0088121D01*
X0070283Y0088047D01*
X0070534Y0087966D01*
X0070783Y0087880D01*
X0071030Y0087787D01*
X0071274Y0087689D01*
X0071516Y0087584D01*
X0071756Y0087474D01*
X0071992Y0087357D01*
X0072226Y0087235D01*
X0072457Y0087108D01*
X0072684Y0086974D01*
X0072908Y0086836D01*
X0073129Y0086691D01*
X0073346Y0086542D01*
X0073559Y0086387D01*
X0073768Y0086227D01*
X0073734Y0086183D01*
X0073525Y0086342D01*
X0073313Y0086496D01*
X0073097Y0086645D01*
X0072878Y0086788D01*
X0072655Y0086927D01*
X0072429Y0087059D01*
X0072199Y0087186D01*
X0071967Y0087307D01*
X0071732Y0087423D01*
X0071493Y0087533D01*
X0071253Y0087637D01*
X0071010Y0087735D01*
X0070764Y0087827D01*
X0070516Y0087913D01*
X0070267Y0087993D01*
X0070015Y0088067D01*
X0069762Y0088134D01*
X0069507Y0088196D01*
X0069250Y0088251D01*
X0068993Y0088300D01*
X0068734Y0088342D01*
X0068474Y0088379D01*
X0068214Y0088409D01*
X0067953Y0088432D01*
X0067691Y0088449D01*
X0067429Y0088460D01*
X0067167Y0088464D01*
X0066905Y0088462D01*
X0066643Y0088453D01*
X0066381Y0088438D01*
X0066120Y0088417D01*
X0065859Y0088389D01*
X0065599Y0088355D01*
X0065340Y0088314D01*
X0065082Y0088267D01*
X0064825Y0088214D01*
X0064570Y0088155D01*
X0064316Y0088089D01*
X0064064Y0088017D01*
X0063813Y0087939D01*
X0063565Y0087855D01*
X0063319Y0087765D01*
X0063075Y0087669D01*
X0062833Y0087567D01*
X0062594Y0087459D01*
X0062358Y0087345D01*
X0062125Y0087226D01*
X0061894Y0087100D01*
X0061667Y0086970D01*
X0061443Y0086833D01*
X0061223Y0086692D01*
X0061005Y0086544D01*
X0060792Y0086392D01*
X0060583Y0086234D01*
X0060377Y0086072D01*
X0060175Y0085904D01*
X0059978Y0085732D01*
X0059785Y0085554D01*
X0059596Y0085372D01*
X0059412Y0085186D01*
X0059232Y0084995D01*
X0059057Y0084800D01*
X0058887Y0084600D01*
X0058722Y0084396D01*
X0058562Y0084189D01*
X0058407Y0083977D01*
X0058257Y0083762D01*
X0058112Y0083543D01*
X0057973Y0083321D01*
X0057840Y0083095D01*
X0057712Y0082866D01*
X0057589Y0082635D01*
X0057473Y0082400D01*
X0057362Y0082162D01*
X0057257Y0081922D01*
X0057157Y0081679D01*
X0057064Y0081434D01*
X0056977Y0081187D01*
X0056896Y0080937D01*
X0056950Y0080921D01*
X0057030Y0081169D01*
X0057117Y0081415D01*
X0057210Y0081659D01*
X0057308Y0081900D01*
X0057413Y0082139D01*
X0057523Y0082376D01*
X0057639Y0082609D01*
X0057761Y0082840D01*
X0057888Y0083067D01*
X0058021Y0083292D01*
X0058159Y0083513D01*
X0058303Y0083731D01*
X0058452Y0083945D01*
X0058606Y0084155D01*
X0058766Y0084362D01*
X0058930Y0084564D01*
X0059099Y0084763D01*
X0059273Y0084957D01*
X0059452Y0085147D01*
X0059635Y0085333D01*
X0059823Y0085514D01*
X0060015Y0085690D01*
X0060212Y0085862D01*
X0060412Y0086028D01*
X0060617Y0086190D01*
X0060825Y0086347D01*
X0061037Y0086498D01*
X0061253Y0086645D01*
X0061473Y0086786D01*
X0061696Y0086921D01*
X0061922Y0087052D01*
X0062151Y0087176D01*
X0062383Y0087295D01*
X0062618Y0087408D01*
X0062856Y0087516D01*
X0063096Y0087617D01*
X0063339Y0087713D01*
X0063584Y0087802D01*
X0063831Y0087886D01*
X0064080Y0087964D01*
X0064331Y0088035D01*
X0064583Y0088100D01*
X0064837Y0088160D01*
X0065093Y0088212D01*
X0065349Y0088259D01*
X0065607Y0088299D01*
X0065865Y0088333D01*
X0066125Y0088361D01*
X0066385Y0088382D01*
X0066645Y0088397D01*
X0066906Y0088406D01*
X0067167Y0088408D01*
X0067427Y0088404D01*
X0067688Y0088393D01*
X0067948Y0088376D01*
X0068208Y0088353D01*
X0068467Y0088323D01*
X0068726Y0088287D01*
X0068983Y0088245D01*
X0069239Y0088196D01*
X0069494Y0088141D01*
X0069748Y0088080D01*
X0070000Y0088013D01*
X0070250Y0087940D01*
X0070499Y0087860D01*
X0070745Y0087774D01*
X0070989Y0087683D01*
X0071231Y0087585D01*
X0071471Y0087482D01*
X0071707Y0087373D01*
X0071942Y0087258D01*
X0072173Y0087137D01*
X0072401Y0087011D01*
X0072626Y0086879D01*
X0072848Y0086741D01*
X0073066Y0086599D01*
X0073281Y0086451D01*
X0073492Y0086297D01*
X0073699Y0086139D01*
X0073664Y0086095D01*
X0073458Y0086252D01*
X0073248Y0086405D01*
X0073035Y0086552D01*
X0072818Y0086694D01*
X0072597Y0086831D01*
X0072373Y0086962D01*
X0072146Y0087088D01*
X0071916Y0087208D01*
X0071683Y0087322D01*
X0071448Y0087431D01*
X0071209Y0087534D01*
X0070969Y0087631D01*
X0070726Y0087722D01*
X0070481Y0087807D01*
X0070234Y0087886D01*
X0069985Y0087959D01*
X0069734Y0088026D01*
X0069482Y0088087D01*
X0069228Y0088141D01*
X0068973Y0088190D01*
X0068717Y0088232D01*
X0068460Y0088268D01*
X0068202Y0088297D01*
X0067944Y0088320D01*
X0067685Y0088337D01*
X0067426Y0088348D01*
X0067166Y0088352D01*
X0066907Y0088350D01*
X0066648Y0088341D01*
X0066389Y0088326D01*
X0066130Y0088305D01*
X0065872Y0088278D01*
X0065615Y0088244D01*
X0065358Y0088204D01*
X0065103Y0088157D01*
X0064849Y0088105D01*
X0064596Y0088046D01*
X0064345Y0087981D01*
X0064096Y0087910D01*
X0063848Y0087833D01*
X0063602Y0087750D01*
X0063359Y0087660D01*
X0063117Y0087565D01*
X0062878Y0087464D01*
X0062642Y0087357D01*
X0062408Y0087245D01*
X0062177Y0087127D01*
X0061949Y0087003D01*
X0061724Y0086873D01*
X0061503Y0086738D01*
X0061284Y0086598D01*
X0061070Y0086453D01*
X0060858Y0086302D01*
X0060651Y0086146D01*
X0060447Y0085985D01*
X0060248Y0085819D01*
X0060053Y0085648D01*
X0059861Y0085473D01*
X0059675Y0085293D01*
X0059492Y0085108D01*
X0059314Y0084919D01*
X0059141Y0084726D01*
X0058973Y0084529D01*
X0058810Y0084327D01*
X0058651Y0084122D01*
X0058498Y0083912D01*
X0058350Y0083699D01*
X0058207Y0083483D01*
X0058069Y0083263D01*
X0057937Y0083040D01*
X0057810Y0082813D01*
X0057689Y0082584D01*
X0057574Y0082351D01*
X0057464Y0082116D01*
X0057360Y0081879D01*
X0057262Y0081638D01*
X0057170Y0081396D01*
X0057083Y0081151D01*
X0057003Y0080904D01*
X0057057Y0080888D01*
X0057136Y0081133D01*
X0057222Y0081377D01*
X0057314Y0081618D01*
X0057412Y0081857D01*
X0057515Y0082093D01*
X0057624Y0082327D01*
X0057739Y0082558D01*
X0057859Y0082787D01*
X0057985Y0083012D01*
X0058117Y0083234D01*
X0058254Y0083453D01*
X0058396Y0083668D01*
X0058543Y0083880D01*
X0058696Y0084088D01*
X0058854Y0084292D01*
X0059016Y0084493D01*
X0059184Y0084689D01*
X0059356Y0084881D01*
X0059533Y0085069D01*
X0059714Y0085253D01*
X0059900Y0085432D01*
X0060090Y0085607D01*
X0060284Y0085776D01*
X0060483Y0085941D01*
X0060685Y0086101D01*
X0060892Y0086257D01*
X0061102Y0086407D01*
X0061315Y0086551D01*
X0061532Y0086691D01*
X0061753Y0086825D01*
X0061976Y0086954D01*
X0062203Y0087077D01*
X0062433Y0087195D01*
X0062665Y0087307D01*
X0062901Y0087413D01*
X0063138Y0087513D01*
X0063378Y0087608D01*
X0063621Y0087697D01*
X0063865Y0087780D01*
X0064112Y0087856D01*
X0064360Y0087927D01*
X0064610Y0087992D01*
X0064861Y0088050D01*
X0065114Y0088102D01*
X0065368Y0088149D01*
X0065623Y0088188D01*
X0065879Y0088222D01*
X0066135Y0088249D01*
X0066392Y0088271D01*
X0066650Y0088285D01*
X0066908Y0088294D01*
X0067166Y0088296D01*
X0067424Y0088292D01*
X0067682Y0088281D01*
X0067940Y0088264D01*
X0068197Y0088241D01*
X0068453Y0088212D01*
X0068709Y0088176D01*
X0068963Y0088135D01*
X0069217Y0088086D01*
X0069469Y0088032D01*
X0069720Y0087972D01*
X0069969Y0087905D01*
X0070217Y0087833D01*
X0070463Y0087754D01*
X0070707Y0087669D01*
X0070948Y0087579D01*
X0071188Y0087482D01*
X0071425Y0087380D01*
X0071659Y0087272D01*
X0071891Y0087158D01*
X0072119Y0087038D01*
X0072345Y0086913D01*
X0072568Y0086783D01*
X0072787Y0086647D01*
X0073003Y0086506D01*
X0073216Y0086359D01*
X0073425Y0086208D01*
X0073630Y0086051D01*
X0073595Y0086007D01*
X0073391Y0086163D01*
X0073183Y0086314D01*
X0072972Y0086459D01*
X0072757Y0086600D01*
X0072539Y0086735D01*
X0072317Y0086865D01*
X0072093Y0086989D01*
X0071865Y0087108D01*
X0071635Y0087221D01*
X0071402Y0087329D01*
X0071166Y0087430D01*
X0070928Y0087526D01*
X0070688Y0087617D01*
X0070445Y0087701D01*
X0070201Y0087779D01*
X0069954Y0087851D01*
X0069706Y0087917D01*
X0069457Y0087978D01*
X0069206Y0088032D01*
X0068954Y0088079D01*
X0068700Y0088121D01*
X0068446Y0088156D01*
X0068191Y0088186D01*
X0067935Y0088209D01*
X0067679Y0088225D01*
X0067423Y0088236D01*
X0067166Y0088240D01*
X0066909Y0088238D01*
X0066653Y0088229D01*
X0066396Y0088215D01*
X0066140Y0088194D01*
X0065885Y0088166D01*
X0065631Y0088133D01*
X0065377Y0088093D01*
X0065124Y0088047D01*
X0064873Y0087995D01*
X0064623Y0087937D01*
X0064375Y0087873D01*
X0064128Y0087803D01*
X0063883Y0087726D01*
X0063639Y0087644D01*
X0063398Y0087556D01*
X0063160Y0087462D01*
X0062923Y0087362D01*
X0062689Y0087256D01*
X0062458Y0087145D01*
X0062229Y0087028D01*
X0062004Y0086905D01*
X0061781Y0086777D01*
X0061562Y0086643D01*
X0061346Y0086505D01*
X0061134Y0086361D01*
X0060925Y0086211D01*
X0060719Y0086057D01*
X0060518Y0085898D01*
X0060321Y0085734D01*
X0060127Y0085565D01*
X0059938Y0085391D01*
X0059753Y0085213D01*
X0059573Y0085031D01*
X0059397Y0084844D01*
X0059226Y0084652D01*
X0059059Y0084457D01*
X0058898Y0084258D01*
X0058741Y0084054D01*
X0058589Y0083847D01*
X0058442Y0083637D01*
X0058301Y0083422D01*
X0058165Y0083205D01*
X0058034Y0082984D01*
X0057909Y0082760D01*
X0057789Y0082533D01*
X0057675Y0082303D01*
X0057566Y0082070D01*
X0057463Y0081835D01*
X0057366Y0081598D01*
X0057275Y0081358D01*
X0057190Y0081115D01*
X0057110Y0080871D01*
X0057164Y0080855D01*
X0057243Y0081098D01*
X0057327Y0081338D01*
X0057418Y0081577D01*
X0057515Y0081813D01*
X0057617Y0082047D01*
X0057725Y0082279D01*
X0057839Y0082507D01*
X0057958Y0082733D01*
X0058083Y0082956D01*
X0058213Y0083176D01*
X0058348Y0083392D01*
X0058489Y0083605D01*
X0058635Y0083815D01*
X0058786Y0084021D01*
X0058942Y0084223D01*
X0059102Y0084421D01*
X0059268Y0084616D01*
X0059438Y0084806D01*
X0059613Y0084992D01*
X0059793Y0085173D01*
X0059977Y0085351D01*
X0060165Y0085523D01*
X0060357Y0085691D01*
X0060553Y0085854D01*
X0060754Y0086013D01*
X0060958Y0086166D01*
X0061166Y0086315D01*
X0061377Y0086458D01*
X0061592Y0086596D01*
X0061810Y0086729D01*
X0062031Y0086856D01*
X0062256Y0086978D01*
X0062483Y0087094D01*
X0062713Y0087205D01*
X0062946Y0087310D01*
X0063181Y0087410D01*
X0063418Y0087503D01*
X0063658Y0087591D01*
X0063900Y0087673D01*
X0064144Y0087749D01*
X0064389Y0087819D01*
X0064636Y0087883D01*
X0064885Y0087941D01*
X0065135Y0087993D01*
X0065386Y0088038D01*
X0065639Y0088078D01*
X0065892Y0088111D01*
X0066146Y0088138D01*
X0066400Y0088159D01*
X0066655Y0088173D01*
X0066910Y0088182D01*
X0067166Y0088184D01*
X0067421Y0088180D01*
X0067676Y0088169D01*
X0067931Y0088153D01*
X0068185Y0088130D01*
X0068439Y0088101D01*
X0068692Y0088066D01*
X0068944Y0088024D01*
X0069195Y0087977D01*
X0069444Y0087923D01*
X0069692Y0087863D01*
X0069939Y0087797D01*
X0070184Y0087725D01*
X0070427Y0087648D01*
X0070668Y0087564D01*
X0070908Y0087474D01*
X0071144Y0087379D01*
X0071379Y0087278D01*
X0071611Y0087171D01*
X0071840Y0087058D01*
X0072066Y0086940D01*
X0072290Y0086816D01*
X0072510Y0086687D01*
X0072727Y0086553D01*
X0072941Y0086413D01*
X0073151Y0086268D01*
X0073358Y0086118D01*
X0073560Y0085963D01*
X0073526Y0085919D01*
X0073324Y0086073D01*
X0073118Y0086222D01*
X0072909Y0086367D01*
X0072697Y0086505D01*
X0072481Y0086639D01*
X0072262Y0086768D01*
X0072040Y0086891D01*
X0071814Y0087008D01*
X0071586Y0087120D01*
X0071356Y0087226D01*
X0071123Y0087327D01*
X0070887Y0087422D01*
X0070649Y0087511D01*
X0070409Y0087595D01*
X0070168Y0087672D01*
X0069924Y0087743D01*
X0069679Y0087809D01*
X0069432Y0087868D01*
X0069183Y0087922D01*
X0068934Y0087969D01*
X0068683Y0088010D01*
X0068432Y0088045D01*
X0068179Y0088074D01*
X0067926Y0088097D01*
X0067673Y0088114D01*
X0067419Y0088124D01*
X0067165Y0088128D01*
X0066911Y0088126D01*
X0066658Y0088117D01*
X0066404Y0088103D01*
X0066151Y0088082D01*
X0065898Y0088055D01*
X0065647Y0088022D01*
X0065396Y0087983D01*
X0065146Y0087938D01*
X0064897Y0087886D01*
X0064650Y0087828D01*
X0064404Y0087765D01*
X0064160Y0087695D01*
X0063917Y0087620D01*
X0063677Y0087538D01*
X0063438Y0087451D01*
X0063202Y0087358D01*
X0062968Y0087259D01*
X0062737Y0087154D01*
X0062508Y0087044D01*
X0062282Y0086929D01*
X0062059Y0086807D01*
X0061838Y0086681D01*
X0061621Y0086549D01*
X0061408Y0086411D01*
X0061198Y0086269D01*
X0060991Y0086121D01*
X0060788Y0085969D01*
X0060589Y0085811D01*
X0060393Y0085649D01*
X0060202Y0085482D01*
X0060015Y0085310D01*
X0059832Y0085134D01*
X0059654Y0084953D01*
X0059480Y0084768D01*
X0059310Y0084579D01*
X0059146Y0084386D01*
X0058986Y0084188D01*
X0058830Y0083987D01*
X0058680Y0083782D01*
X0058535Y0083574D01*
X0058395Y0083362D01*
X0058261Y0083147D01*
X0058131Y0082928D01*
X0058007Y0082707D01*
X0057889Y0082482D01*
X0057776Y0082255D01*
X0057668Y0082024D01*
X0057566Y0081792D01*
X0057470Y0081557D01*
X0057380Y0081319D01*
X0057296Y0081080D01*
X0057217Y0080838D01*
X0057271Y0080822D01*
X0057349Y0081062D01*
X0057433Y0081300D01*
X0057523Y0081536D01*
X0057618Y0081770D01*
X0057719Y0082002D01*
X0057826Y0082230D01*
X0057939Y0082457D01*
X0058056Y0082680D01*
X0058180Y0082900D01*
X0058308Y0083118D01*
X0058442Y0083332D01*
X0058582Y0083543D01*
X0058726Y0083750D01*
X0058875Y0083954D01*
X0059030Y0084154D01*
X0059189Y0084350D01*
X0059353Y0084542D01*
X0059521Y0084730D01*
X0059694Y0084914D01*
X0059872Y0085094D01*
X0060054Y0085269D01*
X0060240Y0085440D01*
X0060430Y0085606D01*
X0060624Y0085768D01*
X0060822Y0085924D01*
X0061024Y0086076D01*
X0061230Y0086223D01*
X0061439Y0086365D01*
X0061651Y0086501D01*
X0061867Y0086632D01*
X0062086Y0086758D01*
X0062308Y0086879D01*
X0062533Y0086994D01*
X0062760Y0087104D01*
X0062990Y0087208D01*
X0063223Y0087306D01*
X0063458Y0087399D01*
X0063695Y0087486D01*
X0063935Y0087567D01*
X0064176Y0087642D01*
X0064419Y0087711D01*
X0064663Y0087774D01*
X0064909Y0087831D01*
X0065156Y0087883D01*
X0065405Y0087928D01*
X0065655Y0087967D01*
X0065905Y0088000D01*
X0066156Y0088026D01*
X0066408Y0088047D01*
X0066660Y0088062D01*
X0066913Y0088070D01*
X0067165Y0088072D01*
X0067418Y0088068D01*
X0067670Y0088058D01*
X0067922Y0088041D01*
X0068174Y0088019D01*
X0068425Y0087990D01*
X0068675Y0087955D01*
X0068924Y0087914D01*
X0069172Y0087867D01*
X0069419Y0087814D01*
X0069665Y0087755D01*
X0069909Y0087690D01*
X0070151Y0087618D01*
X0070392Y0087541D01*
X0070630Y0087459D01*
X0070867Y0087370D01*
X0071101Y0087275D01*
X0071333Y0087175D01*
X0071562Y0087070D01*
X0071789Y0086958D01*
X0072013Y0086841D01*
X0072234Y0086719D01*
X0072452Y0086591D01*
X0072667Y0086458D01*
X0072878Y0086320D01*
X0073086Y0086177D01*
X0073290Y0086028D01*
X0073491Y0085875D01*
X0073456Y0085831D01*
X0073257Y0085984D01*
X0073054Y0086131D01*
X0072847Y0086274D01*
X0072636Y0086411D01*
X0072423Y0086543D01*
X0072206Y0086670D01*
X0071986Y0086792D01*
X0071764Y0086908D01*
X0071538Y0087019D01*
X0071310Y0087124D01*
X0071079Y0087224D01*
X0070846Y0087318D01*
X0070611Y0087406D01*
X0070374Y0087488D01*
X0070135Y0087565D01*
X0069894Y0087636D01*
X0069651Y0087700D01*
X0069407Y0087759D01*
X0069161Y0087812D01*
X0068914Y0087859D01*
X0068666Y0087900D01*
X0068417Y0087934D01*
X0068168Y0087963D01*
X0067918Y0087985D01*
X0067667Y0088002D01*
X0067416Y0088012D01*
X0067165Y0088016D01*
X0066914Y0088014D01*
X0066663Y0088006D01*
X0066412Y0087991D01*
X0066161Y0087971D01*
X0065912Y0087944D01*
X0065663Y0087911D01*
X0065414Y0087872D01*
X0065167Y0087828D01*
X0064921Y0087777D01*
X0064676Y0087720D01*
X0064433Y0087657D01*
X0064192Y0087588D01*
X0063952Y0087513D01*
X0063714Y0087433D01*
X0063478Y0087346D01*
X0063244Y0087254D01*
X0063013Y0087156D01*
X0062784Y0087053D01*
X0062558Y0086944D01*
X0062334Y0086829D01*
X0062113Y0086710D01*
X0061896Y0086584D01*
X0061681Y0086454D01*
X0061470Y0086318D01*
X0061262Y0086177D01*
X0061057Y0086031D01*
X0060856Y0085880D01*
X0060659Y0085724D01*
X0060466Y0085564D01*
X0060277Y0085398D01*
X0060092Y0085228D01*
X0059911Y0085054D01*
X0059734Y0084875D01*
X0059562Y0084692D01*
X0059395Y0084505D01*
X0059232Y0084314D01*
X0059074Y0084119D01*
X0058920Y0083920D01*
X0058772Y0083718D01*
X0058628Y0083511D01*
X0058490Y0083302D01*
X0058356Y0083089D01*
X0058228Y0082873D01*
X0058106Y0082653D01*
X0057988Y0082431D01*
X0057877Y0082206D01*
X0057770Y0081979D01*
X0057670Y0081748D01*
X0057575Y0081516D01*
X0057485Y0081281D01*
X0057402Y0081044D01*
X0057324Y0080805D01*
X0056843Y0074547D02*
X0057359Y0074706D01*
X0057359Y0074705D02*
X0057436Y0074467D01*
X0057519Y0074231D01*
X0057608Y0073997D01*
X0057703Y0073765D01*
X0057803Y0073536D01*
X0057909Y0073309D01*
X0058021Y0073085D01*
X0058137Y0072864D01*
X0058260Y0072645D01*
X0058387Y0072430D01*
X0058520Y0072218D01*
X0058658Y0072009D01*
X0058801Y0071803D01*
X0058949Y0071601D01*
X0059102Y0071403D01*
X0059260Y0071209D01*
X0059422Y0071018D01*
X0059589Y0070832D01*
X0059761Y0070649D01*
X0059936Y0070471D01*
X0060117Y0070298D01*
X0060301Y0070128D01*
X0060490Y0069964D01*
X0060682Y0069804D01*
X0060879Y0069648D01*
X0061079Y0069498D01*
X0061282Y0069353D01*
X0061490Y0069212D01*
X0061700Y0069077D01*
X0061914Y0068947D01*
X0062131Y0068822D01*
X0062351Y0068702D01*
X0062574Y0068588D01*
X0062799Y0068480D01*
X0063027Y0068376D01*
X0063258Y0068279D01*
X0063491Y0068187D01*
X0063726Y0068101D01*
X0063963Y0068021D01*
X0064202Y0067946D01*
X0064443Y0067878D01*
X0064685Y0067815D01*
X0064929Y0067758D01*
X0065174Y0067708D01*
X0065420Y0067663D01*
X0065668Y0067624D01*
X0065916Y0067592D01*
X0066165Y0067565D01*
X0066414Y0067545D01*
X0066664Y0067530D01*
X0066914Y0067522D01*
X0067165Y0067520D01*
X0067415Y0067524D01*
X0067665Y0067534D01*
X0067915Y0067551D01*
X0068164Y0067573D01*
X0068413Y0067601D01*
X0068661Y0067636D01*
X0068908Y0067677D01*
X0069154Y0067723D01*
X0069399Y0067776D01*
X0069642Y0067834D01*
X0069884Y0067899D01*
X0070124Y0067970D01*
X0070363Y0068046D01*
X0070599Y0068128D01*
X0070833Y0068216D01*
X0071066Y0068309D01*
X0071295Y0068409D01*
X0071523Y0068513D01*
X0071747Y0068624D01*
X0071969Y0068740D01*
X0072188Y0068861D01*
X0072404Y0068987D01*
X0072617Y0069119D01*
X0072827Y0069256D01*
X0073033Y0069398D01*
X0073235Y0069545D01*
X0073434Y0069697D01*
X0073768Y0069274D01*
X0073769Y0069273D01*
X0073559Y0069113D01*
X0073346Y0068958D01*
X0073129Y0068809D01*
X0072908Y0068664D01*
X0072684Y0068526D01*
X0072457Y0068392D01*
X0072226Y0068265D01*
X0071993Y0068143D01*
X0071756Y0068026D01*
X0071517Y0067916D01*
X0071275Y0067812D01*
X0071030Y0067713D01*
X0070783Y0067620D01*
X0070534Y0067534D01*
X0070283Y0067454D01*
X0070030Y0067379D01*
X0069776Y0067311D01*
X0069520Y0067250D01*
X0069262Y0067194D01*
X0069003Y0067145D01*
X0068743Y0067102D01*
X0068482Y0067066D01*
X0068220Y0067036D01*
X0067957Y0067012D01*
X0067694Y0066995D01*
X0067431Y0066984D01*
X0067167Y0066980D01*
X0066904Y0066982D01*
X0066640Y0066991D01*
X0066377Y0067006D01*
X0066115Y0067028D01*
X0065852Y0067055D01*
X0065591Y0067090D01*
X0065331Y0067131D01*
X0065071Y0067178D01*
X0064813Y0067231D01*
X0064557Y0067291D01*
X0064301Y0067357D01*
X0064048Y0067429D01*
X0063796Y0067507D01*
X0063547Y0067592D01*
X0063299Y0067683D01*
X0063054Y0067779D01*
X0062811Y0067882D01*
X0062571Y0067990D01*
X0062333Y0068105D01*
X0062099Y0068225D01*
X0061867Y0068351D01*
X0061639Y0068482D01*
X0061413Y0068619D01*
X0061192Y0068762D01*
X0060974Y0068910D01*
X0060759Y0069063D01*
X0060548Y0069221D01*
X0060342Y0069385D01*
X0060139Y0069553D01*
X0059940Y0069727D01*
X0059746Y0069905D01*
X0059556Y0070088D01*
X0059371Y0070275D01*
X0059191Y0070467D01*
X0059015Y0070664D01*
X0058844Y0070864D01*
X0058678Y0071069D01*
X0058517Y0071278D01*
X0058361Y0071490D01*
X0058210Y0071707D01*
X0058065Y0071927D01*
X0057925Y0072150D01*
X0057791Y0072377D01*
X0057662Y0072607D01*
X0057539Y0072840D01*
X0057422Y0073076D01*
X0057311Y0073315D01*
X0057205Y0073556D01*
X0057105Y0073800D01*
X0057012Y0074047D01*
X0056924Y0074295D01*
X0056843Y0074546D01*
X0056896Y0074563D01*
X0056977Y0074313D01*
X0057064Y0074066D01*
X0057158Y0073821D01*
X0057257Y0073578D01*
X0057362Y0073338D01*
X0057473Y0073100D01*
X0057589Y0072865D01*
X0057712Y0072633D01*
X0057840Y0072405D01*
X0057973Y0072179D01*
X0058112Y0071957D01*
X0058257Y0071738D01*
X0058407Y0071523D01*
X0058562Y0071311D01*
X0058722Y0071104D01*
X0058887Y0070900D01*
X0059057Y0070700D01*
X0059232Y0070505D01*
X0059412Y0070314D01*
X0059596Y0070128D01*
X0059785Y0069946D01*
X0059978Y0069768D01*
X0060175Y0069596D01*
X0060377Y0069428D01*
X0060583Y0069265D01*
X0060792Y0069108D01*
X0061006Y0068956D01*
X0061223Y0068808D01*
X0061443Y0068667D01*
X0061667Y0068530D01*
X0061894Y0068400D01*
X0062125Y0068274D01*
X0062358Y0068155D01*
X0062594Y0068041D01*
X0062833Y0067933D01*
X0063075Y0067831D01*
X0063319Y0067735D01*
X0063565Y0067645D01*
X0063813Y0067561D01*
X0064064Y0067483D01*
X0064316Y0067411D01*
X0064570Y0067345D01*
X0064825Y0067286D01*
X0065082Y0067233D01*
X0065340Y0067186D01*
X0065599Y0067145D01*
X0065859Y0067111D01*
X0066120Y0067083D01*
X0066381Y0067062D01*
X0066643Y0067047D01*
X0066905Y0067038D01*
X0067167Y0067036D01*
X0067429Y0067040D01*
X0067691Y0067051D01*
X0067953Y0067068D01*
X0068214Y0067092D01*
X0068475Y0067121D01*
X0068734Y0067158D01*
X0068993Y0067200D01*
X0069251Y0067249D01*
X0069507Y0067304D01*
X0069762Y0067366D01*
X0070015Y0067433D01*
X0070267Y0067507D01*
X0070517Y0067587D01*
X0070764Y0067673D01*
X0071010Y0067765D01*
X0071253Y0067863D01*
X0071494Y0067967D01*
X0071732Y0068077D01*
X0071967Y0068193D01*
X0072200Y0068314D01*
X0072429Y0068441D01*
X0072655Y0068574D01*
X0072878Y0068712D01*
X0073098Y0068855D01*
X0073313Y0069004D01*
X0073526Y0069158D01*
X0073734Y0069317D01*
X0073699Y0069361D01*
X0073492Y0069203D01*
X0073281Y0069050D01*
X0073066Y0068902D01*
X0072848Y0068759D01*
X0072626Y0068621D01*
X0072401Y0068490D01*
X0072173Y0068363D01*
X0071942Y0068243D01*
X0071708Y0068127D01*
X0071471Y0068018D01*
X0071231Y0067915D01*
X0070989Y0067817D01*
X0070745Y0067726D01*
X0070499Y0067640D01*
X0070250Y0067561D01*
X0070000Y0067487D01*
X0069748Y0067420D01*
X0069494Y0067359D01*
X0069239Y0067304D01*
X0068983Y0067255D01*
X0068726Y0067213D01*
X0068468Y0067177D01*
X0068208Y0067147D01*
X0067949Y0067124D01*
X0067688Y0067107D01*
X0067428Y0067096D01*
X0067167Y0067092D01*
X0066906Y0067094D01*
X0066645Y0067103D01*
X0066385Y0067118D01*
X0066125Y0067139D01*
X0065866Y0067167D01*
X0065607Y0067201D01*
X0065349Y0067241D01*
X0065093Y0067288D01*
X0064837Y0067340D01*
X0064583Y0067400D01*
X0064331Y0067465D01*
X0064080Y0067536D01*
X0063831Y0067614D01*
X0063584Y0067698D01*
X0063339Y0067787D01*
X0063096Y0067883D01*
X0062856Y0067984D01*
X0062618Y0068092D01*
X0062383Y0068205D01*
X0062151Y0068324D01*
X0061922Y0068448D01*
X0061696Y0068579D01*
X0061473Y0068714D01*
X0061254Y0068855D01*
X0061038Y0069001D01*
X0060825Y0069153D01*
X0060617Y0069310D01*
X0060412Y0069472D01*
X0060212Y0069638D01*
X0060015Y0069810D01*
X0059823Y0069986D01*
X0059635Y0070167D01*
X0059452Y0070353D01*
X0059273Y0070543D01*
X0059099Y0070737D01*
X0058930Y0070936D01*
X0058766Y0071138D01*
X0058606Y0071345D01*
X0058452Y0071555D01*
X0058303Y0071769D01*
X0058160Y0071987D01*
X0058021Y0072208D01*
X0057888Y0072432D01*
X0057761Y0072660D01*
X0057639Y0072891D01*
X0057523Y0073124D01*
X0057413Y0073361D01*
X0057308Y0073600D01*
X0057210Y0073841D01*
X0057117Y0074085D01*
X0057030Y0074331D01*
X0056950Y0074579D01*
X0057003Y0074596D01*
X0057083Y0074349D01*
X0057170Y0074104D01*
X0057262Y0073862D01*
X0057360Y0073621D01*
X0057464Y0073384D01*
X0057574Y0073149D01*
X0057689Y0072916D01*
X0057810Y0072687D01*
X0057937Y0072460D01*
X0058069Y0072237D01*
X0058207Y0072017D01*
X0058350Y0071801D01*
X0058498Y0071588D01*
X0058651Y0071378D01*
X0058810Y0071173D01*
X0058973Y0070971D01*
X0059141Y0070774D01*
X0059315Y0070581D01*
X0059492Y0070392D01*
X0059675Y0070207D01*
X0059862Y0070027D01*
X0060053Y0069852D01*
X0060248Y0069681D01*
X0060448Y0069515D01*
X0060651Y0069354D01*
X0060858Y0069198D01*
X0061070Y0069047D01*
X0061284Y0068902D01*
X0061503Y0068762D01*
X0061724Y0068627D01*
X0061949Y0068497D01*
X0062177Y0068373D01*
X0062408Y0068255D01*
X0062642Y0068143D01*
X0062878Y0068036D01*
X0063117Y0067935D01*
X0063359Y0067840D01*
X0063602Y0067750D01*
X0063848Y0067667D01*
X0064096Y0067590D01*
X0064345Y0067519D01*
X0064597Y0067454D01*
X0064849Y0067395D01*
X0065103Y0067343D01*
X0065359Y0067296D01*
X0065615Y0067256D01*
X0065872Y0067222D01*
X0066130Y0067195D01*
X0066389Y0067174D01*
X0066648Y0067159D01*
X0066907Y0067150D01*
X0067167Y0067148D01*
X0067426Y0067152D01*
X0067685Y0067163D01*
X0067944Y0067180D01*
X0068203Y0067203D01*
X0068460Y0067232D01*
X0068717Y0067268D01*
X0068973Y0067310D01*
X0069228Y0067359D01*
X0069482Y0067413D01*
X0069734Y0067474D01*
X0069985Y0067541D01*
X0070234Y0067614D01*
X0070481Y0067693D01*
X0070726Y0067778D01*
X0070969Y0067869D01*
X0071210Y0067966D01*
X0071448Y0068069D01*
X0071683Y0068178D01*
X0071916Y0068292D01*
X0072146Y0068412D01*
X0072373Y0068538D01*
X0072597Y0068669D01*
X0072818Y0068806D01*
X0073035Y0068948D01*
X0073248Y0069095D01*
X0073458Y0069248D01*
X0073665Y0069405D01*
X0073630Y0069449D01*
X0073425Y0069292D01*
X0073216Y0069141D01*
X0073004Y0068994D01*
X0072787Y0068853D01*
X0072568Y0068717D01*
X0072345Y0068587D01*
X0072120Y0068462D01*
X0071891Y0068342D01*
X0071659Y0068228D01*
X0071425Y0068120D01*
X0071188Y0068018D01*
X0070949Y0067922D01*
X0070707Y0067831D01*
X0070463Y0067746D01*
X0070217Y0067668D01*
X0069970Y0067595D01*
X0069720Y0067528D01*
X0069469Y0067468D01*
X0069217Y0067414D01*
X0068964Y0067365D01*
X0068709Y0067324D01*
X0068453Y0067288D01*
X0068197Y0067259D01*
X0067940Y0067236D01*
X0067682Y0067219D01*
X0067424Y0067208D01*
X0067166Y0067204D01*
X0066908Y0067206D01*
X0066650Y0067215D01*
X0066393Y0067229D01*
X0066135Y0067251D01*
X0065879Y0067278D01*
X0065623Y0067312D01*
X0065368Y0067351D01*
X0065114Y0067398D01*
X0064861Y0067450D01*
X0064610Y0067508D01*
X0064360Y0067573D01*
X0064112Y0067644D01*
X0063865Y0067720D01*
X0063621Y0067803D01*
X0063379Y0067892D01*
X0063138Y0067987D01*
X0062901Y0068087D01*
X0062666Y0068193D01*
X0062433Y0068305D01*
X0062203Y0068423D01*
X0061977Y0068546D01*
X0061753Y0068675D01*
X0061532Y0068809D01*
X0061315Y0068949D01*
X0061102Y0069093D01*
X0060892Y0069243D01*
X0060685Y0069398D01*
X0060483Y0069558D01*
X0060284Y0069723D01*
X0060090Y0069893D01*
X0059900Y0070068D01*
X0059714Y0070247D01*
X0059533Y0070430D01*
X0059356Y0070618D01*
X0059184Y0070811D01*
X0059016Y0071007D01*
X0058854Y0071208D01*
X0058696Y0071412D01*
X0058543Y0071620D01*
X0058396Y0071832D01*
X0058254Y0072047D01*
X0058117Y0072266D01*
X0057985Y0072488D01*
X0057859Y0072713D01*
X0057739Y0072942D01*
X0057624Y0073173D01*
X0057515Y0073407D01*
X0057412Y0073643D01*
X0057314Y0073882D01*
X0057222Y0074123D01*
X0057136Y0074367D01*
X0057057Y0074612D01*
X0057110Y0074629D01*
X0057190Y0074384D01*
X0057275Y0074142D01*
X0057366Y0073902D01*
X0057463Y0073665D01*
X0057566Y0073430D01*
X0057675Y0073197D01*
X0057789Y0072967D01*
X0057909Y0072740D01*
X0058034Y0072516D01*
X0058165Y0072295D01*
X0058301Y0072077D01*
X0058442Y0071863D01*
X0058589Y0071653D01*
X0058741Y0071445D01*
X0058898Y0071242D01*
X0059059Y0071043D01*
X0059226Y0070847D01*
X0059397Y0070656D01*
X0059573Y0070469D01*
X0059754Y0070287D01*
X0059938Y0070109D01*
X0060127Y0069935D01*
X0060321Y0069766D01*
X0060518Y0069602D01*
X0060720Y0069443D01*
X0060925Y0069288D01*
X0061134Y0069139D01*
X0061346Y0068995D01*
X0061562Y0068856D01*
X0061781Y0068723D01*
X0062004Y0068595D01*
X0062229Y0068472D01*
X0062458Y0068355D01*
X0062689Y0068244D01*
X0062923Y0068138D01*
X0063160Y0068038D01*
X0063399Y0067944D01*
X0063640Y0067856D01*
X0063883Y0067774D01*
X0064128Y0067697D01*
X0064375Y0067627D01*
X0064623Y0067563D01*
X0064873Y0067505D01*
X0065125Y0067452D01*
X0065377Y0067407D01*
X0065631Y0067367D01*
X0065885Y0067334D01*
X0066141Y0067306D01*
X0066397Y0067285D01*
X0066653Y0067271D01*
X0066909Y0067262D01*
X0067166Y0067260D01*
X0067423Y0067264D01*
X0067679Y0067275D01*
X0067935Y0067291D01*
X0068191Y0067314D01*
X0068446Y0067344D01*
X0068700Y0067379D01*
X0068954Y0067421D01*
X0069206Y0067468D01*
X0069457Y0067522D01*
X0069706Y0067583D01*
X0069954Y0067649D01*
X0070201Y0067721D01*
X0070445Y0067799D01*
X0070688Y0067884D01*
X0070928Y0067974D01*
X0071166Y0068070D01*
X0071402Y0068171D01*
X0071635Y0068279D01*
X0071865Y0068392D01*
X0072093Y0068511D01*
X0072318Y0068635D01*
X0072539Y0068765D01*
X0072757Y0068900D01*
X0072972Y0069041D01*
X0073184Y0069186D01*
X0073391Y0069337D01*
X0073595Y0069493D01*
X0073561Y0069537D01*
X0073358Y0069382D01*
X0073151Y0069232D01*
X0072941Y0069087D01*
X0072727Y0068947D01*
X0072510Y0068813D01*
X0072290Y0068684D01*
X0072066Y0068560D01*
X0071840Y0068442D01*
X0071611Y0068330D01*
X0071379Y0068223D01*
X0071145Y0068121D01*
X0070908Y0068026D01*
X0070669Y0067936D01*
X0070427Y0067852D01*
X0070184Y0067775D01*
X0069939Y0067703D01*
X0069693Y0067637D01*
X0069444Y0067577D01*
X0069195Y0067523D01*
X0068944Y0067476D01*
X0068692Y0067434D01*
X0068439Y0067399D01*
X0068185Y0067370D01*
X0067931Y0067347D01*
X0067676Y0067331D01*
X0067421Y0067320D01*
X0067166Y0067316D01*
X0066910Y0067318D01*
X0066655Y0067327D01*
X0066400Y0067341D01*
X0066146Y0067362D01*
X0065892Y0067389D01*
X0065639Y0067422D01*
X0065387Y0067462D01*
X0065135Y0067507D01*
X0064885Y0067559D01*
X0064637Y0067617D01*
X0064389Y0067681D01*
X0064144Y0067751D01*
X0063900Y0067827D01*
X0063658Y0067909D01*
X0063418Y0067997D01*
X0063181Y0068090D01*
X0062946Y0068190D01*
X0062713Y0068295D01*
X0062483Y0068406D01*
X0062256Y0068522D01*
X0062031Y0068644D01*
X0061810Y0068771D01*
X0061592Y0068904D01*
X0061377Y0069042D01*
X0061166Y0069185D01*
X0060958Y0069334D01*
X0060754Y0069487D01*
X0060554Y0069645D01*
X0060357Y0069809D01*
X0060165Y0069977D01*
X0059977Y0070149D01*
X0059793Y0070326D01*
X0059613Y0070508D01*
X0059439Y0070694D01*
X0059268Y0070884D01*
X0059102Y0071079D01*
X0058942Y0071277D01*
X0058786Y0071479D01*
X0058635Y0071685D01*
X0058489Y0071895D01*
X0058348Y0072108D01*
X0058213Y0072324D01*
X0058083Y0072544D01*
X0057958Y0072767D01*
X0057839Y0072992D01*
X0057725Y0073221D01*
X0057617Y0073452D01*
X0057515Y0073686D01*
X0057418Y0073923D01*
X0057328Y0074161D01*
X0057243Y0074402D01*
X0057164Y0074645D01*
X0057217Y0074662D01*
X0057296Y0074420D01*
X0057380Y0074181D01*
X0057470Y0073943D01*
X0057566Y0073708D01*
X0057668Y0073475D01*
X0057776Y0073245D01*
X0057889Y0073018D01*
X0058007Y0072793D01*
X0058131Y0072572D01*
X0058261Y0072353D01*
X0058395Y0072138D01*
X0058535Y0071926D01*
X0058680Y0071717D01*
X0058831Y0071513D01*
X0058986Y0071312D01*
X0059146Y0071114D01*
X0059310Y0070921D01*
X0059480Y0070732D01*
X0059654Y0070547D01*
X0059832Y0070366D01*
X0060015Y0070190D01*
X0060202Y0070018D01*
X0060394Y0069851D01*
X0060589Y0069689D01*
X0060788Y0069531D01*
X0060991Y0069379D01*
X0061198Y0069231D01*
X0061408Y0069089D01*
X0061622Y0068951D01*
X0061839Y0068819D01*
X0062059Y0068693D01*
X0062282Y0068571D01*
X0062508Y0068456D01*
X0062737Y0068345D01*
X0062968Y0068241D01*
X0063202Y0068142D01*
X0063438Y0068049D01*
X0063677Y0067962D01*
X0063917Y0067880D01*
X0064160Y0067805D01*
X0064404Y0067735D01*
X0064650Y0067671D01*
X0064897Y0067614D01*
X0065146Y0067562D01*
X0065396Y0067517D01*
X0065647Y0067478D01*
X0065899Y0067445D01*
X0066151Y0067418D01*
X0066404Y0067397D01*
X0066658Y0067383D01*
X0066912Y0067374D01*
X0067166Y0067372D01*
X0067419Y0067376D01*
X0067673Y0067386D01*
X0067927Y0067403D01*
X0068180Y0067426D01*
X0068432Y0067455D01*
X0068683Y0067490D01*
X0068934Y0067531D01*
X0069184Y0067578D01*
X0069432Y0067632D01*
X0069679Y0067691D01*
X0069924Y0067757D01*
X0070168Y0067828D01*
X0070410Y0067906D01*
X0070650Y0067989D01*
X0070887Y0068078D01*
X0071123Y0068173D01*
X0071356Y0068274D01*
X0071587Y0068380D01*
X0071815Y0068492D01*
X0072040Y0068610D01*
X0072262Y0068733D01*
X0072481Y0068861D01*
X0072697Y0068995D01*
X0072909Y0069134D01*
X0073119Y0069278D01*
X0073324Y0069427D01*
X0073526Y0069581D01*
X0073491Y0069625D01*
X0073291Y0069472D01*
X0073086Y0069323D01*
X0072878Y0069180D01*
X0072667Y0069042D01*
X0072452Y0068909D01*
X0072234Y0068781D01*
X0072013Y0068659D01*
X0071789Y0068542D01*
X0071562Y0068431D01*
X0071333Y0068325D01*
X0071101Y0068225D01*
X0070867Y0068130D01*
X0070630Y0068041D01*
X0070392Y0067959D01*
X0070151Y0067882D01*
X0069909Y0067810D01*
X0069665Y0067745D01*
X0069419Y0067686D01*
X0069172Y0067633D01*
X0068924Y0067586D01*
X0068675Y0067545D01*
X0068425Y0067510D01*
X0068174Y0067481D01*
X0067922Y0067459D01*
X0067670Y0067442D01*
X0067418Y0067432D01*
X0067165Y0067428D01*
X0066913Y0067430D01*
X0066660Y0067438D01*
X0066408Y0067453D01*
X0066156Y0067474D01*
X0065905Y0067500D01*
X0065655Y0067533D01*
X0065405Y0067572D01*
X0065157Y0067617D01*
X0064909Y0067669D01*
X0064663Y0067726D01*
X0064419Y0067789D01*
X0064176Y0067858D01*
X0063935Y0067933D01*
X0063695Y0068014D01*
X0063458Y0068101D01*
X0063223Y0068194D01*
X0062991Y0068292D01*
X0062760Y0068396D01*
X0062533Y0068506D01*
X0062308Y0068621D01*
X0062086Y0068742D01*
X0061867Y0068868D01*
X0061651Y0068999D01*
X0061439Y0069135D01*
X0061230Y0069277D01*
X0061024Y0069424D01*
X0060822Y0069576D01*
X0060624Y0069732D01*
X0060430Y0069894D01*
X0060240Y0070060D01*
X0060054Y0070231D01*
X0059872Y0070406D01*
X0059694Y0070586D01*
X0059521Y0070770D01*
X0059353Y0070958D01*
X0059189Y0071150D01*
X0059030Y0071346D01*
X0058875Y0071546D01*
X0058726Y0071750D01*
X0058582Y0071957D01*
X0058443Y0072168D01*
X0058309Y0072382D01*
X0058180Y0072599D01*
X0058056Y0072820D01*
X0057939Y0073043D01*
X0057826Y0073269D01*
X0057719Y0073498D01*
X0057618Y0073730D01*
X0057523Y0073964D01*
X0057433Y0074200D01*
X0057349Y0074438D01*
X0057271Y0074678D01*
X0057324Y0074695D01*
X0057402Y0074456D01*
X0057485Y0074219D01*
X0057575Y0073984D01*
X0057670Y0073751D01*
X0057770Y0073521D01*
X0057877Y0073294D01*
X0057988Y0073069D01*
X0058106Y0072847D01*
X0058228Y0072627D01*
X0058356Y0072411D01*
X0058490Y0072198D01*
X0058628Y0071989D01*
X0058772Y0071782D01*
X0058920Y0071580D01*
X0059074Y0071381D01*
X0059232Y0071186D01*
X0059395Y0070995D01*
X0059562Y0070807D01*
X0059735Y0070625D01*
X0059911Y0070446D01*
X0060092Y0070271D01*
X0060277Y0070102D01*
X0060466Y0069936D01*
X0060659Y0069776D01*
X0060857Y0069620D01*
X0061057Y0069469D01*
X0061262Y0069323D01*
X0061470Y0069182D01*
X0061681Y0069046D01*
X0061896Y0068916D01*
X0062113Y0068790D01*
X0062334Y0068670D01*
X0062558Y0068556D01*
X0062784Y0068447D01*
X0063013Y0068344D01*
X0063244Y0068246D01*
X0063478Y0068154D01*
X0063714Y0068067D01*
X0063952Y0067987D01*
X0064192Y0067912D01*
X0064433Y0067843D01*
X0064677Y0067780D01*
X0064921Y0067723D01*
X0065167Y0067672D01*
X0065414Y0067628D01*
X0065663Y0067589D01*
X0065912Y0067556D01*
X0066162Y0067529D01*
X0066412Y0067509D01*
X0066663Y0067494D01*
X0066914Y0067486D01*
X0067165Y0067484D01*
X0067416Y0067488D01*
X0067667Y0067498D01*
X0067918Y0067515D01*
X0068168Y0067537D01*
X0068418Y0067566D01*
X0068666Y0067600D01*
X0068914Y0067641D01*
X0069161Y0067688D01*
X0069407Y0067741D01*
X0069651Y0067800D01*
X0069894Y0067864D01*
X0070135Y0067935D01*
X0070374Y0068012D01*
X0070611Y0068094D01*
X0070847Y0068182D01*
X0071080Y0068276D01*
X0071310Y0068376D01*
X0071538Y0068481D01*
X0071764Y0068592D01*
X0071986Y0068708D01*
X0072206Y0068830D01*
X0072423Y0068957D01*
X0072637Y0069089D01*
X0072847Y0069226D01*
X0073054Y0069369D01*
X0073257Y0069517D01*
X0073457Y0069669D01*
X0084669Y0075784D02*
X0085209Y0075784D01*
X0085209Y0075783D02*
X0085213Y0075731D01*
X0085220Y0075680D01*
X0085231Y0075630D01*
X0085246Y0075580D01*
X0085264Y0075532D01*
X0085286Y0075485D01*
X0085311Y0075439D01*
X0085339Y0075396D01*
X0085370Y0075355D01*
X0085404Y0075315D01*
X0085440Y0075279D01*
X0085480Y0075245D01*
X0085521Y0075214D01*
X0085564Y0075186D01*
X0085610Y0075161D01*
X0085657Y0075139D01*
X0085705Y0075121D01*
X0085755Y0075106D01*
X0085805Y0075095D01*
X0085856Y0075088D01*
X0085908Y0075084D01*
X0085909Y0074544D01*
X0085908Y0074543D01*
X0085839Y0074547D01*
X0085770Y0074554D01*
X0085702Y0074565D01*
X0085635Y0074580D01*
X0085568Y0074598D01*
X0085502Y0074620D01*
X0085438Y0074645D01*
X0085375Y0074674D01*
X0085314Y0074707D01*
X0085255Y0074742D01*
X0085198Y0074781D01*
X0085143Y0074823D01*
X0085090Y0074867D01*
X0085040Y0074915D01*
X0084992Y0074965D01*
X0084948Y0075018D01*
X0084906Y0075073D01*
X0084867Y0075130D01*
X0084832Y0075189D01*
X0084799Y0075250D01*
X0084770Y0075313D01*
X0084745Y0075377D01*
X0084723Y0075443D01*
X0084705Y0075510D01*
X0084690Y0075577D01*
X0084679Y0075645D01*
X0084672Y0075714D01*
X0084668Y0075783D01*
X0084724Y0075783D01*
X0084728Y0075715D01*
X0084735Y0075647D01*
X0084747Y0075579D01*
X0084762Y0075513D01*
X0084781Y0075447D01*
X0084803Y0075382D01*
X0084829Y0075319D01*
X0084859Y0075257D01*
X0084892Y0075197D01*
X0084928Y0075139D01*
X0084968Y0075084D01*
X0085010Y0075030D01*
X0085056Y0074979D01*
X0085104Y0074931D01*
X0085155Y0074885D01*
X0085209Y0074843D01*
X0085264Y0074803D01*
X0085322Y0074767D01*
X0085382Y0074734D01*
X0085444Y0074704D01*
X0085507Y0074678D01*
X0085572Y0074656D01*
X0085638Y0074637D01*
X0085704Y0074622D01*
X0085772Y0074610D01*
X0085840Y0074603D01*
X0085908Y0074599D01*
X0085908Y0074655D01*
X0085840Y0074659D01*
X0085773Y0074667D01*
X0085707Y0074678D01*
X0085641Y0074694D01*
X0085576Y0074713D01*
X0085512Y0074736D01*
X0085450Y0074763D01*
X0085390Y0074793D01*
X0085331Y0074827D01*
X0085274Y0074864D01*
X0085220Y0074904D01*
X0085168Y0074948D01*
X0085119Y0074994D01*
X0085073Y0075043D01*
X0085029Y0075095D01*
X0084989Y0075149D01*
X0084952Y0075206D01*
X0084918Y0075265D01*
X0084888Y0075325D01*
X0084861Y0075387D01*
X0084838Y0075451D01*
X0084819Y0075516D01*
X0084803Y0075582D01*
X0084792Y0075648D01*
X0084784Y0075715D01*
X0084780Y0075783D01*
X0084836Y0075783D01*
X0084840Y0075719D01*
X0084847Y0075655D01*
X0084858Y0075592D01*
X0084873Y0075529D01*
X0084892Y0075468D01*
X0084913Y0075407D01*
X0084939Y0075348D01*
X0084968Y0075291D01*
X0085000Y0075235D01*
X0085035Y0075181D01*
X0085073Y0075130D01*
X0085115Y0075081D01*
X0085159Y0075034D01*
X0085206Y0074990D01*
X0085255Y0074948D01*
X0085306Y0074910D01*
X0085360Y0074875D01*
X0085416Y0074843D01*
X0085473Y0074814D01*
X0085532Y0074788D01*
X0085593Y0074767D01*
X0085654Y0074748D01*
X0085717Y0074733D01*
X0085780Y0074722D01*
X0085844Y0074715D01*
X0085908Y0074711D01*
X0085908Y0074767D01*
X0085845Y0074771D01*
X0085782Y0074779D01*
X0085720Y0074790D01*
X0085658Y0074805D01*
X0085598Y0074824D01*
X0085538Y0074846D01*
X0085481Y0074872D01*
X0085425Y0074902D01*
X0085370Y0074934D01*
X0085318Y0074970D01*
X0085268Y0075009D01*
X0085221Y0075051D01*
X0085176Y0075096D01*
X0085134Y0075143D01*
X0085095Y0075193D01*
X0085059Y0075245D01*
X0085027Y0075300D01*
X0084997Y0075356D01*
X0084971Y0075413D01*
X0084949Y0075473D01*
X0084930Y0075533D01*
X0084915Y0075595D01*
X0084904Y0075657D01*
X0084896Y0075720D01*
X0084892Y0075783D01*
X0084948Y0075783D01*
X0084952Y0075721D01*
X0084960Y0075659D01*
X0084972Y0075598D01*
X0084987Y0075538D01*
X0085006Y0075478D01*
X0085029Y0075420D01*
X0085056Y0075364D01*
X0085086Y0075309D01*
X0085119Y0075257D01*
X0085156Y0075206D01*
X0085195Y0075158D01*
X0085238Y0075113D01*
X0085283Y0075070D01*
X0085331Y0075031D01*
X0085382Y0074994D01*
X0085434Y0074961D01*
X0085489Y0074931D01*
X0085545Y0074904D01*
X0085603Y0074881D01*
X0085663Y0074862D01*
X0085723Y0074847D01*
X0085784Y0074835D01*
X0085846Y0074827D01*
X0085908Y0074823D01*
X0085908Y0074879D01*
X0085850Y0074883D01*
X0085791Y0074891D01*
X0085734Y0074902D01*
X0085677Y0074916D01*
X0085621Y0074934D01*
X0085567Y0074956D01*
X0085514Y0074981D01*
X0085462Y0075009D01*
X0085413Y0075041D01*
X0085365Y0075075D01*
X0085320Y0075112D01*
X0085278Y0075153D01*
X0085237Y0075195D01*
X0085200Y0075240D01*
X0085166Y0075288D01*
X0085134Y0075337D01*
X0085106Y0075389D01*
X0085081Y0075442D01*
X0085059Y0075496D01*
X0085041Y0075552D01*
X0085027Y0075609D01*
X0085016Y0075666D01*
X0085008Y0075725D01*
X0085004Y0075783D01*
X0085061Y0075783D01*
X0085064Y0075726D01*
X0085072Y0075669D01*
X0085083Y0075613D01*
X0085098Y0075557D01*
X0085117Y0075503D01*
X0085139Y0075450D01*
X0085164Y0075399D01*
X0085193Y0075349D01*
X0085224Y0075301D01*
X0085259Y0075256D01*
X0085297Y0075213D01*
X0085338Y0075172D01*
X0085381Y0075134D01*
X0085426Y0075099D01*
X0085474Y0075068D01*
X0085524Y0075039D01*
X0085575Y0075014D01*
X0085628Y0074992D01*
X0085682Y0074973D01*
X0085738Y0074958D01*
X0085794Y0074947D01*
X0085851Y0074939D01*
X0085908Y0074936D01*
X0085908Y0074992D01*
X0085852Y0074995D01*
X0085797Y0075003D01*
X0085742Y0075015D01*
X0085688Y0075030D01*
X0085635Y0075049D01*
X0085584Y0075071D01*
X0085535Y0075097D01*
X0085487Y0075126D01*
X0085441Y0075158D01*
X0085398Y0075194D01*
X0085357Y0075232D01*
X0085319Y0075273D01*
X0085283Y0075316D01*
X0085251Y0075362D01*
X0085222Y0075410D01*
X0085196Y0075459D01*
X0085174Y0075510D01*
X0085155Y0075563D01*
X0085140Y0075617D01*
X0085128Y0075672D01*
X0085120Y0075727D01*
X0085117Y0075783D01*
X0085173Y0075783D01*
X0085177Y0075729D01*
X0085185Y0075675D01*
X0085196Y0075622D01*
X0085212Y0075570D01*
X0085231Y0075519D01*
X0085254Y0075469D01*
X0085280Y0075421D01*
X0085309Y0075376D01*
X0085342Y0075332D01*
X0085377Y0075291D01*
X0085416Y0075252D01*
X0085457Y0075217D01*
X0085501Y0075184D01*
X0085546Y0075155D01*
X0085594Y0075129D01*
X0085644Y0075106D01*
X0085695Y0075087D01*
X0085747Y0075071D01*
X0085800Y0075060D01*
X0085854Y0075052D01*
X0085908Y0075048D01*
X0085909Y0084082D02*
X0085909Y0083542D01*
X0085908Y0083542D02*
X0085856Y0083538D01*
X0085805Y0083531D01*
X0085755Y0083520D01*
X0085705Y0083505D01*
X0085657Y0083487D01*
X0085610Y0083465D01*
X0085564Y0083440D01*
X0085521Y0083412D01*
X0085480Y0083381D01*
X0085440Y0083347D01*
X0085404Y0083311D01*
X0085370Y0083271D01*
X0085339Y0083230D01*
X0085311Y0083187D01*
X0085286Y0083141D01*
X0085264Y0083094D01*
X0085246Y0083046D01*
X0085231Y0082996D01*
X0085220Y0082946D01*
X0085213Y0082895D01*
X0085209Y0082843D01*
X0084669Y0082842D01*
X0084668Y0082843D01*
X0084672Y0082912D01*
X0084679Y0082981D01*
X0084690Y0083049D01*
X0084705Y0083116D01*
X0084723Y0083183D01*
X0084745Y0083249D01*
X0084770Y0083313D01*
X0084799Y0083376D01*
X0084832Y0083437D01*
X0084867Y0083496D01*
X0084906Y0083553D01*
X0084948Y0083608D01*
X0084992Y0083661D01*
X0085040Y0083711D01*
X0085090Y0083759D01*
X0085143Y0083803D01*
X0085198Y0083845D01*
X0085255Y0083884D01*
X0085314Y0083919D01*
X0085375Y0083952D01*
X0085438Y0083981D01*
X0085502Y0084006D01*
X0085568Y0084028D01*
X0085635Y0084046D01*
X0085702Y0084061D01*
X0085770Y0084072D01*
X0085839Y0084079D01*
X0085908Y0084083D01*
X0085908Y0084027D01*
X0085840Y0084023D01*
X0085772Y0084016D01*
X0085704Y0084004D01*
X0085638Y0083989D01*
X0085572Y0083970D01*
X0085507Y0083948D01*
X0085444Y0083922D01*
X0085382Y0083892D01*
X0085322Y0083859D01*
X0085264Y0083823D01*
X0085209Y0083783D01*
X0085155Y0083741D01*
X0085104Y0083695D01*
X0085056Y0083647D01*
X0085010Y0083596D01*
X0084968Y0083542D01*
X0084928Y0083487D01*
X0084892Y0083429D01*
X0084859Y0083369D01*
X0084829Y0083307D01*
X0084803Y0083244D01*
X0084781Y0083179D01*
X0084762Y0083113D01*
X0084747Y0083047D01*
X0084735Y0082979D01*
X0084728Y0082911D01*
X0084724Y0082843D01*
X0084780Y0082843D01*
X0084784Y0082911D01*
X0084792Y0082978D01*
X0084803Y0083044D01*
X0084819Y0083110D01*
X0084838Y0083175D01*
X0084861Y0083239D01*
X0084888Y0083301D01*
X0084918Y0083361D01*
X0084952Y0083420D01*
X0084989Y0083477D01*
X0085029Y0083531D01*
X0085073Y0083583D01*
X0085119Y0083632D01*
X0085168Y0083678D01*
X0085220Y0083722D01*
X0085274Y0083762D01*
X0085331Y0083799D01*
X0085390Y0083833D01*
X0085450Y0083863D01*
X0085512Y0083890D01*
X0085576Y0083913D01*
X0085641Y0083932D01*
X0085707Y0083948D01*
X0085773Y0083959D01*
X0085840Y0083967D01*
X0085908Y0083971D01*
X0085908Y0083915D01*
X0085844Y0083911D01*
X0085780Y0083904D01*
X0085717Y0083893D01*
X0085654Y0083878D01*
X0085593Y0083859D01*
X0085532Y0083838D01*
X0085473Y0083812D01*
X0085416Y0083783D01*
X0085360Y0083751D01*
X0085306Y0083716D01*
X0085255Y0083678D01*
X0085206Y0083636D01*
X0085159Y0083592D01*
X0085115Y0083545D01*
X0085073Y0083496D01*
X0085035Y0083445D01*
X0085000Y0083391D01*
X0084968Y0083335D01*
X0084939Y0083278D01*
X0084913Y0083219D01*
X0084892Y0083158D01*
X0084873Y0083097D01*
X0084858Y0083034D01*
X0084847Y0082971D01*
X0084840Y0082907D01*
X0084836Y0082843D01*
X0084892Y0082843D01*
X0084896Y0082906D01*
X0084904Y0082969D01*
X0084915Y0083031D01*
X0084930Y0083093D01*
X0084949Y0083153D01*
X0084971Y0083213D01*
X0084997Y0083270D01*
X0085027Y0083326D01*
X0085059Y0083381D01*
X0085095Y0083433D01*
X0085134Y0083483D01*
X0085176Y0083530D01*
X0085221Y0083575D01*
X0085268Y0083617D01*
X0085318Y0083656D01*
X0085370Y0083692D01*
X0085425Y0083724D01*
X0085481Y0083754D01*
X0085538Y0083780D01*
X0085598Y0083802D01*
X0085658Y0083821D01*
X0085720Y0083836D01*
X0085782Y0083847D01*
X0085845Y0083855D01*
X0085908Y0083859D01*
X0085908Y0083803D01*
X0085846Y0083799D01*
X0085784Y0083791D01*
X0085723Y0083779D01*
X0085663Y0083764D01*
X0085603Y0083745D01*
X0085545Y0083722D01*
X0085489Y0083695D01*
X0085434Y0083665D01*
X0085382Y0083632D01*
X0085331Y0083595D01*
X0085283Y0083556D01*
X0085238Y0083513D01*
X0085195Y0083468D01*
X0085156Y0083420D01*
X0085119Y0083369D01*
X0085086Y0083317D01*
X0085056Y0083262D01*
X0085029Y0083206D01*
X0085006Y0083148D01*
X0084987Y0083088D01*
X0084972Y0083028D01*
X0084960Y0082967D01*
X0084952Y0082905D01*
X0084948Y0082843D01*
X0085004Y0082843D01*
X0085008Y0082901D01*
X0085016Y0082960D01*
X0085027Y0083017D01*
X0085041Y0083074D01*
X0085059Y0083130D01*
X0085081Y0083184D01*
X0085106Y0083237D01*
X0085134Y0083289D01*
X0085166Y0083338D01*
X0085200Y0083386D01*
X0085237Y0083431D01*
X0085278Y0083473D01*
X0085320Y0083514D01*
X0085365Y0083551D01*
X0085413Y0083585D01*
X0085462Y0083617D01*
X0085514Y0083645D01*
X0085567Y0083670D01*
X0085621Y0083692D01*
X0085677Y0083710D01*
X0085734Y0083724D01*
X0085791Y0083735D01*
X0085850Y0083743D01*
X0085908Y0083747D01*
X0085908Y0083690D01*
X0085851Y0083687D01*
X0085794Y0083679D01*
X0085738Y0083668D01*
X0085682Y0083653D01*
X0085628Y0083634D01*
X0085575Y0083612D01*
X0085524Y0083587D01*
X0085474Y0083558D01*
X0085426Y0083527D01*
X0085381Y0083492D01*
X0085338Y0083454D01*
X0085297Y0083413D01*
X0085259Y0083370D01*
X0085224Y0083325D01*
X0085193Y0083277D01*
X0085164Y0083227D01*
X0085139Y0083176D01*
X0085117Y0083123D01*
X0085098Y0083069D01*
X0085083Y0083013D01*
X0085072Y0082957D01*
X0085064Y0082900D01*
X0085061Y0082843D01*
X0085117Y0082843D01*
X0085120Y0082899D01*
X0085128Y0082954D01*
X0085140Y0083009D01*
X0085155Y0083063D01*
X0085174Y0083116D01*
X0085196Y0083167D01*
X0085222Y0083216D01*
X0085251Y0083264D01*
X0085283Y0083310D01*
X0085319Y0083353D01*
X0085357Y0083394D01*
X0085398Y0083432D01*
X0085441Y0083468D01*
X0085487Y0083500D01*
X0085535Y0083529D01*
X0085584Y0083555D01*
X0085635Y0083577D01*
X0085688Y0083596D01*
X0085742Y0083611D01*
X0085797Y0083623D01*
X0085852Y0083631D01*
X0085908Y0083634D01*
X0085908Y0083578D01*
X0085854Y0083574D01*
X0085800Y0083566D01*
X0085747Y0083555D01*
X0085695Y0083539D01*
X0085644Y0083520D01*
X0085594Y0083497D01*
X0085546Y0083471D01*
X0085501Y0083442D01*
X0085457Y0083409D01*
X0085416Y0083374D01*
X0085377Y0083335D01*
X0085342Y0083294D01*
X0085309Y0083250D01*
X0085280Y0083205D01*
X0085254Y0083157D01*
X0085231Y0083107D01*
X0085212Y0083056D01*
X0085196Y0083004D01*
X0085185Y0082951D01*
X0085177Y0082897D01*
X0085173Y0082843D01*
X0086029Y0090356D02*
X0086029Y0090896D01*
X0086030Y0090896D02*
X0086082Y0090900D01*
X0086133Y0090907D01*
X0086183Y0090918D01*
X0086233Y0090933D01*
X0086281Y0090951D01*
X0086328Y0090973D01*
X0086374Y0090998D01*
X0086417Y0091026D01*
X0086458Y0091057D01*
X0086498Y0091091D01*
X0086534Y0091127D01*
X0086568Y0091167D01*
X0086599Y0091208D01*
X0086627Y0091251D01*
X0086652Y0091297D01*
X0086674Y0091344D01*
X0086692Y0091392D01*
X0086707Y0091442D01*
X0086718Y0091492D01*
X0086725Y0091543D01*
X0086729Y0091595D01*
X0087269Y0091596D01*
X0087270Y0091595D01*
X0087266Y0091526D01*
X0087259Y0091457D01*
X0087248Y0091389D01*
X0087233Y0091322D01*
X0087215Y0091255D01*
X0087193Y0091189D01*
X0087168Y0091125D01*
X0087139Y0091062D01*
X0087106Y0091001D01*
X0087071Y0090942D01*
X0087032Y0090885D01*
X0086990Y0090830D01*
X0086946Y0090777D01*
X0086898Y0090727D01*
X0086848Y0090679D01*
X0086795Y0090635D01*
X0086740Y0090593D01*
X0086683Y0090554D01*
X0086624Y0090519D01*
X0086563Y0090486D01*
X0086500Y0090457D01*
X0086436Y0090432D01*
X0086370Y0090410D01*
X0086303Y0090392D01*
X0086236Y0090377D01*
X0086168Y0090366D01*
X0086099Y0090359D01*
X0086030Y0090355D01*
X0086030Y0090411D01*
X0086098Y0090415D01*
X0086166Y0090422D01*
X0086234Y0090434D01*
X0086300Y0090449D01*
X0086366Y0090468D01*
X0086431Y0090490D01*
X0086494Y0090516D01*
X0086556Y0090546D01*
X0086616Y0090579D01*
X0086674Y0090615D01*
X0086729Y0090655D01*
X0086783Y0090697D01*
X0086834Y0090743D01*
X0086882Y0090791D01*
X0086928Y0090842D01*
X0086970Y0090896D01*
X0087010Y0090951D01*
X0087046Y0091009D01*
X0087079Y0091069D01*
X0087109Y0091131D01*
X0087135Y0091194D01*
X0087157Y0091259D01*
X0087176Y0091325D01*
X0087191Y0091391D01*
X0087203Y0091459D01*
X0087210Y0091527D01*
X0087214Y0091595D01*
X0087158Y0091595D01*
X0087154Y0091527D01*
X0087146Y0091460D01*
X0087135Y0091394D01*
X0087119Y0091328D01*
X0087100Y0091263D01*
X0087077Y0091199D01*
X0087050Y0091137D01*
X0087020Y0091077D01*
X0086986Y0091018D01*
X0086949Y0090961D01*
X0086909Y0090907D01*
X0086865Y0090855D01*
X0086819Y0090806D01*
X0086770Y0090760D01*
X0086718Y0090716D01*
X0086664Y0090676D01*
X0086607Y0090639D01*
X0086548Y0090605D01*
X0086488Y0090575D01*
X0086426Y0090548D01*
X0086362Y0090525D01*
X0086297Y0090506D01*
X0086231Y0090490D01*
X0086165Y0090479D01*
X0086098Y0090471D01*
X0086030Y0090467D01*
X0086030Y0090523D01*
X0086094Y0090527D01*
X0086158Y0090534D01*
X0086221Y0090545D01*
X0086284Y0090560D01*
X0086345Y0090579D01*
X0086406Y0090600D01*
X0086465Y0090626D01*
X0086522Y0090655D01*
X0086578Y0090687D01*
X0086632Y0090722D01*
X0086683Y0090760D01*
X0086732Y0090802D01*
X0086779Y0090846D01*
X0086823Y0090893D01*
X0086865Y0090942D01*
X0086903Y0090993D01*
X0086938Y0091047D01*
X0086970Y0091103D01*
X0086999Y0091160D01*
X0087025Y0091219D01*
X0087046Y0091280D01*
X0087065Y0091341D01*
X0087080Y0091404D01*
X0087091Y0091467D01*
X0087098Y0091531D01*
X0087102Y0091595D01*
X0087046Y0091595D01*
X0087042Y0091532D01*
X0087034Y0091469D01*
X0087023Y0091407D01*
X0087008Y0091345D01*
X0086989Y0091285D01*
X0086967Y0091225D01*
X0086941Y0091168D01*
X0086911Y0091112D01*
X0086879Y0091057D01*
X0086843Y0091005D01*
X0086804Y0090955D01*
X0086762Y0090908D01*
X0086717Y0090863D01*
X0086670Y0090821D01*
X0086620Y0090782D01*
X0086568Y0090746D01*
X0086513Y0090714D01*
X0086457Y0090684D01*
X0086400Y0090658D01*
X0086340Y0090636D01*
X0086280Y0090617D01*
X0086218Y0090602D01*
X0086156Y0090591D01*
X0086093Y0090583D01*
X0086030Y0090579D01*
X0086030Y0090635D01*
X0086092Y0090639D01*
X0086154Y0090647D01*
X0086215Y0090659D01*
X0086275Y0090674D01*
X0086335Y0090693D01*
X0086393Y0090716D01*
X0086449Y0090743D01*
X0086504Y0090773D01*
X0086556Y0090806D01*
X0086607Y0090843D01*
X0086655Y0090882D01*
X0086700Y0090925D01*
X0086743Y0090970D01*
X0086782Y0091018D01*
X0086819Y0091069D01*
X0086852Y0091121D01*
X0086882Y0091176D01*
X0086909Y0091232D01*
X0086932Y0091290D01*
X0086951Y0091350D01*
X0086966Y0091410D01*
X0086978Y0091471D01*
X0086986Y0091533D01*
X0086990Y0091595D01*
X0086934Y0091595D01*
X0086930Y0091537D01*
X0086922Y0091478D01*
X0086911Y0091421D01*
X0086897Y0091364D01*
X0086879Y0091308D01*
X0086857Y0091254D01*
X0086832Y0091201D01*
X0086804Y0091149D01*
X0086772Y0091100D01*
X0086738Y0091052D01*
X0086701Y0091007D01*
X0086660Y0090965D01*
X0086618Y0090924D01*
X0086573Y0090887D01*
X0086525Y0090853D01*
X0086476Y0090821D01*
X0086424Y0090793D01*
X0086371Y0090768D01*
X0086317Y0090746D01*
X0086261Y0090728D01*
X0086204Y0090714D01*
X0086147Y0090703D01*
X0086088Y0090695D01*
X0086030Y0090691D01*
X0086030Y0090748D01*
X0086087Y0090751D01*
X0086144Y0090759D01*
X0086200Y0090770D01*
X0086256Y0090785D01*
X0086310Y0090804D01*
X0086363Y0090826D01*
X0086414Y0090851D01*
X0086464Y0090880D01*
X0086512Y0090911D01*
X0086557Y0090946D01*
X0086600Y0090984D01*
X0086641Y0091025D01*
X0086679Y0091068D01*
X0086714Y0091113D01*
X0086745Y0091161D01*
X0086774Y0091211D01*
X0086799Y0091262D01*
X0086821Y0091315D01*
X0086840Y0091369D01*
X0086855Y0091425D01*
X0086866Y0091481D01*
X0086874Y0091538D01*
X0086877Y0091595D01*
X0086821Y0091595D01*
X0086818Y0091539D01*
X0086810Y0091484D01*
X0086798Y0091429D01*
X0086783Y0091375D01*
X0086764Y0091322D01*
X0086742Y0091271D01*
X0086716Y0091222D01*
X0086687Y0091174D01*
X0086655Y0091128D01*
X0086619Y0091085D01*
X0086581Y0091044D01*
X0086540Y0091006D01*
X0086497Y0090970D01*
X0086451Y0090938D01*
X0086403Y0090909D01*
X0086354Y0090883D01*
X0086303Y0090861D01*
X0086250Y0090842D01*
X0086196Y0090827D01*
X0086141Y0090815D01*
X0086086Y0090807D01*
X0086030Y0090804D01*
X0086030Y0090860D01*
X0086084Y0090864D01*
X0086138Y0090872D01*
X0086191Y0090883D01*
X0086243Y0090899D01*
X0086294Y0090918D01*
X0086344Y0090941D01*
X0086392Y0090967D01*
X0086437Y0090996D01*
X0086481Y0091029D01*
X0086522Y0091064D01*
X0086561Y0091103D01*
X0086596Y0091144D01*
X0086629Y0091188D01*
X0086658Y0091233D01*
X0086684Y0091281D01*
X0086707Y0091331D01*
X0086726Y0091382D01*
X0086742Y0091434D01*
X0086753Y0091487D01*
X0086761Y0091541D01*
X0086765Y0091595D01*
X0087269Y0098654D02*
X0086729Y0098654D01*
X0086729Y0098655D02*
X0086725Y0098707D01*
X0086718Y0098758D01*
X0086707Y0098808D01*
X0086692Y0098858D01*
X0086674Y0098906D01*
X0086652Y0098953D01*
X0086627Y0098999D01*
X0086599Y0099042D01*
X0086568Y0099083D01*
X0086534Y0099123D01*
X0086498Y0099159D01*
X0086458Y0099193D01*
X0086417Y0099224D01*
X0086374Y0099252D01*
X0086328Y0099277D01*
X0086281Y0099299D01*
X0086233Y0099317D01*
X0086183Y0099332D01*
X0086133Y0099343D01*
X0086082Y0099350D01*
X0086030Y0099354D01*
X0086029Y0099894D01*
X0086030Y0099895D01*
X0086099Y0099891D01*
X0086168Y0099884D01*
X0086236Y0099873D01*
X0086303Y0099858D01*
X0086370Y0099840D01*
X0086436Y0099818D01*
X0086500Y0099793D01*
X0086563Y0099764D01*
X0086624Y0099731D01*
X0086683Y0099696D01*
X0086740Y0099657D01*
X0086795Y0099615D01*
X0086848Y0099571D01*
X0086898Y0099523D01*
X0086946Y0099473D01*
X0086990Y0099420D01*
X0087032Y0099365D01*
X0087071Y0099308D01*
X0087106Y0099249D01*
X0087139Y0099188D01*
X0087168Y0099125D01*
X0087193Y0099061D01*
X0087215Y0098995D01*
X0087233Y0098928D01*
X0087248Y0098861D01*
X0087259Y0098793D01*
X0087266Y0098724D01*
X0087270Y0098655D01*
X0087214Y0098655D01*
X0087210Y0098723D01*
X0087203Y0098791D01*
X0087191Y0098859D01*
X0087176Y0098925D01*
X0087157Y0098991D01*
X0087135Y0099056D01*
X0087109Y0099119D01*
X0087079Y0099181D01*
X0087046Y0099241D01*
X0087010Y0099299D01*
X0086970Y0099354D01*
X0086928Y0099408D01*
X0086882Y0099459D01*
X0086834Y0099507D01*
X0086783Y0099553D01*
X0086729Y0099595D01*
X0086674Y0099635D01*
X0086616Y0099671D01*
X0086556Y0099704D01*
X0086494Y0099734D01*
X0086431Y0099760D01*
X0086366Y0099782D01*
X0086300Y0099801D01*
X0086234Y0099816D01*
X0086166Y0099828D01*
X0086098Y0099835D01*
X0086030Y0099839D01*
X0086030Y0099783D01*
X0086098Y0099779D01*
X0086165Y0099771D01*
X0086231Y0099760D01*
X0086297Y0099744D01*
X0086362Y0099725D01*
X0086426Y0099702D01*
X0086488Y0099675D01*
X0086548Y0099645D01*
X0086607Y0099611D01*
X0086664Y0099574D01*
X0086718Y0099534D01*
X0086770Y0099490D01*
X0086819Y0099444D01*
X0086865Y0099395D01*
X0086909Y0099343D01*
X0086949Y0099289D01*
X0086986Y0099232D01*
X0087020Y0099173D01*
X0087050Y0099113D01*
X0087077Y0099051D01*
X0087100Y0098987D01*
X0087119Y0098922D01*
X0087135Y0098856D01*
X0087146Y0098790D01*
X0087154Y0098723D01*
X0087158Y0098655D01*
X0087102Y0098655D01*
X0087098Y0098719D01*
X0087091Y0098783D01*
X0087080Y0098846D01*
X0087065Y0098909D01*
X0087046Y0098970D01*
X0087025Y0099031D01*
X0086999Y0099090D01*
X0086970Y0099147D01*
X0086938Y0099203D01*
X0086903Y0099257D01*
X0086865Y0099308D01*
X0086823Y0099357D01*
X0086779Y0099404D01*
X0086732Y0099448D01*
X0086683Y0099490D01*
X0086632Y0099528D01*
X0086578Y0099563D01*
X0086522Y0099595D01*
X0086465Y0099624D01*
X0086406Y0099650D01*
X0086345Y0099671D01*
X0086284Y0099690D01*
X0086221Y0099705D01*
X0086158Y0099716D01*
X0086094Y0099723D01*
X0086030Y0099727D01*
X0086030Y0099671D01*
X0086093Y0099667D01*
X0086156Y0099659D01*
X0086218Y0099648D01*
X0086280Y0099633D01*
X0086340Y0099614D01*
X0086400Y0099592D01*
X0086457Y0099566D01*
X0086513Y0099536D01*
X0086568Y0099504D01*
X0086620Y0099468D01*
X0086670Y0099429D01*
X0086717Y0099387D01*
X0086762Y0099342D01*
X0086804Y0099295D01*
X0086843Y0099245D01*
X0086879Y0099193D01*
X0086911Y0099138D01*
X0086941Y0099082D01*
X0086967Y0099025D01*
X0086989Y0098965D01*
X0087008Y0098905D01*
X0087023Y0098843D01*
X0087034Y0098781D01*
X0087042Y0098718D01*
X0087046Y0098655D01*
X0086990Y0098655D01*
X0086986Y0098717D01*
X0086978Y0098779D01*
X0086966Y0098840D01*
X0086951Y0098900D01*
X0086932Y0098960D01*
X0086909Y0099018D01*
X0086882Y0099074D01*
X0086852Y0099129D01*
X0086819Y0099181D01*
X0086782Y0099232D01*
X0086743Y0099280D01*
X0086700Y0099325D01*
X0086655Y0099368D01*
X0086607Y0099407D01*
X0086556Y0099444D01*
X0086504Y0099477D01*
X0086449Y0099507D01*
X0086393Y0099534D01*
X0086335Y0099557D01*
X0086275Y0099576D01*
X0086215Y0099591D01*
X0086154Y0099603D01*
X0086092Y0099611D01*
X0086030Y0099615D01*
X0086030Y0099559D01*
X0086088Y0099555D01*
X0086147Y0099547D01*
X0086204Y0099536D01*
X0086261Y0099522D01*
X0086317Y0099504D01*
X0086371Y0099482D01*
X0086424Y0099457D01*
X0086476Y0099429D01*
X0086525Y0099397D01*
X0086573Y0099363D01*
X0086618Y0099326D01*
X0086660Y0099285D01*
X0086701Y0099243D01*
X0086738Y0099198D01*
X0086772Y0099150D01*
X0086804Y0099101D01*
X0086832Y0099049D01*
X0086857Y0098996D01*
X0086879Y0098942D01*
X0086897Y0098886D01*
X0086911Y0098829D01*
X0086922Y0098772D01*
X0086930Y0098713D01*
X0086934Y0098655D01*
X0086877Y0098655D01*
X0086874Y0098712D01*
X0086866Y0098769D01*
X0086855Y0098825D01*
X0086840Y0098881D01*
X0086821Y0098935D01*
X0086799Y0098988D01*
X0086774Y0099039D01*
X0086745Y0099089D01*
X0086714Y0099137D01*
X0086679Y0099182D01*
X0086641Y0099225D01*
X0086600Y0099266D01*
X0086557Y0099304D01*
X0086512Y0099339D01*
X0086464Y0099370D01*
X0086414Y0099399D01*
X0086363Y0099424D01*
X0086310Y0099446D01*
X0086256Y0099465D01*
X0086200Y0099480D01*
X0086144Y0099491D01*
X0086087Y0099499D01*
X0086030Y0099502D01*
X0086030Y0099446D01*
X0086086Y0099443D01*
X0086141Y0099435D01*
X0086196Y0099423D01*
X0086250Y0099408D01*
X0086303Y0099389D01*
X0086354Y0099367D01*
X0086403Y0099341D01*
X0086451Y0099312D01*
X0086497Y0099280D01*
X0086540Y0099244D01*
X0086581Y0099206D01*
X0086619Y0099165D01*
X0086655Y0099122D01*
X0086687Y0099076D01*
X0086716Y0099028D01*
X0086742Y0098979D01*
X0086764Y0098928D01*
X0086783Y0098875D01*
X0086798Y0098821D01*
X0086810Y0098766D01*
X0086818Y0098711D01*
X0086821Y0098655D01*
X0086765Y0098655D01*
X0086761Y0098709D01*
X0086753Y0098763D01*
X0086742Y0098816D01*
X0086726Y0098868D01*
X0086707Y0098919D01*
X0086684Y0098969D01*
X0086658Y0099017D01*
X0086629Y0099062D01*
X0086596Y0099106D01*
X0086561Y0099147D01*
X0086522Y0099186D01*
X0086481Y0099221D01*
X0086437Y0099254D01*
X0086392Y0099283D01*
X0086344Y0099309D01*
X0086294Y0099332D01*
X0086243Y0099351D01*
X0086191Y0099367D01*
X0086138Y0099378D01*
X0086084Y0099386D01*
X0086030Y0099390D01*
X0110206Y0082842D02*
X0109666Y0082842D01*
X0109666Y0082843D02*
X0109662Y0082895D01*
X0109655Y0082946D01*
X0109644Y0082996D01*
X0109629Y0083046D01*
X0109611Y0083094D01*
X0109589Y0083141D01*
X0109564Y0083187D01*
X0109536Y0083230D01*
X0109505Y0083271D01*
X0109471Y0083311D01*
X0109435Y0083347D01*
X0109395Y0083381D01*
X0109354Y0083412D01*
X0109311Y0083440D01*
X0109265Y0083465D01*
X0109218Y0083487D01*
X0109170Y0083505D01*
X0109120Y0083520D01*
X0109070Y0083531D01*
X0109019Y0083538D01*
X0108967Y0083542D01*
X0108966Y0084082D01*
X0108967Y0084083D01*
X0109036Y0084079D01*
X0109105Y0084072D01*
X0109173Y0084061D01*
X0109240Y0084046D01*
X0109307Y0084028D01*
X0109373Y0084006D01*
X0109437Y0083981D01*
X0109500Y0083952D01*
X0109561Y0083919D01*
X0109620Y0083884D01*
X0109677Y0083845D01*
X0109732Y0083803D01*
X0109785Y0083759D01*
X0109835Y0083711D01*
X0109883Y0083661D01*
X0109927Y0083608D01*
X0109969Y0083553D01*
X0110008Y0083496D01*
X0110043Y0083437D01*
X0110076Y0083376D01*
X0110105Y0083313D01*
X0110130Y0083249D01*
X0110152Y0083183D01*
X0110170Y0083116D01*
X0110185Y0083049D01*
X0110196Y0082981D01*
X0110203Y0082912D01*
X0110207Y0082843D01*
X0110151Y0082843D01*
X0110147Y0082911D01*
X0110140Y0082979D01*
X0110128Y0083047D01*
X0110113Y0083113D01*
X0110094Y0083179D01*
X0110072Y0083244D01*
X0110046Y0083307D01*
X0110016Y0083369D01*
X0109983Y0083429D01*
X0109947Y0083487D01*
X0109907Y0083542D01*
X0109865Y0083596D01*
X0109819Y0083647D01*
X0109771Y0083695D01*
X0109720Y0083741D01*
X0109666Y0083783D01*
X0109611Y0083823D01*
X0109553Y0083859D01*
X0109493Y0083892D01*
X0109431Y0083922D01*
X0109368Y0083948D01*
X0109303Y0083970D01*
X0109237Y0083989D01*
X0109171Y0084004D01*
X0109103Y0084016D01*
X0109035Y0084023D01*
X0108967Y0084027D01*
X0108967Y0083971D01*
X0109035Y0083967D01*
X0109102Y0083959D01*
X0109168Y0083948D01*
X0109234Y0083932D01*
X0109299Y0083913D01*
X0109363Y0083890D01*
X0109425Y0083863D01*
X0109485Y0083833D01*
X0109544Y0083799D01*
X0109601Y0083762D01*
X0109655Y0083722D01*
X0109707Y0083678D01*
X0109756Y0083632D01*
X0109802Y0083583D01*
X0109846Y0083531D01*
X0109886Y0083477D01*
X0109923Y0083420D01*
X0109957Y0083361D01*
X0109987Y0083301D01*
X0110014Y0083239D01*
X0110037Y0083175D01*
X0110056Y0083110D01*
X0110072Y0083044D01*
X0110083Y0082978D01*
X0110091Y0082911D01*
X0110095Y0082843D01*
X0110039Y0082843D01*
X0110035Y0082907D01*
X0110028Y0082971D01*
X0110017Y0083034D01*
X0110002Y0083097D01*
X0109983Y0083158D01*
X0109962Y0083219D01*
X0109936Y0083278D01*
X0109907Y0083335D01*
X0109875Y0083391D01*
X0109840Y0083445D01*
X0109802Y0083496D01*
X0109760Y0083545D01*
X0109716Y0083592D01*
X0109669Y0083636D01*
X0109620Y0083678D01*
X0109569Y0083716D01*
X0109515Y0083751D01*
X0109459Y0083783D01*
X0109402Y0083812D01*
X0109343Y0083838D01*
X0109282Y0083859D01*
X0109221Y0083878D01*
X0109158Y0083893D01*
X0109095Y0083904D01*
X0109031Y0083911D01*
X0108967Y0083915D01*
X0108967Y0083859D01*
X0109030Y0083855D01*
X0109093Y0083847D01*
X0109155Y0083836D01*
X0109217Y0083821D01*
X0109277Y0083802D01*
X0109337Y0083780D01*
X0109394Y0083754D01*
X0109450Y0083724D01*
X0109505Y0083692D01*
X0109557Y0083656D01*
X0109607Y0083617D01*
X0109654Y0083575D01*
X0109699Y0083530D01*
X0109741Y0083483D01*
X0109780Y0083433D01*
X0109816Y0083381D01*
X0109848Y0083326D01*
X0109878Y0083270D01*
X0109904Y0083213D01*
X0109926Y0083153D01*
X0109945Y0083093D01*
X0109960Y0083031D01*
X0109971Y0082969D01*
X0109979Y0082906D01*
X0109983Y0082843D01*
X0109927Y0082843D01*
X0109923Y0082905D01*
X0109915Y0082967D01*
X0109903Y0083028D01*
X0109888Y0083088D01*
X0109869Y0083148D01*
X0109846Y0083206D01*
X0109819Y0083262D01*
X0109789Y0083317D01*
X0109756Y0083369D01*
X0109719Y0083420D01*
X0109680Y0083468D01*
X0109637Y0083513D01*
X0109592Y0083556D01*
X0109544Y0083595D01*
X0109493Y0083632D01*
X0109441Y0083665D01*
X0109386Y0083695D01*
X0109330Y0083722D01*
X0109272Y0083745D01*
X0109212Y0083764D01*
X0109152Y0083779D01*
X0109091Y0083791D01*
X0109029Y0083799D01*
X0108967Y0083803D01*
X0108967Y0083747D01*
X0109025Y0083743D01*
X0109084Y0083735D01*
X0109141Y0083724D01*
X0109198Y0083710D01*
X0109254Y0083692D01*
X0109308Y0083670D01*
X0109361Y0083645D01*
X0109413Y0083617D01*
X0109462Y0083585D01*
X0109510Y0083551D01*
X0109555Y0083514D01*
X0109597Y0083473D01*
X0109638Y0083431D01*
X0109675Y0083386D01*
X0109709Y0083338D01*
X0109741Y0083289D01*
X0109769Y0083237D01*
X0109794Y0083184D01*
X0109816Y0083130D01*
X0109834Y0083074D01*
X0109848Y0083017D01*
X0109859Y0082960D01*
X0109867Y0082901D01*
X0109871Y0082843D01*
X0109814Y0082843D01*
X0109811Y0082900D01*
X0109803Y0082957D01*
X0109792Y0083013D01*
X0109777Y0083069D01*
X0109758Y0083123D01*
X0109736Y0083176D01*
X0109711Y0083227D01*
X0109682Y0083277D01*
X0109651Y0083325D01*
X0109616Y0083370D01*
X0109578Y0083413D01*
X0109537Y0083454D01*
X0109494Y0083492D01*
X0109449Y0083527D01*
X0109401Y0083558D01*
X0109351Y0083587D01*
X0109300Y0083612D01*
X0109247Y0083634D01*
X0109193Y0083653D01*
X0109137Y0083668D01*
X0109081Y0083679D01*
X0109024Y0083687D01*
X0108967Y0083690D01*
X0108967Y0083634D01*
X0109023Y0083631D01*
X0109078Y0083623D01*
X0109133Y0083611D01*
X0109187Y0083596D01*
X0109240Y0083577D01*
X0109291Y0083555D01*
X0109340Y0083529D01*
X0109388Y0083500D01*
X0109434Y0083468D01*
X0109477Y0083432D01*
X0109518Y0083394D01*
X0109556Y0083353D01*
X0109592Y0083310D01*
X0109624Y0083264D01*
X0109653Y0083216D01*
X0109679Y0083167D01*
X0109701Y0083116D01*
X0109720Y0083063D01*
X0109735Y0083009D01*
X0109747Y0082954D01*
X0109755Y0082899D01*
X0109758Y0082843D01*
X0109702Y0082843D01*
X0109698Y0082897D01*
X0109690Y0082951D01*
X0109679Y0083004D01*
X0109663Y0083056D01*
X0109644Y0083107D01*
X0109621Y0083157D01*
X0109595Y0083205D01*
X0109566Y0083250D01*
X0109533Y0083294D01*
X0109498Y0083335D01*
X0109459Y0083374D01*
X0109418Y0083409D01*
X0109374Y0083442D01*
X0109329Y0083471D01*
X0109281Y0083497D01*
X0109231Y0083520D01*
X0109180Y0083539D01*
X0109128Y0083555D01*
X0109075Y0083566D01*
X0109021Y0083574D01*
X0108967Y0083578D01*
X0108966Y0074544D02*
X0108966Y0075084D01*
X0108967Y0075084D02*
X0109019Y0075088D01*
X0109070Y0075095D01*
X0109120Y0075106D01*
X0109170Y0075121D01*
X0109218Y0075139D01*
X0109265Y0075161D01*
X0109311Y0075186D01*
X0109354Y0075214D01*
X0109395Y0075245D01*
X0109435Y0075279D01*
X0109471Y0075315D01*
X0109505Y0075355D01*
X0109536Y0075396D01*
X0109564Y0075439D01*
X0109589Y0075485D01*
X0109611Y0075532D01*
X0109629Y0075580D01*
X0109644Y0075630D01*
X0109655Y0075680D01*
X0109662Y0075731D01*
X0109666Y0075783D01*
X0110206Y0075784D01*
X0110207Y0075783D01*
X0110203Y0075714D01*
X0110196Y0075645D01*
X0110185Y0075577D01*
X0110170Y0075510D01*
X0110152Y0075443D01*
X0110130Y0075377D01*
X0110105Y0075313D01*
X0110076Y0075250D01*
X0110043Y0075189D01*
X0110008Y0075130D01*
X0109969Y0075073D01*
X0109927Y0075018D01*
X0109883Y0074965D01*
X0109835Y0074915D01*
X0109785Y0074867D01*
X0109732Y0074823D01*
X0109677Y0074781D01*
X0109620Y0074742D01*
X0109561Y0074707D01*
X0109500Y0074674D01*
X0109437Y0074645D01*
X0109373Y0074620D01*
X0109307Y0074598D01*
X0109240Y0074580D01*
X0109173Y0074565D01*
X0109105Y0074554D01*
X0109036Y0074547D01*
X0108967Y0074543D01*
X0108967Y0074599D01*
X0109035Y0074603D01*
X0109103Y0074610D01*
X0109171Y0074622D01*
X0109237Y0074637D01*
X0109303Y0074656D01*
X0109368Y0074678D01*
X0109431Y0074704D01*
X0109493Y0074734D01*
X0109553Y0074767D01*
X0109611Y0074803D01*
X0109666Y0074843D01*
X0109720Y0074885D01*
X0109771Y0074931D01*
X0109819Y0074979D01*
X0109865Y0075030D01*
X0109907Y0075084D01*
X0109947Y0075139D01*
X0109983Y0075197D01*
X0110016Y0075257D01*
X0110046Y0075319D01*
X0110072Y0075382D01*
X0110094Y0075447D01*
X0110113Y0075513D01*
X0110128Y0075579D01*
X0110140Y0075647D01*
X0110147Y0075715D01*
X0110151Y0075783D01*
X0110095Y0075783D01*
X0110091Y0075715D01*
X0110083Y0075648D01*
X0110072Y0075582D01*
X0110056Y0075516D01*
X0110037Y0075451D01*
X0110014Y0075387D01*
X0109987Y0075325D01*
X0109957Y0075265D01*
X0109923Y0075206D01*
X0109886Y0075149D01*
X0109846Y0075095D01*
X0109802Y0075043D01*
X0109756Y0074994D01*
X0109707Y0074948D01*
X0109655Y0074904D01*
X0109601Y0074864D01*
X0109544Y0074827D01*
X0109485Y0074793D01*
X0109425Y0074763D01*
X0109363Y0074736D01*
X0109299Y0074713D01*
X0109234Y0074694D01*
X0109168Y0074678D01*
X0109102Y0074667D01*
X0109035Y0074659D01*
X0108967Y0074655D01*
X0108967Y0074711D01*
X0109031Y0074715D01*
X0109095Y0074722D01*
X0109158Y0074733D01*
X0109221Y0074748D01*
X0109282Y0074767D01*
X0109343Y0074788D01*
X0109402Y0074814D01*
X0109459Y0074843D01*
X0109515Y0074875D01*
X0109569Y0074910D01*
X0109620Y0074948D01*
X0109669Y0074990D01*
X0109716Y0075034D01*
X0109760Y0075081D01*
X0109802Y0075130D01*
X0109840Y0075181D01*
X0109875Y0075235D01*
X0109907Y0075291D01*
X0109936Y0075348D01*
X0109962Y0075407D01*
X0109983Y0075468D01*
X0110002Y0075529D01*
X0110017Y0075592D01*
X0110028Y0075655D01*
X0110035Y0075719D01*
X0110039Y0075783D01*
X0109983Y0075783D01*
X0109979Y0075720D01*
X0109971Y0075657D01*
X0109960Y0075595D01*
X0109945Y0075533D01*
X0109926Y0075473D01*
X0109904Y0075413D01*
X0109878Y0075356D01*
X0109848Y0075300D01*
X0109816Y0075245D01*
X0109780Y0075193D01*
X0109741Y0075143D01*
X0109699Y0075096D01*
X0109654Y0075051D01*
X0109607Y0075009D01*
X0109557Y0074970D01*
X0109505Y0074934D01*
X0109450Y0074902D01*
X0109394Y0074872D01*
X0109337Y0074846D01*
X0109277Y0074824D01*
X0109217Y0074805D01*
X0109155Y0074790D01*
X0109093Y0074779D01*
X0109030Y0074771D01*
X0108967Y0074767D01*
X0108967Y0074823D01*
X0109029Y0074827D01*
X0109091Y0074835D01*
X0109152Y0074847D01*
X0109212Y0074862D01*
X0109272Y0074881D01*
X0109330Y0074904D01*
X0109386Y0074931D01*
X0109441Y0074961D01*
X0109493Y0074994D01*
X0109544Y0075031D01*
X0109592Y0075070D01*
X0109637Y0075113D01*
X0109680Y0075158D01*
X0109719Y0075206D01*
X0109756Y0075257D01*
X0109789Y0075309D01*
X0109819Y0075364D01*
X0109846Y0075420D01*
X0109869Y0075478D01*
X0109888Y0075538D01*
X0109903Y0075598D01*
X0109915Y0075659D01*
X0109923Y0075721D01*
X0109927Y0075783D01*
X0109871Y0075783D01*
X0109867Y0075725D01*
X0109859Y0075666D01*
X0109848Y0075609D01*
X0109834Y0075552D01*
X0109816Y0075496D01*
X0109794Y0075442D01*
X0109769Y0075389D01*
X0109741Y0075337D01*
X0109709Y0075288D01*
X0109675Y0075240D01*
X0109638Y0075195D01*
X0109597Y0075153D01*
X0109555Y0075112D01*
X0109510Y0075075D01*
X0109462Y0075041D01*
X0109413Y0075009D01*
X0109361Y0074981D01*
X0109308Y0074956D01*
X0109254Y0074934D01*
X0109198Y0074916D01*
X0109141Y0074902D01*
X0109084Y0074891D01*
X0109025Y0074883D01*
X0108967Y0074879D01*
X0108967Y0074936D01*
X0109024Y0074939D01*
X0109081Y0074947D01*
X0109137Y0074958D01*
X0109193Y0074973D01*
X0109247Y0074992D01*
X0109300Y0075014D01*
X0109351Y0075039D01*
X0109401Y0075068D01*
X0109449Y0075099D01*
X0109494Y0075134D01*
X0109537Y0075172D01*
X0109578Y0075213D01*
X0109616Y0075256D01*
X0109651Y0075301D01*
X0109682Y0075349D01*
X0109711Y0075399D01*
X0109736Y0075450D01*
X0109758Y0075503D01*
X0109777Y0075557D01*
X0109792Y0075613D01*
X0109803Y0075669D01*
X0109811Y0075726D01*
X0109814Y0075783D01*
X0109758Y0075783D01*
X0109755Y0075727D01*
X0109747Y0075672D01*
X0109735Y0075617D01*
X0109720Y0075563D01*
X0109701Y0075510D01*
X0109679Y0075459D01*
X0109653Y0075410D01*
X0109624Y0075362D01*
X0109592Y0075316D01*
X0109556Y0075273D01*
X0109518Y0075232D01*
X0109477Y0075194D01*
X0109434Y0075158D01*
X0109388Y0075126D01*
X0109340Y0075097D01*
X0109291Y0075071D01*
X0109240Y0075049D01*
X0109187Y0075030D01*
X0109133Y0075015D01*
X0109078Y0075003D01*
X0109023Y0074995D01*
X0108967Y0074992D01*
X0108967Y0075048D01*
X0109021Y0075052D01*
X0109075Y0075060D01*
X0109128Y0075071D01*
X0109180Y0075087D01*
X0109231Y0075106D01*
X0109281Y0075129D01*
X0109329Y0075155D01*
X0109374Y0075184D01*
X0109418Y0075217D01*
X0109459Y0075252D01*
X0109498Y0075291D01*
X0109533Y0075332D01*
X0109566Y0075376D01*
X0109595Y0075421D01*
X0109621Y0075469D01*
X0109644Y0075519D01*
X0109663Y0075570D01*
X0109679Y0075622D01*
X0109690Y0075675D01*
X0109698Y0075729D01*
X0109702Y0075783D01*
X0110206Y0062529D02*
X0109666Y0062529D01*
X0109666Y0062530D02*
X0109662Y0062582D01*
X0109655Y0062633D01*
X0109644Y0062683D01*
X0109629Y0062733D01*
X0109611Y0062781D01*
X0109589Y0062828D01*
X0109564Y0062874D01*
X0109536Y0062917D01*
X0109505Y0062958D01*
X0109471Y0062998D01*
X0109435Y0063034D01*
X0109395Y0063068D01*
X0109354Y0063099D01*
X0109311Y0063127D01*
X0109265Y0063152D01*
X0109218Y0063174D01*
X0109170Y0063192D01*
X0109120Y0063207D01*
X0109070Y0063218D01*
X0109019Y0063225D01*
X0108967Y0063229D01*
X0108966Y0063769D01*
X0108967Y0063770D01*
X0109036Y0063766D01*
X0109105Y0063759D01*
X0109173Y0063748D01*
X0109240Y0063733D01*
X0109307Y0063715D01*
X0109373Y0063693D01*
X0109437Y0063668D01*
X0109500Y0063639D01*
X0109561Y0063606D01*
X0109620Y0063571D01*
X0109677Y0063532D01*
X0109732Y0063490D01*
X0109785Y0063446D01*
X0109835Y0063398D01*
X0109883Y0063348D01*
X0109927Y0063295D01*
X0109969Y0063240D01*
X0110008Y0063183D01*
X0110043Y0063124D01*
X0110076Y0063063D01*
X0110105Y0063000D01*
X0110130Y0062936D01*
X0110152Y0062870D01*
X0110170Y0062803D01*
X0110185Y0062736D01*
X0110196Y0062668D01*
X0110203Y0062599D01*
X0110207Y0062530D01*
X0110151Y0062530D01*
X0110147Y0062598D01*
X0110140Y0062666D01*
X0110128Y0062734D01*
X0110113Y0062800D01*
X0110094Y0062866D01*
X0110072Y0062931D01*
X0110046Y0062994D01*
X0110016Y0063056D01*
X0109983Y0063116D01*
X0109947Y0063174D01*
X0109907Y0063229D01*
X0109865Y0063283D01*
X0109819Y0063334D01*
X0109771Y0063382D01*
X0109720Y0063428D01*
X0109666Y0063470D01*
X0109611Y0063510D01*
X0109553Y0063546D01*
X0109493Y0063579D01*
X0109431Y0063609D01*
X0109368Y0063635D01*
X0109303Y0063657D01*
X0109237Y0063676D01*
X0109171Y0063691D01*
X0109103Y0063703D01*
X0109035Y0063710D01*
X0108967Y0063714D01*
X0108967Y0063658D01*
X0109035Y0063654D01*
X0109102Y0063646D01*
X0109168Y0063635D01*
X0109234Y0063619D01*
X0109299Y0063600D01*
X0109363Y0063577D01*
X0109425Y0063550D01*
X0109485Y0063520D01*
X0109544Y0063486D01*
X0109601Y0063449D01*
X0109655Y0063409D01*
X0109707Y0063365D01*
X0109756Y0063319D01*
X0109802Y0063270D01*
X0109846Y0063218D01*
X0109886Y0063164D01*
X0109923Y0063107D01*
X0109957Y0063048D01*
X0109987Y0062988D01*
X0110014Y0062926D01*
X0110037Y0062862D01*
X0110056Y0062797D01*
X0110072Y0062731D01*
X0110083Y0062665D01*
X0110091Y0062598D01*
X0110095Y0062530D01*
X0110039Y0062530D01*
X0110035Y0062594D01*
X0110028Y0062658D01*
X0110017Y0062721D01*
X0110002Y0062784D01*
X0109983Y0062845D01*
X0109962Y0062906D01*
X0109936Y0062965D01*
X0109907Y0063022D01*
X0109875Y0063078D01*
X0109840Y0063132D01*
X0109802Y0063183D01*
X0109760Y0063232D01*
X0109716Y0063279D01*
X0109669Y0063323D01*
X0109620Y0063365D01*
X0109569Y0063403D01*
X0109515Y0063438D01*
X0109459Y0063470D01*
X0109402Y0063499D01*
X0109343Y0063525D01*
X0109282Y0063546D01*
X0109221Y0063565D01*
X0109158Y0063580D01*
X0109095Y0063591D01*
X0109031Y0063598D01*
X0108967Y0063602D01*
X0108967Y0063546D01*
X0109030Y0063542D01*
X0109093Y0063534D01*
X0109155Y0063523D01*
X0109217Y0063508D01*
X0109277Y0063489D01*
X0109337Y0063467D01*
X0109394Y0063441D01*
X0109450Y0063411D01*
X0109505Y0063379D01*
X0109557Y0063343D01*
X0109607Y0063304D01*
X0109654Y0063262D01*
X0109699Y0063217D01*
X0109741Y0063170D01*
X0109780Y0063120D01*
X0109816Y0063068D01*
X0109848Y0063013D01*
X0109878Y0062957D01*
X0109904Y0062900D01*
X0109926Y0062840D01*
X0109945Y0062780D01*
X0109960Y0062718D01*
X0109971Y0062656D01*
X0109979Y0062593D01*
X0109983Y0062530D01*
X0109927Y0062530D01*
X0109923Y0062592D01*
X0109915Y0062654D01*
X0109903Y0062715D01*
X0109888Y0062775D01*
X0109869Y0062835D01*
X0109846Y0062893D01*
X0109819Y0062949D01*
X0109789Y0063004D01*
X0109756Y0063056D01*
X0109719Y0063107D01*
X0109680Y0063155D01*
X0109637Y0063200D01*
X0109592Y0063243D01*
X0109544Y0063282D01*
X0109493Y0063319D01*
X0109441Y0063352D01*
X0109386Y0063382D01*
X0109330Y0063409D01*
X0109272Y0063432D01*
X0109212Y0063451D01*
X0109152Y0063466D01*
X0109091Y0063478D01*
X0109029Y0063486D01*
X0108967Y0063490D01*
X0108967Y0063434D01*
X0109025Y0063430D01*
X0109084Y0063422D01*
X0109141Y0063411D01*
X0109198Y0063397D01*
X0109254Y0063379D01*
X0109308Y0063357D01*
X0109361Y0063332D01*
X0109413Y0063304D01*
X0109462Y0063272D01*
X0109510Y0063238D01*
X0109555Y0063201D01*
X0109597Y0063160D01*
X0109638Y0063118D01*
X0109675Y0063073D01*
X0109709Y0063025D01*
X0109741Y0062976D01*
X0109769Y0062924D01*
X0109794Y0062871D01*
X0109816Y0062817D01*
X0109834Y0062761D01*
X0109848Y0062704D01*
X0109859Y0062647D01*
X0109867Y0062588D01*
X0109871Y0062530D01*
X0109814Y0062530D01*
X0109811Y0062587D01*
X0109803Y0062644D01*
X0109792Y0062700D01*
X0109777Y0062756D01*
X0109758Y0062810D01*
X0109736Y0062863D01*
X0109711Y0062914D01*
X0109682Y0062964D01*
X0109651Y0063012D01*
X0109616Y0063057D01*
X0109578Y0063100D01*
X0109537Y0063141D01*
X0109494Y0063179D01*
X0109449Y0063214D01*
X0109401Y0063245D01*
X0109351Y0063274D01*
X0109300Y0063299D01*
X0109247Y0063321D01*
X0109193Y0063340D01*
X0109137Y0063355D01*
X0109081Y0063366D01*
X0109024Y0063374D01*
X0108967Y0063377D01*
X0108967Y0063321D01*
X0109023Y0063318D01*
X0109078Y0063310D01*
X0109133Y0063298D01*
X0109187Y0063283D01*
X0109240Y0063264D01*
X0109291Y0063242D01*
X0109340Y0063216D01*
X0109388Y0063187D01*
X0109434Y0063155D01*
X0109477Y0063119D01*
X0109518Y0063081D01*
X0109556Y0063040D01*
X0109592Y0062997D01*
X0109624Y0062951D01*
X0109653Y0062903D01*
X0109679Y0062854D01*
X0109701Y0062803D01*
X0109720Y0062750D01*
X0109735Y0062696D01*
X0109747Y0062641D01*
X0109755Y0062586D01*
X0109758Y0062530D01*
X0109702Y0062530D01*
X0109698Y0062584D01*
X0109690Y0062638D01*
X0109679Y0062691D01*
X0109663Y0062743D01*
X0109644Y0062794D01*
X0109621Y0062844D01*
X0109595Y0062892D01*
X0109566Y0062937D01*
X0109533Y0062981D01*
X0109498Y0063022D01*
X0109459Y0063061D01*
X0109418Y0063096D01*
X0109374Y0063129D01*
X0109329Y0063158D01*
X0109281Y0063184D01*
X0109231Y0063207D01*
X0109180Y0063226D01*
X0109128Y0063242D01*
X0109075Y0063253D01*
X0109021Y0063261D01*
X0108967Y0063265D01*
X0108966Y0054231D02*
X0108966Y0054771D01*
X0108967Y0054771D02*
X0109019Y0054775D01*
X0109070Y0054782D01*
X0109120Y0054793D01*
X0109170Y0054808D01*
X0109218Y0054826D01*
X0109265Y0054848D01*
X0109311Y0054873D01*
X0109354Y0054901D01*
X0109395Y0054932D01*
X0109435Y0054966D01*
X0109471Y0055002D01*
X0109505Y0055042D01*
X0109536Y0055083D01*
X0109564Y0055126D01*
X0109589Y0055172D01*
X0109611Y0055219D01*
X0109629Y0055267D01*
X0109644Y0055317D01*
X0109655Y0055367D01*
X0109662Y0055418D01*
X0109666Y0055470D01*
X0110206Y0055471D01*
X0110207Y0055470D01*
X0110203Y0055401D01*
X0110196Y0055332D01*
X0110185Y0055264D01*
X0110170Y0055197D01*
X0110152Y0055130D01*
X0110130Y0055064D01*
X0110105Y0055000D01*
X0110076Y0054937D01*
X0110043Y0054876D01*
X0110008Y0054817D01*
X0109969Y0054760D01*
X0109927Y0054705D01*
X0109883Y0054652D01*
X0109835Y0054602D01*
X0109785Y0054554D01*
X0109732Y0054510D01*
X0109677Y0054468D01*
X0109620Y0054429D01*
X0109561Y0054394D01*
X0109500Y0054361D01*
X0109437Y0054332D01*
X0109373Y0054307D01*
X0109307Y0054285D01*
X0109240Y0054267D01*
X0109173Y0054252D01*
X0109105Y0054241D01*
X0109036Y0054234D01*
X0108967Y0054230D01*
X0108967Y0054286D01*
X0109035Y0054290D01*
X0109103Y0054297D01*
X0109171Y0054309D01*
X0109237Y0054324D01*
X0109303Y0054343D01*
X0109368Y0054365D01*
X0109431Y0054391D01*
X0109493Y0054421D01*
X0109553Y0054454D01*
X0109611Y0054490D01*
X0109666Y0054530D01*
X0109720Y0054572D01*
X0109771Y0054618D01*
X0109819Y0054666D01*
X0109865Y0054717D01*
X0109907Y0054771D01*
X0109947Y0054826D01*
X0109983Y0054884D01*
X0110016Y0054944D01*
X0110046Y0055006D01*
X0110072Y0055069D01*
X0110094Y0055134D01*
X0110113Y0055200D01*
X0110128Y0055266D01*
X0110140Y0055334D01*
X0110147Y0055402D01*
X0110151Y0055470D01*
X0110095Y0055470D01*
X0110091Y0055402D01*
X0110083Y0055335D01*
X0110072Y0055269D01*
X0110056Y0055203D01*
X0110037Y0055138D01*
X0110014Y0055074D01*
X0109987Y0055012D01*
X0109957Y0054952D01*
X0109923Y0054893D01*
X0109886Y0054836D01*
X0109846Y0054782D01*
X0109802Y0054730D01*
X0109756Y0054681D01*
X0109707Y0054635D01*
X0109655Y0054591D01*
X0109601Y0054551D01*
X0109544Y0054514D01*
X0109485Y0054480D01*
X0109425Y0054450D01*
X0109363Y0054423D01*
X0109299Y0054400D01*
X0109234Y0054381D01*
X0109168Y0054365D01*
X0109102Y0054354D01*
X0109035Y0054346D01*
X0108967Y0054342D01*
X0108967Y0054398D01*
X0109031Y0054402D01*
X0109095Y0054409D01*
X0109158Y0054420D01*
X0109221Y0054435D01*
X0109282Y0054454D01*
X0109343Y0054475D01*
X0109402Y0054501D01*
X0109459Y0054530D01*
X0109515Y0054562D01*
X0109569Y0054597D01*
X0109620Y0054635D01*
X0109669Y0054677D01*
X0109716Y0054721D01*
X0109760Y0054768D01*
X0109802Y0054817D01*
X0109840Y0054868D01*
X0109875Y0054922D01*
X0109907Y0054978D01*
X0109936Y0055035D01*
X0109962Y0055094D01*
X0109983Y0055155D01*
X0110002Y0055216D01*
X0110017Y0055279D01*
X0110028Y0055342D01*
X0110035Y0055406D01*
X0110039Y0055470D01*
X0109983Y0055470D01*
X0109979Y0055407D01*
X0109971Y0055344D01*
X0109960Y0055282D01*
X0109945Y0055220D01*
X0109926Y0055160D01*
X0109904Y0055100D01*
X0109878Y0055043D01*
X0109848Y0054987D01*
X0109816Y0054932D01*
X0109780Y0054880D01*
X0109741Y0054830D01*
X0109699Y0054783D01*
X0109654Y0054738D01*
X0109607Y0054696D01*
X0109557Y0054657D01*
X0109505Y0054621D01*
X0109450Y0054589D01*
X0109394Y0054559D01*
X0109337Y0054533D01*
X0109277Y0054511D01*
X0109217Y0054492D01*
X0109155Y0054477D01*
X0109093Y0054466D01*
X0109030Y0054458D01*
X0108967Y0054454D01*
X0108967Y0054510D01*
X0109029Y0054514D01*
X0109091Y0054522D01*
X0109152Y0054534D01*
X0109212Y0054549D01*
X0109272Y0054568D01*
X0109330Y0054591D01*
X0109386Y0054618D01*
X0109441Y0054648D01*
X0109493Y0054681D01*
X0109544Y0054718D01*
X0109592Y0054757D01*
X0109637Y0054800D01*
X0109680Y0054845D01*
X0109719Y0054893D01*
X0109756Y0054944D01*
X0109789Y0054996D01*
X0109819Y0055051D01*
X0109846Y0055107D01*
X0109869Y0055165D01*
X0109888Y0055225D01*
X0109903Y0055285D01*
X0109915Y0055346D01*
X0109923Y0055408D01*
X0109927Y0055470D01*
X0109871Y0055470D01*
X0109867Y0055412D01*
X0109859Y0055353D01*
X0109848Y0055296D01*
X0109834Y0055239D01*
X0109816Y0055183D01*
X0109794Y0055129D01*
X0109769Y0055076D01*
X0109741Y0055024D01*
X0109709Y0054975D01*
X0109675Y0054927D01*
X0109638Y0054882D01*
X0109597Y0054840D01*
X0109555Y0054799D01*
X0109510Y0054762D01*
X0109462Y0054728D01*
X0109413Y0054696D01*
X0109361Y0054668D01*
X0109308Y0054643D01*
X0109254Y0054621D01*
X0109198Y0054603D01*
X0109141Y0054589D01*
X0109084Y0054578D01*
X0109025Y0054570D01*
X0108967Y0054566D01*
X0108967Y0054623D01*
X0109024Y0054626D01*
X0109081Y0054634D01*
X0109137Y0054645D01*
X0109193Y0054660D01*
X0109247Y0054679D01*
X0109300Y0054701D01*
X0109351Y0054726D01*
X0109401Y0054755D01*
X0109449Y0054786D01*
X0109494Y0054821D01*
X0109537Y0054859D01*
X0109578Y0054900D01*
X0109616Y0054943D01*
X0109651Y0054988D01*
X0109682Y0055036D01*
X0109711Y0055086D01*
X0109736Y0055137D01*
X0109758Y0055190D01*
X0109777Y0055244D01*
X0109792Y0055300D01*
X0109803Y0055356D01*
X0109811Y0055413D01*
X0109814Y0055470D01*
X0109758Y0055470D01*
X0109755Y0055414D01*
X0109747Y0055359D01*
X0109735Y0055304D01*
X0109720Y0055250D01*
X0109701Y0055197D01*
X0109679Y0055146D01*
X0109653Y0055097D01*
X0109624Y0055049D01*
X0109592Y0055003D01*
X0109556Y0054960D01*
X0109518Y0054919D01*
X0109477Y0054881D01*
X0109434Y0054845D01*
X0109388Y0054813D01*
X0109340Y0054784D01*
X0109291Y0054758D01*
X0109240Y0054736D01*
X0109187Y0054717D01*
X0109133Y0054702D01*
X0109078Y0054690D01*
X0109023Y0054682D01*
X0108967Y0054679D01*
X0108967Y0054735D01*
X0109021Y0054739D01*
X0109075Y0054747D01*
X0109128Y0054758D01*
X0109180Y0054774D01*
X0109231Y0054793D01*
X0109281Y0054816D01*
X0109329Y0054842D01*
X0109374Y0054871D01*
X0109418Y0054904D01*
X0109459Y0054939D01*
X0109498Y0054978D01*
X0109533Y0055019D01*
X0109566Y0055063D01*
X0109595Y0055108D01*
X0109621Y0055156D01*
X0109644Y0055206D01*
X0109663Y0055257D01*
X0109679Y0055309D01*
X0109690Y0055362D01*
X0109698Y0055416D01*
X0109702Y0055470D01*
X0084669Y0055471D02*
X0085209Y0055471D01*
X0085209Y0055470D02*
X0085213Y0055418D01*
X0085220Y0055367D01*
X0085231Y0055317D01*
X0085246Y0055267D01*
X0085264Y0055219D01*
X0085286Y0055172D01*
X0085311Y0055126D01*
X0085339Y0055083D01*
X0085370Y0055042D01*
X0085404Y0055002D01*
X0085440Y0054966D01*
X0085480Y0054932D01*
X0085521Y0054901D01*
X0085564Y0054873D01*
X0085610Y0054848D01*
X0085657Y0054826D01*
X0085705Y0054808D01*
X0085755Y0054793D01*
X0085805Y0054782D01*
X0085856Y0054775D01*
X0085908Y0054771D01*
X0085909Y0054231D01*
X0085908Y0054230D01*
X0085839Y0054234D01*
X0085770Y0054241D01*
X0085702Y0054252D01*
X0085635Y0054267D01*
X0085568Y0054285D01*
X0085502Y0054307D01*
X0085438Y0054332D01*
X0085375Y0054361D01*
X0085314Y0054394D01*
X0085255Y0054429D01*
X0085198Y0054468D01*
X0085143Y0054510D01*
X0085090Y0054554D01*
X0085040Y0054602D01*
X0084992Y0054652D01*
X0084948Y0054705D01*
X0084906Y0054760D01*
X0084867Y0054817D01*
X0084832Y0054876D01*
X0084799Y0054937D01*
X0084770Y0055000D01*
X0084745Y0055064D01*
X0084723Y0055130D01*
X0084705Y0055197D01*
X0084690Y0055264D01*
X0084679Y0055332D01*
X0084672Y0055401D01*
X0084668Y0055470D01*
X0084724Y0055470D01*
X0084728Y0055402D01*
X0084735Y0055334D01*
X0084747Y0055266D01*
X0084762Y0055200D01*
X0084781Y0055134D01*
X0084803Y0055069D01*
X0084829Y0055006D01*
X0084859Y0054944D01*
X0084892Y0054884D01*
X0084928Y0054826D01*
X0084968Y0054771D01*
X0085010Y0054717D01*
X0085056Y0054666D01*
X0085104Y0054618D01*
X0085155Y0054572D01*
X0085209Y0054530D01*
X0085264Y0054490D01*
X0085322Y0054454D01*
X0085382Y0054421D01*
X0085444Y0054391D01*
X0085507Y0054365D01*
X0085572Y0054343D01*
X0085638Y0054324D01*
X0085704Y0054309D01*
X0085772Y0054297D01*
X0085840Y0054290D01*
X0085908Y0054286D01*
X0085908Y0054342D01*
X0085840Y0054346D01*
X0085773Y0054354D01*
X0085707Y0054365D01*
X0085641Y0054381D01*
X0085576Y0054400D01*
X0085512Y0054423D01*
X0085450Y0054450D01*
X0085390Y0054480D01*
X0085331Y0054514D01*
X0085274Y0054551D01*
X0085220Y0054591D01*
X0085168Y0054635D01*
X0085119Y0054681D01*
X0085073Y0054730D01*
X0085029Y0054782D01*
X0084989Y0054836D01*
X0084952Y0054893D01*
X0084918Y0054952D01*
X0084888Y0055012D01*
X0084861Y0055074D01*
X0084838Y0055138D01*
X0084819Y0055203D01*
X0084803Y0055269D01*
X0084792Y0055335D01*
X0084784Y0055402D01*
X0084780Y0055470D01*
X0084836Y0055470D01*
X0084840Y0055406D01*
X0084847Y0055342D01*
X0084858Y0055279D01*
X0084873Y0055216D01*
X0084892Y0055155D01*
X0084913Y0055094D01*
X0084939Y0055035D01*
X0084968Y0054978D01*
X0085000Y0054922D01*
X0085035Y0054868D01*
X0085073Y0054817D01*
X0085115Y0054768D01*
X0085159Y0054721D01*
X0085206Y0054677D01*
X0085255Y0054635D01*
X0085306Y0054597D01*
X0085360Y0054562D01*
X0085416Y0054530D01*
X0085473Y0054501D01*
X0085532Y0054475D01*
X0085593Y0054454D01*
X0085654Y0054435D01*
X0085717Y0054420D01*
X0085780Y0054409D01*
X0085844Y0054402D01*
X0085908Y0054398D01*
X0085908Y0054454D01*
X0085845Y0054458D01*
X0085782Y0054466D01*
X0085720Y0054477D01*
X0085658Y0054492D01*
X0085598Y0054511D01*
X0085538Y0054533D01*
X0085481Y0054559D01*
X0085425Y0054589D01*
X0085370Y0054621D01*
X0085318Y0054657D01*
X0085268Y0054696D01*
X0085221Y0054738D01*
X0085176Y0054783D01*
X0085134Y0054830D01*
X0085095Y0054880D01*
X0085059Y0054932D01*
X0085027Y0054987D01*
X0084997Y0055043D01*
X0084971Y0055100D01*
X0084949Y0055160D01*
X0084930Y0055220D01*
X0084915Y0055282D01*
X0084904Y0055344D01*
X0084896Y0055407D01*
X0084892Y0055470D01*
X0084948Y0055470D01*
X0084952Y0055408D01*
X0084960Y0055346D01*
X0084972Y0055285D01*
X0084987Y0055225D01*
X0085006Y0055165D01*
X0085029Y0055107D01*
X0085056Y0055051D01*
X0085086Y0054996D01*
X0085119Y0054944D01*
X0085156Y0054893D01*
X0085195Y0054845D01*
X0085238Y0054800D01*
X0085283Y0054757D01*
X0085331Y0054718D01*
X0085382Y0054681D01*
X0085434Y0054648D01*
X0085489Y0054618D01*
X0085545Y0054591D01*
X0085603Y0054568D01*
X0085663Y0054549D01*
X0085723Y0054534D01*
X0085784Y0054522D01*
X0085846Y0054514D01*
X0085908Y0054510D01*
X0085908Y0054566D01*
X0085850Y0054570D01*
X0085791Y0054578D01*
X0085734Y0054589D01*
X0085677Y0054603D01*
X0085621Y0054621D01*
X0085567Y0054643D01*
X0085514Y0054668D01*
X0085462Y0054696D01*
X0085413Y0054728D01*
X0085365Y0054762D01*
X0085320Y0054799D01*
X0085278Y0054840D01*
X0085237Y0054882D01*
X0085200Y0054927D01*
X0085166Y0054975D01*
X0085134Y0055024D01*
X0085106Y0055076D01*
X0085081Y0055129D01*
X0085059Y0055183D01*
X0085041Y0055239D01*
X0085027Y0055296D01*
X0085016Y0055353D01*
X0085008Y0055412D01*
X0085004Y0055470D01*
X0085061Y0055470D01*
X0085064Y0055413D01*
X0085072Y0055356D01*
X0085083Y0055300D01*
X0085098Y0055244D01*
X0085117Y0055190D01*
X0085139Y0055137D01*
X0085164Y0055086D01*
X0085193Y0055036D01*
X0085224Y0054988D01*
X0085259Y0054943D01*
X0085297Y0054900D01*
X0085338Y0054859D01*
X0085381Y0054821D01*
X0085426Y0054786D01*
X0085474Y0054755D01*
X0085524Y0054726D01*
X0085575Y0054701D01*
X0085628Y0054679D01*
X0085682Y0054660D01*
X0085738Y0054645D01*
X0085794Y0054634D01*
X0085851Y0054626D01*
X0085908Y0054623D01*
X0085908Y0054679D01*
X0085852Y0054682D01*
X0085797Y0054690D01*
X0085742Y0054702D01*
X0085688Y0054717D01*
X0085635Y0054736D01*
X0085584Y0054758D01*
X0085535Y0054784D01*
X0085487Y0054813D01*
X0085441Y0054845D01*
X0085398Y0054881D01*
X0085357Y0054919D01*
X0085319Y0054960D01*
X0085283Y0055003D01*
X0085251Y0055049D01*
X0085222Y0055097D01*
X0085196Y0055146D01*
X0085174Y0055197D01*
X0085155Y0055250D01*
X0085140Y0055304D01*
X0085128Y0055359D01*
X0085120Y0055414D01*
X0085117Y0055470D01*
X0085173Y0055470D01*
X0085177Y0055416D01*
X0085185Y0055362D01*
X0085196Y0055309D01*
X0085212Y0055257D01*
X0085231Y0055206D01*
X0085254Y0055156D01*
X0085280Y0055108D01*
X0085309Y0055063D01*
X0085342Y0055019D01*
X0085377Y0054978D01*
X0085416Y0054939D01*
X0085457Y0054904D01*
X0085501Y0054871D01*
X0085546Y0054842D01*
X0085594Y0054816D01*
X0085644Y0054793D01*
X0085695Y0054774D01*
X0085747Y0054758D01*
X0085800Y0054747D01*
X0085854Y0054739D01*
X0085908Y0054735D01*
X0085909Y0063769D02*
X0085909Y0063229D01*
X0085908Y0063229D02*
X0085856Y0063225D01*
X0085805Y0063218D01*
X0085755Y0063207D01*
X0085705Y0063192D01*
X0085657Y0063174D01*
X0085610Y0063152D01*
X0085564Y0063127D01*
X0085521Y0063099D01*
X0085480Y0063068D01*
X0085440Y0063034D01*
X0085404Y0062998D01*
X0085370Y0062958D01*
X0085339Y0062917D01*
X0085311Y0062874D01*
X0085286Y0062828D01*
X0085264Y0062781D01*
X0085246Y0062733D01*
X0085231Y0062683D01*
X0085220Y0062633D01*
X0085213Y0062582D01*
X0085209Y0062530D01*
X0084669Y0062529D01*
X0084668Y0062530D01*
X0084672Y0062599D01*
X0084679Y0062668D01*
X0084690Y0062736D01*
X0084705Y0062803D01*
X0084723Y0062870D01*
X0084745Y0062936D01*
X0084770Y0063000D01*
X0084799Y0063063D01*
X0084832Y0063124D01*
X0084867Y0063183D01*
X0084906Y0063240D01*
X0084948Y0063295D01*
X0084992Y0063348D01*
X0085040Y0063398D01*
X0085090Y0063446D01*
X0085143Y0063490D01*
X0085198Y0063532D01*
X0085255Y0063571D01*
X0085314Y0063606D01*
X0085375Y0063639D01*
X0085438Y0063668D01*
X0085502Y0063693D01*
X0085568Y0063715D01*
X0085635Y0063733D01*
X0085702Y0063748D01*
X0085770Y0063759D01*
X0085839Y0063766D01*
X0085908Y0063770D01*
X0085908Y0063714D01*
X0085840Y0063710D01*
X0085772Y0063703D01*
X0085704Y0063691D01*
X0085638Y0063676D01*
X0085572Y0063657D01*
X0085507Y0063635D01*
X0085444Y0063609D01*
X0085382Y0063579D01*
X0085322Y0063546D01*
X0085264Y0063510D01*
X0085209Y0063470D01*
X0085155Y0063428D01*
X0085104Y0063382D01*
X0085056Y0063334D01*
X0085010Y0063283D01*
X0084968Y0063229D01*
X0084928Y0063174D01*
X0084892Y0063116D01*
X0084859Y0063056D01*
X0084829Y0062994D01*
X0084803Y0062931D01*
X0084781Y0062866D01*
X0084762Y0062800D01*
X0084747Y0062734D01*
X0084735Y0062666D01*
X0084728Y0062598D01*
X0084724Y0062530D01*
X0084780Y0062530D01*
X0084784Y0062598D01*
X0084792Y0062665D01*
X0084803Y0062731D01*
X0084819Y0062797D01*
X0084838Y0062862D01*
X0084861Y0062926D01*
X0084888Y0062988D01*
X0084918Y0063048D01*
X0084952Y0063107D01*
X0084989Y0063164D01*
X0085029Y0063218D01*
X0085073Y0063270D01*
X0085119Y0063319D01*
X0085168Y0063365D01*
X0085220Y0063409D01*
X0085274Y0063449D01*
X0085331Y0063486D01*
X0085390Y0063520D01*
X0085450Y0063550D01*
X0085512Y0063577D01*
X0085576Y0063600D01*
X0085641Y0063619D01*
X0085707Y0063635D01*
X0085773Y0063646D01*
X0085840Y0063654D01*
X0085908Y0063658D01*
X0085908Y0063602D01*
X0085844Y0063598D01*
X0085780Y0063591D01*
X0085717Y0063580D01*
X0085654Y0063565D01*
X0085593Y0063546D01*
X0085532Y0063525D01*
X0085473Y0063499D01*
X0085416Y0063470D01*
X0085360Y0063438D01*
X0085306Y0063403D01*
X0085255Y0063365D01*
X0085206Y0063323D01*
X0085159Y0063279D01*
X0085115Y0063232D01*
X0085073Y0063183D01*
X0085035Y0063132D01*
X0085000Y0063078D01*
X0084968Y0063022D01*
X0084939Y0062965D01*
X0084913Y0062906D01*
X0084892Y0062845D01*
X0084873Y0062784D01*
X0084858Y0062721D01*
X0084847Y0062658D01*
X0084840Y0062594D01*
X0084836Y0062530D01*
X0084892Y0062530D01*
X0084896Y0062593D01*
X0084904Y0062656D01*
X0084915Y0062718D01*
X0084930Y0062780D01*
X0084949Y0062840D01*
X0084971Y0062900D01*
X0084997Y0062957D01*
X0085027Y0063013D01*
X0085059Y0063068D01*
X0085095Y0063120D01*
X0085134Y0063170D01*
X0085176Y0063217D01*
X0085221Y0063262D01*
X0085268Y0063304D01*
X0085318Y0063343D01*
X0085370Y0063379D01*
X0085425Y0063411D01*
X0085481Y0063441D01*
X0085538Y0063467D01*
X0085598Y0063489D01*
X0085658Y0063508D01*
X0085720Y0063523D01*
X0085782Y0063534D01*
X0085845Y0063542D01*
X0085908Y0063546D01*
X0085908Y0063490D01*
X0085846Y0063486D01*
X0085784Y0063478D01*
X0085723Y0063466D01*
X0085663Y0063451D01*
X0085603Y0063432D01*
X0085545Y0063409D01*
X0085489Y0063382D01*
X0085434Y0063352D01*
X0085382Y0063319D01*
X0085331Y0063282D01*
X0085283Y0063243D01*
X0085238Y0063200D01*
X0085195Y0063155D01*
X0085156Y0063107D01*
X0085119Y0063056D01*
X0085086Y0063004D01*
X0085056Y0062949D01*
X0085029Y0062893D01*
X0085006Y0062835D01*
X0084987Y0062775D01*
X0084972Y0062715D01*
X0084960Y0062654D01*
X0084952Y0062592D01*
X0084948Y0062530D01*
X0085004Y0062530D01*
X0085008Y0062588D01*
X0085016Y0062647D01*
X0085027Y0062704D01*
X0085041Y0062761D01*
X0085059Y0062817D01*
X0085081Y0062871D01*
X0085106Y0062924D01*
X0085134Y0062976D01*
X0085166Y0063025D01*
X0085200Y0063073D01*
X0085237Y0063118D01*
X0085278Y0063160D01*
X0085320Y0063201D01*
X0085365Y0063238D01*
X0085413Y0063272D01*
X0085462Y0063304D01*
X0085514Y0063332D01*
X0085567Y0063357D01*
X0085621Y0063379D01*
X0085677Y0063397D01*
X0085734Y0063411D01*
X0085791Y0063422D01*
X0085850Y0063430D01*
X0085908Y0063434D01*
X0085908Y0063377D01*
X0085851Y0063374D01*
X0085794Y0063366D01*
X0085738Y0063355D01*
X0085682Y0063340D01*
X0085628Y0063321D01*
X0085575Y0063299D01*
X0085524Y0063274D01*
X0085474Y0063245D01*
X0085426Y0063214D01*
X0085381Y0063179D01*
X0085338Y0063141D01*
X0085297Y0063100D01*
X0085259Y0063057D01*
X0085224Y0063012D01*
X0085193Y0062964D01*
X0085164Y0062914D01*
X0085139Y0062863D01*
X0085117Y0062810D01*
X0085098Y0062756D01*
X0085083Y0062700D01*
X0085072Y0062644D01*
X0085064Y0062587D01*
X0085061Y0062530D01*
X0085117Y0062530D01*
X0085120Y0062586D01*
X0085128Y0062641D01*
X0085140Y0062696D01*
X0085155Y0062750D01*
X0085174Y0062803D01*
X0085196Y0062854D01*
X0085222Y0062903D01*
X0085251Y0062951D01*
X0085283Y0062997D01*
X0085319Y0063040D01*
X0085357Y0063081D01*
X0085398Y0063119D01*
X0085441Y0063155D01*
X0085487Y0063187D01*
X0085535Y0063216D01*
X0085584Y0063242D01*
X0085635Y0063264D01*
X0085688Y0063283D01*
X0085742Y0063298D01*
X0085797Y0063310D01*
X0085852Y0063318D01*
X0085908Y0063321D01*
X0085908Y0063265D01*
X0085854Y0063261D01*
X0085800Y0063253D01*
X0085747Y0063242D01*
X0085695Y0063226D01*
X0085644Y0063207D01*
X0085594Y0063184D01*
X0085546Y0063158D01*
X0085501Y0063129D01*
X0085457Y0063096D01*
X0085416Y0063061D01*
X0085377Y0063022D01*
X0085342Y0062981D01*
X0085309Y0062937D01*
X0085280Y0062892D01*
X0085254Y0062844D01*
X0085231Y0062794D01*
X0085212Y0062743D01*
X0085196Y0062691D01*
X0085185Y0062638D01*
X0085177Y0062584D01*
X0085173Y0062530D01*
X0061731Y0091596D02*
X0062271Y0091596D01*
X0062271Y0091595D02*
X0062275Y0091543D01*
X0062282Y0091492D01*
X0062293Y0091442D01*
X0062308Y0091392D01*
X0062326Y0091344D01*
X0062348Y0091297D01*
X0062373Y0091251D01*
X0062401Y0091208D01*
X0062432Y0091167D01*
X0062466Y0091127D01*
X0062502Y0091091D01*
X0062542Y0091057D01*
X0062583Y0091026D01*
X0062626Y0090998D01*
X0062672Y0090973D01*
X0062719Y0090951D01*
X0062767Y0090933D01*
X0062817Y0090918D01*
X0062867Y0090907D01*
X0062918Y0090900D01*
X0062970Y0090896D01*
X0062971Y0090356D01*
X0062970Y0090355D01*
X0062901Y0090359D01*
X0062832Y0090366D01*
X0062764Y0090377D01*
X0062697Y0090392D01*
X0062630Y0090410D01*
X0062564Y0090432D01*
X0062500Y0090457D01*
X0062437Y0090486D01*
X0062376Y0090519D01*
X0062317Y0090554D01*
X0062260Y0090593D01*
X0062205Y0090635D01*
X0062152Y0090679D01*
X0062102Y0090727D01*
X0062054Y0090777D01*
X0062010Y0090830D01*
X0061968Y0090885D01*
X0061929Y0090942D01*
X0061894Y0091001D01*
X0061861Y0091062D01*
X0061832Y0091125D01*
X0061807Y0091189D01*
X0061785Y0091255D01*
X0061767Y0091322D01*
X0061752Y0091389D01*
X0061741Y0091457D01*
X0061734Y0091526D01*
X0061730Y0091595D01*
X0061786Y0091595D01*
X0061790Y0091527D01*
X0061797Y0091459D01*
X0061809Y0091391D01*
X0061824Y0091325D01*
X0061843Y0091259D01*
X0061865Y0091194D01*
X0061891Y0091131D01*
X0061921Y0091069D01*
X0061954Y0091009D01*
X0061990Y0090951D01*
X0062030Y0090896D01*
X0062072Y0090842D01*
X0062118Y0090791D01*
X0062166Y0090743D01*
X0062217Y0090697D01*
X0062271Y0090655D01*
X0062326Y0090615D01*
X0062384Y0090579D01*
X0062444Y0090546D01*
X0062506Y0090516D01*
X0062569Y0090490D01*
X0062634Y0090468D01*
X0062700Y0090449D01*
X0062766Y0090434D01*
X0062834Y0090422D01*
X0062902Y0090415D01*
X0062970Y0090411D01*
X0062970Y0090467D01*
X0062902Y0090471D01*
X0062835Y0090479D01*
X0062769Y0090490D01*
X0062703Y0090506D01*
X0062638Y0090525D01*
X0062574Y0090548D01*
X0062512Y0090575D01*
X0062452Y0090605D01*
X0062393Y0090639D01*
X0062336Y0090676D01*
X0062282Y0090716D01*
X0062230Y0090760D01*
X0062181Y0090806D01*
X0062135Y0090855D01*
X0062091Y0090907D01*
X0062051Y0090961D01*
X0062014Y0091018D01*
X0061980Y0091077D01*
X0061950Y0091137D01*
X0061923Y0091199D01*
X0061900Y0091263D01*
X0061881Y0091328D01*
X0061865Y0091394D01*
X0061854Y0091460D01*
X0061846Y0091527D01*
X0061842Y0091595D01*
X0061898Y0091595D01*
X0061902Y0091531D01*
X0061909Y0091467D01*
X0061920Y0091404D01*
X0061935Y0091341D01*
X0061954Y0091280D01*
X0061975Y0091219D01*
X0062001Y0091160D01*
X0062030Y0091103D01*
X0062062Y0091047D01*
X0062097Y0090993D01*
X0062135Y0090942D01*
X0062177Y0090893D01*
X0062221Y0090846D01*
X0062268Y0090802D01*
X0062317Y0090760D01*
X0062368Y0090722D01*
X0062422Y0090687D01*
X0062478Y0090655D01*
X0062535Y0090626D01*
X0062594Y0090600D01*
X0062655Y0090579D01*
X0062716Y0090560D01*
X0062779Y0090545D01*
X0062842Y0090534D01*
X0062906Y0090527D01*
X0062970Y0090523D01*
X0062970Y0090579D01*
X0062907Y0090583D01*
X0062844Y0090591D01*
X0062782Y0090602D01*
X0062720Y0090617D01*
X0062660Y0090636D01*
X0062600Y0090658D01*
X0062543Y0090684D01*
X0062487Y0090714D01*
X0062432Y0090746D01*
X0062380Y0090782D01*
X0062330Y0090821D01*
X0062283Y0090863D01*
X0062238Y0090908D01*
X0062196Y0090955D01*
X0062157Y0091005D01*
X0062121Y0091057D01*
X0062089Y0091112D01*
X0062059Y0091168D01*
X0062033Y0091225D01*
X0062011Y0091285D01*
X0061992Y0091345D01*
X0061977Y0091407D01*
X0061966Y0091469D01*
X0061958Y0091532D01*
X0061954Y0091595D01*
X0062010Y0091595D01*
X0062014Y0091533D01*
X0062022Y0091471D01*
X0062034Y0091410D01*
X0062049Y0091350D01*
X0062068Y0091290D01*
X0062091Y0091232D01*
X0062118Y0091176D01*
X0062148Y0091121D01*
X0062181Y0091069D01*
X0062218Y0091018D01*
X0062257Y0090970D01*
X0062300Y0090925D01*
X0062345Y0090882D01*
X0062393Y0090843D01*
X0062444Y0090806D01*
X0062496Y0090773D01*
X0062551Y0090743D01*
X0062607Y0090716D01*
X0062665Y0090693D01*
X0062725Y0090674D01*
X0062785Y0090659D01*
X0062846Y0090647D01*
X0062908Y0090639D01*
X0062970Y0090635D01*
X0062970Y0090691D01*
X0062912Y0090695D01*
X0062853Y0090703D01*
X0062796Y0090714D01*
X0062739Y0090728D01*
X0062683Y0090746D01*
X0062629Y0090768D01*
X0062576Y0090793D01*
X0062524Y0090821D01*
X0062475Y0090853D01*
X0062427Y0090887D01*
X0062382Y0090924D01*
X0062340Y0090965D01*
X0062299Y0091007D01*
X0062262Y0091052D01*
X0062228Y0091100D01*
X0062196Y0091149D01*
X0062168Y0091201D01*
X0062143Y0091254D01*
X0062121Y0091308D01*
X0062103Y0091364D01*
X0062089Y0091421D01*
X0062078Y0091478D01*
X0062070Y0091537D01*
X0062066Y0091595D01*
X0062123Y0091595D01*
X0062126Y0091538D01*
X0062134Y0091481D01*
X0062145Y0091425D01*
X0062160Y0091369D01*
X0062179Y0091315D01*
X0062201Y0091262D01*
X0062226Y0091211D01*
X0062255Y0091161D01*
X0062286Y0091113D01*
X0062321Y0091068D01*
X0062359Y0091025D01*
X0062400Y0090984D01*
X0062443Y0090946D01*
X0062488Y0090911D01*
X0062536Y0090880D01*
X0062586Y0090851D01*
X0062637Y0090826D01*
X0062690Y0090804D01*
X0062744Y0090785D01*
X0062800Y0090770D01*
X0062856Y0090759D01*
X0062913Y0090751D01*
X0062970Y0090748D01*
X0062970Y0090804D01*
X0062914Y0090807D01*
X0062859Y0090815D01*
X0062804Y0090827D01*
X0062750Y0090842D01*
X0062697Y0090861D01*
X0062646Y0090883D01*
X0062597Y0090909D01*
X0062549Y0090938D01*
X0062503Y0090970D01*
X0062460Y0091006D01*
X0062419Y0091044D01*
X0062381Y0091085D01*
X0062345Y0091128D01*
X0062313Y0091174D01*
X0062284Y0091222D01*
X0062258Y0091271D01*
X0062236Y0091322D01*
X0062217Y0091375D01*
X0062202Y0091429D01*
X0062190Y0091484D01*
X0062182Y0091539D01*
X0062179Y0091595D01*
X0062235Y0091595D01*
X0062239Y0091541D01*
X0062247Y0091487D01*
X0062258Y0091434D01*
X0062274Y0091382D01*
X0062293Y0091331D01*
X0062316Y0091281D01*
X0062342Y0091233D01*
X0062371Y0091188D01*
X0062404Y0091144D01*
X0062439Y0091103D01*
X0062478Y0091064D01*
X0062519Y0091029D01*
X0062563Y0090996D01*
X0062608Y0090967D01*
X0062656Y0090941D01*
X0062706Y0090918D01*
X0062757Y0090899D01*
X0062809Y0090883D01*
X0062862Y0090872D01*
X0062916Y0090864D01*
X0062970Y0090860D01*
X0062971Y0099894D02*
X0062971Y0099354D01*
X0062970Y0099354D02*
X0062918Y0099350D01*
X0062867Y0099343D01*
X0062817Y0099332D01*
X0062767Y0099317D01*
X0062719Y0099299D01*
X0062672Y0099277D01*
X0062626Y0099252D01*
X0062583Y0099224D01*
X0062542Y0099193D01*
X0062502Y0099159D01*
X0062466Y0099123D01*
X0062432Y0099083D01*
X0062401Y0099042D01*
X0062373Y0098999D01*
X0062348Y0098953D01*
X0062326Y0098906D01*
X0062308Y0098858D01*
X0062293Y0098808D01*
X0062282Y0098758D01*
X0062275Y0098707D01*
X0062271Y0098655D01*
X0061731Y0098654D01*
X0061730Y0098655D01*
X0061734Y0098724D01*
X0061741Y0098793D01*
X0061752Y0098861D01*
X0061767Y0098928D01*
X0061785Y0098995D01*
X0061807Y0099061D01*
X0061832Y0099125D01*
X0061861Y0099188D01*
X0061894Y0099249D01*
X0061929Y0099308D01*
X0061968Y0099365D01*
X0062010Y0099420D01*
X0062054Y0099473D01*
X0062102Y0099523D01*
X0062152Y0099571D01*
X0062205Y0099615D01*
X0062260Y0099657D01*
X0062317Y0099696D01*
X0062376Y0099731D01*
X0062437Y0099764D01*
X0062500Y0099793D01*
X0062564Y0099818D01*
X0062630Y0099840D01*
X0062697Y0099858D01*
X0062764Y0099873D01*
X0062832Y0099884D01*
X0062901Y0099891D01*
X0062970Y0099895D01*
X0062970Y0099839D01*
X0062902Y0099835D01*
X0062834Y0099828D01*
X0062766Y0099816D01*
X0062700Y0099801D01*
X0062634Y0099782D01*
X0062569Y0099760D01*
X0062506Y0099734D01*
X0062444Y0099704D01*
X0062384Y0099671D01*
X0062326Y0099635D01*
X0062271Y0099595D01*
X0062217Y0099553D01*
X0062166Y0099507D01*
X0062118Y0099459D01*
X0062072Y0099408D01*
X0062030Y0099354D01*
X0061990Y0099299D01*
X0061954Y0099241D01*
X0061921Y0099181D01*
X0061891Y0099119D01*
X0061865Y0099056D01*
X0061843Y0098991D01*
X0061824Y0098925D01*
X0061809Y0098859D01*
X0061797Y0098791D01*
X0061790Y0098723D01*
X0061786Y0098655D01*
X0061842Y0098655D01*
X0061846Y0098723D01*
X0061854Y0098790D01*
X0061865Y0098856D01*
X0061881Y0098922D01*
X0061900Y0098987D01*
X0061923Y0099051D01*
X0061950Y0099113D01*
X0061980Y0099173D01*
X0062014Y0099232D01*
X0062051Y0099289D01*
X0062091Y0099343D01*
X0062135Y0099395D01*
X0062181Y0099444D01*
X0062230Y0099490D01*
X0062282Y0099534D01*
X0062336Y0099574D01*
X0062393Y0099611D01*
X0062452Y0099645D01*
X0062512Y0099675D01*
X0062574Y0099702D01*
X0062638Y0099725D01*
X0062703Y0099744D01*
X0062769Y0099760D01*
X0062835Y0099771D01*
X0062902Y0099779D01*
X0062970Y0099783D01*
X0062970Y0099727D01*
X0062906Y0099723D01*
X0062842Y0099716D01*
X0062779Y0099705D01*
X0062716Y0099690D01*
X0062655Y0099671D01*
X0062594Y0099650D01*
X0062535Y0099624D01*
X0062478Y0099595D01*
X0062422Y0099563D01*
X0062368Y0099528D01*
X0062317Y0099490D01*
X0062268Y0099448D01*
X0062221Y0099404D01*
X0062177Y0099357D01*
X0062135Y0099308D01*
X0062097Y0099257D01*
X0062062Y0099203D01*
X0062030Y0099147D01*
X0062001Y0099090D01*
X0061975Y0099031D01*
X0061954Y0098970D01*
X0061935Y0098909D01*
X0061920Y0098846D01*
X0061909Y0098783D01*
X0061902Y0098719D01*
X0061898Y0098655D01*
X0061954Y0098655D01*
X0061958Y0098718D01*
X0061966Y0098781D01*
X0061977Y0098843D01*
X0061992Y0098905D01*
X0062011Y0098965D01*
X0062033Y0099025D01*
X0062059Y0099082D01*
X0062089Y0099138D01*
X0062121Y0099193D01*
X0062157Y0099245D01*
X0062196Y0099295D01*
X0062238Y0099342D01*
X0062283Y0099387D01*
X0062330Y0099429D01*
X0062380Y0099468D01*
X0062432Y0099504D01*
X0062487Y0099536D01*
X0062543Y0099566D01*
X0062600Y0099592D01*
X0062660Y0099614D01*
X0062720Y0099633D01*
X0062782Y0099648D01*
X0062844Y0099659D01*
X0062907Y0099667D01*
X0062970Y0099671D01*
X0062970Y0099615D01*
X0062908Y0099611D01*
X0062846Y0099603D01*
X0062785Y0099591D01*
X0062725Y0099576D01*
X0062665Y0099557D01*
X0062607Y0099534D01*
X0062551Y0099507D01*
X0062496Y0099477D01*
X0062444Y0099444D01*
X0062393Y0099407D01*
X0062345Y0099368D01*
X0062300Y0099325D01*
X0062257Y0099280D01*
X0062218Y0099232D01*
X0062181Y0099181D01*
X0062148Y0099129D01*
X0062118Y0099074D01*
X0062091Y0099018D01*
X0062068Y0098960D01*
X0062049Y0098900D01*
X0062034Y0098840D01*
X0062022Y0098779D01*
X0062014Y0098717D01*
X0062010Y0098655D01*
X0062066Y0098655D01*
X0062070Y0098713D01*
X0062078Y0098772D01*
X0062089Y0098829D01*
X0062103Y0098886D01*
X0062121Y0098942D01*
X0062143Y0098996D01*
X0062168Y0099049D01*
X0062196Y0099101D01*
X0062228Y0099150D01*
X0062262Y0099198D01*
X0062299Y0099243D01*
X0062340Y0099285D01*
X0062382Y0099326D01*
X0062427Y0099363D01*
X0062475Y0099397D01*
X0062524Y0099429D01*
X0062576Y0099457D01*
X0062629Y0099482D01*
X0062683Y0099504D01*
X0062739Y0099522D01*
X0062796Y0099536D01*
X0062853Y0099547D01*
X0062912Y0099555D01*
X0062970Y0099559D01*
X0062970Y0099502D01*
X0062913Y0099499D01*
X0062856Y0099491D01*
X0062800Y0099480D01*
X0062744Y0099465D01*
X0062690Y0099446D01*
X0062637Y0099424D01*
X0062586Y0099399D01*
X0062536Y0099370D01*
X0062488Y0099339D01*
X0062443Y0099304D01*
X0062400Y0099266D01*
X0062359Y0099225D01*
X0062321Y0099182D01*
X0062286Y0099137D01*
X0062255Y0099089D01*
X0062226Y0099039D01*
X0062201Y0098988D01*
X0062179Y0098935D01*
X0062160Y0098881D01*
X0062145Y0098825D01*
X0062134Y0098769D01*
X0062126Y0098712D01*
X0062123Y0098655D01*
X0062179Y0098655D01*
X0062182Y0098711D01*
X0062190Y0098766D01*
X0062202Y0098821D01*
X0062217Y0098875D01*
X0062236Y0098928D01*
X0062258Y0098979D01*
X0062284Y0099028D01*
X0062313Y0099076D01*
X0062345Y0099122D01*
X0062381Y0099165D01*
X0062419Y0099206D01*
X0062460Y0099244D01*
X0062503Y0099280D01*
X0062549Y0099312D01*
X0062597Y0099341D01*
X0062646Y0099367D01*
X0062697Y0099389D01*
X0062750Y0099408D01*
X0062804Y0099423D01*
X0062859Y0099435D01*
X0062914Y0099443D01*
X0062970Y0099446D01*
X0062970Y0099390D01*
X0062916Y0099386D01*
X0062862Y0099378D01*
X0062809Y0099367D01*
X0062757Y0099351D01*
X0062706Y0099332D01*
X0062656Y0099309D01*
X0062608Y0099283D01*
X0062563Y0099254D01*
X0062519Y0099221D01*
X0062478Y0099186D01*
X0062439Y0099147D01*
X0062404Y0099106D01*
X0062371Y0099062D01*
X0062342Y0099017D01*
X0062316Y0098969D01*
X0062293Y0098919D01*
X0062274Y0098868D01*
X0062258Y0098816D01*
X0062247Y0098763D01*
X0062239Y0098709D01*
X0062235Y0098655D01*
X0048144Y0100229D02*
X0047604Y0100229D01*
X0047604Y0100230D02*
X0047600Y0100282D01*
X0047593Y0100333D01*
X0047582Y0100383D01*
X0047567Y0100433D01*
X0047549Y0100481D01*
X0047527Y0100528D01*
X0047502Y0100574D01*
X0047474Y0100617D01*
X0047443Y0100658D01*
X0047409Y0100698D01*
X0047373Y0100734D01*
X0047333Y0100768D01*
X0047292Y0100799D01*
X0047249Y0100827D01*
X0047203Y0100852D01*
X0047156Y0100874D01*
X0047108Y0100892D01*
X0047058Y0100907D01*
X0047008Y0100918D01*
X0046957Y0100925D01*
X0046905Y0100929D01*
X0046904Y0101469D01*
X0046905Y0101470D01*
X0046974Y0101466D01*
X0047043Y0101459D01*
X0047111Y0101448D01*
X0047178Y0101433D01*
X0047245Y0101415D01*
X0047311Y0101393D01*
X0047375Y0101368D01*
X0047438Y0101339D01*
X0047499Y0101306D01*
X0047558Y0101271D01*
X0047615Y0101232D01*
X0047670Y0101190D01*
X0047723Y0101146D01*
X0047773Y0101098D01*
X0047821Y0101048D01*
X0047865Y0100995D01*
X0047907Y0100940D01*
X0047946Y0100883D01*
X0047981Y0100824D01*
X0048014Y0100763D01*
X0048043Y0100700D01*
X0048068Y0100636D01*
X0048090Y0100570D01*
X0048108Y0100503D01*
X0048123Y0100436D01*
X0048134Y0100368D01*
X0048141Y0100299D01*
X0048145Y0100230D01*
X0048089Y0100230D01*
X0048085Y0100298D01*
X0048078Y0100366D01*
X0048066Y0100434D01*
X0048051Y0100500D01*
X0048032Y0100566D01*
X0048010Y0100631D01*
X0047984Y0100694D01*
X0047954Y0100756D01*
X0047921Y0100816D01*
X0047885Y0100874D01*
X0047845Y0100929D01*
X0047803Y0100983D01*
X0047757Y0101034D01*
X0047709Y0101082D01*
X0047658Y0101128D01*
X0047604Y0101170D01*
X0047549Y0101210D01*
X0047491Y0101246D01*
X0047431Y0101279D01*
X0047369Y0101309D01*
X0047306Y0101335D01*
X0047241Y0101357D01*
X0047175Y0101376D01*
X0047109Y0101391D01*
X0047041Y0101403D01*
X0046973Y0101410D01*
X0046905Y0101414D01*
X0046905Y0101358D01*
X0046973Y0101354D01*
X0047040Y0101346D01*
X0047106Y0101335D01*
X0047172Y0101319D01*
X0047237Y0101300D01*
X0047301Y0101277D01*
X0047363Y0101250D01*
X0047423Y0101220D01*
X0047482Y0101186D01*
X0047539Y0101149D01*
X0047593Y0101109D01*
X0047645Y0101065D01*
X0047694Y0101019D01*
X0047740Y0100970D01*
X0047784Y0100918D01*
X0047824Y0100864D01*
X0047861Y0100807D01*
X0047895Y0100748D01*
X0047925Y0100688D01*
X0047952Y0100626D01*
X0047975Y0100562D01*
X0047994Y0100497D01*
X0048010Y0100431D01*
X0048021Y0100365D01*
X0048029Y0100298D01*
X0048033Y0100230D01*
X0047977Y0100230D01*
X0047973Y0100294D01*
X0047966Y0100358D01*
X0047955Y0100421D01*
X0047940Y0100484D01*
X0047921Y0100545D01*
X0047900Y0100606D01*
X0047874Y0100665D01*
X0047845Y0100722D01*
X0047813Y0100778D01*
X0047778Y0100832D01*
X0047740Y0100883D01*
X0047698Y0100932D01*
X0047654Y0100979D01*
X0047607Y0101023D01*
X0047558Y0101065D01*
X0047507Y0101103D01*
X0047453Y0101138D01*
X0047397Y0101170D01*
X0047340Y0101199D01*
X0047281Y0101225D01*
X0047220Y0101246D01*
X0047159Y0101265D01*
X0047096Y0101280D01*
X0047033Y0101291D01*
X0046969Y0101298D01*
X0046905Y0101302D01*
X0046905Y0101246D01*
X0046968Y0101242D01*
X0047031Y0101234D01*
X0047093Y0101223D01*
X0047155Y0101208D01*
X0047215Y0101189D01*
X0047275Y0101167D01*
X0047332Y0101141D01*
X0047388Y0101111D01*
X0047443Y0101079D01*
X0047495Y0101043D01*
X0047545Y0101004D01*
X0047592Y0100962D01*
X0047637Y0100917D01*
X0047679Y0100870D01*
X0047718Y0100820D01*
X0047754Y0100768D01*
X0047786Y0100713D01*
X0047816Y0100657D01*
X0047842Y0100600D01*
X0047864Y0100540D01*
X0047883Y0100480D01*
X0047898Y0100418D01*
X0047909Y0100356D01*
X0047917Y0100293D01*
X0047921Y0100230D01*
X0047865Y0100230D01*
X0047861Y0100292D01*
X0047853Y0100354D01*
X0047841Y0100415D01*
X0047826Y0100475D01*
X0047807Y0100535D01*
X0047784Y0100593D01*
X0047757Y0100649D01*
X0047727Y0100704D01*
X0047694Y0100756D01*
X0047657Y0100807D01*
X0047618Y0100855D01*
X0047575Y0100900D01*
X0047530Y0100943D01*
X0047482Y0100982D01*
X0047431Y0101019D01*
X0047379Y0101052D01*
X0047324Y0101082D01*
X0047268Y0101109D01*
X0047210Y0101132D01*
X0047150Y0101151D01*
X0047090Y0101166D01*
X0047029Y0101178D01*
X0046967Y0101186D01*
X0046905Y0101190D01*
X0046905Y0101134D01*
X0046963Y0101130D01*
X0047022Y0101122D01*
X0047079Y0101111D01*
X0047136Y0101097D01*
X0047192Y0101079D01*
X0047246Y0101057D01*
X0047299Y0101032D01*
X0047351Y0101004D01*
X0047400Y0100972D01*
X0047448Y0100938D01*
X0047493Y0100901D01*
X0047535Y0100860D01*
X0047576Y0100818D01*
X0047613Y0100773D01*
X0047647Y0100725D01*
X0047679Y0100676D01*
X0047707Y0100624D01*
X0047732Y0100571D01*
X0047754Y0100517D01*
X0047772Y0100461D01*
X0047786Y0100404D01*
X0047797Y0100347D01*
X0047805Y0100288D01*
X0047809Y0100230D01*
X0047752Y0100230D01*
X0047749Y0100287D01*
X0047741Y0100344D01*
X0047730Y0100400D01*
X0047715Y0100456D01*
X0047696Y0100510D01*
X0047674Y0100563D01*
X0047649Y0100614D01*
X0047620Y0100664D01*
X0047589Y0100712D01*
X0047554Y0100757D01*
X0047516Y0100800D01*
X0047475Y0100841D01*
X0047432Y0100879D01*
X0047387Y0100914D01*
X0047339Y0100945D01*
X0047289Y0100974D01*
X0047238Y0100999D01*
X0047185Y0101021D01*
X0047131Y0101040D01*
X0047075Y0101055D01*
X0047019Y0101066D01*
X0046962Y0101074D01*
X0046905Y0101077D01*
X0046905Y0101021D01*
X0046961Y0101018D01*
X0047016Y0101010D01*
X0047071Y0100998D01*
X0047125Y0100983D01*
X0047178Y0100964D01*
X0047229Y0100942D01*
X0047278Y0100916D01*
X0047326Y0100887D01*
X0047372Y0100855D01*
X0047415Y0100819D01*
X0047456Y0100781D01*
X0047494Y0100740D01*
X0047530Y0100697D01*
X0047562Y0100651D01*
X0047591Y0100603D01*
X0047617Y0100554D01*
X0047639Y0100503D01*
X0047658Y0100450D01*
X0047673Y0100396D01*
X0047685Y0100341D01*
X0047693Y0100286D01*
X0047696Y0100230D01*
X0047640Y0100230D01*
X0047636Y0100284D01*
X0047628Y0100338D01*
X0047617Y0100391D01*
X0047601Y0100443D01*
X0047582Y0100494D01*
X0047559Y0100544D01*
X0047533Y0100592D01*
X0047504Y0100637D01*
X0047471Y0100681D01*
X0047436Y0100722D01*
X0047397Y0100761D01*
X0047356Y0100796D01*
X0047312Y0100829D01*
X0047267Y0100858D01*
X0047219Y0100884D01*
X0047169Y0100907D01*
X0047118Y0100926D01*
X0047066Y0100942D01*
X0047013Y0100953D01*
X0046959Y0100961D01*
X0046905Y0100965D01*
X0046904Y0091931D02*
X0046904Y0092471D01*
X0046905Y0092471D02*
X0046957Y0092475D01*
X0047008Y0092482D01*
X0047058Y0092493D01*
X0047108Y0092508D01*
X0047156Y0092526D01*
X0047203Y0092548D01*
X0047249Y0092573D01*
X0047292Y0092601D01*
X0047333Y0092632D01*
X0047373Y0092666D01*
X0047409Y0092702D01*
X0047443Y0092742D01*
X0047474Y0092783D01*
X0047502Y0092826D01*
X0047527Y0092872D01*
X0047549Y0092919D01*
X0047567Y0092967D01*
X0047582Y0093017D01*
X0047593Y0093067D01*
X0047600Y0093118D01*
X0047604Y0093170D01*
X0048144Y0093171D01*
X0048145Y0093170D01*
X0048141Y0093101D01*
X0048134Y0093032D01*
X0048123Y0092964D01*
X0048108Y0092897D01*
X0048090Y0092830D01*
X0048068Y0092764D01*
X0048043Y0092700D01*
X0048014Y0092637D01*
X0047981Y0092576D01*
X0047946Y0092517D01*
X0047907Y0092460D01*
X0047865Y0092405D01*
X0047821Y0092352D01*
X0047773Y0092302D01*
X0047723Y0092254D01*
X0047670Y0092210D01*
X0047615Y0092168D01*
X0047558Y0092129D01*
X0047499Y0092094D01*
X0047438Y0092061D01*
X0047375Y0092032D01*
X0047311Y0092007D01*
X0047245Y0091985D01*
X0047178Y0091967D01*
X0047111Y0091952D01*
X0047043Y0091941D01*
X0046974Y0091934D01*
X0046905Y0091930D01*
X0046905Y0091986D01*
X0046973Y0091990D01*
X0047041Y0091997D01*
X0047109Y0092009D01*
X0047175Y0092024D01*
X0047241Y0092043D01*
X0047306Y0092065D01*
X0047369Y0092091D01*
X0047431Y0092121D01*
X0047491Y0092154D01*
X0047549Y0092190D01*
X0047604Y0092230D01*
X0047658Y0092272D01*
X0047709Y0092318D01*
X0047757Y0092366D01*
X0047803Y0092417D01*
X0047845Y0092471D01*
X0047885Y0092526D01*
X0047921Y0092584D01*
X0047954Y0092644D01*
X0047984Y0092706D01*
X0048010Y0092769D01*
X0048032Y0092834D01*
X0048051Y0092900D01*
X0048066Y0092966D01*
X0048078Y0093034D01*
X0048085Y0093102D01*
X0048089Y0093170D01*
X0048033Y0093170D01*
X0048029Y0093102D01*
X0048021Y0093035D01*
X0048010Y0092969D01*
X0047994Y0092903D01*
X0047975Y0092838D01*
X0047952Y0092774D01*
X0047925Y0092712D01*
X0047895Y0092652D01*
X0047861Y0092593D01*
X0047824Y0092536D01*
X0047784Y0092482D01*
X0047740Y0092430D01*
X0047694Y0092381D01*
X0047645Y0092335D01*
X0047593Y0092291D01*
X0047539Y0092251D01*
X0047482Y0092214D01*
X0047423Y0092180D01*
X0047363Y0092150D01*
X0047301Y0092123D01*
X0047237Y0092100D01*
X0047172Y0092081D01*
X0047106Y0092065D01*
X0047040Y0092054D01*
X0046973Y0092046D01*
X0046905Y0092042D01*
X0046905Y0092098D01*
X0046969Y0092102D01*
X0047033Y0092109D01*
X0047096Y0092120D01*
X0047159Y0092135D01*
X0047220Y0092154D01*
X0047281Y0092175D01*
X0047340Y0092201D01*
X0047397Y0092230D01*
X0047453Y0092262D01*
X0047507Y0092297D01*
X0047558Y0092335D01*
X0047607Y0092377D01*
X0047654Y0092421D01*
X0047698Y0092468D01*
X0047740Y0092517D01*
X0047778Y0092568D01*
X0047813Y0092622D01*
X0047845Y0092678D01*
X0047874Y0092735D01*
X0047900Y0092794D01*
X0047921Y0092855D01*
X0047940Y0092916D01*
X0047955Y0092979D01*
X0047966Y0093042D01*
X0047973Y0093106D01*
X0047977Y0093170D01*
X0047921Y0093170D01*
X0047917Y0093107D01*
X0047909Y0093044D01*
X0047898Y0092982D01*
X0047883Y0092920D01*
X0047864Y0092860D01*
X0047842Y0092800D01*
X0047816Y0092743D01*
X0047786Y0092687D01*
X0047754Y0092632D01*
X0047718Y0092580D01*
X0047679Y0092530D01*
X0047637Y0092483D01*
X0047592Y0092438D01*
X0047545Y0092396D01*
X0047495Y0092357D01*
X0047443Y0092321D01*
X0047388Y0092289D01*
X0047332Y0092259D01*
X0047275Y0092233D01*
X0047215Y0092211D01*
X0047155Y0092192D01*
X0047093Y0092177D01*
X0047031Y0092166D01*
X0046968Y0092158D01*
X0046905Y0092154D01*
X0046905Y0092210D01*
X0046967Y0092214D01*
X0047029Y0092222D01*
X0047090Y0092234D01*
X0047150Y0092249D01*
X0047210Y0092268D01*
X0047268Y0092291D01*
X0047324Y0092318D01*
X0047379Y0092348D01*
X0047431Y0092381D01*
X0047482Y0092418D01*
X0047530Y0092457D01*
X0047575Y0092500D01*
X0047618Y0092545D01*
X0047657Y0092593D01*
X0047694Y0092644D01*
X0047727Y0092696D01*
X0047757Y0092751D01*
X0047784Y0092807D01*
X0047807Y0092865D01*
X0047826Y0092925D01*
X0047841Y0092985D01*
X0047853Y0093046D01*
X0047861Y0093108D01*
X0047865Y0093170D01*
X0047809Y0093170D01*
X0047805Y0093112D01*
X0047797Y0093053D01*
X0047786Y0092996D01*
X0047772Y0092939D01*
X0047754Y0092883D01*
X0047732Y0092829D01*
X0047707Y0092776D01*
X0047679Y0092724D01*
X0047647Y0092675D01*
X0047613Y0092627D01*
X0047576Y0092582D01*
X0047535Y0092540D01*
X0047493Y0092499D01*
X0047448Y0092462D01*
X0047400Y0092428D01*
X0047351Y0092396D01*
X0047299Y0092368D01*
X0047246Y0092343D01*
X0047192Y0092321D01*
X0047136Y0092303D01*
X0047079Y0092289D01*
X0047022Y0092278D01*
X0046963Y0092270D01*
X0046905Y0092266D01*
X0046905Y0092323D01*
X0046962Y0092326D01*
X0047019Y0092334D01*
X0047075Y0092345D01*
X0047131Y0092360D01*
X0047185Y0092379D01*
X0047238Y0092401D01*
X0047289Y0092426D01*
X0047339Y0092455D01*
X0047387Y0092486D01*
X0047432Y0092521D01*
X0047475Y0092559D01*
X0047516Y0092600D01*
X0047554Y0092643D01*
X0047589Y0092688D01*
X0047620Y0092736D01*
X0047649Y0092786D01*
X0047674Y0092837D01*
X0047696Y0092890D01*
X0047715Y0092944D01*
X0047730Y0093000D01*
X0047741Y0093056D01*
X0047749Y0093113D01*
X0047752Y0093170D01*
X0047696Y0093170D01*
X0047693Y0093114D01*
X0047685Y0093059D01*
X0047673Y0093004D01*
X0047658Y0092950D01*
X0047639Y0092897D01*
X0047617Y0092846D01*
X0047591Y0092797D01*
X0047562Y0092749D01*
X0047530Y0092703D01*
X0047494Y0092660D01*
X0047456Y0092619D01*
X0047415Y0092581D01*
X0047372Y0092545D01*
X0047326Y0092513D01*
X0047278Y0092484D01*
X0047229Y0092458D01*
X0047178Y0092436D01*
X0047125Y0092417D01*
X0047071Y0092402D01*
X0047016Y0092390D01*
X0046961Y0092382D01*
X0046905Y0092379D01*
X0046905Y0092435D01*
X0046959Y0092439D01*
X0047013Y0092447D01*
X0047066Y0092458D01*
X0047118Y0092474D01*
X0047169Y0092493D01*
X0047219Y0092516D01*
X0047267Y0092542D01*
X0047312Y0092571D01*
X0047356Y0092604D01*
X0047397Y0092639D01*
X0047436Y0092678D01*
X0047471Y0092719D01*
X0047504Y0092763D01*
X0047533Y0092808D01*
X0047559Y0092856D01*
X0047582Y0092906D01*
X0047601Y0092957D01*
X0047617Y0093009D01*
X0047628Y0093062D01*
X0047636Y0093116D01*
X0047640Y0093170D01*
X0048019Y0086904D02*
X0047479Y0086904D01*
X0047479Y0086905D02*
X0047475Y0086957D01*
X0047468Y0087008D01*
X0047457Y0087058D01*
X0047442Y0087108D01*
X0047424Y0087156D01*
X0047402Y0087203D01*
X0047377Y0087249D01*
X0047349Y0087292D01*
X0047318Y0087333D01*
X0047284Y0087373D01*
X0047248Y0087409D01*
X0047208Y0087443D01*
X0047167Y0087474D01*
X0047124Y0087502D01*
X0047078Y0087527D01*
X0047031Y0087549D01*
X0046983Y0087567D01*
X0046933Y0087582D01*
X0046883Y0087593D01*
X0046832Y0087600D01*
X0046780Y0087604D01*
X0046779Y0088144D01*
X0046780Y0088145D01*
X0046849Y0088141D01*
X0046918Y0088134D01*
X0046986Y0088123D01*
X0047053Y0088108D01*
X0047120Y0088090D01*
X0047186Y0088068D01*
X0047250Y0088043D01*
X0047313Y0088014D01*
X0047374Y0087981D01*
X0047433Y0087946D01*
X0047490Y0087907D01*
X0047545Y0087865D01*
X0047598Y0087821D01*
X0047648Y0087773D01*
X0047696Y0087723D01*
X0047740Y0087670D01*
X0047782Y0087615D01*
X0047821Y0087558D01*
X0047856Y0087499D01*
X0047889Y0087438D01*
X0047918Y0087375D01*
X0047943Y0087311D01*
X0047965Y0087245D01*
X0047983Y0087178D01*
X0047998Y0087111D01*
X0048009Y0087043D01*
X0048016Y0086974D01*
X0048020Y0086905D01*
X0047964Y0086905D01*
X0047960Y0086973D01*
X0047953Y0087041D01*
X0047941Y0087109D01*
X0047926Y0087175D01*
X0047907Y0087241D01*
X0047885Y0087306D01*
X0047859Y0087369D01*
X0047829Y0087431D01*
X0047796Y0087491D01*
X0047760Y0087549D01*
X0047720Y0087604D01*
X0047678Y0087658D01*
X0047632Y0087709D01*
X0047584Y0087757D01*
X0047533Y0087803D01*
X0047479Y0087845D01*
X0047424Y0087885D01*
X0047366Y0087921D01*
X0047306Y0087954D01*
X0047244Y0087984D01*
X0047181Y0088010D01*
X0047116Y0088032D01*
X0047050Y0088051D01*
X0046984Y0088066D01*
X0046916Y0088078D01*
X0046848Y0088085D01*
X0046780Y0088089D01*
X0046780Y0088033D01*
X0046848Y0088029D01*
X0046915Y0088021D01*
X0046981Y0088010D01*
X0047047Y0087994D01*
X0047112Y0087975D01*
X0047176Y0087952D01*
X0047238Y0087925D01*
X0047298Y0087895D01*
X0047357Y0087861D01*
X0047414Y0087824D01*
X0047468Y0087784D01*
X0047520Y0087740D01*
X0047569Y0087694D01*
X0047615Y0087645D01*
X0047659Y0087593D01*
X0047699Y0087539D01*
X0047736Y0087482D01*
X0047770Y0087423D01*
X0047800Y0087363D01*
X0047827Y0087301D01*
X0047850Y0087237D01*
X0047869Y0087172D01*
X0047885Y0087106D01*
X0047896Y0087040D01*
X0047904Y0086973D01*
X0047908Y0086905D01*
X0047852Y0086905D01*
X0047848Y0086969D01*
X0047841Y0087033D01*
X0047830Y0087096D01*
X0047815Y0087159D01*
X0047796Y0087220D01*
X0047775Y0087281D01*
X0047749Y0087340D01*
X0047720Y0087397D01*
X0047688Y0087453D01*
X0047653Y0087507D01*
X0047615Y0087558D01*
X0047573Y0087607D01*
X0047529Y0087654D01*
X0047482Y0087698D01*
X0047433Y0087740D01*
X0047382Y0087778D01*
X0047328Y0087813D01*
X0047272Y0087845D01*
X0047215Y0087874D01*
X0047156Y0087900D01*
X0047095Y0087921D01*
X0047034Y0087940D01*
X0046971Y0087955D01*
X0046908Y0087966D01*
X0046844Y0087973D01*
X0046780Y0087977D01*
X0046780Y0087921D01*
X0046843Y0087917D01*
X0046906Y0087909D01*
X0046968Y0087898D01*
X0047030Y0087883D01*
X0047090Y0087864D01*
X0047150Y0087842D01*
X0047207Y0087816D01*
X0047263Y0087786D01*
X0047318Y0087754D01*
X0047370Y0087718D01*
X0047420Y0087679D01*
X0047467Y0087637D01*
X0047512Y0087592D01*
X0047554Y0087545D01*
X0047593Y0087495D01*
X0047629Y0087443D01*
X0047661Y0087388D01*
X0047691Y0087332D01*
X0047717Y0087275D01*
X0047739Y0087215D01*
X0047758Y0087155D01*
X0047773Y0087093D01*
X0047784Y0087031D01*
X0047792Y0086968D01*
X0047796Y0086905D01*
X0047740Y0086905D01*
X0047736Y0086967D01*
X0047728Y0087029D01*
X0047716Y0087090D01*
X0047701Y0087150D01*
X0047682Y0087210D01*
X0047659Y0087268D01*
X0047632Y0087324D01*
X0047602Y0087379D01*
X0047569Y0087431D01*
X0047532Y0087482D01*
X0047493Y0087530D01*
X0047450Y0087575D01*
X0047405Y0087618D01*
X0047357Y0087657D01*
X0047306Y0087694D01*
X0047254Y0087727D01*
X0047199Y0087757D01*
X0047143Y0087784D01*
X0047085Y0087807D01*
X0047025Y0087826D01*
X0046965Y0087841D01*
X0046904Y0087853D01*
X0046842Y0087861D01*
X0046780Y0087865D01*
X0046780Y0087809D01*
X0046838Y0087805D01*
X0046897Y0087797D01*
X0046954Y0087786D01*
X0047011Y0087772D01*
X0047067Y0087754D01*
X0047121Y0087732D01*
X0047174Y0087707D01*
X0047226Y0087679D01*
X0047275Y0087647D01*
X0047323Y0087613D01*
X0047368Y0087576D01*
X0047410Y0087535D01*
X0047451Y0087493D01*
X0047488Y0087448D01*
X0047522Y0087400D01*
X0047554Y0087351D01*
X0047582Y0087299D01*
X0047607Y0087246D01*
X0047629Y0087192D01*
X0047647Y0087136D01*
X0047661Y0087079D01*
X0047672Y0087022D01*
X0047680Y0086963D01*
X0047684Y0086905D01*
X0047627Y0086905D01*
X0047624Y0086962D01*
X0047616Y0087019D01*
X0047605Y0087075D01*
X0047590Y0087131D01*
X0047571Y0087185D01*
X0047549Y0087238D01*
X0047524Y0087289D01*
X0047495Y0087339D01*
X0047464Y0087387D01*
X0047429Y0087432D01*
X0047391Y0087475D01*
X0047350Y0087516D01*
X0047307Y0087554D01*
X0047262Y0087589D01*
X0047214Y0087620D01*
X0047164Y0087649D01*
X0047113Y0087674D01*
X0047060Y0087696D01*
X0047006Y0087715D01*
X0046950Y0087730D01*
X0046894Y0087741D01*
X0046837Y0087749D01*
X0046780Y0087752D01*
X0046780Y0087696D01*
X0046836Y0087693D01*
X0046891Y0087685D01*
X0046946Y0087673D01*
X0047000Y0087658D01*
X0047053Y0087639D01*
X0047104Y0087617D01*
X0047153Y0087591D01*
X0047201Y0087562D01*
X0047247Y0087530D01*
X0047290Y0087494D01*
X0047331Y0087456D01*
X0047369Y0087415D01*
X0047405Y0087372D01*
X0047437Y0087326D01*
X0047466Y0087278D01*
X0047492Y0087229D01*
X0047514Y0087178D01*
X0047533Y0087125D01*
X0047548Y0087071D01*
X0047560Y0087016D01*
X0047568Y0086961D01*
X0047571Y0086905D01*
X0047515Y0086905D01*
X0047511Y0086959D01*
X0047503Y0087013D01*
X0047492Y0087066D01*
X0047476Y0087118D01*
X0047457Y0087169D01*
X0047434Y0087219D01*
X0047408Y0087267D01*
X0047379Y0087312D01*
X0047346Y0087356D01*
X0047311Y0087397D01*
X0047272Y0087436D01*
X0047231Y0087471D01*
X0047187Y0087504D01*
X0047142Y0087533D01*
X0047094Y0087559D01*
X0047044Y0087582D01*
X0046993Y0087601D01*
X0046941Y0087617D01*
X0046888Y0087628D01*
X0046834Y0087636D01*
X0046780Y0087640D01*
X0046779Y0078606D02*
X0046779Y0079146D01*
X0046780Y0079146D02*
X0046832Y0079150D01*
X0046883Y0079157D01*
X0046933Y0079168D01*
X0046983Y0079183D01*
X0047031Y0079201D01*
X0047078Y0079223D01*
X0047124Y0079248D01*
X0047167Y0079276D01*
X0047208Y0079307D01*
X0047248Y0079341D01*
X0047284Y0079377D01*
X0047318Y0079417D01*
X0047349Y0079458D01*
X0047377Y0079501D01*
X0047402Y0079547D01*
X0047424Y0079594D01*
X0047442Y0079642D01*
X0047457Y0079692D01*
X0047468Y0079742D01*
X0047475Y0079793D01*
X0047479Y0079845D01*
X0048019Y0079846D01*
X0048020Y0079845D01*
X0048016Y0079776D01*
X0048009Y0079707D01*
X0047998Y0079639D01*
X0047983Y0079572D01*
X0047965Y0079505D01*
X0047943Y0079439D01*
X0047918Y0079375D01*
X0047889Y0079312D01*
X0047856Y0079251D01*
X0047821Y0079192D01*
X0047782Y0079135D01*
X0047740Y0079080D01*
X0047696Y0079027D01*
X0047648Y0078977D01*
X0047598Y0078929D01*
X0047545Y0078885D01*
X0047490Y0078843D01*
X0047433Y0078804D01*
X0047374Y0078769D01*
X0047313Y0078736D01*
X0047250Y0078707D01*
X0047186Y0078682D01*
X0047120Y0078660D01*
X0047053Y0078642D01*
X0046986Y0078627D01*
X0046918Y0078616D01*
X0046849Y0078609D01*
X0046780Y0078605D01*
X0046780Y0078661D01*
X0046848Y0078665D01*
X0046916Y0078672D01*
X0046984Y0078684D01*
X0047050Y0078699D01*
X0047116Y0078718D01*
X0047181Y0078740D01*
X0047244Y0078766D01*
X0047306Y0078796D01*
X0047366Y0078829D01*
X0047424Y0078865D01*
X0047479Y0078905D01*
X0047533Y0078947D01*
X0047584Y0078993D01*
X0047632Y0079041D01*
X0047678Y0079092D01*
X0047720Y0079146D01*
X0047760Y0079201D01*
X0047796Y0079259D01*
X0047829Y0079319D01*
X0047859Y0079381D01*
X0047885Y0079444D01*
X0047907Y0079509D01*
X0047926Y0079575D01*
X0047941Y0079641D01*
X0047953Y0079709D01*
X0047960Y0079777D01*
X0047964Y0079845D01*
X0047908Y0079845D01*
X0047904Y0079777D01*
X0047896Y0079710D01*
X0047885Y0079644D01*
X0047869Y0079578D01*
X0047850Y0079513D01*
X0047827Y0079449D01*
X0047800Y0079387D01*
X0047770Y0079327D01*
X0047736Y0079268D01*
X0047699Y0079211D01*
X0047659Y0079157D01*
X0047615Y0079105D01*
X0047569Y0079056D01*
X0047520Y0079010D01*
X0047468Y0078966D01*
X0047414Y0078926D01*
X0047357Y0078889D01*
X0047298Y0078855D01*
X0047238Y0078825D01*
X0047176Y0078798D01*
X0047112Y0078775D01*
X0047047Y0078756D01*
X0046981Y0078740D01*
X0046915Y0078729D01*
X0046848Y0078721D01*
X0046780Y0078717D01*
X0046780Y0078773D01*
X0046844Y0078777D01*
X0046908Y0078784D01*
X0046971Y0078795D01*
X0047034Y0078810D01*
X0047095Y0078829D01*
X0047156Y0078850D01*
X0047215Y0078876D01*
X0047272Y0078905D01*
X0047328Y0078937D01*
X0047382Y0078972D01*
X0047433Y0079010D01*
X0047482Y0079052D01*
X0047529Y0079096D01*
X0047573Y0079143D01*
X0047615Y0079192D01*
X0047653Y0079243D01*
X0047688Y0079297D01*
X0047720Y0079353D01*
X0047749Y0079410D01*
X0047775Y0079469D01*
X0047796Y0079530D01*
X0047815Y0079591D01*
X0047830Y0079654D01*
X0047841Y0079717D01*
X0047848Y0079781D01*
X0047852Y0079845D01*
X0047796Y0079845D01*
X0047792Y0079782D01*
X0047784Y0079719D01*
X0047773Y0079657D01*
X0047758Y0079595D01*
X0047739Y0079535D01*
X0047717Y0079475D01*
X0047691Y0079418D01*
X0047661Y0079362D01*
X0047629Y0079307D01*
X0047593Y0079255D01*
X0047554Y0079205D01*
X0047512Y0079158D01*
X0047467Y0079113D01*
X0047420Y0079071D01*
X0047370Y0079032D01*
X0047318Y0078996D01*
X0047263Y0078964D01*
X0047207Y0078934D01*
X0047150Y0078908D01*
X0047090Y0078886D01*
X0047030Y0078867D01*
X0046968Y0078852D01*
X0046906Y0078841D01*
X0046843Y0078833D01*
X0046780Y0078829D01*
X0046780Y0078885D01*
X0046842Y0078889D01*
X0046904Y0078897D01*
X0046965Y0078909D01*
X0047025Y0078924D01*
X0047085Y0078943D01*
X0047143Y0078966D01*
X0047199Y0078993D01*
X0047254Y0079023D01*
X0047306Y0079056D01*
X0047357Y0079093D01*
X0047405Y0079132D01*
X0047450Y0079175D01*
X0047493Y0079220D01*
X0047532Y0079268D01*
X0047569Y0079319D01*
X0047602Y0079371D01*
X0047632Y0079426D01*
X0047659Y0079482D01*
X0047682Y0079540D01*
X0047701Y0079600D01*
X0047716Y0079660D01*
X0047728Y0079721D01*
X0047736Y0079783D01*
X0047740Y0079845D01*
X0047684Y0079845D01*
X0047680Y0079787D01*
X0047672Y0079728D01*
X0047661Y0079671D01*
X0047647Y0079614D01*
X0047629Y0079558D01*
X0047607Y0079504D01*
X0047582Y0079451D01*
X0047554Y0079399D01*
X0047522Y0079350D01*
X0047488Y0079302D01*
X0047451Y0079257D01*
X0047410Y0079215D01*
X0047368Y0079174D01*
X0047323Y0079137D01*
X0047275Y0079103D01*
X0047226Y0079071D01*
X0047174Y0079043D01*
X0047121Y0079018D01*
X0047067Y0078996D01*
X0047011Y0078978D01*
X0046954Y0078964D01*
X0046897Y0078953D01*
X0046838Y0078945D01*
X0046780Y0078941D01*
X0046780Y0078998D01*
X0046837Y0079001D01*
X0046894Y0079009D01*
X0046950Y0079020D01*
X0047006Y0079035D01*
X0047060Y0079054D01*
X0047113Y0079076D01*
X0047164Y0079101D01*
X0047214Y0079130D01*
X0047262Y0079161D01*
X0047307Y0079196D01*
X0047350Y0079234D01*
X0047391Y0079275D01*
X0047429Y0079318D01*
X0047464Y0079363D01*
X0047495Y0079411D01*
X0047524Y0079461D01*
X0047549Y0079512D01*
X0047571Y0079565D01*
X0047590Y0079619D01*
X0047605Y0079675D01*
X0047616Y0079731D01*
X0047624Y0079788D01*
X0047627Y0079845D01*
X0047571Y0079845D01*
X0047568Y0079789D01*
X0047560Y0079734D01*
X0047548Y0079679D01*
X0047533Y0079625D01*
X0047514Y0079572D01*
X0047492Y0079521D01*
X0047466Y0079472D01*
X0047437Y0079424D01*
X0047405Y0079378D01*
X0047369Y0079335D01*
X0047331Y0079294D01*
X0047290Y0079256D01*
X0047247Y0079220D01*
X0047201Y0079188D01*
X0047153Y0079159D01*
X0047104Y0079133D01*
X0047053Y0079111D01*
X0047000Y0079092D01*
X0046946Y0079077D01*
X0046891Y0079065D01*
X0046836Y0079057D01*
X0046780Y0079054D01*
X0046780Y0079110D01*
X0046834Y0079114D01*
X0046888Y0079122D01*
X0046941Y0079133D01*
X0046993Y0079149D01*
X0047044Y0079168D01*
X0047094Y0079191D01*
X0047142Y0079217D01*
X0047187Y0079246D01*
X0047231Y0079279D01*
X0047272Y0079314D01*
X0047311Y0079353D01*
X0047346Y0079394D01*
X0047379Y0079438D01*
X0047408Y0079483D01*
X0047434Y0079531D01*
X0047457Y0079581D01*
X0047476Y0079632D01*
X0047492Y0079684D01*
X0047503Y0079737D01*
X0047511Y0079791D01*
X0047515Y0079845D01*
X0022481Y0079846D02*
X0023021Y0079846D01*
X0023021Y0079845D02*
X0023025Y0079793D01*
X0023032Y0079742D01*
X0023043Y0079692D01*
X0023058Y0079642D01*
X0023076Y0079594D01*
X0023098Y0079547D01*
X0023123Y0079501D01*
X0023151Y0079458D01*
X0023182Y0079417D01*
X0023216Y0079377D01*
X0023252Y0079341D01*
X0023292Y0079307D01*
X0023333Y0079276D01*
X0023376Y0079248D01*
X0023422Y0079223D01*
X0023469Y0079201D01*
X0023517Y0079183D01*
X0023567Y0079168D01*
X0023617Y0079157D01*
X0023668Y0079150D01*
X0023720Y0079146D01*
X0023721Y0078606D01*
X0023720Y0078605D01*
X0023651Y0078609D01*
X0023582Y0078616D01*
X0023514Y0078627D01*
X0023447Y0078642D01*
X0023380Y0078660D01*
X0023314Y0078682D01*
X0023250Y0078707D01*
X0023187Y0078736D01*
X0023126Y0078769D01*
X0023067Y0078804D01*
X0023010Y0078843D01*
X0022955Y0078885D01*
X0022902Y0078929D01*
X0022852Y0078977D01*
X0022804Y0079027D01*
X0022760Y0079080D01*
X0022718Y0079135D01*
X0022679Y0079192D01*
X0022644Y0079251D01*
X0022611Y0079312D01*
X0022582Y0079375D01*
X0022557Y0079439D01*
X0022535Y0079505D01*
X0022517Y0079572D01*
X0022502Y0079639D01*
X0022491Y0079707D01*
X0022484Y0079776D01*
X0022480Y0079845D01*
X0022536Y0079845D01*
X0022540Y0079777D01*
X0022547Y0079709D01*
X0022559Y0079641D01*
X0022574Y0079575D01*
X0022593Y0079509D01*
X0022615Y0079444D01*
X0022641Y0079381D01*
X0022671Y0079319D01*
X0022704Y0079259D01*
X0022740Y0079201D01*
X0022780Y0079146D01*
X0022822Y0079092D01*
X0022868Y0079041D01*
X0022916Y0078993D01*
X0022967Y0078947D01*
X0023021Y0078905D01*
X0023076Y0078865D01*
X0023134Y0078829D01*
X0023194Y0078796D01*
X0023256Y0078766D01*
X0023319Y0078740D01*
X0023384Y0078718D01*
X0023450Y0078699D01*
X0023516Y0078684D01*
X0023584Y0078672D01*
X0023652Y0078665D01*
X0023720Y0078661D01*
X0023720Y0078717D01*
X0023652Y0078721D01*
X0023585Y0078729D01*
X0023519Y0078740D01*
X0023453Y0078756D01*
X0023388Y0078775D01*
X0023324Y0078798D01*
X0023262Y0078825D01*
X0023202Y0078855D01*
X0023143Y0078889D01*
X0023086Y0078926D01*
X0023032Y0078966D01*
X0022980Y0079010D01*
X0022931Y0079056D01*
X0022885Y0079105D01*
X0022841Y0079157D01*
X0022801Y0079211D01*
X0022764Y0079268D01*
X0022730Y0079327D01*
X0022700Y0079387D01*
X0022673Y0079449D01*
X0022650Y0079513D01*
X0022631Y0079578D01*
X0022615Y0079644D01*
X0022604Y0079710D01*
X0022596Y0079777D01*
X0022592Y0079845D01*
X0022648Y0079845D01*
X0022652Y0079781D01*
X0022659Y0079717D01*
X0022670Y0079654D01*
X0022685Y0079591D01*
X0022704Y0079530D01*
X0022725Y0079469D01*
X0022751Y0079410D01*
X0022780Y0079353D01*
X0022812Y0079297D01*
X0022847Y0079243D01*
X0022885Y0079192D01*
X0022927Y0079143D01*
X0022971Y0079096D01*
X0023018Y0079052D01*
X0023067Y0079010D01*
X0023118Y0078972D01*
X0023172Y0078937D01*
X0023228Y0078905D01*
X0023285Y0078876D01*
X0023344Y0078850D01*
X0023405Y0078829D01*
X0023466Y0078810D01*
X0023529Y0078795D01*
X0023592Y0078784D01*
X0023656Y0078777D01*
X0023720Y0078773D01*
X0023720Y0078829D01*
X0023657Y0078833D01*
X0023594Y0078841D01*
X0023532Y0078852D01*
X0023470Y0078867D01*
X0023410Y0078886D01*
X0023350Y0078908D01*
X0023293Y0078934D01*
X0023237Y0078964D01*
X0023182Y0078996D01*
X0023130Y0079032D01*
X0023080Y0079071D01*
X0023033Y0079113D01*
X0022988Y0079158D01*
X0022946Y0079205D01*
X0022907Y0079255D01*
X0022871Y0079307D01*
X0022839Y0079362D01*
X0022809Y0079418D01*
X0022783Y0079475D01*
X0022761Y0079535D01*
X0022742Y0079595D01*
X0022727Y0079657D01*
X0022716Y0079719D01*
X0022708Y0079782D01*
X0022704Y0079845D01*
X0022760Y0079845D01*
X0022764Y0079783D01*
X0022772Y0079721D01*
X0022784Y0079660D01*
X0022799Y0079600D01*
X0022818Y0079540D01*
X0022841Y0079482D01*
X0022868Y0079426D01*
X0022898Y0079371D01*
X0022931Y0079319D01*
X0022968Y0079268D01*
X0023007Y0079220D01*
X0023050Y0079175D01*
X0023095Y0079132D01*
X0023143Y0079093D01*
X0023194Y0079056D01*
X0023246Y0079023D01*
X0023301Y0078993D01*
X0023357Y0078966D01*
X0023415Y0078943D01*
X0023475Y0078924D01*
X0023535Y0078909D01*
X0023596Y0078897D01*
X0023658Y0078889D01*
X0023720Y0078885D01*
X0023720Y0078941D01*
X0023662Y0078945D01*
X0023603Y0078953D01*
X0023546Y0078964D01*
X0023489Y0078978D01*
X0023433Y0078996D01*
X0023379Y0079018D01*
X0023326Y0079043D01*
X0023274Y0079071D01*
X0023225Y0079103D01*
X0023177Y0079137D01*
X0023132Y0079174D01*
X0023090Y0079215D01*
X0023049Y0079257D01*
X0023012Y0079302D01*
X0022978Y0079350D01*
X0022946Y0079399D01*
X0022918Y0079451D01*
X0022893Y0079504D01*
X0022871Y0079558D01*
X0022853Y0079614D01*
X0022839Y0079671D01*
X0022828Y0079728D01*
X0022820Y0079787D01*
X0022816Y0079845D01*
X0022873Y0079845D01*
X0022876Y0079788D01*
X0022884Y0079731D01*
X0022895Y0079675D01*
X0022910Y0079619D01*
X0022929Y0079565D01*
X0022951Y0079512D01*
X0022976Y0079461D01*
X0023005Y0079411D01*
X0023036Y0079363D01*
X0023071Y0079318D01*
X0023109Y0079275D01*
X0023150Y0079234D01*
X0023193Y0079196D01*
X0023238Y0079161D01*
X0023286Y0079130D01*
X0023336Y0079101D01*
X0023387Y0079076D01*
X0023440Y0079054D01*
X0023494Y0079035D01*
X0023550Y0079020D01*
X0023606Y0079009D01*
X0023663Y0079001D01*
X0023720Y0078998D01*
X0023720Y0079054D01*
X0023664Y0079057D01*
X0023609Y0079065D01*
X0023554Y0079077D01*
X0023500Y0079092D01*
X0023447Y0079111D01*
X0023396Y0079133D01*
X0023347Y0079159D01*
X0023299Y0079188D01*
X0023253Y0079220D01*
X0023210Y0079256D01*
X0023169Y0079294D01*
X0023131Y0079335D01*
X0023095Y0079378D01*
X0023063Y0079424D01*
X0023034Y0079472D01*
X0023008Y0079521D01*
X0022986Y0079572D01*
X0022967Y0079625D01*
X0022952Y0079679D01*
X0022940Y0079734D01*
X0022932Y0079789D01*
X0022929Y0079845D01*
X0022985Y0079845D01*
X0022989Y0079791D01*
X0022997Y0079737D01*
X0023008Y0079684D01*
X0023024Y0079632D01*
X0023043Y0079581D01*
X0023066Y0079531D01*
X0023092Y0079483D01*
X0023121Y0079438D01*
X0023154Y0079394D01*
X0023189Y0079353D01*
X0023228Y0079314D01*
X0023269Y0079279D01*
X0023313Y0079246D01*
X0023358Y0079217D01*
X0023406Y0079191D01*
X0023456Y0079168D01*
X0023507Y0079149D01*
X0023559Y0079133D01*
X0023612Y0079122D01*
X0023666Y0079114D01*
X0023720Y0079110D01*
X0023721Y0088144D02*
X0023721Y0087604D01*
X0023720Y0087604D02*
X0023668Y0087600D01*
X0023617Y0087593D01*
X0023567Y0087582D01*
X0023517Y0087567D01*
X0023469Y0087549D01*
X0023422Y0087527D01*
X0023376Y0087502D01*
X0023333Y0087474D01*
X0023292Y0087443D01*
X0023252Y0087409D01*
X0023216Y0087373D01*
X0023182Y0087333D01*
X0023151Y0087292D01*
X0023123Y0087249D01*
X0023098Y0087203D01*
X0023076Y0087156D01*
X0023058Y0087108D01*
X0023043Y0087058D01*
X0023032Y0087008D01*
X0023025Y0086957D01*
X0023021Y0086905D01*
X0022481Y0086904D01*
X0022480Y0086905D01*
X0022484Y0086974D01*
X0022491Y0087043D01*
X0022502Y0087111D01*
X0022517Y0087178D01*
X0022535Y0087245D01*
X0022557Y0087311D01*
X0022582Y0087375D01*
X0022611Y0087438D01*
X0022644Y0087499D01*
X0022679Y0087558D01*
X0022718Y0087615D01*
X0022760Y0087670D01*
X0022804Y0087723D01*
X0022852Y0087773D01*
X0022902Y0087821D01*
X0022955Y0087865D01*
X0023010Y0087907D01*
X0023067Y0087946D01*
X0023126Y0087981D01*
X0023187Y0088014D01*
X0023250Y0088043D01*
X0023314Y0088068D01*
X0023380Y0088090D01*
X0023447Y0088108D01*
X0023514Y0088123D01*
X0023582Y0088134D01*
X0023651Y0088141D01*
X0023720Y0088145D01*
X0023720Y0088089D01*
X0023652Y0088085D01*
X0023584Y0088078D01*
X0023516Y0088066D01*
X0023450Y0088051D01*
X0023384Y0088032D01*
X0023319Y0088010D01*
X0023256Y0087984D01*
X0023194Y0087954D01*
X0023134Y0087921D01*
X0023076Y0087885D01*
X0023021Y0087845D01*
X0022967Y0087803D01*
X0022916Y0087757D01*
X0022868Y0087709D01*
X0022822Y0087658D01*
X0022780Y0087604D01*
X0022740Y0087549D01*
X0022704Y0087491D01*
X0022671Y0087431D01*
X0022641Y0087369D01*
X0022615Y0087306D01*
X0022593Y0087241D01*
X0022574Y0087175D01*
X0022559Y0087109D01*
X0022547Y0087041D01*
X0022540Y0086973D01*
X0022536Y0086905D01*
X0022592Y0086905D01*
X0022596Y0086973D01*
X0022604Y0087040D01*
X0022615Y0087106D01*
X0022631Y0087172D01*
X0022650Y0087237D01*
X0022673Y0087301D01*
X0022700Y0087363D01*
X0022730Y0087423D01*
X0022764Y0087482D01*
X0022801Y0087539D01*
X0022841Y0087593D01*
X0022885Y0087645D01*
X0022931Y0087694D01*
X0022980Y0087740D01*
X0023032Y0087784D01*
X0023086Y0087824D01*
X0023143Y0087861D01*
X0023202Y0087895D01*
X0023262Y0087925D01*
X0023324Y0087952D01*
X0023388Y0087975D01*
X0023453Y0087994D01*
X0023519Y0088010D01*
X0023585Y0088021D01*
X0023652Y0088029D01*
X0023720Y0088033D01*
X0023720Y0087977D01*
X0023656Y0087973D01*
X0023592Y0087966D01*
X0023529Y0087955D01*
X0023466Y0087940D01*
X0023405Y0087921D01*
X0023344Y0087900D01*
X0023285Y0087874D01*
X0023228Y0087845D01*
X0023172Y0087813D01*
X0023118Y0087778D01*
X0023067Y0087740D01*
X0023018Y0087698D01*
X0022971Y0087654D01*
X0022927Y0087607D01*
X0022885Y0087558D01*
X0022847Y0087507D01*
X0022812Y0087453D01*
X0022780Y0087397D01*
X0022751Y0087340D01*
X0022725Y0087281D01*
X0022704Y0087220D01*
X0022685Y0087159D01*
X0022670Y0087096D01*
X0022659Y0087033D01*
X0022652Y0086969D01*
X0022648Y0086905D01*
X0022704Y0086905D01*
X0022708Y0086968D01*
X0022716Y0087031D01*
X0022727Y0087093D01*
X0022742Y0087155D01*
X0022761Y0087215D01*
X0022783Y0087275D01*
X0022809Y0087332D01*
X0022839Y0087388D01*
X0022871Y0087443D01*
X0022907Y0087495D01*
X0022946Y0087545D01*
X0022988Y0087592D01*
X0023033Y0087637D01*
X0023080Y0087679D01*
X0023130Y0087718D01*
X0023182Y0087754D01*
X0023237Y0087786D01*
X0023293Y0087816D01*
X0023350Y0087842D01*
X0023410Y0087864D01*
X0023470Y0087883D01*
X0023532Y0087898D01*
X0023594Y0087909D01*
X0023657Y0087917D01*
X0023720Y0087921D01*
X0023720Y0087865D01*
X0023658Y0087861D01*
X0023596Y0087853D01*
X0023535Y0087841D01*
X0023475Y0087826D01*
X0023415Y0087807D01*
X0023357Y0087784D01*
X0023301Y0087757D01*
X0023246Y0087727D01*
X0023194Y0087694D01*
X0023143Y0087657D01*
X0023095Y0087618D01*
X0023050Y0087575D01*
X0023007Y0087530D01*
X0022968Y0087482D01*
X0022931Y0087431D01*
X0022898Y0087379D01*
X0022868Y0087324D01*
X0022841Y0087268D01*
X0022818Y0087210D01*
X0022799Y0087150D01*
X0022784Y0087090D01*
X0022772Y0087029D01*
X0022764Y0086967D01*
X0022760Y0086905D01*
X0022816Y0086905D01*
X0022820Y0086963D01*
X0022828Y0087022D01*
X0022839Y0087079D01*
X0022853Y0087136D01*
X0022871Y0087192D01*
X0022893Y0087246D01*
X0022918Y0087299D01*
X0022946Y0087351D01*
X0022978Y0087400D01*
X0023012Y0087448D01*
X0023049Y0087493D01*
X0023090Y0087535D01*
X0023132Y0087576D01*
X0023177Y0087613D01*
X0023225Y0087647D01*
X0023274Y0087679D01*
X0023326Y0087707D01*
X0023379Y0087732D01*
X0023433Y0087754D01*
X0023489Y0087772D01*
X0023546Y0087786D01*
X0023603Y0087797D01*
X0023662Y0087805D01*
X0023720Y0087809D01*
X0023720Y0087752D01*
X0023663Y0087749D01*
X0023606Y0087741D01*
X0023550Y0087730D01*
X0023494Y0087715D01*
X0023440Y0087696D01*
X0023387Y0087674D01*
X0023336Y0087649D01*
X0023286Y0087620D01*
X0023238Y0087589D01*
X0023193Y0087554D01*
X0023150Y0087516D01*
X0023109Y0087475D01*
X0023071Y0087432D01*
X0023036Y0087387D01*
X0023005Y0087339D01*
X0022976Y0087289D01*
X0022951Y0087238D01*
X0022929Y0087185D01*
X0022910Y0087131D01*
X0022895Y0087075D01*
X0022884Y0087019D01*
X0022876Y0086962D01*
X0022873Y0086905D01*
X0022929Y0086905D01*
X0022932Y0086961D01*
X0022940Y0087016D01*
X0022952Y0087071D01*
X0022967Y0087125D01*
X0022986Y0087178D01*
X0023008Y0087229D01*
X0023034Y0087278D01*
X0023063Y0087326D01*
X0023095Y0087372D01*
X0023131Y0087415D01*
X0023169Y0087456D01*
X0023210Y0087494D01*
X0023253Y0087530D01*
X0023299Y0087562D01*
X0023347Y0087591D01*
X0023396Y0087617D01*
X0023447Y0087639D01*
X0023500Y0087658D01*
X0023554Y0087673D01*
X0023609Y0087685D01*
X0023664Y0087693D01*
X0023720Y0087696D01*
X0023720Y0087640D01*
X0023666Y0087636D01*
X0023612Y0087628D01*
X0023559Y0087617D01*
X0023507Y0087601D01*
X0023456Y0087582D01*
X0023406Y0087559D01*
X0023358Y0087533D01*
X0023313Y0087504D01*
X0023269Y0087471D01*
X0023228Y0087436D01*
X0023189Y0087397D01*
X0023154Y0087356D01*
X0023121Y0087312D01*
X0023092Y0087267D01*
X0023066Y0087219D01*
X0023043Y0087169D01*
X0023024Y0087118D01*
X0023008Y0087066D01*
X0022997Y0087013D01*
X0022989Y0086959D01*
X0022985Y0086905D01*
X0022606Y0093171D02*
X0023146Y0093171D01*
X0023146Y0093170D02*
X0023150Y0093118D01*
X0023157Y0093067D01*
X0023168Y0093017D01*
X0023183Y0092967D01*
X0023201Y0092919D01*
X0023223Y0092872D01*
X0023248Y0092826D01*
X0023276Y0092783D01*
X0023307Y0092742D01*
X0023341Y0092702D01*
X0023377Y0092666D01*
X0023417Y0092632D01*
X0023458Y0092601D01*
X0023501Y0092573D01*
X0023547Y0092548D01*
X0023594Y0092526D01*
X0023642Y0092508D01*
X0023692Y0092493D01*
X0023742Y0092482D01*
X0023793Y0092475D01*
X0023845Y0092471D01*
X0023846Y0091931D01*
X0023845Y0091930D01*
X0023776Y0091934D01*
X0023707Y0091941D01*
X0023639Y0091952D01*
X0023572Y0091967D01*
X0023505Y0091985D01*
X0023439Y0092007D01*
X0023375Y0092032D01*
X0023312Y0092061D01*
X0023251Y0092094D01*
X0023192Y0092129D01*
X0023135Y0092168D01*
X0023080Y0092210D01*
X0023027Y0092254D01*
X0022977Y0092302D01*
X0022929Y0092352D01*
X0022885Y0092405D01*
X0022843Y0092460D01*
X0022804Y0092517D01*
X0022769Y0092576D01*
X0022736Y0092637D01*
X0022707Y0092700D01*
X0022682Y0092764D01*
X0022660Y0092830D01*
X0022642Y0092897D01*
X0022627Y0092964D01*
X0022616Y0093032D01*
X0022609Y0093101D01*
X0022605Y0093170D01*
X0022661Y0093170D01*
X0022665Y0093102D01*
X0022672Y0093034D01*
X0022684Y0092966D01*
X0022699Y0092900D01*
X0022718Y0092834D01*
X0022740Y0092769D01*
X0022766Y0092706D01*
X0022796Y0092644D01*
X0022829Y0092584D01*
X0022865Y0092526D01*
X0022905Y0092471D01*
X0022947Y0092417D01*
X0022993Y0092366D01*
X0023041Y0092318D01*
X0023092Y0092272D01*
X0023146Y0092230D01*
X0023201Y0092190D01*
X0023259Y0092154D01*
X0023319Y0092121D01*
X0023381Y0092091D01*
X0023444Y0092065D01*
X0023509Y0092043D01*
X0023575Y0092024D01*
X0023641Y0092009D01*
X0023709Y0091997D01*
X0023777Y0091990D01*
X0023845Y0091986D01*
X0023845Y0092042D01*
X0023777Y0092046D01*
X0023710Y0092054D01*
X0023644Y0092065D01*
X0023578Y0092081D01*
X0023513Y0092100D01*
X0023449Y0092123D01*
X0023387Y0092150D01*
X0023327Y0092180D01*
X0023268Y0092214D01*
X0023211Y0092251D01*
X0023157Y0092291D01*
X0023105Y0092335D01*
X0023056Y0092381D01*
X0023010Y0092430D01*
X0022966Y0092482D01*
X0022926Y0092536D01*
X0022889Y0092593D01*
X0022855Y0092652D01*
X0022825Y0092712D01*
X0022798Y0092774D01*
X0022775Y0092838D01*
X0022756Y0092903D01*
X0022740Y0092969D01*
X0022729Y0093035D01*
X0022721Y0093102D01*
X0022717Y0093170D01*
X0022773Y0093170D01*
X0022777Y0093106D01*
X0022784Y0093042D01*
X0022795Y0092979D01*
X0022810Y0092916D01*
X0022829Y0092855D01*
X0022850Y0092794D01*
X0022876Y0092735D01*
X0022905Y0092678D01*
X0022937Y0092622D01*
X0022972Y0092568D01*
X0023010Y0092517D01*
X0023052Y0092468D01*
X0023096Y0092421D01*
X0023143Y0092377D01*
X0023192Y0092335D01*
X0023243Y0092297D01*
X0023297Y0092262D01*
X0023353Y0092230D01*
X0023410Y0092201D01*
X0023469Y0092175D01*
X0023530Y0092154D01*
X0023591Y0092135D01*
X0023654Y0092120D01*
X0023717Y0092109D01*
X0023781Y0092102D01*
X0023845Y0092098D01*
X0023845Y0092154D01*
X0023782Y0092158D01*
X0023719Y0092166D01*
X0023657Y0092177D01*
X0023595Y0092192D01*
X0023535Y0092211D01*
X0023475Y0092233D01*
X0023418Y0092259D01*
X0023362Y0092289D01*
X0023307Y0092321D01*
X0023255Y0092357D01*
X0023205Y0092396D01*
X0023158Y0092438D01*
X0023113Y0092483D01*
X0023071Y0092530D01*
X0023032Y0092580D01*
X0022996Y0092632D01*
X0022964Y0092687D01*
X0022934Y0092743D01*
X0022908Y0092800D01*
X0022886Y0092860D01*
X0022867Y0092920D01*
X0022852Y0092982D01*
X0022841Y0093044D01*
X0022833Y0093107D01*
X0022829Y0093170D01*
X0022885Y0093170D01*
X0022889Y0093108D01*
X0022897Y0093046D01*
X0022909Y0092985D01*
X0022924Y0092925D01*
X0022943Y0092865D01*
X0022966Y0092807D01*
X0022993Y0092751D01*
X0023023Y0092696D01*
X0023056Y0092644D01*
X0023093Y0092593D01*
X0023132Y0092545D01*
X0023175Y0092500D01*
X0023220Y0092457D01*
X0023268Y0092418D01*
X0023319Y0092381D01*
X0023371Y0092348D01*
X0023426Y0092318D01*
X0023482Y0092291D01*
X0023540Y0092268D01*
X0023600Y0092249D01*
X0023660Y0092234D01*
X0023721Y0092222D01*
X0023783Y0092214D01*
X0023845Y0092210D01*
X0023845Y0092266D01*
X0023787Y0092270D01*
X0023728Y0092278D01*
X0023671Y0092289D01*
X0023614Y0092303D01*
X0023558Y0092321D01*
X0023504Y0092343D01*
X0023451Y0092368D01*
X0023399Y0092396D01*
X0023350Y0092428D01*
X0023302Y0092462D01*
X0023257Y0092499D01*
X0023215Y0092540D01*
X0023174Y0092582D01*
X0023137Y0092627D01*
X0023103Y0092675D01*
X0023071Y0092724D01*
X0023043Y0092776D01*
X0023018Y0092829D01*
X0022996Y0092883D01*
X0022978Y0092939D01*
X0022964Y0092996D01*
X0022953Y0093053D01*
X0022945Y0093112D01*
X0022941Y0093170D01*
X0022998Y0093170D01*
X0023001Y0093113D01*
X0023009Y0093056D01*
X0023020Y0093000D01*
X0023035Y0092944D01*
X0023054Y0092890D01*
X0023076Y0092837D01*
X0023101Y0092786D01*
X0023130Y0092736D01*
X0023161Y0092688D01*
X0023196Y0092643D01*
X0023234Y0092600D01*
X0023275Y0092559D01*
X0023318Y0092521D01*
X0023363Y0092486D01*
X0023411Y0092455D01*
X0023461Y0092426D01*
X0023512Y0092401D01*
X0023565Y0092379D01*
X0023619Y0092360D01*
X0023675Y0092345D01*
X0023731Y0092334D01*
X0023788Y0092326D01*
X0023845Y0092323D01*
X0023845Y0092379D01*
X0023789Y0092382D01*
X0023734Y0092390D01*
X0023679Y0092402D01*
X0023625Y0092417D01*
X0023572Y0092436D01*
X0023521Y0092458D01*
X0023472Y0092484D01*
X0023424Y0092513D01*
X0023378Y0092545D01*
X0023335Y0092581D01*
X0023294Y0092619D01*
X0023256Y0092660D01*
X0023220Y0092703D01*
X0023188Y0092749D01*
X0023159Y0092797D01*
X0023133Y0092846D01*
X0023111Y0092897D01*
X0023092Y0092950D01*
X0023077Y0093004D01*
X0023065Y0093059D01*
X0023057Y0093114D01*
X0023054Y0093170D01*
X0023110Y0093170D01*
X0023114Y0093116D01*
X0023122Y0093062D01*
X0023133Y0093009D01*
X0023149Y0092957D01*
X0023168Y0092906D01*
X0023191Y0092856D01*
X0023217Y0092808D01*
X0023246Y0092763D01*
X0023279Y0092719D01*
X0023314Y0092678D01*
X0023353Y0092639D01*
X0023394Y0092604D01*
X0023438Y0092571D01*
X0023483Y0092542D01*
X0023531Y0092516D01*
X0023581Y0092493D01*
X0023632Y0092474D01*
X0023684Y0092458D01*
X0023737Y0092447D01*
X0023791Y0092439D01*
X0023845Y0092435D01*
X0023846Y0101469D02*
X0023846Y0100929D01*
X0023845Y0100929D02*
X0023793Y0100925D01*
X0023742Y0100918D01*
X0023692Y0100907D01*
X0023642Y0100892D01*
X0023594Y0100874D01*
X0023547Y0100852D01*
X0023501Y0100827D01*
X0023458Y0100799D01*
X0023417Y0100768D01*
X0023377Y0100734D01*
X0023341Y0100698D01*
X0023307Y0100658D01*
X0023276Y0100617D01*
X0023248Y0100574D01*
X0023223Y0100528D01*
X0023201Y0100481D01*
X0023183Y0100433D01*
X0023168Y0100383D01*
X0023157Y0100333D01*
X0023150Y0100282D01*
X0023146Y0100230D01*
X0022606Y0100229D01*
X0022605Y0100230D01*
X0022609Y0100299D01*
X0022616Y0100368D01*
X0022627Y0100436D01*
X0022642Y0100503D01*
X0022660Y0100570D01*
X0022682Y0100636D01*
X0022707Y0100700D01*
X0022736Y0100763D01*
X0022769Y0100824D01*
X0022804Y0100883D01*
X0022843Y0100940D01*
X0022885Y0100995D01*
X0022929Y0101048D01*
X0022977Y0101098D01*
X0023027Y0101146D01*
X0023080Y0101190D01*
X0023135Y0101232D01*
X0023192Y0101271D01*
X0023251Y0101306D01*
X0023312Y0101339D01*
X0023375Y0101368D01*
X0023439Y0101393D01*
X0023505Y0101415D01*
X0023572Y0101433D01*
X0023639Y0101448D01*
X0023707Y0101459D01*
X0023776Y0101466D01*
X0023845Y0101470D01*
X0023845Y0101414D01*
X0023777Y0101410D01*
X0023709Y0101403D01*
X0023641Y0101391D01*
X0023575Y0101376D01*
X0023509Y0101357D01*
X0023444Y0101335D01*
X0023381Y0101309D01*
X0023319Y0101279D01*
X0023259Y0101246D01*
X0023201Y0101210D01*
X0023146Y0101170D01*
X0023092Y0101128D01*
X0023041Y0101082D01*
X0022993Y0101034D01*
X0022947Y0100983D01*
X0022905Y0100929D01*
X0022865Y0100874D01*
X0022829Y0100816D01*
X0022796Y0100756D01*
X0022766Y0100694D01*
X0022740Y0100631D01*
X0022718Y0100566D01*
X0022699Y0100500D01*
X0022684Y0100434D01*
X0022672Y0100366D01*
X0022665Y0100298D01*
X0022661Y0100230D01*
X0022717Y0100230D01*
X0022721Y0100298D01*
X0022729Y0100365D01*
X0022740Y0100431D01*
X0022756Y0100497D01*
X0022775Y0100562D01*
X0022798Y0100626D01*
X0022825Y0100688D01*
X0022855Y0100748D01*
X0022889Y0100807D01*
X0022926Y0100864D01*
X0022966Y0100918D01*
X0023010Y0100970D01*
X0023056Y0101019D01*
X0023105Y0101065D01*
X0023157Y0101109D01*
X0023211Y0101149D01*
X0023268Y0101186D01*
X0023327Y0101220D01*
X0023387Y0101250D01*
X0023449Y0101277D01*
X0023513Y0101300D01*
X0023578Y0101319D01*
X0023644Y0101335D01*
X0023710Y0101346D01*
X0023777Y0101354D01*
X0023845Y0101358D01*
X0023845Y0101302D01*
X0023781Y0101298D01*
X0023717Y0101291D01*
X0023654Y0101280D01*
X0023591Y0101265D01*
X0023530Y0101246D01*
X0023469Y0101225D01*
X0023410Y0101199D01*
X0023353Y0101170D01*
X0023297Y0101138D01*
X0023243Y0101103D01*
X0023192Y0101065D01*
X0023143Y0101023D01*
X0023096Y0100979D01*
X0023052Y0100932D01*
X0023010Y0100883D01*
X0022972Y0100832D01*
X0022937Y0100778D01*
X0022905Y0100722D01*
X0022876Y0100665D01*
X0022850Y0100606D01*
X0022829Y0100545D01*
X0022810Y0100484D01*
X0022795Y0100421D01*
X0022784Y0100358D01*
X0022777Y0100294D01*
X0022773Y0100230D01*
X0022829Y0100230D01*
X0022833Y0100293D01*
X0022841Y0100356D01*
X0022852Y0100418D01*
X0022867Y0100480D01*
X0022886Y0100540D01*
X0022908Y0100600D01*
X0022934Y0100657D01*
X0022964Y0100713D01*
X0022996Y0100768D01*
X0023032Y0100820D01*
X0023071Y0100870D01*
X0023113Y0100917D01*
X0023158Y0100962D01*
X0023205Y0101004D01*
X0023255Y0101043D01*
X0023307Y0101079D01*
X0023362Y0101111D01*
X0023418Y0101141D01*
X0023475Y0101167D01*
X0023535Y0101189D01*
X0023595Y0101208D01*
X0023657Y0101223D01*
X0023719Y0101234D01*
X0023782Y0101242D01*
X0023845Y0101246D01*
X0023845Y0101190D01*
X0023783Y0101186D01*
X0023721Y0101178D01*
X0023660Y0101166D01*
X0023600Y0101151D01*
X0023540Y0101132D01*
X0023482Y0101109D01*
X0023426Y0101082D01*
X0023371Y0101052D01*
X0023319Y0101019D01*
X0023268Y0100982D01*
X0023220Y0100943D01*
X0023175Y0100900D01*
X0023132Y0100855D01*
X0023093Y0100807D01*
X0023056Y0100756D01*
X0023023Y0100704D01*
X0022993Y0100649D01*
X0022966Y0100593D01*
X0022943Y0100535D01*
X0022924Y0100475D01*
X0022909Y0100415D01*
X0022897Y0100354D01*
X0022889Y0100292D01*
X0022885Y0100230D01*
X0022941Y0100230D01*
X0022945Y0100288D01*
X0022953Y0100347D01*
X0022964Y0100404D01*
X0022978Y0100461D01*
X0022996Y0100517D01*
X0023018Y0100571D01*
X0023043Y0100624D01*
X0023071Y0100676D01*
X0023103Y0100725D01*
X0023137Y0100773D01*
X0023174Y0100818D01*
X0023215Y0100860D01*
X0023257Y0100901D01*
X0023302Y0100938D01*
X0023350Y0100972D01*
X0023399Y0101004D01*
X0023451Y0101032D01*
X0023504Y0101057D01*
X0023558Y0101079D01*
X0023614Y0101097D01*
X0023671Y0101111D01*
X0023728Y0101122D01*
X0023787Y0101130D01*
X0023845Y0101134D01*
X0023845Y0101077D01*
X0023788Y0101074D01*
X0023731Y0101066D01*
X0023675Y0101055D01*
X0023619Y0101040D01*
X0023565Y0101021D01*
X0023512Y0100999D01*
X0023461Y0100974D01*
X0023411Y0100945D01*
X0023363Y0100914D01*
X0023318Y0100879D01*
X0023275Y0100841D01*
X0023234Y0100800D01*
X0023196Y0100757D01*
X0023161Y0100712D01*
X0023130Y0100664D01*
X0023101Y0100614D01*
X0023076Y0100563D01*
X0023054Y0100510D01*
X0023035Y0100456D01*
X0023020Y0100400D01*
X0023009Y0100344D01*
X0023001Y0100287D01*
X0022998Y0100230D01*
X0023054Y0100230D01*
X0023057Y0100286D01*
X0023065Y0100341D01*
X0023077Y0100396D01*
X0023092Y0100450D01*
X0023111Y0100503D01*
X0023133Y0100554D01*
X0023159Y0100603D01*
X0023188Y0100651D01*
X0023220Y0100697D01*
X0023256Y0100740D01*
X0023294Y0100781D01*
X0023335Y0100819D01*
X0023378Y0100855D01*
X0023424Y0100887D01*
X0023472Y0100916D01*
X0023521Y0100942D01*
X0023572Y0100964D01*
X0023625Y0100983D01*
X0023679Y0100998D01*
X0023734Y0101010D01*
X0023789Y0101018D01*
X0023845Y0101021D01*
X0023845Y0100965D01*
X0023791Y0100961D01*
X0023737Y0100953D01*
X0023684Y0100942D01*
X0023632Y0100926D01*
X0023581Y0100907D01*
X0023531Y0100884D01*
X0023483Y0100858D01*
X0023438Y0100829D01*
X0023394Y0100796D01*
X0023353Y0100761D01*
X0023314Y0100722D01*
X0023279Y0100681D01*
X0023246Y0100637D01*
X0023217Y0100592D01*
X0023191Y0100544D01*
X0023168Y0100494D01*
X0023149Y0100443D01*
X0023133Y0100391D01*
X0023122Y0100338D01*
X0023114Y0100284D01*
X0023110Y0100230D01*
D12*
X0023875Y0101200D02*
X0025375Y0101200D01*
X0025875Y0100700D01*
X0044875Y0100700D01*
X0045375Y0101200D01*
X0046875Y0101200D01*
X0044875Y0092700D02*
X0025875Y0092700D01*
X0025375Y0092200D01*
X0023875Y0092200D01*
X0023750Y0087875D02*
X0025250Y0087875D01*
X0025750Y0087375D01*
X0044750Y0087375D01*
X0045250Y0087875D01*
X0046750Y0087875D01*
X0046875Y0092200D02*
X0045375Y0092200D01*
X0044875Y0092700D01*
X0044750Y0079375D02*
X0025750Y0079375D01*
X0025250Y0078875D01*
X0023750Y0078875D01*
X0044750Y0079375D02*
X0045250Y0078875D01*
X0046750Y0078875D01*
X0063000Y0090625D02*
X0064500Y0090625D01*
X0065000Y0091125D01*
X0084000Y0091125D01*
X0084500Y0090625D01*
X0086000Y0090625D01*
X0085938Y0083813D02*
X0087437Y0083813D01*
X0087937Y0083313D01*
X0106937Y0083313D01*
X0107437Y0083813D01*
X0108937Y0083813D01*
X0106937Y0075313D02*
X0087937Y0075313D01*
X0087437Y0074813D01*
X0085938Y0074813D01*
X0073625Y0069504D02*
X0073625Y0085996D01*
X0068125Y0086623D02*
X0068125Y0088202D01*
X0068125Y0078877D02*
X0068125Y0076623D01*
X0068125Y0068877D02*
X0068125Y0067298D01*
X0085938Y0063500D02*
X0087437Y0063500D01*
X0087937Y0063000D01*
X0106937Y0063000D01*
X0107437Y0063500D01*
X0108937Y0063500D01*
X0106937Y0055000D02*
X0087937Y0055000D01*
X0087437Y0054500D01*
X0085938Y0054500D01*
X0106937Y0055000D02*
X0107437Y0054500D01*
X0108937Y0054500D01*
X0108937Y0074813D02*
X0107437Y0074813D01*
X0106937Y0075313D01*
X0086000Y0099625D02*
X0084500Y0099625D01*
X0084000Y0099125D01*
X0065000Y0099125D01*
X0064500Y0099625D01*
X0063000Y0099625D01*
X0047375Y0058500D02*
X0045875Y0058500D01*
X0045375Y0058000D01*
X0026375Y0058000D01*
X0025875Y0058500D01*
X0024375Y0058500D01*
X0026375Y0050000D02*
X0045375Y0050000D01*
X0045875Y0049500D01*
X0047375Y0049500D01*
X0026375Y0050000D02*
X0025875Y0049500D01*
X0024375Y0049500D01*
D13*
X0015958Y0051875D02*
X0015958Y0056379D01*
X0013706Y0056379D01*
X0012955Y0055628D01*
X0012955Y0054127D01*
X0013706Y0053376D01*
X0015958Y0053376D01*
X0014457Y0053376D02*
X0012955Y0051875D01*
X0011354Y0051875D02*
X0008351Y0054878D01*
X0008351Y0055628D01*
X0009102Y0056379D01*
X0010603Y0056379D01*
X0011354Y0055628D01*
X0011354Y0051875D02*
X0008351Y0051875D01*
X0007726Y0081125D02*
X0010729Y0081125D01*
X0009228Y0081125D02*
X0009228Y0085629D01*
X0010729Y0084128D01*
X0012330Y0084878D02*
X0012330Y0083377D01*
X0013081Y0082626D01*
X0015333Y0082626D01*
X0015333Y0081125D02*
X0015333Y0085629D01*
X0013081Y0085629D01*
X0012330Y0084878D01*
X0013832Y0082626D02*
X0012330Y0081125D01*
X0012330Y0094075D02*
X0013832Y0095576D01*
X0013081Y0095576D02*
X0012330Y0096327D01*
X0012330Y0097828D01*
X0013081Y0098579D01*
X0015333Y0098579D01*
X0015333Y0094075D01*
X0015333Y0095576D02*
X0013081Y0095576D01*
X0010729Y0096327D02*
X0010729Y0094826D01*
X0009978Y0094075D01*
X0008477Y0094075D01*
X0007726Y0094826D01*
X0007726Y0095576D01*
X0008477Y0096327D01*
X0010729Y0096327D01*
X0009228Y0097828D01*
X0007726Y0098579D01*
X0064726Y0059875D02*
X0067729Y0059875D01*
X0066228Y0059875D02*
X0066228Y0064379D01*
X0067729Y0062878D01*
X0069330Y0063628D02*
X0070081Y0064379D01*
X0071582Y0064379D01*
X0072333Y0063628D01*
X0072333Y0060626D01*
X0071582Y0059875D01*
X0070081Y0059875D01*
X0069330Y0060626D01*
X0069330Y0063628D01*
X0070832Y0061376D02*
X0069330Y0059875D01*
X0093831Y0067002D02*
X0096834Y0067002D01*
X0094582Y0069254D01*
X0094582Y0064750D01*
X0098435Y0064750D02*
X0099936Y0066251D01*
X0099186Y0066251D02*
X0098435Y0067002D01*
X0098435Y0068503D01*
X0099186Y0069254D01*
X0101437Y0069254D01*
X0101437Y0064750D01*
X0101437Y0066251D02*
X0099186Y0066251D01*
X0097810Y0085063D02*
X0099311Y0086564D01*
X0098561Y0086564D02*
X0100812Y0086564D01*
X0100812Y0085063D02*
X0100812Y0089566D01*
X0098561Y0089566D01*
X0097810Y0088816D01*
X0097810Y0087314D01*
X0098561Y0086564D01*
X0096209Y0085813D02*
X0095458Y0085063D01*
X0093957Y0085063D01*
X0093206Y0085813D01*
X0093206Y0086564D01*
X0093957Y0087314D01*
X0094707Y0087314D01*
X0093957Y0087314D02*
X0093206Y0088065D01*
X0093206Y0088816D01*
X0093957Y0089566D01*
X0095458Y0089566D01*
X0096209Y0088816D01*
X0082125Y0089254D02*
X0082125Y0084750D01*
X0082125Y0086251D02*
X0079873Y0086251D01*
X0079122Y0087002D01*
X0079122Y0088503D01*
X0079873Y0089254D01*
X0082125Y0089254D01*
X0080624Y0086251D02*
X0079122Y0084750D01*
X0077521Y0085501D02*
X0076770Y0084750D01*
X0075269Y0084750D01*
X0074519Y0085501D01*
X0074519Y0087002D01*
X0075269Y0087753D01*
X0076020Y0087753D01*
X0077521Y0087002D01*
X0077521Y0089254D01*
X0074519Y0089254D01*
M02*
